%TF.GenerationSoftware,KiCad,Pcbnew,(5.1.12)-1*%
%TF.CreationDate,2022-03-05T19:22:20+03:30*%
%TF.ProjectId,JKB67,4a4b4236-372e-46b6-9963-61645f706362,rev?*%
%TF.SameCoordinates,Original*%
%TF.FileFunction,Soldermask,Bot*%
%TF.FilePolarity,Negative*%
%FSLAX46Y46*%
G04 Gerber Fmt 4.6, Leading zero omitted, Abs format (unit mm)*
G04 Created by KiCad (PCBNEW (5.1.12)-1) date 2022-03-05 19:22:20*
%MOMM*%
%LPD*%
G01*
G04 APERTURE LIST*
%ADD10R,1.800000X0.900000*%
%ADD11R,2.550000X2.500000*%
%ADD12C,3.000000*%
%ADD13C,1.750000*%
%ADD14C,4.000000*%
%ADD15C,3.987800*%
%ADD16C,3.048000*%
%ADD17R,2.200000X1.200000*%
%ADD18R,1.550000X0.600000*%
%ADD19R,1.500000X0.550000*%
%ADD20R,0.550000X1.500000*%
%ADD21R,1.100000X1.100000*%
%ADD22R,1.200000X1.400000*%
G04 APERTURE END LIST*
D10*
%TO.C,U72*%
X355812000Y-170049000D03*
X355812000Y-168549000D03*
X350612000Y-170049000D03*
X350612000Y-168549000D03*
D11*
X359227000Y-159169000D03*
X345802000Y-161709000D03*
D12*
X355752000Y-159169000D03*
X349402000Y-161709000D03*
D13*
X358292000Y-164249000D03*
X348132000Y-164249000D03*
D14*
X353212000Y-164249000D03*
%TD*%
D10*
%TO.C,U71*%
X355812000Y-150999000D03*
X355812000Y-149499000D03*
X350612000Y-150999000D03*
X350612000Y-149499000D03*
D11*
X359227000Y-140119000D03*
X345802000Y-142659000D03*
D12*
X355752000Y-140119000D03*
X349402000Y-142659000D03*
D13*
X358292000Y-145199000D03*
X348132000Y-145199000D03*
D14*
X353212000Y-145199000D03*
%TD*%
D10*
%TO.C,U70*%
X355800000Y-131936000D03*
X355800000Y-130436000D03*
X350600000Y-131936000D03*
X350600000Y-130436000D03*
D11*
X359215000Y-121056000D03*
X345790000Y-123596000D03*
D12*
X355740000Y-121056000D03*
X349390000Y-123596000D03*
D13*
X358280000Y-126136000D03*
X348120000Y-126136000D03*
D14*
X353200000Y-126136000D03*
%TD*%
D10*
%TO.C,U69*%
X355821000Y-112912000D03*
X355821000Y-111412000D03*
X350621000Y-112912000D03*
X350621000Y-111412000D03*
D11*
X359236000Y-102032000D03*
X345811000Y-104572000D03*
D12*
X355761000Y-102032000D03*
X349411000Y-104572000D03*
D13*
X358301000Y-107112000D03*
X348141000Y-107112000D03*
D14*
X353221000Y-107112000D03*
%TD*%
D10*
%TO.C,U68*%
X355812000Y-93861800D03*
X355812000Y-92361800D03*
X350612000Y-93861800D03*
X350612000Y-92361800D03*
D11*
X359227000Y-82981800D03*
X345802000Y-85521800D03*
D12*
X355752000Y-82981800D03*
X349402000Y-85521800D03*
D13*
X358292000Y-88061800D03*
X348132000Y-88061800D03*
D14*
X353212000Y-88061800D03*
%TD*%
%TO.C,U67*%
X324612000Y-88061800D03*
D13*
X319532000Y-88061800D03*
X329692000Y-88061800D03*
D12*
X320802000Y-85521800D03*
X327152000Y-82981800D03*
D11*
X317202000Y-85521800D03*
X330627000Y-82981800D03*
D10*
X322012000Y-92361800D03*
X322012000Y-93861800D03*
X327212000Y-92361800D03*
X327212000Y-93861800D03*
%TD*%
%TO.C,U66*%
X336762000Y-170049000D03*
X336762000Y-168549000D03*
X331562000Y-170049000D03*
X331562000Y-168549000D03*
D11*
X340177000Y-159169000D03*
X326752000Y-161709000D03*
D12*
X336702000Y-159169000D03*
X330352000Y-161709000D03*
D13*
X339242000Y-164249000D03*
X329082000Y-164249000D03*
D14*
X334162000Y-164249000D03*
%TD*%
D10*
%TO.C,U65*%
X336762000Y-151012000D03*
X336762000Y-149512000D03*
X331562000Y-151012000D03*
X331562000Y-149512000D03*
D11*
X340177000Y-140132000D03*
X326752000Y-142672000D03*
D12*
X336702000Y-140132000D03*
X330352000Y-142672000D03*
D13*
X339242000Y-145212000D03*
X329082000Y-145212000D03*
D14*
X334162000Y-145212000D03*
%TD*%
%TO.C,U64*%
X322275000Y-126162000D03*
D13*
X317195000Y-126162000D03*
X327355000Y-126162000D03*
D12*
X318465000Y-123622000D03*
X324815000Y-121082000D03*
D11*
X314865000Y-123622000D03*
X328290000Y-121082000D03*
D10*
X319675000Y-130462000D03*
X319675000Y-131962000D03*
X324875000Y-130462000D03*
X324875000Y-131962000D03*
%TD*%
D14*
%TO.C,U63*%
X329413000Y-107099000D03*
D13*
X324333000Y-107099000D03*
X334493000Y-107099000D03*
D12*
X325603000Y-104559000D03*
X331953000Y-102019000D03*
D11*
X322003000Y-104559000D03*
X335428000Y-102019000D03*
D10*
X326813000Y-111399000D03*
X326813000Y-112899000D03*
X332013000Y-111399000D03*
X332013000Y-112899000D03*
%TD*%
%TO.C,U62*%
X317687000Y-170062000D03*
X317687000Y-168562000D03*
X312487000Y-170062000D03*
X312487000Y-168562000D03*
D11*
X321102000Y-159182000D03*
X307677000Y-161722000D03*
D12*
X317627000Y-159182000D03*
X311277000Y-161722000D03*
D13*
X320167000Y-164262000D03*
X310007000Y-164262000D03*
D14*
X315087000Y-164262000D03*
%TD*%
%TO.C,U61*%
X307950000Y-145212000D03*
D13*
X302870000Y-145212000D03*
X313030000Y-145212000D03*
D12*
X304140000Y-142672000D03*
X310490000Y-140132000D03*
D11*
X300540000Y-142672000D03*
X313965000Y-140132000D03*
D10*
X305350000Y-149512000D03*
X305350000Y-151012000D03*
X310550000Y-149512000D03*
X310550000Y-151012000D03*
%TD*%
%TO.C,U60*%
X308200000Y-112899000D03*
X308200000Y-111399000D03*
X303000000Y-112899000D03*
X303000000Y-111399000D03*
D11*
X311615000Y-102019000D03*
X298190000Y-104559000D03*
D12*
X308140000Y-102019000D03*
X301790000Y-104559000D03*
D13*
X310680000Y-107099000D03*
X300520000Y-107099000D03*
D14*
X305600000Y-107099000D03*
%TD*%
D10*
%TO.C,U59*%
X298637000Y-93861800D03*
X298637000Y-92361800D03*
X293437000Y-93861800D03*
X293437000Y-92361800D03*
D11*
X302052000Y-82981800D03*
X288627000Y-85521800D03*
D12*
X298577000Y-82981800D03*
X292227000Y-85521800D03*
D13*
X301117000Y-88061800D03*
X290957000Y-88061800D03*
D14*
X296037000Y-88061800D03*
%TD*%
%TO.C,U58*%
X284213000Y-164313000D03*
D13*
X279133000Y-164313000D03*
X289293000Y-164313000D03*
D12*
X280403000Y-161773000D03*
X286753000Y-159233000D03*
D11*
X276803000Y-161773000D03*
X290228000Y-159233000D03*
D10*
X281613000Y-168613000D03*
X281613000Y-170113000D03*
X286813000Y-168613000D03*
X286813000Y-170113000D03*
%TD*%
%TO.C,U57*%
X284362000Y-151012000D03*
X284362000Y-149512000D03*
X279162000Y-151012000D03*
X279162000Y-149512000D03*
D11*
X287777000Y-140132000D03*
X274352000Y-142672000D03*
D12*
X284302000Y-140132000D03*
X277952000Y-142672000D03*
D13*
X286842000Y-145212000D03*
X276682000Y-145212000D03*
D14*
X281762000Y-145212000D03*
%TD*%
D10*
%TO.C,U56*%
X293925000Y-131949000D03*
X293925000Y-130449000D03*
X288725000Y-131949000D03*
X288725000Y-130449000D03*
D11*
X297340000Y-121069000D03*
X283915000Y-123609000D03*
D12*
X293865000Y-121069000D03*
X287515000Y-123609000D03*
D13*
X296405000Y-126149000D03*
X286245000Y-126149000D03*
D14*
X291325000Y-126149000D03*
%TD*%
D10*
%TO.C,U55*%
X289150000Y-112899000D03*
X289150000Y-111399000D03*
X283950000Y-112899000D03*
X283950000Y-111399000D03*
D11*
X292565000Y-102019000D03*
X279140000Y-104559000D03*
D12*
X289090000Y-102019000D03*
X282740000Y-104559000D03*
D13*
X291630000Y-107099000D03*
X281470000Y-107099000D03*
D14*
X286550000Y-107099000D03*
%TD*%
D10*
%TO.C,U54*%
X279600000Y-93861800D03*
X279600000Y-92361800D03*
X274400000Y-93861800D03*
X274400000Y-92361800D03*
D11*
X283015000Y-82981800D03*
X269590000Y-85521800D03*
D12*
X279540000Y-82981800D03*
X273190000Y-85521800D03*
D13*
X282080000Y-88061800D03*
X271920000Y-88061800D03*
D14*
X277000000Y-88061800D03*
%TD*%
D10*
%TO.C,U52*%
X265325000Y-150999000D03*
X265325000Y-149499000D03*
X260125000Y-150999000D03*
X260125000Y-149499000D03*
D11*
X268740000Y-140119000D03*
X255315000Y-142659000D03*
D12*
X265265000Y-140119000D03*
X258915000Y-142659000D03*
D13*
X267805000Y-145199000D03*
X257645000Y-145199000D03*
D14*
X262725000Y-145199000D03*
%TD*%
D10*
%TO.C,U51*%
X274875000Y-131949000D03*
X274875000Y-130449000D03*
X269675000Y-131949000D03*
X269675000Y-130449000D03*
D11*
X278290000Y-121069000D03*
X264865000Y-123609000D03*
D12*
X274815000Y-121069000D03*
X268465000Y-123609000D03*
D13*
X277355000Y-126149000D03*
X267195000Y-126149000D03*
D14*
X272275000Y-126149000D03*
%TD*%
D10*
%TO.C,U50*%
X270100000Y-112899000D03*
X270100000Y-111399000D03*
X264900000Y-112899000D03*
X264900000Y-111399000D03*
D11*
X273515000Y-102019000D03*
X260090000Y-104559000D03*
D12*
X270040000Y-102019000D03*
X263690000Y-104559000D03*
D13*
X272580000Y-107099000D03*
X262420000Y-107099000D03*
D14*
X267500000Y-107099000D03*
%TD*%
D10*
%TO.C,U49*%
X260550000Y-93861800D03*
X260550000Y-92361800D03*
X255350000Y-93861800D03*
X255350000Y-92361800D03*
D11*
X263965000Y-82981800D03*
X250540000Y-85521800D03*
D12*
X260490000Y-82981800D03*
X254140000Y-85521800D03*
D13*
X263030000Y-88061800D03*
X252870000Y-88061800D03*
D14*
X257950000Y-88061800D03*
%TD*%
%TO.C,U48*%
X260388000Y-164313000D03*
D13*
X255308000Y-164313000D03*
X265468000Y-164313000D03*
D12*
X256578000Y-161773000D03*
X262928000Y-159233000D03*
D11*
X252978000Y-161773000D03*
X266403000Y-159233000D03*
D10*
X257788000Y-168613000D03*
X257788000Y-170113000D03*
X262988000Y-168613000D03*
X262988000Y-170113000D03*
%TD*%
%TO.C,U47*%
X246275000Y-151037000D03*
X246275000Y-149537000D03*
X241075000Y-151037000D03*
X241075000Y-149537000D03*
D11*
X249690000Y-140157000D03*
X236265000Y-142697000D03*
D12*
X246215000Y-140157000D03*
X239865000Y-142697000D03*
D13*
X248755000Y-145237000D03*
X238595000Y-145237000D03*
D14*
X243675000Y-145237000D03*
%TD*%
D10*
%TO.C,U46*%
X255825000Y-131949000D03*
X255825000Y-130449000D03*
X250625000Y-131949000D03*
X250625000Y-130449000D03*
D11*
X259240000Y-121069000D03*
X245815000Y-123609000D03*
D12*
X255765000Y-121069000D03*
X249415000Y-123609000D03*
D13*
X258305000Y-126149000D03*
X248145000Y-126149000D03*
D14*
X253225000Y-126149000D03*
%TD*%
D10*
%TO.C,U45*%
X251037000Y-112924000D03*
X251037000Y-111424000D03*
X245837000Y-112924000D03*
X245837000Y-111424000D03*
D11*
X254452000Y-102044000D03*
X241027000Y-104584000D03*
D12*
X250977000Y-102044000D03*
X244627000Y-104584000D03*
D13*
X253517000Y-107124000D03*
X243357000Y-107124000D03*
D14*
X248437000Y-107124000D03*
%TD*%
D10*
%TO.C,U44*%
X241500000Y-93861800D03*
X241500000Y-92361800D03*
X236300000Y-93861800D03*
X236300000Y-92361800D03*
D11*
X244915000Y-82981800D03*
X231490000Y-85521800D03*
D12*
X241440000Y-82981800D03*
X235090000Y-85521800D03*
D13*
X243980000Y-88061800D03*
X233820000Y-88061800D03*
D14*
X238900000Y-88061800D03*
%TD*%
D10*
%TO.C,U43*%
X227238000Y-151024000D03*
X227238000Y-149524000D03*
X222038000Y-151024000D03*
X222038000Y-149524000D03*
D11*
X230653000Y-140144000D03*
X217228000Y-142684000D03*
D12*
X227178000Y-140144000D03*
X220828000Y-142684000D03*
D13*
X229718000Y-145224000D03*
X219558000Y-145224000D03*
D14*
X224638000Y-145224000D03*
%TD*%
D10*
%TO.C,U42*%
X236775000Y-131962000D03*
X236775000Y-130462000D03*
X231575000Y-131962000D03*
X231575000Y-130462000D03*
D11*
X240190000Y-121082000D03*
X226765000Y-123622000D03*
D12*
X236715000Y-121082000D03*
X230365000Y-123622000D03*
D13*
X239255000Y-126162000D03*
X229095000Y-126162000D03*
D14*
X234175000Y-126162000D03*
%TD*%
D10*
%TO.C,U41*%
X231987000Y-112912000D03*
X231987000Y-111412000D03*
X226787000Y-112912000D03*
X226787000Y-111412000D03*
D11*
X235402000Y-102032000D03*
X221977000Y-104572000D03*
D12*
X231927000Y-102032000D03*
X225577000Y-104572000D03*
D13*
X234467000Y-107112000D03*
X224307000Y-107112000D03*
D14*
X229387000Y-107112000D03*
%TD*%
D10*
%TO.C,U40*%
X222437000Y-93861800D03*
X222437000Y-92361800D03*
X217237000Y-93861800D03*
X217237000Y-92361800D03*
D11*
X225852000Y-82981800D03*
X212427000Y-85521800D03*
D12*
X222377000Y-82981800D03*
X216027000Y-85521800D03*
D13*
X224917000Y-88061800D03*
X214757000Y-88061800D03*
D14*
X219837000Y-88061800D03*
%TD*%
D10*
%TO.C,U39*%
X208188000Y-151024000D03*
X208188000Y-149524000D03*
X202988000Y-151024000D03*
X202988000Y-149524000D03*
D11*
X211603000Y-140144000D03*
X198178000Y-142684000D03*
D12*
X208128000Y-140144000D03*
X201778000Y-142684000D03*
D13*
X210668000Y-145224000D03*
X200508000Y-145224000D03*
D14*
X205588000Y-145224000D03*
%TD*%
D10*
%TO.C,U38*%
X217751000Y-131974000D03*
X217751000Y-130474000D03*
X212551000Y-131974000D03*
X212551000Y-130474000D03*
D11*
X221166000Y-121094000D03*
X207741000Y-123634000D03*
D12*
X217691000Y-121094000D03*
X211341000Y-123634000D03*
D13*
X220231000Y-126174000D03*
X210071000Y-126174000D03*
D14*
X215151000Y-126174000D03*
%TD*%
D10*
%TO.C,U37*%
X212937000Y-112912000D03*
X212937000Y-111412000D03*
X207737000Y-112912000D03*
X207737000Y-111412000D03*
D11*
X216352000Y-102032000D03*
X202927000Y-104572000D03*
D12*
X212877000Y-102032000D03*
X206527000Y-104572000D03*
D13*
X215417000Y-107112000D03*
X205257000Y-107112000D03*
D14*
X210337000Y-107112000D03*
%TD*%
D10*
%TO.C,U36*%
X203387000Y-93861800D03*
X203387000Y-92361800D03*
X198187000Y-93861800D03*
X198187000Y-92361800D03*
D11*
X206802000Y-82981800D03*
X193377000Y-85521800D03*
D12*
X203327000Y-82981800D03*
X196977000Y-85521800D03*
D13*
X205867000Y-88061800D03*
X195707000Y-88061800D03*
D14*
X200787000Y-88061800D03*
%TD*%
%TO.C,U35*%
X188938000Y-164262000D03*
D13*
X183858000Y-164262000D03*
X194018000Y-164262000D03*
D12*
X185128000Y-161722000D03*
X191478000Y-159182000D03*
D11*
X181528000Y-161722000D03*
X194953000Y-159182000D03*
D10*
X186338000Y-168562000D03*
X186338000Y-170062000D03*
X191538000Y-168562000D03*
X191538000Y-170062000D03*
%TD*%
%TO.C,U34*%
X189150000Y-151037000D03*
X189150000Y-149537000D03*
X183950000Y-151037000D03*
X183950000Y-149537000D03*
D11*
X192565000Y-140157000D03*
X179140000Y-142697000D03*
D12*
X189090000Y-140157000D03*
X182740000Y-142697000D03*
D13*
X191630000Y-145237000D03*
X181470000Y-145237000D03*
D14*
X186550000Y-145237000D03*
%TD*%
D10*
%TO.C,U33*%
X198688000Y-131962000D03*
X198688000Y-130462000D03*
X193488000Y-131962000D03*
X193488000Y-130462000D03*
D11*
X202103000Y-121082000D03*
X188678000Y-123622000D03*
D12*
X198628000Y-121082000D03*
X192278000Y-123622000D03*
D13*
X201168000Y-126162000D03*
X191008000Y-126162000D03*
D14*
X196088000Y-126162000D03*
%TD*%
D10*
%TO.C,U32*%
X193887000Y-112924000D03*
X193887000Y-111424000D03*
X188687000Y-112924000D03*
X188687000Y-111424000D03*
D11*
X197302000Y-102044000D03*
X183877000Y-104584000D03*
D12*
X193827000Y-102044000D03*
X187477000Y-104584000D03*
D13*
X196367000Y-107124000D03*
X186207000Y-107124000D03*
D14*
X191287000Y-107124000D03*
%TD*%
D10*
%TO.C,U31*%
X184350000Y-93861800D03*
X184350000Y-92361800D03*
X179150000Y-93861800D03*
X179150000Y-92361800D03*
D11*
X187765000Y-82981800D03*
X174340000Y-85521800D03*
D12*
X184290000Y-82981800D03*
X177940000Y-85521800D03*
D13*
X186830000Y-88061800D03*
X176670000Y-88061800D03*
D14*
X181750000Y-88061800D03*
%TD*%
D10*
%TO.C,U30*%
X170088000Y-151024000D03*
X170088000Y-149524000D03*
X164888000Y-151024000D03*
X164888000Y-149524000D03*
D11*
X173503000Y-140144000D03*
X160078000Y-142684000D03*
D12*
X170028000Y-140144000D03*
X163678000Y-142684000D03*
D13*
X172568000Y-145224000D03*
X162408000Y-145224000D03*
D14*
X167488000Y-145224000D03*
%TD*%
D10*
%TO.C,U29*%
X179638000Y-131974000D03*
X179638000Y-130474000D03*
X174438000Y-131974000D03*
X174438000Y-130474000D03*
D11*
X183053000Y-121094000D03*
X169628000Y-123634000D03*
D12*
X179578000Y-121094000D03*
X173228000Y-123634000D03*
D13*
X182118000Y-126174000D03*
X171958000Y-126174000D03*
D14*
X177038000Y-126174000D03*
%TD*%
D10*
%TO.C,U28*%
X174825000Y-112912000D03*
X174825000Y-111412000D03*
X169625000Y-112912000D03*
X169625000Y-111412000D03*
D11*
X178240000Y-102032000D03*
X164815000Y-104572000D03*
D12*
X174765000Y-102032000D03*
X168415000Y-104572000D03*
D13*
X177305000Y-107112000D03*
X167145000Y-107112000D03*
D14*
X172225000Y-107112000D03*
%TD*%
D10*
%TO.C,U27*%
X165300000Y-93861800D03*
X165300000Y-92361800D03*
X160100000Y-93861800D03*
X160100000Y-92361800D03*
D11*
X168715000Y-82981800D03*
X155290000Y-85521800D03*
D12*
X165240000Y-82981800D03*
X158890000Y-85521800D03*
D13*
X167780000Y-88061800D03*
X157620000Y-88061800D03*
D14*
X162700000Y-88061800D03*
%TD*%
D10*
%TO.C,U26*%
X151025000Y-151012000D03*
X151025000Y-149512000D03*
X145825000Y-151012000D03*
X145825000Y-149512000D03*
D11*
X154440000Y-140132000D03*
X141015000Y-142672000D03*
D12*
X150965000Y-140132000D03*
X144615000Y-142672000D03*
D13*
X153505000Y-145212000D03*
X143345000Y-145212000D03*
D14*
X148425000Y-145212000D03*
%TD*%
D10*
%TO.C,U25*%
X160575000Y-131962000D03*
X160575000Y-130462000D03*
X155375000Y-131962000D03*
X155375000Y-130462000D03*
D11*
X163990000Y-121082000D03*
X150565000Y-123622000D03*
D12*
X160515000Y-121082000D03*
X154165000Y-123622000D03*
D13*
X163055000Y-126162000D03*
X152895000Y-126162000D03*
D14*
X157975000Y-126162000D03*
%TD*%
D10*
%TO.C,U24*%
X155762000Y-112924000D03*
X155762000Y-111424000D03*
X150562000Y-112924000D03*
X150562000Y-111424000D03*
D11*
X159177000Y-102044000D03*
X145752000Y-104584000D03*
D12*
X155702000Y-102044000D03*
X149352000Y-104584000D03*
D13*
X158242000Y-107124000D03*
X148082000Y-107124000D03*
D14*
X153162000Y-107124000D03*
%TD*%
D10*
%TO.C,U23*%
X146262000Y-93861800D03*
X146262000Y-92361800D03*
X141062000Y-93861800D03*
X141062000Y-92361800D03*
D11*
X149677000Y-82981800D03*
X136252000Y-85521800D03*
D12*
X146202000Y-82981800D03*
X139852000Y-85521800D03*
D13*
X148742000Y-88061800D03*
X138582000Y-88061800D03*
D14*
X143662000Y-88061800D03*
%TD*%
D10*
%TO.C,U20*%
X131988000Y-150999000D03*
X131988000Y-149499000D03*
X126788000Y-150999000D03*
X126788000Y-149499000D03*
D11*
X135403000Y-140119000D03*
X121978000Y-142659000D03*
D12*
X131928000Y-140119000D03*
X125578000Y-142659000D03*
D13*
X134468000Y-145199000D03*
X124308000Y-145199000D03*
D14*
X129388000Y-145199000D03*
%TD*%
D10*
%TO.C,U19*%
X141500000Y-131962000D03*
X141500000Y-130462000D03*
X136300000Y-131962000D03*
X136300000Y-130462000D03*
D11*
X144915000Y-121082000D03*
X131490000Y-123622000D03*
D12*
X141440000Y-121082000D03*
X135090000Y-123622000D03*
D13*
X143980000Y-126162000D03*
X133820000Y-126162000D03*
D14*
X138900000Y-126162000D03*
%TD*%
D10*
%TO.C,U18*%
X136712000Y-112912000D03*
X136712000Y-111412000D03*
X131512000Y-112912000D03*
X131512000Y-111412000D03*
D11*
X140127000Y-102032000D03*
X126702000Y-104572000D03*
D12*
X136652000Y-102032000D03*
X130302000Y-104572000D03*
D13*
X139192000Y-107112000D03*
X129032000Y-107112000D03*
D14*
X134112000Y-107112000D03*
%TD*%
D10*
%TO.C,U17*%
X127200000Y-93861800D03*
X127200000Y-92361800D03*
X122000000Y-93861800D03*
X122000000Y-92361800D03*
D11*
X130615000Y-82981800D03*
X117190000Y-85521800D03*
D12*
X127140000Y-82981800D03*
X120790000Y-85521800D03*
D13*
X129680000Y-88061800D03*
X119520000Y-88061800D03*
D14*
X124600000Y-88061800D03*
%TD*%
D15*
%TO.C,U16*%
X67424300Y-153467000D03*
X91300300Y-153467000D03*
D16*
X67424300Y-138227000D03*
X91300300Y-138227000D03*
%TD*%
D14*
%TO.C,U14*%
X117475000Y-164287000D03*
D13*
X112395000Y-164287000D03*
X122555000Y-164287000D03*
D12*
X113665000Y-161747000D03*
X120015000Y-159207000D03*
D11*
X110065000Y-161747000D03*
X123490000Y-159207000D03*
D10*
X114875000Y-168587000D03*
X114875000Y-170087000D03*
X120075000Y-168587000D03*
X120075000Y-170087000D03*
%TD*%
%TO.C,U13*%
X112938000Y-150999000D03*
X112938000Y-149499000D03*
X107738000Y-150999000D03*
X107738000Y-149499000D03*
D11*
X116353000Y-140119000D03*
X102928000Y-142659000D03*
D12*
X112878000Y-140119000D03*
X106528000Y-142659000D03*
D13*
X115418000Y-145199000D03*
X105258000Y-145199000D03*
D14*
X110338000Y-145199000D03*
%TD*%
D10*
%TO.C,U12*%
X122450000Y-131962000D03*
X122450000Y-130462000D03*
X117250000Y-131962000D03*
X117250000Y-130462000D03*
D11*
X125865000Y-121082000D03*
X112440000Y-123622000D03*
D12*
X122390000Y-121082000D03*
X116040000Y-123622000D03*
D13*
X124930000Y-126162000D03*
X114770000Y-126162000D03*
D14*
X119850000Y-126162000D03*
%TD*%
D10*
%TO.C,U11*%
X117687000Y-112912000D03*
X117687000Y-111412000D03*
X112487000Y-112912000D03*
X112487000Y-111412000D03*
D11*
X121102000Y-102032000D03*
X107677000Y-104572000D03*
D12*
X117627000Y-102032000D03*
X111277000Y-104572000D03*
D13*
X120167000Y-107112000D03*
X110007000Y-107112000D03*
D14*
X115087000Y-107112000D03*
%TD*%
D10*
%TO.C,U10*%
X108150000Y-93861800D03*
X108150000Y-92361800D03*
X102950000Y-93861800D03*
X102950000Y-92361800D03*
D11*
X111565000Y-82981800D03*
X98140000Y-85521800D03*
D12*
X108090000Y-82981800D03*
X101740000Y-85521800D03*
D13*
X110630000Y-88061800D03*
X100470000Y-88061800D03*
D14*
X105550000Y-88061800D03*
%TD*%
%TO.C,U9*%
X93662500Y-164274000D03*
D13*
X88582500Y-164274000D03*
X98742500Y-164274000D03*
D12*
X89852500Y-161734000D03*
X96202500Y-159194000D03*
D11*
X86252500Y-161734000D03*
X99677500Y-159194000D03*
D10*
X91062500Y-168574000D03*
X91062500Y-170074000D03*
X96262500Y-168574000D03*
X96262500Y-170074000D03*
%TD*%
%TO.C,U8*%
X103400000Y-131974000D03*
X103400000Y-130474000D03*
X98200000Y-131974000D03*
X98200000Y-130474000D03*
D11*
X106815000Y-121094000D03*
X93390000Y-123634000D03*
D12*
X103340000Y-121094000D03*
X96990000Y-123634000D03*
D13*
X105880000Y-126174000D03*
X95720000Y-126174000D03*
D14*
X100800000Y-126174000D03*
%TD*%
D10*
%TO.C,U7*%
X98637400Y-112912000D03*
X98637400Y-111412000D03*
X93437400Y-112912000D03*
X93437400Y-111412000D03*
D11*
X102052400Y-102032000D03*
X88627400Y-104572000D03*
D12*
X98577400Y-102032000D03*
X92227400Y-104572000D03*
D13*
X101117400Y-107112000D03*
X90957400Y-107112000D03*
D14*
X96037400Y-107112000D03*
%TD*%
D10*
%TO.C,U6*%
X89099700Y-93861800D03*
X89099700Y-92361800D03*
X83899700Y-93861800D03*
X83899700Y-92361800D03*
D11*
X92514700Y-82981800D03*
X79089700Y-85521800D03*
D12*
X89039700Y-82981800D03*
X82689700Y-85521800D03*
D13*
X91579700Y-88061800D03*
X81419700Y-88061800D03*
D14*
X86499700Y-88061800D03*
%TD*%
%TO.C,U5*%
X69837300Y-164274000D03*
D13*
X64757300Y-164274000D03*
X74917300Y-164274000D03*
D12*
X66027300Y-161734000D03*
X72377300Y-159194000D03*
D11*
X62427300Y-161734000D03*
X75852300Y-159194000D03*
D10*
X67237300Y-168574000D03*
X67237300Y-170074000D03*
X72437300Y-168574000D03*
X72437300Y-170074000D03*
%TD*%
D14*
%TO.C,U4*%
X79362300Y-145212000D03*
D13*
X74282300Y-145212000D03*
X84442300Y-145212000D03*
D12*
X75552300Y-142672000D03*
X81902300Y-140132000D03*
D11*
X71952300Y-142672000D03*
X85377300Y-140132000D03*
D10*
X76762300Y-149512000D03*
X76762300Y-151012000D03*
X81962300Y-149512000D03*
X81962300Y-151012000D03*
%TD*%
D14*
%TO.C,U3*%
X74599800Y-126174000D03*
D13*
X69519800Y-126174000D03*
X79679800Y-126174000D03*
D12*
X70789800Y-123634000D03*
X77139800Y-121094000D03*
D11*
X67189800Y-123634000D03*
X80614800Y-121094000D03*
D10*
X71999800Y-130474000D03*
X71999800Y-131974000D03*
X77199800Y-130474000D03*
X77199800Y-131974000D03*
%TD*%
D14*
%TO.C,U2*%
X72212200Y-107124000D03*
D13*
X67132200Y-107124000D03*
X77292200Y-107124000D03*
D12*
X68402200Y-104584000D03*
X74752200Y-102044000D03*
D11*
X64802200Y-104584000D03*
X78227200Y-102044000D03*
D10*
X69612200Y-111424000D03*
X69612200Y-112924000D03*
X74812200Y-111424000D03*
X74812200Y-112924000D03*
%TD*%
%TO.C,U1*%
X70049700Y-93874500D03*
X70049700Y-92374500D03*
X64849700Y-93874500D03*
X64849700Y-92374500D03*
D11*
X73464700Y-82994500D03*
X60039700Y-85534500D03*
D12*
X69989700Y-82994500D03*
X63639700Y-85534500D03*
D13*
X72529700Y-88074500D03*
X62369700Y-88074500D03*
D14*
X67449700Y-88074500D03*
%TD*%
D15*
%TO.C,U22*%
X238937900Y-156007000D03*
X138938100Y-156007000D03*
D16*
X238937900Y-171247000D03*
X138938100Y-171247000D03*
%TD*%
D15*
%TO.C,U21*%
X334200000Y-117919000D03*
X310324000Y-117919000D03*
D16*
X334200000Y-133159000D03*
X310324000Y-133159000D03*
%TD*%
D15*
%TO.C,U15*%
X312674000Y-96316800D03*
X336550000Y-96316800D03*
D16*
X312674000Y-81076800D03*
X336550000Y-81076800D03*
%TD*%
D17*
%TO.C,J1*%
X134612180Y-98676460D03*
D18*
X131780080Y-96713040D03*
X131798380Y-95467040D03*
X131802940Y-94203520D03*
D17*
X134629960Y-90893900D03*
D18*
X131821240Y-92957520D03*
%TD*%
D19*
%TO.C,U53*%
X150154000Y-160363000D03*
X150154000Y-161163000D03*
X150154000Y-161963000D03*
X150154000Y-162763000D03*
X150154000Y-163563000D03*
X150154000Y-164363000D03*
X150154000Y-165163000D03*
X150154000Y-165963000D03*
X150154000Y-166763000D03*
X150154000Y-167563000D03*
X150154000Y-168363000D03*
D20*
X151854000Y-170063000D03*
X152654000Y-170063000D03*
X153454000Y-170063000D03*
X154254000Y-170063000D03*
X155054000Y-170063000D03*
X155854000Y-170063000D03*
X156654000Y-170063000D03*
X157454000Y-170063000D03*
X158254000Y-170063000D03*
X159054000Y-170063000D03*
X159854000Y-170063000D03*
D19*
X161554000Y-168363000D03*
X161554000Y-167563000D03*
X161554000Y-166763000D03*
X161554000Y-165963000D03*
X161554000Y-165163000D03*
X161554000Y-164363000D03*
X161554000Y-163563000D03*
X161554000Y-162763000D03*
X161554000Y-161963000D03*
X161554000Y-161163000D03*
X161554000Y-160363000D03*
D20*
X159854000Y-158663000D03*
X159054000Y-158663000D03*
X158254000Y-158663000D03*
X157454000Y-158663000D03*
X156654000Y-158663000D03*
X155854000Y-158663000D03*
X155054000Y-158663000D03*
X154254000Y-158663000D03*
X153454000Y-158663000D03*
X152654000Y-158663000D03*
X151854000Y-158663000D03*
%TD*%
D21*
%TO.C,D68*%
X360261000Y-169307000D03*
X360261000Y-166507000D03*
%TD*%
%TO.C,D67*%
X360210000Y-150272000D03*
X360210000Y-147472000D03*
%TD*%
%TO.C,D66*%
X360223000Y-131349000D03*
X360223000Y-128549000D03*
%TD*%
%TO.C,D65*%
X360236000Y-112109000D03*
X360236000Y-109309000D03*
%TD*%
%TO.C,D64*%
X360210000Y-93147800D03*
X360210000Y-90347800D03*
%TD*%
%TO.C,D63*%
X332626000Y-89449100D03*
X332626000Y-86649100D03*
%TD*%
%TO.C,D62*%
X342202000Y-165471000D03*
X342202000Y-162671000D03*
%TD*%
%TO.C,D61*%
X342163000Y-146574000D03*
X342163000Y-143774000D03*
%TD*%
%TO.C,D60*%
X330251000Y-127600000D03*
X330251000Y-124800000D03*
%TD*%
%TO.C,D59*%
X337528000Y-108448000D03*
X337528000Y-105648000D03*
%TD*%
%TO.C,D58*%
X323126000Y-165713000D03*
X323126000Y-162913000D03*
%TD*%
%TO.C,D57*%
X315951000Y-146536000D03*
X315951000Y-143736000D03*
%TD*%
%TO.C,D56*%
X313601000Y-108575000D03*
X313601000Y-105775000D03*
%TD*%
%TO.C,D55*%
X304051000Y-89522300D03*
X304051000Y-86722300D03*
%TD*%
%TO.C,D54*%
X292240000Y-165789000D03*
X292240000Y-162989000D03*
%TD*%
%TO.C,D53*%
X289763000Y-146574000D03*
X289763000Y-143774000D03*
%TD*%
%TO.C,D52*%
X299326000Y-127524000D03*
X299326000Y-124724000D03*
%TD*%
%TO.C,D51*%
X294551000Y-108486000D03*
X294551000Y-105686000D03*
%TD*%
%TO.C,D50*%
X285026000Y-89487200D03*
X285026000Y-86687200D03*
%TD*%
%TO.C,D49*%
X270688000Y-146612000D03*
X270688000Y-143812000D03*
%TD*%
%TO.C,D48*%
X280264000Y-127625000D03*
X280264000Y-124825000D03*
%TD*%
%TO.C,D47*%
X275488000Y-108524000D03*
X275488000Y-105724000D03*
%TD*%
%TO.C,D46*%
X266014000Y-89553700D03*
X266014000Y-86753700D03*
%TD*%
%TO.C,D45*%
X268389000Y-165674000D03*
X268389000Y-162874000D03*
%TD*%
%TO.C,D44*%
X251701000Y-146650000D03*
X251701000Y-143850000D03*
%TD*%
%TO.C,D43*%
X261214000Y-127565000D03*
X261214000Y-124765000D03*
%TD*%
%TO.C,D42*%
X256464000Y-108528000D03*
X256464000Y-105728000D03*
%TD*%
%TO.C,D41*%
X246926000Y-89560400D03*
X246926000Y-86760400D03*
%TD*%
%TO.C,D40*%
X232626000Y-146589000D03*
X232626000Y-143789000D03*
%TD*%
%TO.C,D39*%
X242189000Y-127476000D03*
X242189000Y-124676000D03*
%TD*%
%TO.C,D38*%
X237401000Y-108537000D03*
X237401000Y-105737000D03*
%TD*%
%TO.C,D37*%
X227825000Y-89449100D03*
X227825000Y-86649100D03*
%TD*%
%TO.C,D36*%
X213576000Y-146612000D03*
X213576000Y-143812000D03*
%TD*%
%TO.C,D35*%
X223164000Y-127549000D03*
X223164000Y-124749000D03*
%TD*%
%TO.C,D34*%
X218351000Y-108537000D03*
X218351000Y-105737000D03*
%TD*%
%TO.C,D33*%
X208788000Y-89439400D03*
X208788000Y-86639400D03*
%TD*%
%TO.C,D32*%
X196990000Y-165776000D03*
X196990000Y-162976000D03*
%TD*%
%TO.C,D31*%
X194602000Y-146688000D03*
X194602000Y-143888000D03*
%TD*%
%TO.C,D30*%
X204114000Y-127600000D03*
X204114000Y-124800000D03*
%TD*%
%TO.C,D29*%
X199326000Y-108550000D03*
X199326000Y-105750000D03*
%TD*%
%TO.C,D28*%
X189751000Y-89449100D03*
X189751000Y-86649100D03*
%TD*%
%TO.C,D27*%
X175501000Y-147097000D03*
X175501000Y-144297000D03*
%TD*%
%TO.C,D26*%
X185052000Y-127578000D03*
X185052000Y-124778000D03*
%TD*%
%TO.C,D25*%
X180238000Y-108524000D03*
X180238000Y-105724000D03*
%TD*%
%TO.C,D24*%
X170726000Y-89487200D03*
X170726000Y-86687200D03*
%TD*%
%TO.C,D22*%
X156426000Y-146602000D03*
X156426000Y-143802000D03*
%TD*%
%TO.C,D21*%
X166002000Y-127549000D03*
X166002000Y-124749000D03*
%TD*%
%TO.C,D20*%
X161176000Y-108537000D03*
X161176000Y-105737000D03*
%TD*%
%TO.C,D19*%
X151752000Y-89385600D03*
X151752000Y-86585600D03*
%TD*%
%TO.C,D18*%
X137389000Y-146602000D03*
X137389000Y-143802000D03*
%TD*%
%TO.C,D17*%
X146914000Y-127574000D03*
X146914000Y-124774000D03*
%TD*%
%TO.C,D16*%
X142126000Y-108423000D03*
X142126000Y-105623000D03*
%TD*%
%TO.C,D15*%
X136023000Y-81889600D03*
X133223000Y-81889600D03*
%TD*%
%TO.C,D14*%
X125489000Y-165662000D03*
X125489000Y-162862000D03*
%TD*%
%TO.C,D13*%
X118364000Y-146589000D03*
X118364000Y-143789000D03*
%TD*%
%TO.C,D12*%
X127851000Y-127600000D03*
X127851000Y-124800000D03*
%TD*%
%TO.C,D11*%
X123088000Y-108524000D03*
X123088000Y-105724000D03*
%TD*%
%TO.C,D10*%
X113538000Y-89576100D03*
X113538000Y-86776100D03*
%TD*%
%TO.C,D9*%
X101664000Y-165725000D03*
X101664000Y-162925000D03*
%TD*%
%TO.C,D8*%
X108814000Y-127489000D03*
X108814000Y-124689000D03*
%TD*%
%TO.C,D7*%
X104051000Y-108601000D03*
X104051000Y-105801000D03*
%TD*%
%TO.C,D6*%
X94488000Y-89576100D03*
X94488000Y-86776100D03*
%TD*%
%TO.C,D5*%
X77838300Y-165649000D03*
X77838300Y-162849000D03*
%TD*%
%TO.C,D4*%
X87376000Y-146650000D03*
X87376000Y-143850000D03*
%TD*%
%TO.C,D3*%
X82613500Y-127412000D03*
X82613500Y-124612000D03*
%TD*%
%TO.C,D2*%
X80162400Y-108522000D03*
X80162400Y-105722000D03*
%TD*%
%TO.C,D1*%
X75107800Y-90201400D03*
X75107800Y-87401400D03*
%TD*%
D22*
%TO.C,X1*%
X172682000Y-162895000D03*
X172682000Y-165095000D03*
X174282000Y-165095000D03*
X174282000Y-162895000D03*
%TD*%
%TO.C,R6*%
G36*
G01*
X217929000Y-170864001D02*
X217929000Y-169963999D01*
G75*
G02*
X218178999Y-169714000I249999J0D01*
G01*
X218879001Y-169714000D01*
G75*
G02*
X219129000Y-169963999I0J-249999D01*
G01*
X219129000Y-170864001D01*
G75*
G02*
X218879001Y-171114000I-249999J0D01*
G01*
X218178999Y-171114000D01*
G75*
G02*
X217929000Y-170864001I0J249999D01*
G01*
G37*
G36*
G01*
X215929000Y-170864001D02*
X215929000Y-169963999D01*
G75*
G02*
X216178999Y-169714000I249999J0D01*
G01*
X216879001Y-169714000D01*
G75*
G02*
X217129000Y-169963999I0J-249999D01*
G01*
X217129000Y-170864001D01*
G75*
G02*
X216879001Y-171114000I-249999J0D01*
G01*
X216178999Y-171114000D01*
G75*
G02*
X215929000Y-170864001I0J249999D01*
G01*
G37*
%TD*%
%TO.C,R5*%
G36*
G01*
X221612000Y-157638001D02*
X221612000Y-156737999D01*
G75*
G02*
X221861999Y-156488000I249999J0D01*
G01*
X222562001Y-156488000D01*
G75*
G02*
X222812000Y-156737999I0J-249999D01*
G01*
X222812000Y-157638001D01*
G75*
G02*
X222562001Y-157888000I-249999J0D01*
G01*
X221861999Y-157888000D01*
G75*
G02*
X221612000Y-157638001I0J249999D01*
G01*
G37*
G36*
G01*
X219612000Y-157638001D02*
X219612000Y-156737999D01*
G75*
G02*
X219861999Y-156488000I249999J0D01*
G01*
X220562001Y-156488000D01*
G75*
G02*
X220812000Y-156737999I0J-249999D01*
G01*
X220812000Y-157638001D01*
G75*
G02*
X220562001Y-157888000I-249999J0D01*
G01*
X219861999Y-157888000D01*
G75*
G02*
X219612000Y-157638001I0J249999D01*
G01*
G37*
%TD*%
%TO.C,R4*%
G36*
G01*
X204198000Y-162207001D02*
X204198000Y-161306999D01*
G75*
G02*
X204447999Y-161057000I249999J0D01*
G01*
X205148001Y-161057000D01*
G75*
G02*
X205398000Y-161306999I0J-249999D01*
G01*
X205398000Y-162207001D01*
G75*
G02*
X205148001Y-162457000I-249999J0D01*
G01*
X204447999Y-162457000D01*
G75*
G02*
X204198000Y-162207001I0J249999D01*
G01*
G37*
G36*
G01*
X202198000Y-162207001D02*
X202198000Y-161306999D01*
G75*
G02*
X202447999Y-161057000I249999J0D01*
G01*
X203148001Y-161057000D01*
G75*
G02*
X203398000Y-161306999I0J-249999D01*
G01*
X203398000Y-162207001D01*
G75*
G02*
X203148001Y-162457000I-249999J0D01*
G01*
X202447999Y-162457000D01*
G75*
G02*
X202198000Y-162207001I0J249999D01*
G01*
G37*
%TD*%
%TO.C,R3*%
G36*
G01*
X222818000Y-170859001D02*
X222818000Y-169958999D01*
G75*
G02*
X223067999Y-169709000I249999J0D01*
G01*
X223768001Y-169709000D01*
G75*
G02*
X224018000Y-169958999I0J-249999D01*
G01*
X224018000Y-170859001D01*
G75*
G02*
X223768001Y-171109000I-249999J0D01*
G01*
X223067999Y-171109000D01*
G75*
G02*
X222818000Y-170859001I0J249999D01*
G01*
G37*
G36*
G01*
X220818000Y-170859001D02*
X220818000Y-169958999D01*
G75*
G02*
X221067999Y-169709000I249999J0D01*
G01*
X221768001Y-169709000D01*
G75*
G02*
X222018000Y-169958999I0J-249999D01*
G01*
X222018000Y-170859001D01*
G75*
G02*
X221768001Y-171109000I-249999J0D01*
G01*
X221067999Y-171109000D01*
G75*
G02*
X220818000Y-170859001I0J249999D01*
G01*
G37*
%TD*%
%TO.C,C10*%
G36*
G01*
X206170000Y-156692000D02*
X206170000Y-157642000D01*
G75*
G02*
X205920000Y-157892000I-250000J0D01*
G01*
X205245000Y-157892000D01*
G75*
G02*
X204995000Y-157642000I0J250000D01*
G01*
X204995000Y-156692000D01*
G75*
G02*
X205245000Y-156442000I250000J0D01*
G01*
X205920000Y-156442000D01*
G75*
G02*
X206170000Y-156692000I0J-250000D01*
G01*
G37*
G36*
G01*
X208245000Y-156692000D02*
X208245000Y-157642000D01*
G75*
G02*
X207995000Y-157892000I-250000J0D01*
G01*
X207320000Y-157892000D01*
G75*
G02*
X207070000Y-157642000I0J250000D01*
G01*
X207070000Y-156692000D01*
G75*
G02*
X207320000Y-156442000I250000J0D01*
G01*
X207995000Y-156442000D01*
G75*
G02*
X208245000Y-156692000I0J-250000D01*
G01*
G37*
%TD*%
%TO.C,C9*%
G36*
G01*
X216013000Y-156680000D02*
X216013000Y-157630000D01*
G75*
G02*
X215763000Y-157880000I-250000J0D01*
G01*
X215088000Y-157880000D01*
G75*
G02*
X214838000Y-157630000I0J250000D01*
G01*
X214838000Y-156680000D01*
G75*
G02*
X215088000Y-156430000I250000J0D01*
G01*
X215763000Y-156430000D01*
G75*
G02*
X216013000Y-156680000I0J-250000D01*
G01*
G37*
G36*
G01*
X218088000Y-156680000D02*
X218088000Y-157630000D01*
G75*
G02*
X217838000Y-157880000I-250000J0D01*
G01*
X217163000Y-157880000D01*
G75*
G02*
X216913000Y-157630000I0J250000D01*
G01*
X216913000Y-156680000D01*
G75*
G02*
X217163000Y-156430000I250000J0D01*
G01*
X217838000Y-156430000D01*
G75*
G02*
X218088000Y-156680000I0J-250000D01*
G01*
G37*
%TD*%
%TO.C,C8*%
G36*
G01*
X213127000Y-170952000D02*
X213127000Y-170002000D01*
G75*
G02*
X213377000Y-169752000I250000J0D01*
G01*
X214052000Y-169752000D01*
G75*
G02*
X214302000Y-170002000I0J-250000D01*
G01*
X214302000Y-170952000D01*
G75*
G02*
X214052000Y-171202000I-250000J0D01*
G01*
X213377000Y-171202000D01*
G75*
G02*
X213127000Y-170952000I0J250000D01*
G01*
G37*
G36*
G01*
X211052000Y-170952000D02*
X211052000Y-170002000D01*
G75*
G02*
X211302000Y-169752000I250000J0D01*
G01*
X211977000Y-169752000D01*
G75*
G02*
X212227000Y-170002000I0J-250000D01*
G01*
X212227000Y-170952000D01*
G75*
G02*
X211977000Y-171202000I-250000J0D01*
G01*
X211302000Y-171202000D01*
G75*
G02*
X211052000Y-170952000I0J250000D01*
G01*
G37*
%TD*%
%TO.C,C7*%
G36*
G01*
X202260000Y-157642000D02*
X202260000Y-156692000D01*
G75*
G02*
X202510000Y-156442000I250000J0D01*
G01*
X203185000Y-156442000D01*
G75*
G02*
X203435000Y-156692000I0J-250000D01*
G01*
X203435000Y-157642000D01*
G75*
G02*
X203185000Y-157892000I-250000J0D01*
G01*
X202510000Y-157892000D01*
G75*
G02*
X202260000Y-157642000I0J250000D01*
G01*
G37*
G36*
G01*
X200185000Y-157642000D02*
X200185000Y-156692000D01*
G75*
G02*
X200435000Y-156442000I250000J0D01*
G01*
X201110000Y-156442000D01*
G75*
G02*
X201360000Y-156692000I0J-250000D01*
G01*
X201360000Y-157642000D01*
G75*
G02*
X201110000Y-157892000I-250000J0D01*
G01*
X200435000Y-157892000D01*
G75*
G02*
X200185000Y-157642000I0J250000D01*
G01*
G37*
%TD*%
%TO.C,C6*%
G36*
G01*
X204342000Y-166736000D02*
X204342000Y-165786000D01*
G75*
G02*
X204592000Y-165536000I250000J0D01*
G01*
X205267000Y-165536000D01*
G75*
G02*
X205517000Y-165786000I0J-250000D01*
G01*
X205517000Y-166736000D01*
G75*
G02*
X205267000Y-166986000I-250000J0D01*
G01*
X204592000Y-166986000D01*
G75*
G02*
X204342000Y-166736000I0J250000D01*
G01*
G37*
G36*
G01*
X202267000Y-166736000D02*
X202267000Y-165786000D01*
G75*
G02*
X202517000Y-165536000I250000J0D01*
G01*
X203192000Y-165536000D01*
G75*
G02*
X203442000Y-165786000I0J-250000D01*
G01*
X203442000Y-166736000D01*
G75*
G02*
X203192000Y-166986000I-250000J0D01*
G01*
X202517000Y-166986000D01*
G75*
G02*
X202267000Y-166736000I0J250000D01*
G01*
G37*
%TD*%
%TO.C,C5*%
G36*
G01*
X218183000Y-162794000D02*
X218183000Y-161844000D01*
G75*
G02*
X218433000Y-161594000I250000J0D01*
G01*
X219108000Y-161594000D01*
G75*
G02*
X219358000Y-161844000I0J-250000D01*
G01*
X219358000Y-162794000D01*
G75*
G02*
X219108000Y-163044000I-250000J0D01*
G01*
X218433000Y-163044000D01*
G75*
G02*
X218183000Y-162794000I0J250000D01*
G01*
G37*
G36*
G01*
X216108000Y-162794000D02*
X216108000Y-161844000D01*
G75*
G02*
X216358000Y-161594000I250000J0D01*
G01*
X217033000Y-161594000D01*
G75*
G02*
X217283000Y-161844000I0J-250000D01*
G01*
X217283000Y-162794000D01*
G75*
G02*
X217033000Y-163044000I-250000J0D01*
G01*
X216358000Y-163044000D01*
G75*
G02*
X216108000Y-162794000I0J250000D01*
G01*
G37*
%TD*%
%TO.C,C4*%
G36*
G01*
X206196000Y-170010000D02*
X206196000Y-170960000D01*
G75*
G02*
X205946000Y-171210000I-250000J0D01*
G01*
X205271000Y-171210000D01*
G75*
G02*
X205021000Y-170960000I0J250000D01*
G01*
X205021000Y-170010000D01*
G75*
G02*
X205271000Y-169760000I250000J0D01*
G01*
X205946000Y-169760000D01*
G75*
G02*
X206196000Y-170010000I0J-250000D01*
G01*
G37*
G36*
G01*
X208271000Y-170010000D02*
X208271000Y-170960000D01*
G75*
G02*
X208021000Y-171210000I-250000J0D01*
G01*
X207346000Y-171210000D01*
G75*
G02*
X207096000Y-170960000I0J250000D01*
G01*
X207096000Y-170010000D01*
G75*
G02*
X207346000Y-169760000I250000J0D01*
G01*
X208021000Y-169760000D01*
G75*
G02*
X208271000Y-170010000I0J-250000D01*
G01*
G37*
%TD*%
%TO.C,C3*%
G36*
G01*
X218208000Y-167010000D02*
X218208000Y-166060000D01*
G75*
G02*
X218458000Y-165810000I250000J0D01*
G01*
X219133000Y-165810000D01*
G75*
G02*
X219383000Y-166060000I0J-250000D01*
G01*
X219383000Y-167010000D01*
G75*
G02*
X219133000Y-167260000I-250000J0D01*
G01*
X218458000Y-167260000D01*
G75*
G02*
X218208000Y-167010000I0J250000D01*
G01*
G37*
G36*
G01*
X216133000Y-167010000D02*
X216133000Y-166060000D01*
G75*
G02*
X216383000Y-165810000I250000J0D01*
G01*
X217058000Y-165810000D01*
G75*
G02*
X217308000Y-166060000I0J-250000D01*
G01*
X217308000Y-167010000D01*
G75*
G02*
X217058000Y-167260000I-250000J0D01*
G01*
X216383000Y-167260000D01*
G75*
G02*
X216133000Y-167010000I0J250000D01*
G01*
G37*
%TD*%
%TO.C,C2*%
G36*
G01*
X212147000Y-157617000D02*
X212147000Y-156667000D01*
G75*
G02*
X212397000Y-156417000I250000J0D01*
G01*
X213072000Y-156417000D01*
G75*
G02*
X213322000Y-156667000I0J-250000D01*
G01*
X213322000Y-157617000D01*
G75*
G02*
X213072000Y-157867000I-250000J0D01*
G01*
X212397000Y-157867000D01*
G75*
G02*
X212147000Y-157617000I0J250000D01*
G01*
G37*
G36*
G01*
X210072000Y-157617000D02*
X210072000Y-156667000D01*
G75*
G02*
X210322000Y-156417000I250000J0D01*
G01*
X210997000Y-156417000D01*
G75*
G02*
X211247000Y-156667000I0J-250000D01*
G01*
X211247000Y-157617000D01*
G75*
G02*
X210997000Y-157867000I-250000J0D01*
G01*
X210322000Y-157867000D01*
G75*
G02*
X210072000Y-157617000I0J250000D01*
G01*
G37*
%TD*%
%TO.C,C1*%
G36*
G01*
X202257000Y-170934000D02*
X202257000Y-169984000D01*
G75*
G02*
X202507000Y-169734000I250000J0D01*
G01*
X203182000Y-169734000D01*
G75*
G02*
X203432000Y-169984000I0J-250000D01*
G01*
X203432000Y-170934000D01*
G75*
G02*
X203182000Y-171184000I-250000J0D01*
G01*
X202507000Y-171184000D01*
G75*
G02*
X202257000Y-170934000I0J250000D01*
G01*
G37*
G36*
G01*
X200182000Y-170934000D02*
X200182000Y-169984000D01*
G75*
G02*
X200432000Y-169734000I250000J0D01*
G01*
X201107000Y-169734000D01*
G75*
G02*
X201357000Y-169984000I0J-250000D01*
G01*
X201357000Y-170934000D01*
G75*
G02*
X201107000Y-171184000I-250000J0D01*
G01*
X200432000Y-171184000D01*
G75*
G02*
X200182000Y-170934000I0J250000D01*
G01*
G37*
%TD*%
M02*
