%TF.GenerationSoftware,KiCad,Pcbnew,(5.1.12)-1*%
%TF.CreationDate,2022-03-05T19:22:20+03:30*%
%TF.ProjectId,JKB67,4a4b4236-372e-46b6-9963-61645f706362,rev?*%
%TF.SameCoordinates,Original*%
%TF.FileFunction,Soldermask,Top*%
%TF.FilePolarity,Negative*%
%FSLAX46Y46*%
G04 Gerber Fmt 4.6, Leading zero omitted, Abs format (unit mm)*
G04 Created by KiCad (PCBNEW (5.1.12)-1) date 2022-03-05 19:22:20*
%MOMM*%
%LPD*%
G01*
G04 APERTURE LIST*
%ADD10C,3.000000*%
%ADD11C,1.750000*%
%ADD12C,4.000000*%
%ADD13C,3.987800*%
%ADD14C,3.048000*%
G04 APERTURE END LIST*
D10*
%TO.C,U72*%
X355752000Y-159169000D03*
X349402000Y-161709000D03*
D11*
X358292000Y-164249000D03*
X348132000Y-164249000D03*
D12*
X353212000Y-164249000D03*
%TD*%
D10*
%TO.C,U71*%
X355752000Y-140119000D03*
X349402000Y-142659000D03*
D11*
X358292000Y-145199000D03*
X348132000Y-145199000D03*
D12*
X353212000Y-145199000D03*
%TD*%
D10*
%TO.C,U70*%
X355740000Y-121056000D03*
X349390000Y-123596000D03*
D11*
X358280000Y-126136000D03*
X348120000Y-126136000D03*
D12*
X353200000Y-126136000D03*
%TD*%
D10*
%TO.C,U69*%
X355761000Y-102032000D03*
X349411000Y-104572000D03*
D11*
X358301000Y-107112000D03*
X348141000Y-107112000D03*
D12*
X353221000Y-107112000D03*
%TD*%
D10*
%TO.C,U68*%
X355752000Y-82981800D03*
X349402000Y-85521800D03*
D11*
X358292000Y-88061800D03*
X348132000Y-88061800D03*
D12*
X353212000Y-88061800D03*
%TD*%
%TO.C,U67*%
X324612000Y-88061800D03*
D11*
X319532000Y-88061800D03*
X329692000Y-88061800D03*
D10*
X320802000Y-85521800D03*
X327152000Y-82981800D03*
%TD*%
%TO.C,U66*%
X336702000Y-159169000D03*
X330352000Y-161709000D03*
D11*
X339242000Y-164249000D03*
X329082000Y-164249000D03*
D12*
X334162000Y-164249000D03*
%TD*%
D10*
%TO.C,U65*%
X336702000Y-140132000D03*
X330352000Y-142672000D03*
D11*
X339242000Y-145212000D03*
X329082000Y-145212000D03*
D12*
X334162000Y-145212000D03*
%TD*%
%TO.C,U64*%
X322275000Y-126162000D03*
D11*
X317195000Y-126162000D03*
X327355000Y-126162000D03*
D10*
X318465000Y-123622000D03*
X324815000Y-121082000D03*
%TD*%
D12*
%TO.C,U63*%
X329413000Y-107099000D03*
D11*
X324333000Y-107099000D03*
X334493000Y-107099000D03*
D10*
X325603000Y-104559000D03*
X331953000Y-102019000D03*
%TD*%
%TO.C,U62*%
X317627000Y-159182000D03*
X311277000Y-161722000D03*
D11*
X320167000Y-164262000D03*
X310007000Y-164262000D03*
D12*
X315087000Y-164262000D03*
%TD*%
%TO.C,U61*%
X307950000Y-145212000D03*
D11*
X302870000Y-145212000D03*
X313030000Y-145212000D03*
D10*
X304140000Y-142672000D03*
X310490000Y-140132000D03*
%TD*%
%TO.C,U60*%
X308140000Y-102019000D03*
X301790000Y-104559000D03*
D11*
X310680000Y-107099000D03*
X300520000Y-107099000D03*
D12*
X305600000Y-107099000D03*
%TD*%
D10*
%TO.C,U59*%
X298577000Y-82981800D03*
X292227000Y-85521800D03*
D11*
X301117000Y-88061800D03*
X290957000Y-88061800D03*
D12*
X296037000Y-88061800D03*
%TD*%
%TO.C,U58*%
X284213000Y-164313000D03*
D11*
X279133000Y-164313000D03*
X289293000Y-164313000D03*
D10*
X280403000Y-161773000D03*
X286753000Y-159233000D03*
%TD*%
%TO.C,U57*%
X284302000Y-140132000D03*
X277952000Y-142672000D03*
D11*
X286842000Y-145212000D03*
X276682000Y-145212000D03*
D12*
X281762000Y-145212000D03*
%TD*%
D10*
%TO.C,U56*%
X293865000Y-121069000D03*
X287515000Y-123609000D03*
D11*
X296405000Y-126149000D03*
X286245000Y-126149000D03*
D12*
X291325000Y-126149000D03*
%TD*%
D10*
%TO.C,U55*%
X289090000Y-102019000D03*
X282740000Y-104559000D03*
D11*
X291630000Y-107099000D03*
X281470000Y-107099000D03*
D12*
X286550000Y-107099000D03*
%TD*%
D10*
%TO.C,U54*%
X279540000Y-82981800D03*
X273190000Y-85521800D03*
D11*
X282080000Y-88061800D03*
X271920000Y-88061800D03*
D12*
X277000000Y-88061800D03*
%TD*%
D10*
%TO.C,U52*%
X265265000Y-140119000D03*
X258915000Y-142659000D03*
D11*
X267805000Y-145199000D03*
X257645000Y-145199000D03*
D12*
X262725000Y-145199000D03*
%TD*%
D10*
%TO.C,U51*%
X274815000Y-121069000D03*
X268465000Y-123609000D03*
D11*
X277355000Y-126149000D03*
X267195000Y-126149000D03*
D12*
X272275000Y-126149000D03*
%TD*%
D10*
%TO.C,U50*%
X270040000Y-102019000D03*
X263690000Y-104559000D03*
D11*
X272580000Y-107099000D03*
X262420000Y-107099000D03*
D12*
X267500000Y-107099000D03*
%TD*%
D10*
%TO.C,U49*%
X260490000Y-82981800D03*
X254140000Y-85521800D03*
D11*
X263030000Y-88061800D03*
X252870000Y-88061800D03*
D12*
X257950000Y-88061800D03*
%TD*%
%TO.C,U48*%
X260388000Y-164313000D03*
D11*
X255308000Y-164313000D03*
X265468000Y-164313000D03*
D10*
X256578000Y-161773000D03*
X262928000Y-159233000D03*
%TD*%
%TO.C,U47*%
X246215000Y-140157000D03*
X239865000Y-142697000D03*
D11*
X248755000Y-145237000D03*
X238595000Y-145237000D03*
D12*
X243675000Y-145237000D03*
%TD*%
D10*
%TO.C,U46*%
X255765000Y-121069000D03*
X249415000Y-123609000D03*
D11*
X258305000Y-126149000D03*
X248145000Y-126149000D03*
D12*
X253225000Y-126149000D03*
%TD*%
D10*
%TO.C,U45*%
X250977000Y-102044000D03*
X244627000Y-104584000D03*
D11*
X253517000Y-107124000D03*
X243357000Y-107124000D03*
D12*
X248437000Y-107124000D03*
%TD*%
D10*
%TO.C,U44*%
X241440000Y-82981800D03*
X235090000Y-85521800D03*
D11*
X243980000Y-88061800D03*
X233820000Y-88061800D03*
D12*
X238900000Y-88061800D03*
%TD*%
D10*
%TO.C,U43*%
X227178000Y-140144000D03*
X220828000Y-142684000D03*
D11*
X229718000Y-145224000D03*
X219558000Y-145224000D03*
D12*
X224638000Y-145224000D03*
%TD*%
D10*
%TO.C,U42*%
X236715000Y-121082000D03*
X230365000Y-123622000D03*
D11*
X239255000Y-126162000D03*
X229095000Y-126162000D03*
D12*
X234175000Y-126162000D03*
%TD*%
D10*
%TO.C,U41*%
X231927000Y-102032000D03*
X225577000Y-104572000D03*
D11*
X234467000Y-107112000D03*
X224307000Y-107112000D03*
D12*
X229387000Y-107112000D03*
%TD*%
D10*
%TO.C,U40*%
X222377000Y-82981800D03*
X216027000Y-85521800D03*
D11*
X224917000Y-88061800D03*
X214757000Y-88061800D03*
D12*
X219837000Y-88061800D03*
%TD*%
D10*
%TO.C,U39*%
X208128000Y-140144000D03*
X201778000Y-142684000D03*
D11*
X210668000Y-145224000D03*
X200508000Y-145224000D03*
D12*
X205588000Y-145224000D03*
%TD*%
D10*
%TO.C,U38*%
X217691000Y-121094000D03*
X211341000Y-123634000D03*
D11*
X220231000Y-126174000D03*
X210071000Y-126174000D03*
D12*
X215151000Y-126174000D03*
%TD*%
D10*
%TO.C,U37*%
X212877000Y-102032000D03*
X206527000Y-104572000D03*
D11*
X215417000Y-107112000D03*
X205257000Y-107112000D03*
D12*
X210337000Y-107112000D03*
%TD*%
D10*
%TO.C,U36*%
X203327000Y-82981800D03*
X196977000Y-85521800D03*
D11*
X205867000Y-88061800D03*
X195707000Y-88061800D03*
D12*
X200787000Y-88061800D03*
%TD*%
%TO.C,U35*%
X188938000Y-164262000D03*
D11*
X183858000Y-164262000D03*
X194018000Y-164262000D03*
D10*
X185128000Y-161722000D03*
X191478000Y-159182000D03*
%TD*%
%TO.C,U34*%
X189090000Y-140157000D03*
X182740000Y-142697000D03*
D11*
X191630000Y-145237000D03*
X181470000Y-145237000D03*
D12*
X186550000Y-145237000D03*
%TD*%
D10*
%TO.C,U33*%
X198628000Y-121082000D03*
X192278000Y-123622000D03*
D11*
X201168000Y-126162000D03*
X191008000Y-126162000D03*
D12*
X196088000Y-126162000D03*
%TD*%
D10*
%TO.C,U32*%
X193827000Y-102044000D03*
X187477000Y-104584000D03*
D11*
X196367000Y-107124000D03*
X186207000Y-107124000D03*
D12*
X191287000Y-107124000D03*
%TD*%
D10*
%TO.C,U31*%
X184290000Y-82981800D03*
X177940000Y-85521800D03*
D11*
X186830000Y-88061800D03*
X176670000Y-88061800D03*
D12*
X181750000Y-88061800D03*
%TD*%
D10*
%TO.C,U30*%
X170028000Y-140144000D03*
X163678000Y-142684000D03*
D11*
X172568000Y-145224000D03*
X162408000Y-145224000D03*
D12*
X167488000Y-145224000D03*
%TD*%
D10*
%TO.C,U29*%
X179578000Y-121094000D03*
X173228000Y-123634000D03*
D11*
X182118000Y-126174000D03*
X171958000Y-126174000D03*
D12*
X177038000Y-126174000D03*
%TD*%
D10*
%TO.C,U28*%
X174765000Y-102032000D03*
X168415000Y-104572000D03*
D11*
X177305000Y-107112000D03*
X167145000Y-107112000D03*
D12*
X172225000Y-107112000D03*
%TD*%
D10*
%TO.C,U27*%
X165240000Y-82981800D03*
X158890000Y-85521800D03*
D11*
X167780000Y-88061800D03*
X157620000Y-88061800D03*
D12*
X162700000Y-88061800D03*
%TD*%
D10*
%TO.C,U26*%
X150965000Y-140132000D03*
X144615000Y-142672000D03*
D11*
X153505000Y-145212000D03*
X143345000Y-145212000D03*
D12*
X148425000Y-145212000D03*
%TD*%
D10*
%TO.C,U25*%
X160515000Y-121082000D03*
X154165000Y-123622000D03*
D11*
X163055000Y-126162000D03*
X152895000Y-126162000D03*
D12*
X157975000Y-126162000D03*
%TD*%
D10*
%TO.C,U24*%
X155702000Y-102044000D03*
X149352000Y-104584000D03*
D11*
X158242000Y-107124000D03*
X148082000Y-107124000D03*
D12*
X153162000Y-107124000D03*
%TD*%
D10*
%TO.C,U23*%
X146202000Y-82981800D03*
X139852000Y-85521800D03*
D11*
X148742000Y-88061800D03*
X138582000Y-88061800D03*
D12*
X143662000Y-88061800D03*
%TD*%
D10*
%TO.C,U20*%
X131928000Y-140119000D03*
X125578000Y-142659000D03*
D11*
X134468000Y-145199000D03*
X124308000Y-145199000D03*
D12*
X129388000Y-145199000D03*
%TD*%
D10*
%TO.C,U19*%
X141440000Y-121082000D03*
X135090000Y-123622000D03*
D11*
X143980000Y-126162000D03*
X133820000Y-126162000D03*
D12*
X138900000Y-126162000D03*
%TD*%
D10*
%TO.C,U18*%
X136652000Y-102032000D03*
X130302000Y-104572000D03*
D11*
X139192000Y-107112000D03*
X129032000Y-107112000D03*
D12*
X134112000Y-107112000D03*
%TD*%
D10*
%TO.C,U17*%
X127140000Y-82981800D03*
X120790000Y-85521800D03*
D11*
X129680000Y-88061800D03*
X119520000Y-88061800D03*
D12*
X124600000Y-88061800D03*
%TD*%
D13*
%TO.C,U16*%
X67424300Y-153467000D03*
X91300300Y-153467000D03*
D14*
X67424300Y-138227000D03*
X91300300Y-138227000D03*
%TD*%
D12*
%TO.C,U14*%
X117475000Y-164287000D03*
D11*
X112395000Y-164287000D03*
X122555000Y-164287000D03*
D10*
X113665000Y-161747000D03*
X120015000Y-159207000D03*
%TD*%
%TO.C,U13*%
X112878000Y-140119000D03*
X106528000Y-142659000D03*
D11*
X115418000Y-145199000D03*
X105258000Y-145199000D03*
D12*
X110338000Y-145199000D03*
%TD*%
D10*
%TO.C,U12*%
X122390000Y-121082000D03*
X116040000Y-123622000D03*
D11*
X124930000Y-126162000D03*
X114770000Y-126162000D03*
D12*
X119850000Y-126162000D03*
%TD*%
D10*
%TO.C,U11*%
X117627000Y-102032000D03*
X111277000Y-104572000D03*
D11*
X120167000Y-107112000D03*
X110007000Y-107112000D03*
D12*
X115087000Y-107112000D03*
%TD*%
D10*
%TO.C,U10*%
X108090000Y-82981800D03*
X101740000Y-85521800D03*
D11*
X110630000Y-88061800D03*
X100470000Y-88061800D03*
D12*
X105550000Y-88061800D03*
%TD*%
%TO.C,U9*%
X93662500Y-164274000D03*
D11*
X88582500Y-164274000D03*
X98742500Y-164274000D03*
D10*
X89852500Y-161734000D03*
X96202500Y-159194000D03*
%TD*%
%TO.C,U8*%
X103340000Y-121094000D03*
X96990000Y-123634000D03*
D11*
X105880000Y-126174000D03*
X95720000Y-126174000D03*
D12*
X100800000Y-126174000D03*
%TD*%
D10*
%TO.C,U7*%
X98577400Y-102032000D03*
X92227400Y-104572000D03*
D11*
X101117400Y-107112000D03*
X90957400Y-107112000D03*
D12*
X96037400Y-107112000D03*
%TD*%
D10*
%TO.C,U6*%
X89039700Y-82981800D03*
X82689700Y-85521800D03*
D11*
X91579700Y-88061800D03*
X81419700Y-88061800D03*
D12*
X86499700Y-88061800D03*
%TD*%
%TO.C,U5*%
X69837300Y-164274000D03*
D11*
X64757300Y-164274000D03*
X74917300Y-164274000D03*
D10*
X66027300Y-161734000D03*
X72377300Y-159194000D03*
%TD*%
D12*
%TO.C,U4*%
X79362300Y-145212000D03*
D11*
X74282300Y-145212000D03*
X84442300Y-145212000D03*
D10*
X75552300Y-142672000D03*
X81902300Y-140132000D03*
%TD*%
D12*
%TO.C,U3*%
X74599800Y-126174000D03*
D11*
X69519800Y-126174000D03*
X79679800Y-126174000D03*
D10*
X70789800Y-123634000D03*
X77139800Y-121094000D03*
%TD*%
D12*
%TO.C,U2*%
X72212200Y-107124000D03*
D11*
X67132200Y-107124000D03*
X77292200Y-107124000D03*
D10*
X68402200Y-104584000D03*
X74752200Y-102044000D03*
%TD*%
%TO.C,U1*%
X69989700Y-82994500D03*
X63639700Y-85534500D03*
D11*
X72529700Y-88074500D03*
X62369700Y-88074500D03*
D12*
X67449700Y-88074500D03*
%TD*%
D13*
%TO.C,U22*%
X238937900Y-156007000D03*
X138938100Y-156007000D03*
D14*
X238937900Y-171247000D03*
X138938100Y-171247000D03*
%TD*%
D13*
%TO.C,U21*%
X334200000Y-117919000D03*
X310324000Y-117919000D03*
D14*
X334200000Y-133159000D03*
X310324000Y-133159000D03*
%TD*%
D13*
%TO.C,U15*%
X312674000Y-96316800D03*
X336550000Y-96316800D03*
D14*
X312674000Y-81076800D03*
X336550000Y-81076800D03*
%TD*%
M02*
