%TF.GenerationSoftware,KiCad,Pcbnew,(5.1.12)-1*%
%TF.CreationDate,2022-03-05T19:22:20+03:30*%
%TF.ProjectId,JKB67,4a4b4236-372e-46b6-9963-61645f706362,rev?*%
%TF.SameCoordinates,Original*%
%TF.FileFunction,Legend,Bot*%
%TF.FilePolarity,Positive*%
%FSLAX46Y46*%
G04 Gerber Fmt 4.6, Leading zero omitted, Abs format (unit mm)*
G04 Created by KiCad (PCBNEW (5.1.12)-1) date 2022-03-05 19:22:20*
%MOMM*%
%LPD*%
G01*
G04 APERTURE LIST*
%ADD10C,0.120000*%
%ADD11C,0.150000*%
G04 APERTURE END LIST*
D10*
%TO.C,U72*%
X351212000Y-167499000D02*
X351212000Y-167799000D01*
X351512000Y-167499000D02*
X351212000Y-167499000D01*
%TO.C,U71*%
X351212000Y-148449000D02*
X351212000Y-148749000D01*
X351512000Y-148449000D02*
X351212000Y-148449000D01*
%TO.C,U70*%
X351200000Y-129386000D02*
X351200000Y-129686000D01*
X351500000Y-129386000D02*
X351200000Y-129386000D01*
%TO.C,U69*%
X351221000Y-110362000D02*
X351221000Y-110662000D01*
X351521000Y-110362000D02*
X351221000Y-110362000D01*
%TO.C,U68*%
X351212000Y-91311800D02*
X351212000Y-91611800D01*
X351512000Y-91311800D02*
X351212000Y-91311800D01*
%TO.C,U67*%
X322912000Y-91311800D02*
X322612000Y-91311800D01*
X322612000Y-91311800D02*
X322612000Y-91611800D01*
%TO.C,U66*%
X332162000Y-167499000D02*
X332162000Y-167799000D01*
X332462000Y-167499000D02*
X332162000Y-167499000D01*
%TO.C,U65*%
X332162000Y-148462000D02*
X332162000Y-148762000D01*
X332462000Y-148462000D02*
X332162000Y-148462000D01*
%TO.C,U64*%
X320575000Y-129412000D02*
X320275000Y-129412000D01*
X320275000Y-129412000D02*
X320275000Y-129712000D01*
%TO.C,U63*%
X327713000Y-110349000D02*
X327413000Y-110349000D01*
X327413000Y-110349000D02*
X327413000Y-110649000D01*
%TO.C,U62*%
X313087000Y-167512000D02*
X313087000Y-167812000D01*
X313387000Y-167512000D02*
X313087000Y-167512000D01*
%TO.C,U61*%
X306250000Y-148462000D02*
X305950000Y-148462000D01*
X305950000Y-148462000D02*
X305950000Y-148762000D01*
%TO.C,U60*%
X303600000Y-110349000D02*
X303600000Y-110649000D01*
X303900000Y-110349000D02*
X303600000Y-110349000D01*
%TO.C,U59*%
X294037000Y-91311800D02*
X294037000Y-91611800D01*
X294337000Y-91311800D02*
X294037000Y-91311800D01*
%TO.C,U58*%
X282513000Y-167563000D02*
X282213000Y-167563000D01*
X282213000Y-167563000D02*
X282213000Y-167863000D01*
%TO.C,U57*%
X279762000Y-148462000D02*
X279762000Y-148762000D01*
X280062000Y-148462000D02*
X279762000Y-148462000D01*
%TO.C,U56*%
X289325000Y-129399000D02*
X289325000Y-129699000D01*
X289625000Y-129399000D02*
X289325000Y-129399000D01*
%TO.C,U55*%
X284550000Y-110349000D02*
X284550000Y-110649000D01*
X284850000Y-110349000D02*
X284550000Y-110349000D01*
%TO.C,U54*%
X275000000Y-91311800D02*
X275000000Y-91611800D01*
X275300000Y-91311800D02*
X275000000Y-91311800D01*
%TO.C,U52*%
X260725000Y-148449000D02*
X260725000Y-148749000D01*
X261025000Y-148449000D02*
X260725000Y-148449000D01*
%TO.C,U51*%
X270275000Y-129399000D02*
X270275000Y-129699000D01*
X270575000Y-129399000D02*
X270275000Y-129399000D01*
%TO.C,U50*%
X265500000Y-110349000D02*
X265500000Y-110649000D01*
X265800000Y-110349000D02*
X265500000Y-110349000D01*
%TO.C,U49*%
X255950000Y-91311800D02*
X255950000Y-91611800D01*
X256250000Y-91311800D02*
X255950000Y-91311800D01*
%TO.C,U48*%
X258688000Y-167563000D02*
X258388000Y-167563000D01*
X258388000Y-167563000D02*
X258388000Y-167863000D01*
%TO.C,U47*%
X241675000Y-148487000D02*
X241675000Y-148787000D01*
X241975000Y-148487000D02*
X241675000Y-148487000D01*
%TO.C,U46*%
X251225000Y-129399000D02*
X251225000Y-129699000D01*
X251525000Y-129399000D02*
X251225000Y-129399000D01*
%TO.C,U45*%
X246437000Y-110374000D02*
X246437000Y-110674000D01*
X246737000Y-110374000D02*
X246437000Y-110374000D01*
%TO.C,U44*%
X236900000Y-91311800D02*
X236900000Y-91611800D01*
X237200000Y-91311800D02*
X236900000Y-91311800D01*
%TO.C,U43*%
X222638000Y-148474000D02*
X222638000Y-148774000D01*
X222938000Y-148474000D02*
X222638000Y-148474000D01*
%TO.C,U42*%
X232175000Y-129412000D02*
X232175000Y-129712000D01*
X232475000Y-129412000D02*
X232175000Y-129412000D01*
%TO.C,U41*%
X227387000Y-110362000D02*
X227387000Y-110662000D01*
X227687000Y-110362000D02*
X227387000Y-110362000D01*
%TO.C,U40*%
X217837000Y-91311800D02*
X217837000Y-91611800D01*
X218137000Y-91311800D02*
X217837000Y-91311800D01*
%TO.C,U39*%
X203588000Y-148474000D02*
X203588000Y-148774000D01*
X203888000Y-148474000D02*
X203588000Y-148474000D01*
%TO.C,U38*%
X213151000Y-129424000D02*
X213151000Y-129724000D01*
X213451000Y-129424000D02*
X213151000Y-129424000D01*
%TO.C,U37*%
X208337000Y-110362000D02*
X208337000Y-110662000D01*
X208637000Y-110362000D02*
X208337000Y-110362000D01*
%TO.C,U36*%
X198787000Y-91311800D02*
X198787000Y-91611800D01*
X199087000Y-91311800D02*
X198787000Y-91311800D01*
%TO.C,U35*%
X187238000Y-167512000D02*
X186938000Y-167512000D01*
X186938000Y-167512000D02*
X186938000Y-167812000D01*
%TO.C,U34*%
X184550000Y-148487000D02*
X184550000Y-148787000D01*
X184850000Y-148487000D02*
X184550000Y-148487000D01*
%TO.C,U33*%
X194088000Y-129412000D02*
X194088000Y-129712000D01*
X194388000Y-129412000D02*
X194088000Y-129412000D01*
%TO.C,U32*%
X189287000Y-110374000D02*
X189287000Y-110674000D01*
X189587000Y-110374000D02*
X189287000Y-110374000D01*
%TO.C,U31*%
X179750000Y-91311800D02*
X179750000Y-91611800D01*
X180050000Y-91311800D02*
X179750000Y-91311800D01*
%TO.C,U30*%
X165488000Y-148474000D02*
X165488000Y-148774000D01*
X165788000Y-148474000D02*
X165488000Y-148474000D01*
%TO.C,U29*%
X175038000Y-129424000D02*
X175038000Y-129724000D01*
X175338000Y-129424000D02*
X175038000Y-129424000D01*
%TO.C,U28*%
X170225000Y-110362000D02*
X170225000Y-110662000D01*
X170525000Y-110362000D02*
X170225000Y-110362000D01*
%TO.C,U27*%
X160700000Y-91311800D02*
X160700000Y-91611800D01*
X161000000Y-91311800D02*
X160700000Y-91311800D01*
%TO.C,U26*%
X146425000Y-148462000D02*
X146425000Y-148762000D01*
X146725000Y-148462000D02*
X146425000Y-148462000D01*
%TO.C,U25*%
X155975000Y-129412000D02*
X155975000Y-129712000D01*
X156275000Y-129412000D02*
X155975000Y-129412000D01*
%TO.C,U24*%
X151162000Y-110374000D02*
X151162000Y-110674000D01*
X151462000Y-110374000D02*
X151162000Y-110374000D01*
%TO.C,U23*%
X141662000Y-91311800D02*
X141662000Y-91611800D01*
X141962000Y-91311800D02*
X141662000Y-91311800D01*
%TO.C,U20*%
X127388000Y-148449000D02*
X127388000Y-148749000D01*
X127688000Y-148449000D02*
X127388000Y-148449000D01*
%TO.C,U19*%
X136900000Y-129412000D02*
X136900000Y-129712000D01*
X137200000Y-129412000D02*
X136900000Y-129412000D01*
%TO.C,U18*%
X132112000Y-110362000D02*
X132112000Y-110662000D01*
X132412000Y-110362000D02*
X132112000Y-110362000D01*
%TO.C,U17*%
X122600000Y-91311800D02*
X122600000Y-91611800D01*
X122900000Y-91311800D02*
X122600000Y-91311800D01*
%TO.C,U14*%
X115775000Y-167537000D02*
X115475000Y-167537000D01*
X115475000Y-167537000D02*
X115475000Y-167837000D01*
%TO.C,U13*%
X108338000Y-148449000D02*
X108338000Y-148749000D01*
X108638000Y-148449000D02*
X108338000Y-148449000D01*
%TO.C,U12*%
X117850000Y-129412000D02*
X117850000Y-129712000D01*
X118150000Y-129412000D02*
X117850000Y-129412000D01*
%TO.C,U11*%
X113087000Y-110362000D02*
X113087000Y-110662000D01*
X113387000Y-110362000D02*
X113087000Y-110362000D01*
%TO.C,U10*%
X103550000Y-91311800D02*
X103550000Y-91611800D01*
X103850000Y-91311800D02*
X103550000Y-91311800D01*
%TO.C,U9*%
X91962500Y-167524000D02*
X91662500Y-167524000D01*
X91662500Y-167524000D02*
X91662500Y-167824000D01*
%TO.C,U8*%
X98800000Y-129424000D02*
X98800000Y-129724000D01*
X99100000Y-129424000D02*
X98800000Y-129424000D01*
%TO.C,U7*%
X94037400Y-110362000D02*
X94037400Y-110662000D01*
X94337400Y-110362000D02*
X94037400Y-110362000D01*
%TO.C,U6*%
X84499700Y-91311800D02*
X84499700Y-91611800D01*
X84799700Y-91311800D02*
X84499700Y-91311800D01*
%TO.C,U5*%
X68137300Y-167524000D02*
X67837300Y-167524000D01*
X67837300Y-167524000D02*
X67837300Y-167824000D01*
%TO.C,U4*%
X77662300Y-148462000D02*
X77362300Y-148462000D01*
X77362300Y-148462000D02*
X77362300Y-148762000D01*
%TO.C,U3*%
X72899800Y-129424000D02*
X72599800Y-129424000D01*
X72599800Y-129424000D02*
X72599800Y-129724000D01*
%TO.C,U2*%
X70512200Y-110374000D02*
X70212200Y-110374000D01*
X70212200Y-110374000D02*
X70212200Y-110674000D01*
%TO.C,U1*%
X65449700Y-91324500D02*
X65449700Y-91624500D01*
X65749700Y-91324500D02*
X65449700Y-91324500D01*
D11*
%TO.C,U53*%
X150679000Y-159188000D02*
X151254000Y-159188000D01*
X150679000Y-169538000D02*
X151354000Y-169538000D01*
X161029000Y-169538000D02*
X160354000Y-169538000D01*
X161029000Y-159188000D02*
X160354000Y-159188000D01*
X150679000Y-159188000D02*
X150679000Y-159863000D01*
X161029000Y-159188000D02*
X161029000Y-159863000D01*
X161029000Y-169538000D02*
X161029000Y-168863000D01*
X150679000Y-169538000D02*
X150679000Y-168863000D01*
X151254000Y-159188000D02*
X151254000Y-157913000D01*
D10*
%TO.C,D68*%
X361261000Y-170107000D02*
X361261000Y-166257000D01*
X359261000Y-170107000D02*
X359261000Y-166257000D01*
X361261000Y-170107000D02*
X359261000Y-170107000D01*
%TO.C,D67*%
X361210000Y-151072000D02*
X361210000Y-147222000D01*
X359210000Y-151072000D02*
X359210000Y-147222000D01*
X361210000Y-151072000D02*
X359210000Y-151072000D01*
%TO.C,D66*%
X361223000Y-132149000D02*
X361223000Y-128299000D01*
X359223000Y-132149000D02*
X359223000Y-128299000D01*
X361223000Y-132149000D02*
X359223000Y-132149000D01*
%TO.C,D65*%
X361236000Y-112909000D02*
X361236000Y-109059000D01*
X359236000Y-112909000D02*
X359236000Y-109059000D01*
X361236000Y-112909000D02*
X359236000Y-112909000D01*
%TO.C,D64*%
X361210000Y-93947800D02*
X361210000Y-90097800D01*
X359210000Y-93947800D02*
X359210000Y-90097800D01*
X361210000Y-93947800D02*
X359210000Y-93947800D01*
%TO.C,D63*%
X333626000Y-90249100D02*
X333626000Y-86399100D01*
X331626000Y-90249100D02*
X331626000Y-86399100D01*
X333626000Y-90249100D02*
X331626000Y-90249100D01*
%TO.C,D62*%
X343202000Y-166271000D02*
X343202000Y-162421000D01*
X341202000Y-166271000D02*
X341202000Y-162421000D01*
X343202000Y-166271000D02*
X341202000Y-166271000D01*
%TO.C,D61*%
X343163000Y-147374000D02*
X343163000Y-143524000D01*
X341163000Y-147374000D02*
X341163000Y-143524000D01*
X343163000Y-147374000D02*
X341163000Y-147374000D01*
%TO.C,D60*%
X331251000Y-128400000D02*
X331251000Y-124550000D01*
X329251000Y-128400000D02*
X329251000Y-124550000D01*
X331251000Y-128400000D02*
X329251000Y-128400000D01*
%TO.C,D59*%
X338528000Y-109248000D02*
X338528000Y-105398000D01*
X336528000Y-109248000D02*
X336528000Y-105398000D01*
X338528000Y-109248000D02*
X336528000Y-109248000D01*
%TO.C,D58*%
X324126000Y-166513000D02*
X324126000Y-162663000D01*
X322126000Y-166513000D02*
X322126000Y-162663000D01*
X324126000Y-166513000D02*
X322126000Y-166513000D01*
%TO.C,D57*%
X316951000Y-147336000D02*
X316951000Y-143486000D01*
X314951000Y-147336000D02*
X314951000Y-143486000D01*
X316951000Y-147336000D02*
X314951000Y-147336000D01*
%TO.C,D56*%
X314601000Y-109375000D02*
X314601000Y-105525000D01*
X312601000Y-109375000D02*
X312601000Y-105525000D01*
X314601000Y-109375000D02*
X312601000Y-109375000D01*
%TO.C,D55*%
X305051000Y-90322300D02*
X305051000Y-86472300D01*
X303051000Y-90322300D02*
X303051000Y-86472300D01*
X305051000Y-90322300D02*
X303051000Y-90322300D01*
%TO.C,D54*%
X293240000Y-166589000D02*
X293240000Y-162739000D01*
X291240000Y-166589000D02*
X291240000Y-162739000D01*
X293240000Y-166589000D02*
X291240000Y-166589000D01*
%TO.C,D53*%
X290763000Y-147374000D02*
X290763000Y-143524000D01*
X288763000Y-147374000D02*
X288763000Y-143524000D01*
X290763000Y-147374000D02*
X288763000Y-147374000D01*
%TO.C,D52*%
X300326000Y-128324000D02*
X300326000Y-124474000D01*
X298326000Y-128324000D02*
X298326000Y-124474000D01*
X300326000Y-128324000D02*
X298326000Y-128324000D01*
%TO.C,D51*%
X295551000Y-109286000D02*
X295551000Y-105436000D01*
X293551000Y-109286000D02*
X293551000Y-105436000D01*
X295551000Y-109286000D02*
X293551000Y-109286000D01*
%TO.C,D50*%
X286026000Y-90287200D02*
X286026000Y-86437200D01*
X284026000Y-90287200D02*
X284026000Y-86437200D01*
X286026000Y-90287200D02*
X284026000Y-90287200D01*
%TO.C,D49*%
X271688000Y-147412000D02*
X271688000Y-143562000D01*
X269688000Y-147412000D02*
X269688000Y-143562000D01*
X271688000Y-147412000D02*
X269688000Y-147412000D01*
%TO.C,D48*%
X281264000Y-128425000D02*
X281264000Y-124575000D01*
X279264000Y-128425000D02*
X279264000Y-124575000D01*
X281264000Y-128425000D02*
X279264000Y-128425000D01*
%TO.C,D47*%
X276488000Y-109324000D02*
X276488000Y-105474000D01*
X274488000Y-109324000D02*
X274488000Y-105474000D01*
X276488000Y-109324000D02*
X274488000Y-109324000D01*
%TO.C,D46*%
X267014000Y-90353700D02*
X267014000Y-86503700D01*
X265014000Y-90353700D02*
X265014000Y-86503700D01*
X267014000Y-90353700D02*
X265014000Y-90353700D01*
%TO.C,D45*%
X269389000Y-166474000D02*
X269389000Y-162624000D01*
X267389000Y-166474000D02*
X267389000Y-162624000D01*
X269389000Y-166474000D02*
X267389000Y-166474000D01*
%TO.C,D44*%
X252701000Y-147450000D02*
X252701000Y-143600000D01*
X250701000Y-147450000D02*
X250701000Y-143600000D01*
X252701000Y-147450000D02*
X250701000Y-147450000D01*
%TO.C,D43*%
X262214000Y-128365000D02*
X262214000Y-124515000D01*
X260214000Y-128365000D02*
X260214000Y-124515000D01*
X262214000Y-128365000D02*
X260214000Y-128365000D01*
%TO.C,D42*%
X257464000Y-109328000D02*
X257464000Y-105478000D01*
X255464000Y-109328000D02*
X255464000Y-105478000D01*
X257464000Y-109328000D02*
X255464000Y-109328000D01*
%TO.C,D41*%
X247926000Y-90360400D02*
X247926000Y-86510400D01*
X245926000Y-90360400D02*
X245926000Y-86510400D01*
X247926000Y-90360400D02*
X245926000Y-90360400D01*
%TO.C,D40*%
X233626000Y-147389000D02*
X233626000Y-143539000D01*
X231626000Y-147389000D02*
X231626000Y-143539000D01*
X233626000Y-147389000D02*
X231626000Y-147389000D01*
%TO.C,D39*%
X243189000Y-128276000D02*
X243189000Y-124426000D01*
X241189000Y-128276000D02*
X241189000Y-124426000D01*
X243189000Y-128276000D02*
X241189000Y-128276000D01*
%TO.C,D38*%
X238401000Y-109337000D02*
X238401000Y-105487000D01*
X236401000Y-109337000D02*
X236401000Y-105487000D01*
X238401000Y-109337000D02*
X236401000Y-109337000D01*
%TO.C,D37*%
X228825000Y-90249100D02*
X228825000Y-86399100D01*
X226825000Y-90249100D02*
X226825000Y-86399100D01*
X228825000Y-90249100D02*
X226825000Y-90249100D01*
%TO.C,D36*%
X214576000Y-147412000D02*
X214576000Y-143562000D01*
X212576000Y-147412000D02*
X212576000Y-143562000D01*
X214576000Y-147412000D02*
X212576000Y-147412000D01*
%TO.C,D35*%
X224164000Y-128349000D02*
X224164000Y-124499000D01*
X222164000Y-128349000D02*
X222164000Y-124499000D01*
X224164000Y-128349000D02*
X222164000Y-128349000D01*
%TO.C,D34*%
X219351000Y-109337000D02*
X219351000Y-105487000D01*
X217351000Y-109337000D02*
X217351000Y-105487000D01*
X219351000Y-109337000D02*
X217351000Y-109337000D01*
%TO.C,D33*%
X209788000Y-90239400D02*
X209788000Y-86389400D01*
X207788000Y-90239400D02*
X207788000Y-86389400D01*
X209788000Y-90239400D02*
X207788000Y-90239400D01*
%TO.C,D32*%
X197990000Y-166576000D02*
X197990000Y-162726000D01*
X195990000Y-166576000D02*
X195990000Y-162726000D01*
X197990000Y-166576000D02*
X195990000Y-166576000D01*
%TO.C,D31*%
X195602000Y-147488000D02*
X195602000Y-143638000D01*
X193602000Y-147488000D02*
X193602000Y-143638000D01*
X195602000Y-147488000D02*
X193602000Y-147488000D01*
%TO.C,D30*%
X205114000Y-128400000D02*
X205114000Y-124550000D01*
X203114000Y-128400000D02*
X203114000Y-124550000D01*
X205114000Y-128400000D02*
X203114000Y-128400000D01*
%TO.C,D29*%
X200326000Y-109350000D02*
X200326000Y-105500000D01*
X198326000Y-109350000D02*
X198326000Y-105500000D01*
X200326000Y-109350000D02*
X198326000Y-109350000D01*
%TO.C,D28*%
X190751000Y-90249100D02*
X190751000Y-86399100D01*
X188751000Y-90249100D02*
X188751000Y-86399100D01*
X190751000Y-90249100D02*
X188751000Y-90249100D01*
%TO.C,D27*%
X176501000Y-147897000D02*
X176501000Y-144047000D01*
X174501000Y-147897000D02*
X174501000Y-144047000D01*
X176501000Y-147897000D02*
X174501000Y-147897000D01*
%TO.C,D26*%
X186052000Y-128378000D02*
X186052000Y-124528000D01*
X184052000Y-128378000D02*
X184052000Y-124528000D01*
X186052000Y-128378000D02*
X184052000Y-128378000D01*
%TO.C,D25*%
X181238000Y-109324000D02*
X181238000Y-105474000D01*
X179238000Y-109324000D02*
X179238000Y-105474000D01*
X181238000Y-109324000D02*
X179238000Y-109324000D01*
%TO.C,D24*%
X171726000Y-90287200D02*
X171726000Y-86437200D01*
X169726000Y-90287200D02*
X169726000Y-86437200D01*
X171726000Y-90287200D02*
X169726000Y-90287200D01*
%TO.C,D22*%
X157426000Y-147402000D02*
X157426000Y-143552000D01*
X155426000Y-147402000D02*
X155426000Y-143552000D01*
X157426000Y-147402000D02*
X155426000Y-147402000D01*
%TO.C,D21*%
X167002000Y-128349000D02*
X167002000Y-124499000D01*
X165002000Y-128349000D02*
X165002000Y-124499000D01*
X167002000Y-128349000D02*
X165002000Y-128349000D01*
%TO.C,D20*%
X162176000Y-109337000D02*
X162176000Y-105487000D01*
X160176000Y-109337000D02*
X160176000Y-105487000D01*
X162176000Y-109337000D02*
X160176000Y-109337000D01*
%TO.C,D19*%
X152752000Y-90185600D02*
X152752000Y-86335600D01*
X150752000Y-90185600D02*
X150752000Y-86335600D01*
X152752000Y-90185600D02*
X150752000Y-90185600D01*
%TO.C,D18*%
X138389000Y-147402000D02*
X138389000Y-143552000D01*
X136389000Y-147402000D02*
X136389000Y-143552000D01*
X138389000Y-147402000D02*
X136389000Y-147402000D01*
%TO.C,D17*%
X147914000Y-128374000D02*
X147914000Y-124524000D01*
X145914000Y-128374000D02*
X145914000Y-124524000D01*
X147914000Y-128374000D02*
X145914000Y-128374000D01*
%TO.C,D16*%
X143126000Y-109223000D02*
X143126000Y-105373000D01*
X141126000Y-109223000D02*
X141126000Y-105373000D01*
X143126000Y-109223000D02*
X141126000Y-109223000D01*
%TO.C,D15*%
X136823000Y-80889600D02*
X132973000Y-80889600D01*
X136823000Y-82889600D02*
X132973000Y-82889600D01*
X136823000Y-80889600D02*
X136823000Y-82889600D01*
%TO.C,D14*%
X126489000Y-166462000D02*
X126489000Y-162612000D01*
X124489000Y-166462000D02*
X124489000Y-162612000D01*
X126489000Y-166462000D02*
X124489000Y-166462000D01*
%TO.C,D13*%
X119364000Y-147389000D02*
X119364000Y-143539000D01*
X117364000Y-147389000D02*
X117364000Y-143539000D01*
X119364000Y-147389000D02*
X117364000Y-147389000D01*
%TO.C,D12*%
X128851000Y-128400000D02*
X128851000Y-124550000D01*
X126851000Y-128400000D02*
X126851000Y-124550000D01*
X128851000Y-128400000D02*
X126851000Y-128400000D01*
%TO.C,D11*%
X124088000Y-109324000D02*
X124088000Y-105474000D01*
X122088000Y-109324000D02*
X122088000Y-105474000D01*
X124088000Y-109324000D02*
X122088000Y-109324000D01*
%TO.C,D10*%
X114538000Y-90376100D02*
X114538000Y-86526100D01*
X112538000Y-90376100D02*
X112538000Y-86526100D01*
X114538000Y-90376100D02*
X112538000Y-90376100D01*
%TO.C,D9*%
X102664000Y-166525000D02*
X102664000Y-162675000D01*
X100664000Y-166525000D02*
X100664000Y-162675000D01*
X102664000Y-166525000D02*
X100664000Y-166525000D01*
%TO.C,D8*%
X109814000Y-128289000D02*
X109814000Y-124439000D01*
X107814000Y-128289000D02*
X107814000Y-124439000D01*
X109814000Y-128289000D02*
X107814000Y-128289000D01*
%TO.C,D7*%
X105051000Y-109401000D02*
X105051000Y-105551000D01*
X103051000Y-109401000D02*
X103051000Y-105551000D01*
X105051000Y-109401000D02*
X103051000Y-109401000D01*
%TO.C,D6*%
X95488000Y-90376100D02*
X95488000Y-86526100D01*
X93488000Y-90376100D02*
X93488000Y-86526100D01*
X95488000Y-90376100D02*
X93488000Y-90376100D01*
%TO.C,D5*%
X78838300Y-166449000D02*
X78838300Y-162599000D01*
X76838300Y-166449000D02*
X76838300Y-162599000D01*
X78838300Y-166449000D02*
X76838300Y-166449000D01*
%TO.C,D4*%
X88376000Y-147450000D02*
X88376000Y-143600000D01*
X86376000Y-147450000D02*
X86376000Y-143600000D01*
X88376000Y-147450000D02*
X86376000Y-147450000D01*
%TO.C,D3*%
X83613500Y-128212000D02*
X83613500Y-124362000D01*
X81613500Y-128212000D02*
X81613500Y-124362000D01*
X83613500Y-128212000D02*
X81613500Y-128212000D01*
%TO.C,D2*%
X81162400Y-109322000D02*
X81162400Y-105472000D01*
X79162400Y-109322000D02*
X79162400Y-105472000D01*
X81162400Y-109322000D02*
X79162400Y-109322000D01*
%TO.C,D1*%
X76107800Y-91001400D02*
X76107800Y-87151400D01*
X74107800Y-91001400D02*
X74107800Y-87151400D01*
X76107800Y-91001400D02*
X74107800Y-91001400D01*
%TO.C,X1*%
X171882000Y-161995000D02*
X175082000Y-161995000D01*
X175082000Y-161995000D02*
X175082000Y-165995000D01*
%TO.C,R6*%
X217301936Y-171149000D02*
X217756064Y-171149000D01*
X217301936Y-169679000D02*
X217756064Y-169679000D01*
%TO.C,R5*%
X220984936Y-157923000D02*
X221439064Y-157923000D01*
X220984936Y-156453000D02*
X221439064Y-156453000D01*
%TO.C,R4*%
X203570936Y-162492000D02*
X204025064Y-162492000D01*
X203570936Y-161022000D02*
X204025064Y-161022000D01*
%TO.C,R3*%
X222190936Y-171144000D02*
X222645064Y-171144000D01*
X222190936Y-169674000D02*
X222645064Y-169674000D01*
%TO.C,C10*%
X206881252Y-156432000D02*
X206358748Y-156432000D01*
X206881252Y-157902000D02*
X206358748Y-157902000D01*
%TO.C,C9*%
X216724252Y-156420000D02*
X216201748Y-156420000D01*
X216724252Y-157890000D02*
X216201748Y-157890000D01*
%TO.C,C8*%
X212415748Y-171212000D02*
X212938252Y-171212000D01*
X212415748Y-169742000D02*
X212938252Y-169742000D01*
%TO.C,C7*%
X201548748Y-157902000D02*
X202071252Y-157902000D01*
X201548748Y-156432000D02*
X202071252Y-156432000D01*
%TO.C,C6*%
X203630748Y-166996000D02*
X204153252Y-166996000D01*
X203630748Y-165526000D02*
X204153252Y-165526000D01*
%TO.C,C5*%
X217471748Y-163054000D02*
X217994252Y-163054000D01*
X217471748Y-161584000D02*
X217994252Y-161584000D01*
%TO.C,C4*%
X206907252Y-169750000D02*
X206384748Y-169750000D01*
X206907252Y-171220000D02*
X206384748Y-171220000D01*
%TO.C,C3*%
X217496748Y-167270000D02*
X218019252Y-167270000D01*
X217496748Y-165800000D02*
X218019252Y-165800000D01*
%TO.C,C2*%
X211435748Y-157877000D02*
X211958252Y-157877000D01*
X211435748Y-156407000D02*
X211958252Y-156407000D01*
%TO.C,C1*%
X201545748Y-171194000D02*
X202068252Y-171194000D01*
X201545748Y-169724000D02*
X202068252Y-169724000D01*
%TO.C,J1*%
D11*
X128844860Y-94510266D02*
X129559146Y-94510266D01*
X129702003Y-94462647D01*
X129797241Y-94367409D01*
X129844860Y-94224552D01*
X129844860Y-94129314D01*
X129844860Y-95510266D02*
X129844860Y-94938838D01*
X129844860Y-95224552D02*
X128844860Y-95224552D01*
X128987718Y-95129314D01*
X129082956Y-95034076D01*
X129130575Y-94938838D01*
%TO.C,D63*%
X334983380Y-86961814D02*
X333983380Y-86961814D01*
X333983380Y-87199909D01*
X334031000Y-87342766D01*
X334126238Y-87438004D01*
X334221476Y-87485623D01*
X334411952Y-87533242D01*
X334554809Y-87533242D01*
X334745285Y-87485623D01*
X334840523Y-87438004D01*
X334935761Y-87342766D01*
X334983380Y-87199909D01*
X334983380Y-86961814D01*
X333983380Y-88390385D02*
X333983380Y-88199909D01*
X334031000Y-88104671D01*
X334078619Y-88057052D01*
X334221476Y-87961814D01*
X334411952Y-87914195D01*
X334792904Y-87914195D01*
X334888142Y-87961814D01*
X334935761Y-88009433D01*
X334983380Y-88104671D01*
X334983380Y-88295147D01*
X334935761Y-88390385D01*
X334888142Y-88438004D01*
X334792904Y-88485623D01*
X334554809Y-88485623D01*
X334459571Y-88438004D01*
X334411952Y-88390385D01*
X334364333Y-88295147D01*
X334364333Y-88104671D01*
X334411952Y-88009433D01*
X334459571Y-87961814D01*
X334554809Y-87914195D01*
X333983380Y-88818957D02*
X333983380Y-89438004D01*
X334364333Y-89104671D01*
X334364333Y-89247528D01*
X334411952Y-89342766D01*
X334459571Y-89390385D01*
X334554809Y-89438004D01*
X334792904Y-89438004D01*
X334888142Y-89390385D01*
X334935761Y-89342766D01*
X334983380Y-89247528D01*
X334983380Y-88961814D01*
X334935761Y-88866576D01*
X334888142Y-88818957D01*
%TO.C,D62*%
X344559380Y-162983714D02*
X343559380Y-162983714D01*
X343559380Y-163221809D01*
X343607000Y-163364666D01*
X343702238Y-163459904D01*
X343797476Y-163507523D01*
X343987952Y-163555142D01*
X344130809Y-163555142D01*
X344321285Y-163507523D01*
X344416523Y-163459904D01*
X344511761Y-163364666D01*
X344559380Y-163221809D01*
X344559380Y-162983714D01*
X343559380Y-164412285D02*
X343559380Y-164221809D01*
X343607000Y-164126571D01*
X343654619Y-164078952D01*
X343797476Y-163983714D01*
X343987952Y-163936095D01*
X344368904Y-163936095D01*
X344464142Y-163983714D01*
X344511761Y-164031333D01*
X344559380Y-164126571D01*
X344559380Y-164317047D01*
X344511761Y-164412285D01*
X344464142Y-164459904D01*
X344368904Y-164507523D01*
X344130809Y-164507523D01*
X344035571Y-164459904D01*
X343987952Y-164412285D01*
X343940333Y-164317047D01*
X343940333Y-164126571D01*
X343987952Y-164031333D01*
X344035571Y-163983714D01*
X344130809Y-163936095D01*
X343654619Y-164888476D02*
X343607000Y-164936095D01*
X343559380Y-165031333D01*
X343559380Y-165269428D01*
X343607000Y-165364666D01*
X343654619Y-165412285D01*
X343749857Y-165459904D01*
X343845095Y-165459904D01*
X343987952Y-165412285D01*
X344559380Y-164840857D01*
X344559380Y-165459904D01*
%TO.C,D61*%
X344520380Y-144086714D02*
X343520380Y-144086714D01*
X343520380Y-144324809D01*
X343568000Y-144467666D01*
X343663238Y-144562904D01*
X343758476Y-144610523D01*
X343948952Y-144658142D01*
X344091809Y-144658142D01*
X344282285Y-144610523D01*
X344377523Y-144562904D01*
X344472761Y-144467666D01*
X344520380Y-144324809D01*
X344520380Y-144086714D01*
X343520380Y-145515285D02*
X343520380Y-145324809D01*
X343568000Y-145229571D01*
X343615619Y-145181952D01*
X343758476Y-145086714D01*
X343948952Y-145039095D01*
X344329904Y-145039095D01*
X344425142Y-145086714D01*
X344472761Y-145134333D01*
X344520380Y-145229571D01*
X344520380Y-145420047D01*
X344472761Y-145515285D01*
X344425142Y-145562904D01*
X344329904Y-145610523D01*
X344091809Y-145610523D01*
X343996571Y-145562904D01*
X343948952Y-145515285D01*
X343901333Y-145420047D01*
X343901333Y-145229571D01*
X343948952Y-145134333D01*
X343996571Y-145086714D01*
X344091809Y-145039095D01*
X344520380Y-146562904D02*
X344520380Y-145991476D01*
X344520380Y-146277190D02*
X343520380Y-146277190D01*
X343663238Y-146181952D01*
X343758476Y-146086714D01*
X343806095Y-145991476D01*
%TO.C,D60*%
X332608380Y-125112714D02*
X331608380Y-125112714D01*
X331608380Y-125350809D01*
X331656000Y-125493666D01*
X331751238Y-125588904D01*
X331846476Y-125636523D01*
X332036952Y-125684142D01*
X332179809Y-125684142D01*
X332370285Y-125636523D01*
X332465523Y-125588904D01*
X332560761Y-125493666D01*
X332608380Y-125350809D01*
X332608380Y-125112714D01*
X331608380Y-126541285D02*
X331608380Y-126350809D01*
X331656000Y-126255571D01*
X331703619Y-126207952D01*
X331846476Y-126112714D01*
X332036952Y-126065095D01*
X332417904Y-126065095D01*
X332513142Y-126112714D01*
X332560761Y-126160333D01*
X332608380Y-126255571D01*
X332608380Y-126446047D01*
X332560761Y-126541285D01*
X332513142Y-126588904D01*
X332417904Y-126636523D01*
X332179809Y-126636523D01*
X332084571Y-126588904D01*
X332036952Y-126541285D01*
X331989333Y-126446047D01*
X331989333Y-126255571D01*
X332036952Y-126160333D01*
X332084571Y-126112714D01*
X332179809Y-126065095D01*
X331608380Y-127255571D02*
X331608380Y-127350809D01*
X331656000Y-127446047D01*
X331703619Y-127493666D01*
X331798857Y-127541285D01*
X331989333Y-127588904D01*
X332227428Y-127588904D01*
X332417904Y-127541285D01*
X332513142Y-127493666D01*
X332560761Y-127446047D01*
X332608380Y-127350809D01*
X332608380Y-127255571D01*
X332560761Y-127160333D01*
X332513142Y-127112714D01*
X332417904Y-127065095D01*
X332227428Y-127017476D01*
X331989333Y-127017476D01*
X331798857Y-127065095D01*
X331703619Y-127112714D01*
X331656000Y-127160333D01*
X331608380Y-127255571D01*
%TO.C,D59*%
X339885380Y-105960714D02*
X338885380Y-105960714D01*
X338885380Y-106198809D01*
X338933000Y-106341666D01*
X339028238Y-106436904D01*
X339123476Y-106484523D01*
X339313952Y-106532142D01*
X339456809Y-106532142D01*
X339647285Y-106484523D01*
X339742523Y-106436904D01*
X339837761Y-106341666D01*
X339885380Y-106198809D01*
X339885380Y-105960714D01*
X338885380Y-107436904D02*
X338885380Y-106960714D01*
X339361571Y-106913095D01*
X339313952Y-106960714D01*
X339266333Y-107055952D01*
X339266333Y-107294047D01*
X339313952Y-107389285D01*
X339361571Y-107436904D01*
X339456809Y-107484523D01*
X339694904Y-107484523D01*
X339790142Y-107436904D01*
X339837761Y-107389285D01*
X339885380Y-107294047D01*
X339885380Y-107055952D01*
X339837761Y-106960714D01*
X339790142Y-106913095D01*
X339885380Y-107960714D02*
X339885380Y-108151190D01*
X339837761Y-108246428D01*
X339790142Y-108294047D01*
X339647285Y-108389285D01*
X339456809Y-108436904D01*
X339075857Y-108436904D01*
X338980619Y-108389285D01*
X338933000Y-108341666D01*
X338885380Y-108246428D01*
X338885380Y-108055952D01*
X338933000Y-107960714D01*
X338980619Y-107913095D01*
X339075857Y-107865476D01*
X339313952Y-107865476D01*
X339409190Y-107913095D01*
X339456809Y-107960714D01*
X339504428Y-108055952D01*
X339504428Y-108246428D01*
X339456809Y-108341666D01*
X339409190Y-108389285D01*
X339313952Y-108436904D01*
%TO.C,D58*%
X325483380Y-163225714D02*
X324483380Y-163225714D01*
X324483380Y-163463809D01*
X324531000Y-163606666D01*
X324626238Y-163701904D01*
X324721476Y-163749523D01*
X324911952Y-163797142D01*
X325054809Y-163797142D01*
X325245285Y-163749523D01*
X325340523Y-163701904D01*
X325435761Y-163606666D01*
X325483380Y-163463809D01*
X325483380Y-163225714D01*
X324483380Y-164701904D02*
X324483380Y-164225714D01*
X324959571Y-164178095D01*
X324911952Y-164225714D01*
X324864333Y-164320952D01*
X324864333Y-164559047D01*
X324911952Y-164654285D01*
X324959571Y-164701904D01*
X325054809Y-164749523D01*
X325292904Y-164749523D01*
X325388142Y-164701904D01*
X325435761Y-164654285D01*
X325483380Y-164559047D01*
X325483380Y-164320952D01*
X325435761Y-164225714D01*
X325388142Y-164178095D01*
X324911952Y-165320952D02*
X324864333Y-165225714D01*
X324816714Y-165178095D01*
X324721476Y-165130476D01*
X324673857Y-165130476D01*
X324578619Y-165178095D01*
X324531000Y-165225714D01*
X324483380Y-165320952D01*
X324483380Y-165511428D01*
X324531000Y-165606666D01*
X324578619Y-165654285D01*
X324673857Y-165701904D01*
X324721476Y-165701904D01*
X324816714Y-165654285D01*
X324864333Y-165606666D01*
X324911952Y-165511428D01*
X324911952Y-165320952D01*
X324959571Y-165225714D01*
X325007190Y-165178095D01*
X325102428Y-165130476D01*
X325292904Y-165130476D01*
X325388142Y-165178095D01*
X325435761Y-165225714D01*
X325483380Y-165320952D01*
X325483380Y-165511428D01*
X325435761Y-165606666D01*
X325388142Y-165654285D01*
X325292904Y-165701904D01*
X325102428Y-165701904D01*
X325007190Y-165654285D01*
X324959571Y-165606666D01*
X324911952Y-165511428D01*
%TO.C,D57*%
X318308380Y-144048714D02*
X317308380Y-144048714D01*
X317308380Y-144286809D01*
X317356000Y-144429666D01*
X317451238Y-144524904D01*
X317546476Y-144572523D01*
X317736952Y-144620142D01*
X317879809Y-144620142D01*
X318070285Y-144572523D01*
X318165523Y-144524904D01*
X318260761Y-144429666D01*
X318308380Y-144286809D01*
X318308380Y-144048714D01*
X317308380Y-145524904D02*
X317308380Y-145048714D01*
X317784571Y-145001095D01*
X317736952Y-145048714D01*
X317689333Y-145143952D01*
X317689333Y-145382047D01*
X317736952Y-145477285D01*
X317784571Y-145524904D01*
X317879809Y-145572523D01*
X318117904Y-145572523D01*
X318213142Y-145524904D01*
X318260761Y-145477285D01*
X318308380Y-145382047D01*
X318308380Y-145143952D01*
X318260761Y-145048714D01*
X318213142Y-145001095D01*
X317308380Y-145905857D02*
X317308380Y-146572523D01*
X318308380Y-146143952D01*
%TO.C,D56*%
X315958380Y-106087714D02*
X314958380Y-106087714D01*
X314958380Y-106325809D01*
X315006000Y-106468666D01*
X315101238Y-106563904D01*
X315196476Y-106611523D01*
X315386952Y-106659142D01*
X315529809Y-106659142D01*
X315720285Y-106611523D01*
X315815523Y-106563904D01*
X315910761Y-106468666D01*
X315958380Y-106325809D01*
X315958380Y-106087714D01*
X314958380Y-107563904D02*
X314958380Y-107087714D01*
X315434571Y-107040095D01*
X315386952Y-107087714D01*
X315339333Y-107182952D01*
X315339333Y-107421047D01*
X315386952Y-107516285D01*
X315434571Y-107563904D01*
X315529809Y-107611523D01*
X315767904Y-107611523D01*
X315863142Y-107563904D01*
X315910761Y-107516285D01*
X315958380Y-107421047D01*
X315958380Y-107182952D01*
X315910761Y-107087714D01*
X315863142Y-107040095D01*
X314958380Y-108468666D02*
X314958380Y-108278190D01*
X315006000Y-108182952D01*
X315053619Y-108135333D01*
X315196476Y-108040095D01*
X315386952Y-107992476D01*
X315767904Y-107992476D01*
X315863142Y-108040095D01*
X315910761Y-108087714D01*
X315958380Y-108182952D01*
X315958380Y-108373428D01*
X315910761Y-108468666D01*
X315863142Y-108516285D01*
X315767904Y-108563904D01*
X315529809Y-108563904D01*
X315434571Y-108516285D01*
X315386952Y-108468666D01*
X315339333Y-108373428D01*
X315339333Y-108182952D01*
X315386952Y-108087714D01*
X315434571Y-108040095D01*
X315529809Y-107992476D01*
%TO.C,D55*%
X306408380Y-87035014D02*
X305408380Y-87035014D01*
X305408380Y-87273109D01*
X305456000Y-87415966D01*
X305551238Y-87511204D01*
X305646476Y-87558823D01*
X305836952Y-87606442D01*
X305979809Y-87606442D01*
X306170285Y-87558823D01*
X306265523Y-87511204D01*
X306360761Y-87415966D01*
X306408380Y-87273109D01*
X306408380Y-87035014D01*
X305408380Y-88511204D02*
X305408380Y-88035014D01*
X305884571Y-87987395D01*
X305836952Y-88035014D01*
X305789333Y-88130252D01*
X305789333Y-88368347D01*
X305836952Y-88463585D01*
X305884571Y-88511204D01*
X305979809Y-88558823D01*
X306217904Y-88558823D01*
X306313142Y-88511204D01*
X306360761Y-88463585D01*
X306408380Y-88368347D01*
X306408380Y-88130252D01*
X306360761Y-88035014D01*
X306313142Y-87987395D01*
X305408380Y-89463585D02*
X305408380Y-88987395D01*
X305884571Y-88939776D01*
X305836952Y-88987395D01*
X305789333Y-89082633D01*
X305789333Y-89320728D01*
X305836952Y-89415966D01*
X305884571Y-89463585D01*
X305979809Y-89511204D01*
X306217904Y-89511204D01*
X306313142Y-89463585D01*
X306360761Y-89415966D01*
X306408380Y-89320728D01*
X306408380Y-89082633D01*
X306360761Y-88987395D01*
X306313142Y-88939776D01*
%TO.C,D54*%
X294597380Y-163301714D02*
X293597380Y-163301714D01*
X293597380Y-163539809D01*
X293645000Y-163682666D01*
X293740238Y-163777904D01*
X293835476Y-163825523D01*
X294025952Y-163873142D01*
X294168809Y-163873142D01*
X294359285Y-163825523D01*
X294454523Y-163777904D01*
X294549761Y-163682666D01*
X294597380Y-163539809D01*
X294597380Y-163301714D01*
X293597380Y-164777904D02*
X293597380Y-164301714D01*
X294073571Y-164254095D01*
X294025952Y-164301714D01*
X293978333Y-164396952D01*
X293978333Y-164635047D01*
X294025952Y-164730285D01*
X294073571Y-164777904D01*
X294168809Y-164825523D01*
X294406904Y-164825523D01*
X294502142Y-164777904D01*
X294549761Y-164730285D01*
X294597380Y-164635047D01*
X294597380Y-164396952D01*
X294549761Y-164301714D01*
X294502142Y-164254095D01*
X293930714Y-165682666D02*
X294597380Y-165682666D01*
X293549761Y-165444571D02*
X294264047Y-165206476D01*
X294264047Y-165825523D01*
%TO.C,D53*%
X292120380Y-144086714D02*
X291120380Y-144086714D01*
X291120380Y-144324809D01*
X291168000Y-144467666D01*
X291263238Y-144562904D01*
X291358476Y-144610523D01*
X291548952Y-144658142D01*
X291691809Y-144658142D01*
X291882285Y-144610523D01*
X291977523Y-144562904D01*
X292072761Y-144467666D01*
X292120380Y-144324809D01*
X292120380Y-144086714D01*
X291120380Y-145562904D02*
X291120380Y-145086714D01*
X291596571Y-145039095D01*
X291548952Y-145086714D01*
X291501333Y-145181952D01*
X291501333Y-145420047D01*
X291548952Y-145515285D01*
X291596571Y-145562904D01*
X291691809Y-145610523D01*
X291929904Y-145610523D01*
X292025142Y-145562904D01*
X292072761Y-145515285D01*
X292120380Y-145420047D01*
X292120380Y-145181952D01*
X292072761Y-145086714D01*
X292025142Y-145039095D01*
X291120380Y-145943857D02*
X291120380Y-146562904D01*
X291501333Y-146229571D01*
X291501333Y-146372428D01*
X291548952Y-146467666D01*
X291596571Y-146515285D01*
X291691809Y-146562904D01*
X291929904Y-146562904D01*
X292025142Y-146515285D01*
X292072761Y-146467666D01*
X292120380Y-146372428D01*
X292120380Y-146086714D01*
X292072761Y-145991476D01*
X292025142Y-145943857D01*
%TO.C,D52*%
X301683380Y-125036714D02*
X300683380Y-125036714D01*
X300683380Y-125274809D01*
X300731000Y-125417666D01*
X300826238Y-125512904D01*
X300921476Y-125560523D01*
X301111952Y-125608142D01*
X301254809Y-125608142D01*
X301445285Y-125560523D01*
X301540523Y-125512904D01*
X301635761Y-125417666D01*
X301683380Y-125274809D01*
X301683380Y-125036714D01*
X300683380Y-126512904D02*
X300683380Y-126036714D01*
X301159571Y-125989095D01*
X301111952Y-126036714D01*
X301064333Y-126131952D01*
X301064333Y-126370047D01*
X301111952Y-126465285D01*
X301159571Y-126512904D01*
X301254809Y-126560523D01*
X301492904Y-126560523D01*
X301588142Y-126512904D01*
X301635761Y-126465285D01*
X301683380Y-126370047D01*
X301683380Y-126131952D01*
X301635761Y-126036714D01*
X301588142Y-125989095D01*
X300778619Y-126941476D02*
X300731000Y-126989095D01*
X300683380Y-127084333D01*
X300683380Y-127322428D01*
X300731000Y-127417666D01*
X300778619Y-127465285D01*
X300873857Y-127512904D01*
X300969095Y-127512904D01*
X301111952Y-127465285D01*
X301683380Y-126893857D01*
X301683380Y-127512904D01*
%TO.C,D51*%
X296908380Y-105998714D02*
X295908380Y-105998714D01*
X295908380Y-106236809D01*
X295956000Y-106379666D01*
X296051238Y-106474904D01*
X296146476Y-106522523D01*
X296336952Y-106570142D01*
X296479809Y-106570142D01*
X296670285Y-106522523D01*
X296765523Y-106474904D01*
X296860761Y-106379666D01*
X296908380Y-106236809D01*
X296908380Y-105998714D01*
X295908380Y-107474904D02*
X295908380Y-106998714D01*
X296384571Y-106951095D01*
X296336952Y-106998714D01*
X296289333Y-107093952D01*
X296289333Y-107332047D01*
X296336952Y-107427285D01*
X296384571Y-107474904D01*
X296479809Y-107522523D01*
X296717904Y-107522523D01*
X296813142Y-107474904D01*
X296860761Y-107427285D01*
X296908380Y-107332047D01*
X296908380Y-107093952D01*
X296860761Y-106998714D01*
X296813142Y-106951095D01*
X296908380Y-108474904D02*
X296908380Y-107903476D01*
X296908380Y-108189190D02*
X295908380Y-108189190D01*
X296051238Y-108093952D01*
X296146476Y-107998714D01*
X296194095Y-107903476D01*
%TO.C,D50*%
X287383380Y-86999914D02*
X286383380Y-86999914D01*
X286383380Y-87238009D01*
X286431000Y-87380866D01*
X286526238Y-87476104D01*
X286621476Y-87523723D01*
X286811952Y-87571342D01*
X286954809Y-87571342D01*
X287145285Y-87523723D01*
X287240523Y-87476104D01*
X287335761Y-87380866D01*
X287383380Y-87238009D01*
X287383380Y-86999914D01*
X286383380Y-88476104D02*
X286383380Y-87999914D01*
X286859571Y-87952295D01*
X286811952Y-87999914D01*
X286764333Y-88095152D01*
X286764333Y-88333247D01*
X286811952Y-88428485D01*
X286859571Y-88476104D01*
X286954809Y-88523723D01*
X287192904Y-88523723D01*
X287288142Y-88476104D01*
X287335761Y-88428485D01*
X287383380Y-88333247D01*
X287383380Y-88095152D01*
X287335761Y-87999914D01*
X287288142Y-87952295D01*
X286383380Y-89142771D02*
X286383380Y-89238009D01*
X286431000Y-89333247D01*
X286478619Y-89380866D01*
X286573857Y-89428485D01*
X286764333Y-89476104D01*
X287002428Y-89476104D01*
X287192904Y-89428485D01*
X287288142Y-89380866D01*
X287335761Y-89333247D01*
X287383380Y-89238009D01*
X287383380Y-89142771D01*
X287335761Y-89047533D01*
X287288142Y-88999914D01*
X287192904Y-88952295D01*
X287002428Y-88904676D01*
X286764333Y-88904676D01*
X286573857Y-88952295D01*
X286478619Y-88999914D01*
X286431000Y-89047533D01*
X286383380Y-89142771D01*
%TO.C,D49*%
X273045380Y-144124714D02*
X272045380Y-144124714D01*
X272045380Y-144362809D01*
X272093000Y-144505666D01*
X272188238Y-144600904D01*
X272283476Y-144648523D01*
X272473952Y-144696142D01*
X272616809Y-144696142D01*
X272807285Y-144648523D01*
X272902523Y-144600904D01*
X272997761Y-144505666D01*
X273045380Y-144362809D01*
X273045380Y-144124714D01*
X272378714Y-145553285D02*
X273045380Y-145553285D01*
X271997761Y-145315190D02*
X272712047Y-145077095D01*
X272712047Y-145696142D01*
X273045380Y-146124714D02*
X273045380Y-146315190D01*
X272997761Y-146410428D01*
X272950142Y-146458047D01*
X272807285Y-146553285D01*
X272616809Y-146600904D01*
X272235857Y-146600904D01*
X272140619Y-146553285D01*
X272093000Y-146505666D01*
X272045380Y-146410428D01*
X272045380Y-146219952D01*
X272093000Y-146124714D01*
X272140619Y-146077095D01*
X272235857Y-146029476D01*
X272473952Y-146029476D01*
X272569190Y-146077095D01*
X272616809Y-146124714D01*
X272664428Y-146219952D01*
X272664428Y-146410428D01*
X272616809Y-146505666D01*
X272569190Y-146553285D01*
X272473952Y-146600904D01*
%TO.C,D48*%
X282621380Y-125137714D02*
X281621380Y-125137714D01*
X281621380Y-125375809D01*
X281669000Y-125518666D01*
X281764238Y-125613904D01*
X281859476Y-125661523D01*
X282049952Y-125709142D01*
X282192809Y-125709142D01*
X282383285Y-125661523D01*
X282478523Y-125613904D01*
X282573761Y-125518666D01*
X282621380Y-125375809D01*
X282621380Y-125137714D01*
X281954714Y-126566285D02*
X282621380Y-126566285D01*
X281573761Y-126328190D02*
X282288047Y-126090095D01*
X282288047Y-126709142D01*
X282049952Y-127232952D02*
X282002333Y-127137714D01*
X281954714Y-127090095D01*
X281859476Y-127042476D01*
X281811857Y-127042476D01*
X281716619Y-127090095D01*
X281669000Y-127137714D01*
X281621380Y-127232952D01*
X281621380Y-127423428D01*
X281669000Y-127518666D01*
X281716619Y-127566285D01*
X281811857Y-127613904D01*
X281859476Y-127613904D01*
X281954714Y-127566285D01*
X282002333Y-127518666D01*
X282049952Y-127423428D01*
X282049952Y-127232952D01*
X282097571Y-127137714D01*
X282145190Y-127090095D01*
X282240428Y-127042476D01*
X282430904Y-127042476D01*
X282526142Y-127090095D01*
X282573761Y-127137714D01*
X282621380Y-127232952D01*
X282621380Y-127423428D01*
X282573761Y-127518666D01*
X282526142Y-127566285D01*
X282430904Y-127613904D01*
X282240428Y-127613904D01*
X282145190Y-127566285D01*
X282097571Y-127518666D01*
X282049952Y-127423428D01*
%TO.C,D47*%
X277845380Y-106036714D02*
X276845380Y-106036714D01*
X276845380Y-106274809D01*
X276893000Y-106417666D01*
X276988238Y-106512904D01*
X277083476Y-106560523D01*
X277273952Y-106608142D01*
X277416809Y-106608142D01*
X277607285Y-106560523D01*
X277702523Y-106512904D01*
X277797761Y-106417666D01*
X277845380Y-106274809D01*
X277845380Y-106036714D01*
X277178714Y-107465285D02*
X277845380Y-107465285D01*
X276797761Y-107227190D02*
X277512047Y-106989095D01*
X277512047Y-107608142D01*
X276845380Y-107893857D02*
X276845380Y-108560523D01*
X277845380Y-108131952D01*
%TO.C,D46*%
X268371380Y-87066414D02*
X267371380Y-87066414D01*
X267371380Y-87304509D01*
X267419000Y-87447366D01*
X267514238Y-87542604D01*
X267609476Y-87590223D01*
X267799952Y-87637842D01*
X267942809Y-87637842D01*
X268133285Y-87590223D01*
X268228523Y-87542604D01*
X268323761Y-87447366D01*
X268371380Y-87304509D01*
X268371380Y-87066414D01*
X267704714Y-88494985D02*
X268371380Y-88494985D01*
X267323761Y-88256890D02*
X268038047Y-88018795D01*
X268038047Y-88637842D01*
X267371380Y-89447366D02*
X267371380Y-89256890D01*
X267419000Y-89161652D01*
X267466619Y-89114033D01*
X267609476Y-89018795D01*
X267799952Y-88971176D01*
X268180904Y-88971176D01*
X268276142Y-89018795D01*
X268323761Y-89066414D01*
X268371380Y-89161652D01*
X268371380Y-89352128D01*
X268323761Y-89447366D01*
X268276142Y-89494985D01*
X268180904Y-89542604D01*
X267942809Y-89542604D01*
X267847571Y-89494985D01*
X267799952Y-89447366D01*
X267752333Y-89352128D01*
X267752333Y-89161652D01*
X267799952Y-89066414D01*
X267847571Y-89018795D01*
X267942809Y-88971176D01*
%TO.C,D45*%
X270746380Y-163186714D02*
X269746380Y-163186714D01*
X269746380Y-163424809D01*
X269794000Y-163567666D01*
X269889238Y-163662904D01*
X269984476Y-163710523D01*
X270174952Y-163758142D01*
X270317809Y-163758142D01*
X270508285Y-163710523D01*
X270603523Y-163662904D01*
X270698761Y-163567666D01*
X270746380Y-163424809D01*
X270746380Y-163186714D01*
X270079714Y-164615285D02*
X270746380Y-164615285D01*
X269698761Y-164377190D02*
X270413047Y-164139095D01*
X270413047Y-164758142D01*
X269746380Y-165615285D02*
X269746380Y-165139095D01*
X270222571Y-165091476D01*
X270174952Y-165139095D01*
X270127333Y-165234333D01*
X270127333Y-165472428D01*
X270174952Y-165567666D01*
X270222571Y-165615285D01*
X270317809Y-165662904D01*
X270555904Y-165662904D01*
X270651142Y-165615285D01*
X270698761Y-165567666D01*
X270746380Y-165472428D01*
X270746380Y-165234333D01*
X270698761Y-165139095D01*
X270651142Y-165091476D01*
%TO.C,D44*%
X254058380Y-144162714D02*
X253058380Y-144162714D01*
X253058380Y-144400809D01*
X253106000Y-144543666D01*
X253201238Y-144638904D01*
X253296476Y-144686523D01*
X253486952Y-144734142D01*
X253629809Y-144734142D01*
X253820285Y-144686523D01*
X253915523Y-144638904D01*
X254010761Y-144543666D01*
X254058380Y-144400809D01*
X254058380Y-144162714D01*
X253391714Y-145591285D02*
X254058380Y-145591285D01*
X253010761Y-145353190D02*
X253725047Y-145115095D01*
X253725047Y-145734142D01*
X253391714Y-146543666D02*
X254058380Y-146543666D01*
X253010761Y-146305571D02*
X253725047Y-146067476D01*
X253725047Y-146686523D01*
%TO.C,D43*%
X263571380Y-125077714D02*
X262571380Y-125077714D01*
X262571380Y-125315809D01*
X262619000Y-125458666D01*
X262714238Y-125553904D01*
X262809476Y-125601523D01*
X262999952Y-125649142D01*
X263142809Y-125649142D01*
X263333285Y-125601523D01*
X263428523Y-125553904D01*
X263523761Y-125458666D01*
X263571380Y-125315809D01*
X263571380Y-125077714D01*
X262904714Y-126506285D02*
X263571380Y-126506285D01*
X262523761Y-126268190D02*
X263238047Y-126030095D01*
X263238047Y-126649142D01*
X262571380Y-126934857D02*
X262571380Y-127553904D01*
X262952333Y-127220571D01*
X262952333Y-127363428D01*
X262999952Y-127458666D01*
X263047571Y-127506285D01*
X263142809Y-127553904D01*
X263380904Y-127553904D01*
X263476142Y-127506285D01*
X263523761Y-127458666D01*
X263571380Y-127363428D01*
X263571380Y-127077714D01*
X263523761Y-126982476D01*
X263476142Y-126934857D01*
%TO.C,D42*%
X258821380Y-106040714D02*
X257821380Y-106040714D01*
X257821380Y-106278809D01*
X257869000Y-106421666D01*
X257964238Y-106516904D01*
X258059476Y-106564523D01*
X258249952Y-106612142D01*
X258392809Y-106612142D01*
X258583285Y-106564523D01*
X258678523Y-106516904D01*
X258773761Y-106421666D01*
X258821380Y-106278809D01*
X258821380Y-106040714D01*
X258154714Y-107469285D02*
X258821380Y-107469285D01*
X257773761Y-107231190D02*
X258488047Y-106993095D01*
X258488047Y-107612142D01*
X257916619Y-107945476D02*
X257869000Y-107993095D01*
X257821380Y-108088333D01*
X257821380Y-108326428D01*
X257869000Y-108421666D01*
X257916619Y-108469285D01*
X258011857Y-108516904D01*
X258107095Y-108516904D01*
X258249952Y-108469285D01*
X258821380Y-107897857D01*
X258821380Y-108516904D01*
%TO.C,D41*%
X249283380Y-87073114D02*
X248283380Y-87073114D01*
X248283380Y-87311209D01*
X248331000Y-87454066D01*
X248426238Y-87549304D01*
X248521476Y-87596923D01*
X248711952Y-87644542D01*
X248854809Y-87644542D01*
X249045285Y-87596923D01*
X249140523Y-87549304D01*
X249235761Y-87454066D01*
X249283380Y-87311209D01*
X249283380Y-87073114D01*
X248616714Y-88501685D02*
X249283380Y-88501685D01*
X248235761Y-88263590D02*
X248950047Y-88025495D01*
X248950047Y-88644542D01*
X249283380Y-89549304D02*
X249283380Y-88977876D01*
X249283380Y-89263590D02*
X248283380Y-89263590D01*
X248426238Y-89168352D01*
X248521476Y-89073114D01*
X248569095Y-88977876D01*
%TO.C,D40*%
X234983380Y-144101714D02*
X233983380Y-144101714D01*
X233983380Y-144339809D01*
X234031000Y-144482666D01*
X234126238Y-144577904D01*
X234221476Y-144625523D01*
X234411952Y-144673142D01*
X234554809Y-144673142D01*
X234745285Y-144625523D01*
X234840523Y-144577904D01*
X234935761Y-144482666D01*
X234983380Y-144339809D01*
X234983380Y-144101714D01*
X234316714Y-145530285D02*
X234983380Y-145530285D01*
X233935761Y-145292190D02*
X234650047Y-145054095D01*
X234650047Y-145673142D01*
X233983380Y-146244571D02*
X233983380Y-146339809D01*
X234031000Y-146435047D01*
X234078619Y-146482666D01*
X234173857Y-146530285D01*
X234364333Y-146577904D01*
X234602428Y-146577904D01*
X234792904Y-146530285D01*
X234888142Y-146482666D01*
X234935761Y-146435047D01*
X234983380Y-146339809D01*
X234983380Y-146244571D01*
X234935761Y-146149333D01*
X234888142Y-146101714D01*
X234792904Y-146054095D01*
X234602428Y-146006476D01*
X234364333Y-146006476D01*
X234173857Y-146054095D01*
X234078619Y-146101714D01*
X234031000Y-146149333D01*
X233983380Y-146244571D01*
%TO.C,D39*%
X244546380Y-124988714D02*
X243546380Y-124988714D01*
X243546380Y-125226809D01*
X243594000Y-125369666D01*
X243689238Y-125464904D01*
X243784476Y-125512523D01*
X243974952Y-125560142D01*
X244117809Y-125560142D01*
X244308285Y-125512523D01*
X244403523Y-125464904D01*
X244498761Y-125369666D01*
X244546380Y-125226809D01*
X244546380Y-124988714D01*
X243546380Y-125893476D02*
X243546380Y-126512523D01*
X243927333Y-126179190D01*
X243927333Y-126322047D01*
X243974952Y-126417285D01*
X244022571Y-126464904D01*
X244117809Y-126512523D01*
X244355904Y-126512523D01*
X244451142Y-126464904D01*
X244498761Y-126417285D01*
X244546380Y-126322047D01*
X244546380Y-126036333D01*
X244498761Y-125941095D01*
X244451142Y-125893476D01*
X244546380Y-126988714D02*
X244546380Y-127179190D01*
X244498761Y-127274428D01*
X244451142Y-127322047D01*
X244308285Y-127417285D01*
X244117809Y-127464904D01*
X243736857Y-127464904D01*
X243641619Y-127417285D01*
X243594000Y-127369666D01*
X243546380Y-127274428D01*
X243546380Y-127083952D01*
X243594000Y-126988714D01*
X243641619Y-126941095D01*
X243736857Y-126893476D01*
X243974952Y-126893476D01*
X244070190Y-126941095D01*
X244117809Y-126988714D01*
X244165428Y-127083952D01*
X244165428Y-127274428D01*
X244117809Y-127369666D01*
X244070190Y-127417285D01*
X243974952Y-127464904D01*
%TO.C,D38*%
X239758380Y-106049714D02*
X238758380Y-106049714D01*
X238758380Y-106287809D01*
X238806000Y-106430666D01*
X238901238Y-106525904D01*
X238996476Y-106573523D01*
X239186952Y-106621142D01*
X239329809Y-106621142D01*
X239520285Y-106573523D01*
X239615523Y-106525904D01*
X239710761Y-106430666D01*
X239758380Y-106287809D01*
X239758380Y-106049714D01*
X238758380Y-106954476D02*
X238758380Y-107573523D01*
X239139333Y-107240190D01*
X239139333Y-107383047D01*
X239186952Y-107478285D01*
X239234571Y-107525904D01*
X239329809Y-107573523D01*
X239567904Y-107573523D01*
X239663142Y-107525904D01*
X239710761Y-107478285D01*
X239758380Y-107383047D01*
X239758380Y-107097333D01*
X239710761Y-107002095D01*
X239663142Y-106954476D01*
X239186952Y-108144952D02*
X239139333Y-108049714D01*
X239091714Y-108002095D01*
X238996476Y-107954476D01*
X238948857Y-107954476D01*
X238853619Y-108002095D01*
X238806000Y-108049714D01*
X238758380Y-108144952D01*
X238758380Y-108335428D01*
X238806000Y-108430666D01*
X238853619Y-108478285D01*
X238948857Y-108525904D01*
X238996476Y-108525904D01*
X239091714Y-108478285D01*
X239139333Y-108430666D01*
X239186952Y-108335428D01*
X239186952Y-108144952D01*
X239234571Y-108049714D01*
X239282190Y-108002095D01*
X239377428Y-107954476D01*
X239567904Y-107954476D01*
X239663142Y-108002095D01*
X239710761Y-108049714D01*
X239758380Y-108144952D01*
X239758380Y-108335428D01*
X239710761Y-108430666D01*
X239663142Y-108478285D01*
X239567904Y-108525904D01*
X239377428Y-108525904D01*
X239282190Y-108478285D01*
X239234571Y-108430666D01*
X239186952Y-108335428D01*
%TO.C,D37*%
X230182380Y-86961814D02*
X229182380Y-86961814D01*
X229182380Y-87199909D01*
X229230000Y-87342766D01*
X229325238Y-87438004D01*
X229420476Y-87485623D01*
X229610952Y-87533242D01*
X229753809Y-87533242D01*
X229944285Y-87485623D01*
X230039523Y-87438004D01*
X230134761Y-87342766D01*
X230182380Y-87199909D01*
X230182380Y-86961814D01*
X229182380Y-87866576D02*
X229182380Y-88485623D01*
X229563333Y-88152290D01*
X229563333Y-88295147D01*
X229610952Y-88390385D01*
X229658571Y-88438004D01*
X229753809Y-88485623D01*
X229991904Y-88485623D01*
X230087142Y-88438004D01*
X230134761Y-88390385D01*
X230182380Y-88295147D01*
X230182380Y-88009433D01*
X230134761Y-87914195D01*
X230087142Y-87866576D01*
X229182380Y-88818957D02*
X229182380Y-89485623D01*
X230182380Y-89057052D01*
%TO.C,D36*%
X215933380Y-144124714D02*
X214933380Y-144124714D01*
X214933380Y-144362809D01*
X214981000Y-144505666D01*
X215076238Y-144600904D01*
X215171476Y-144648523D01*
X215361952Y-144696142D01*
X215504809Y-144696142D01*
X215695285Y-144648523D01*
X215790523Y-144600904D01*
X215885761Y-144505666D01*
X215933380Y-144362809D01*
X215933380Y-144124714D01*
X214933380Y-145029476D02*
X214933380Y-145648523D01*
X215314333Y-145315190D01*
X215314333Y-145458047D01*
X215361952Y-145553285D01*
X215409571Y-145600904D01*
X215504809Y-145648523D01*
X215742904Y-145648523D01*
X215838142Y-145600904D01*
X215885761Y-145553285D01*
X215933380Y-145458047D01*
X215933380Y-145172333D01*
X215885761Y-145077095D01*
X215838142Y-145029476D01*
X214933380Y-146505666D02*
X214933380Y-146315190D01*
X214981000Y-146219952D01*
X215028619Y-146172333D01*
X215171476Y-146077095D01*
X215361952Y-146029476D01*
X215742904Y-146029476D01*
X215838142Y-146077095D01*
X215885761Y-146124714D01*
X215933380Y-146219952D01*
X215933380Y-146410428D01*
X215885761Y-146505666D01*
X215838142Y-146553285D01*
X215742904Y-146600904D01*
X215504809Y-146600904D01*
X215409571Y-146553285D01*
X215361952Y-146505666D01*
X215314333Y-146410428D01*
X215314333Y-146219952D01*
X215361952Y-146124714D01*
X215409571Y-146077095D01*
X215504809Y-146029476D01*
%TO.C,D35*%
X225521380Y-125061714D02*
X224521380Y-125061714D01*
X224521380Y-125299809D01*
X224569000Y-125442666D01*
X224664238Y-125537904D01*
X224759476Y-125585523D01*
X224949952Y-125633142D01*
X225092809Y-125633142D01*
X225283285Y-125585523D01*
X225378523Y-125537904D01*
X225473761Y-125442666D01*
X225521380Y-125299809D01*
X225521380Y-125061714D01*
X224521380Y-125966476D02*
X224521380Y-126585523D01*
X224902333Y-126252190D01*
X224902333Y-126395047D01*
X224949952Y-126490285D01*
X224997571Y-126537904D01*
X225092809Y-126585523D01*
X225330904Y-126585523D01*
X225426142Y-126537904D01*
X225473761Y-126490285D01*
X225521380Y-126395047D01*
X225521380Y-126109333D01*
X225473761Y-126014095D01*
X225426142Y-125966476D01*
X224521380Y-127490285D02*
X224521380Y-127014095D01*
X224997571Y-126966476D01*
X224949952Y-127014095D01*
X224902333Y-127109333D01*
X224902333Y-127347428D01*
X224949952Y-127442666D01*
X224997571Y-127490285D01*
X225092809Y-127537904D01*
X225330904Y-127537904D01*
X225426142Y-127490285D01*
X225473761Y-127442666D01*
X225521380Y-127347428D01*
X225521380Y-127109333D01*
X225473761Y-127014095D01*
X225426142Y-126966476D01*
%TO.C,D34*%
X220708380Y-106049714D02*
X219708380Y-106049714D01*
X219708380Y-106287809D01*
X219756000Y-106430666D01*
X219851238Y-106525904D01*
X219946476Y-106573523D01*
X220136952Y-106621142D01*
X220279809Y-106621142D01*
X220470285Y-106573523D01*
X220565523Y-106525904D01*
X220660761Y-106430666D01*
X220708380Y-106287809D01*
X220708380Y-106049714D01*
X219708380Y-106954476D02*
X219708380Y-107573523D01*
X220089333Y-107240190D01*
X220089333Y-107383047D01*
X220136952Y-107478285D01*
X220184571Y-107525904D01*
X220279809Y-107573523D01*
X220517904Y-107573523D01*
X220613142Y-107525904D01*
X220660761Y-107478285D01*
X220708380Y-107383047D01*
X220708380Y-107097333D01*
X220660761Y-107002095D01*
X220613142Y-106954476D01*
X220041714Y-108430666D02*
X220708380Y-108430666D01*
X219660761Y-108192571D02*
X220375047Y-107954476D01*
X220375047Y-108573523D01*
%TO.C,D33*%
X211145380Y-86952114D02*
X210145380Y-86952114D01*
X210145380Y-87190209D01*
X210193000Y-87333066D01*
X210288238Y-87428304D01*
X210383476Y-87475923D01*
X210573952Y-87523542D01*
X210716809Y-87523542D01*
X210907285Y-87475923D01*
X211002523Y-87428304D01*
X211097761Y-87333066D01*
X211145380Y-87190209D01*
X211145380Y-86952114D01*
X210145380Y-87856876D02*
X210145380Y-88475923D01*
X210526333Y-88142590D01*
X210526333Y-88285447D01*
X210573952Y-88380685D01*
X210621571Y-88428304D01*
X210716809Y-88475923D01*
X210954904Y-88475923D01*
X211050142Y-88428304D01*
X211097761Y-88380685D01*
X211145380Y-88285447D01*
X211145380Y-87999733D01*
X211097761Y-87904495D01*
X211050142Y-87856876D01*
X210145380Y-88809257D02*
X210145380Y-89428304D01*
X210526333Y-89094971D01*
X210526333Y-89237828D01*
X210573952Y-89333066D01*
X210621571Y-89380685D01*
X210716809Y-89428304D01*
X210954904Y-89428304D01*
X211050142Y-89380685D01*
X211097761Y-89333066D01*
X211145380Y-89237828D01*
X211145380Y-88952114D01*
X211097761Y-88856876D01*
X211050142Y-88809257D01*
%TO.C,D32*%
X199347380Y-163288714D02*
X198347380Y-163288714D01*
X198347380Y-163526809D01*
X198395000Y-163669666D01*
X198490238Y-163764904D01*
X198585476Y-163812523D01*
X198775952Y-163860142D01*
X198918809Y-163860142D01*
X199109285Y-163812523D01*
X199204523Y-163764904D01*
X199299761Y-163669666D01*
X199347380Y-163526809D01*
X199347380Y-163288714D01*
X198347380Y-164193476D02*
X198347380Y-164812523D01*
X198728333Y-164479190D01*
X198728333Y-164622047D01*
X198775952Y-164717285D01*
X198823571Y-164764904D01*
X198918809Y-164812523D01*
X199156904Y-164812523D01*
X199252142Y-164764904D01*
X199299761Y-164717285D01*
X199347380Y-164622047D01*
X199347380Y-164336333D01*
X199299761Y-164241095D01*
X199252142Y-164193476D01*
X198442619Y-165193476D02*
X198395000Y-165241095D01*
X198347380Y-165336333D01*
X198347380Y-165574428D01*
X198395000Y-165669666D01*
X198442619Y-165717285D01*
X198537857Y-165764904D01*
X198633095Y-165764904D01*
X198775952Y-165717285D01*
X199347380Y-165145857D01*
X199347380Y-165764904D01*
%TO.C,D31*%
X196959380Y-144200714D02*
X195959380Y-144200714D01*
X195959380Y-144438809D01*
X196007000Y-144581666D01*
X196102238Y-144676904D01*
X196197476Y-144724523D01*
X196387952Y-144772142D01*
X196530809Y-144772142D01*
X196721285Y-144724523D01*
X196816523Y-144676904D01*
X196911761Y-144581666D01*
X196959380Y-144438809D01*
X196959380Y-144200714D01*
X195959380Y-145105476D02*
X195959380Y-145724523D01*
X196340333Y-145391190D01*
X196340333Y-145534047D01*
X196387952Y-145629285D01*
X196435571Y-145676904D01*
X196530809Y-145724523D01*
X196768904Y-145724523D01*
X196864142Y-145676904D01*
X196911761Y-145629285D01*
X196959380Y-145534047D01*
X196959380Y-145248333D01*
X196911761Y-145153095D01*
X196864142Y-145105476D01*
X196959380Y-146676904D02*
X196959380Y-146105476D01*
X196959380Y-146391190D02*
X195959380Y-146391190D01*
X196102238Y-146295952D01*
X196197476Y-146200714D01*
X196245095Y-146105476D01*
%TO.C,D30*%
X206471380Y-125112714D02*
X205471380Y-125112714D01*
X205471380Y-125350809D01*
X205519000Y-125493666D01*
X205614238Y-125588904D01*
X205709476Y-125636523D01*
X205899952Y-125684142D01*
X206042809Y-125684142D01*
X206233285Y-125636523D01*
X206328523Y-125588904D01*
X206423761Y-125493666D01*
X206471380Y-125350809D01*
X206471380Y-125112714D01*
X205471380Y-126017476D02*
X205471380Y-126636523D01*
X205852333Y-126303190D01*
X205852333Y-126446047D01*
X205899952Y-126541285D01*
X205947571Y-126588904D01*
X206042809Y-126636523D01*
X206280904Y-126636523D01*
X206376142Y-126588904D01*
X206423761Y-126541285D01*
X206471380Y-126446047D01*
X206471380Y-126160333D01*
X206423761Y-126065095D01*
X206376142Y-126017476D01*
X205471380Y-127255571D02*
X205471380Y-127350809D01*
X205519000Y-127446047D01*
X205566619Y-127493666D01*
X205661857Y-127541285D01*
X205852333Y-127588904D01*
X206090428Y-127588904D01*
X206280904Y-127541285D01*
X206376142Y-127493666D01*
X206423761Y-127446047D01*
X206471380Y-127350809D01*
X206471380Y-127255571D01*
X206423761Y-127160333D01*
X206376142Y-127112714D01*
X206280904Y-127065095D01*
X206090428Y-127017476D01*
X205852333Y-127017476D01*
X205661857Y-127065095D01*
X205566619Y-127112714D01*
X205519000Y-127160333D01*
X205471380Y-127255571D01*
%TO.C,D29*%
X201683380Y-106062714D02*
X200683380Y-106062714D01*
X200683380Y-106300809D01*
X200731000Y-106443666D01*
X200826238Y-106538904D01*
X200921476Y-106586523D01*
X201111952Y-106634142D01*
X201254809Y-106634142D01*
X201445285Y-106586523D01*
X201540523Y-106538904D01*
X201635761Y-106443666D01*
X201683380Y-106300809D01*
X201683380Y-106062714D01*
X200778619Y-107015095D02*
X200731000Y-107062714D01*
X200683380Y-107157952D01*
X200683380Y-107396047D01*
X200731000Y-107491285D01*
X200778619Y-107538904D01*
X200873857Y-107586523D01*
X200969095Y-107586523D01*
X201111952Y-107538904D01*
X201683380Y-106967476D01*
X201683380Y-107586523D01*
X201683380Y-108062714D02*
X201683380Y-108253190D01*
X201635761Y-108348428D01*
X201588142Y-108396047D01*
X201445285Y-108491285D01*
X201254809Y-108538904D01*
X200873857Y-108538904D01*
X200778619Y-108491285D01*
X200731000Y-108443666D01*
X200683380Y-108348428D01*
X200683380Y-108157952D01*
X200731000Y-108062714D01*
X200778619Y-108015095D01*
X200873857Y-107967476D01*
X201111952Y-107967476D01*
X201207190Y-108015095D01*
X201254809Y-108062714D01*
X201302428Y-108157952D01*
X201302428Y-108348428D01*
X201254809Y-108443666D01*
X201207190Y-108491285D01*
X201111952Y-108538904D01*
%TO.C,D28*%
X192108380Y-86961814D02*
X191108380Y-86961814D01*
X191108380Y-87199909D01*
X191156000Y-87342766D01*
X191251238Y-87438004D01*
X191346476Y-87485623D01*
X191536952Y-87533242D01*
X191679809Y-87533242D01*
X191870285Y-87485623D01*
X191965523Y-87438004D01*
X192060761Y-87342766D01*
X192108380Y-87199909D01*
X192108380Y-86961814D01*
X191203619Y-87914195D02*
X191156000Y-87961814D01*
X191108380Y-88057052D01*
X191108380Y-88295147D01*
X191156000Y-88390385D01*
X191203619Y-88438004D01*
X191298857Y-88485623D01*
X191394095Y-88485623D01*
X191536952Y-88438004D01*
X192108380Y-87866576D01*
X192108380Y-88485623D01*
X191536952Y-89057052D02*
X191489333Y-88961814D01*
X191441714Y-88914195D01*
X191346476Y-88866576D01*
X191298857Y-88866576D01*
X191203619Y-88914195D01*
X191156000Y-88961814D01*
X191108380Y-89057052D01*
X191108380Y-89247528D01*
X191156000Y-89342766D01*
X191203619Y-89390385D01*
X191298857Y-89438004D01*
X191346476Y-89438004D01*
X191441714Y-89390385D01*
X191489333Y-89342766D01*
X191536952Y-89247528D01*
X191536952Y-89057052D01*
X191584571Y-88961814D01*
X191632190Y-88914195D01*
X191727428Y-88866576D01*
X191917904Y-88866576D01*
X192013142Y-88914195D01*
X192060761Y-88961814D01*
X192108380Y-89057052D01*
X192108380Y-89247528D01*
X192060761Y-89342766D01*
X192013142Y-89390385D01*
X191917904Y-89438004D01*
X191727428Y-89438004D01*
X191632190Y-89390385D01*
X191584571Y-89342766D01*
X191536952Y-89247528D01*
%TO.C,D27*%
X177858380Y-144609714D02*
X176858380Y-144609714D01*
X176858380Y-144847809D01*
X176906000Y-144990666D01*
X177001238Y-145085904D01*
X177096476Y-145133523D01*
X177286952Y-145181142D01*
X177429809Y-145181142D01*
X177620285Y-145133523D01*
X177715523Y-145085904D01*
X177810761Y-144990666D01*
X177858380Y-144847809D01*
X177858380Y-144609714D01*
X176953619Y-145562095D02*
X176906000Y-145609714D01*
X176858380Y-145704952D01*
X176858380Y-145943047D01*
X176906000Y-146038285D01*
X176953619Y-146085904D01*
X177048857Y-146133523D01*
X177144095Y-146133523D01*
X177286952Y-146085904D01*
X177858380Y-145514476D01*
X177858380Y-146133523D01*
X176858380Y-146466857D02*
X176858380Y-147133523D01*
X177858380Y-146704952D01*
%TO.C,D26*%
X187409380Y-125090714D02*
X186409380Y-125090714D01*
X186409380Y-125328809D01*
X186457000Y-125471666D01*
X186552238Y-125566904D01*
X186647476Y-125614523D01*
X186837952Y-125662142D01*
X186980809Y-125662142D01*
X187171285Y-125614523D01*
X187266523Y-125566904D01*
X187361761Y-125471666D01*
X187409380Y-125328809D01*
X187409380Y-125090714D01*
X186504619Y-126043095D02*
X186457000Y-126090714D01*
X186409380Y-126185952D01*
X186409380Y-126424047D01*
X186457000Y-126519285D01*
X186504619Y-126566904D01*
X186599857Y-126614523D01*
X186695095Y-126614523D01*
X186837952Y-126566904D01*
X187409380Y-125995476D01*
X187409380Y-126614523D01*
X186409380Y-127471666D02*
X186409380Y-127281190D01*
X186457000Y-127185952D01*
X186504619Y-127138333D01*
X186647476Y-127043095D01*
X186837952Y-126995476D01*
X187218904Y-126995476D01*
X187314142Y-127043095D01*
X187361761Y-127090714D01*
X187409380Y-127185952D01*
X187409380Y-127376428D01*
X187361761Y-127471666D01*
X187314142Y-127519285D01*
X187218904Y-127566904D01*
X186980809Y-127566904D01*
X186885571Y-127519285D01*
X186837952Y-127471666D01*
X186790333Y-127376428D01*
X186790333Y-127185952D01*
X186837952Y-127090714D01*
X186885571Y-127043095D01*
X186980809Y-126995476D01*
%TO.C,D25*%
X182595380Y-106036714D02*
X181595380Y-106036714D01*
X181595380Y-106274809D01*
X181643000Y-106417666D01*
X181738238Y-106512904D01*
X181833476Y-106560523D01*
X182023952Y-106608142D01*
X182166809Y-106608142D01*
X182357285Y-106560523D01*
X182452523Y-106512904D01*
X182547761Y-106417666D01*
X182595380Y-106274809D01*
X182595380Y-106036714D01*
X181690619Y-106989095D02*
X181643000Y-107036714D01*
X181595380Y-107131952D01*
X181595380Y-107370047D01*
X181643000Y-107465285D01*
X181690619Y-107512904D01*
X181785857Y-107560523D01*
X181881095Y-107560523D01*
X182023952Y-107512904D01*
X182595380Y-106941476D01*
X182595380Y-107560523D01*
X181595380Y-108465285D02*
X181595380Y-107989095D01*
X182071571Y-107941476D01*
X182023952Y-107989095D01*
X181976333Y-108084333D01*
X181976333Y-108322428D01*
X182023952Y-108417666D01*
X182071571Y-108465285D01*
X182166809Y-108512904D01*
X182404904Y-108512904D01*
X182500142Y-108465285D01*
X182547761Y-108417666D01*
X182595380Y-108322428D01*
X182595380Y-108084333D01*
X182547761Y-107989095D01*
X182500142Y-107941476D01*
%TO.C,D24*%
X173083380Y-86999914D02*
X172083380Y-86999914D01*
X172083380Y-87238009D01*
X172131000Y-87380866D01*
X172226238Y-87476104D01*
X172321476Y-87523723D01*
X172511952Y-87571342D01*
X172654809Y-87571342D01*
X172845285Y-87523723D01*
X172940523Y-87476104D01*
X173035761Y-87380866D01*
X173083380Y-87238009D01*
X173083380Y-86999914D01*
X172178619Y-87952295D02*
X172131000Y-87999914D01*
X172083380Y-88095152D01*
X172083380Y-88333247D01*
X172131000Y-88428485D01*
X172178619Y-88476104D01*
X172273857Y-88523723D01*
X172369095Y-88523723D01*
X172511952Y-88476104D01*
X173083380Y-87904676D01*
X173083380Y-88523723D01*
X172416714Y-89380866D02*
X173083380Y-89380866D01*
X172035761Y-89142771D02*
X172750047Y-88904676D01*
X172750047Y-89523723D01*
%TO.C,D22*%
X158783380Y-144114714D02*
X157783380Y-144114714D01*
X157783380Y-144352809D01*
X157831000Y-144495666D01*
X157926238Y-144590904D01*
X158021476Y-144638523D01*
X158211952Y-144686142D01*
X158354809Y-144686142D01*
X158545285Y-144638523D01*
X158640523Y-144590904D01*
X158735761Y-144495666D01*
X158783380Y-144352809D01*
X158783380Y-144114714D01*
X157878619Y-145067095D02*
X157831000Y-145114714D01*
X157783380Y-145209952D01*
X157783380Y-145448047D01*
X157831000Y-145543285D01*
X157878619Y-145590904D01*
X157973857Y-145638523D01*
X158069095Y-145638523D01*
X158211952Y-145590904D01*
X158783380Y-145019476D01*
X158783380Y-145638523D01*
X157878619Y-146019476D02*
X157831000Y-146067095D01*
X157783380Y-146162333D01*
X157783380Y-146400428D01*
X157831000Y-146495666D01*
X157878619Y-146543285D01*
X157973857Y-146590904D01*
X158069095Y-146590904D01*
X158211952Y-146543285D01*
X158783380Y-145971857D01*
X158783380Y-146590904D01*
%TO.C,D21*%
X168359380Y-125061714D02*
X167359380Y-125061714D01*
X167359380Y-125299809D01*
X167407000Y-125442666D01*
X167502238Y-125537904D01*
X167597476Y-125585523D01*
X167787952Y-125633142D01*
X167930809Y-125633142D01*
X168121285Y-125585523D01*
X168216523Y-125537904D01*
X168311761Y-125442666D01*
X168359380Y-125299809D01*
X168359380Y-125061714D01*
X167454619Y-126014095D02*
X167407000Y-126061714D01*
X167359380Y-126156952D01*
X167359380Y-126395047D01*
X167407000Y-126490285D01*
X167454619Y-126537904D01*
X167549857Y-126585523D01*
X167645095Y-126585523D01*
X167787952Y-126537904D01*
X168359380Y-125966476D01*
X168359380Y-126585523D01*
X168359380Y-127537904D02*
X168359380Y-126966476D01*
X168359380Y-127252190D02*
X167359380Y-127252190D01*
X167502238Y-127156952D01*
X167597476Y-127061714D01*
X167645095Y-126966476D01*
%TO.C,D20*%
X163533380Y-106049714D02*
X162533380Y-106049714D01*
X162533380Y-106287809D01*
X162581000Y-106430666D01*
X162676238Y-106525904D01*
X162771476Y-106573523D01*
X162961952Y-106621142D01*
X163104809Y-106621142D01*
X163295285Y-106573523D01*
X163390523Y-106525904D01*
X163485761Y-106430666D01*
X163533380Y-106287809D01*
X163533380Y-106049714D01*
X162628619Y-107002095D02*
X162581000Y-107049714D01*
X162533380Y-107144952D01*
X162533380Y-107383047D01*
X162581000Y-107478285D01*
X162628619Y-107525904D01*
X162723857Y-107573523D01*
X162819095Y-107573523D01*
X162961952Y-107525904D01*
X163533380Y-106954476D01*
X163533380Y-107573523D01*
X162533380Y-108192571D02*
X162533380Y-108287809D01*
X162581000Y-108383047D01*
X162628619Y-108430666D01*
X162723857Y-108478285D01*
X162914333Y-108525904D01*
X163152428Y-108525904D01*
X163342904Y-108478285D01*
X163438142Y-108430666D01*
X163485761Y-108383047D01*
X163533380Y-108287809D01*
X163533380Y-108192571D01*
X163485761Y-108097333D01*
X163438142Y-108049714D01*
X163342904Y-108002095D01*
X163152428Y-107954476D01*
X162914333Y-107954476D01*
X162723857Y-108002095D01*
X162628619Y-108049714D01*
X162581000Y-108097333D01*
X162533380Y-108192571D01*
%TO.C,D19*%
X154109380Y-86898314D02*
X153109380Y-86898314D01*
X153109380Y-87136409D01*
X153157000Y-87279266D01*
X153252238Y-87374504D01*
X153347476Y-87422123D01*
X153537952Y-87469742D01*
X153680809Y-87469742D01*
X153871285Y-87422123D01*
X153966523Y-87374504D01*
X154061761Y-87279266D01*
X154109380Y-87136409D01*
X154109380Y-86898314D01*
X154109380Y-88422123D02*
X154109380Y-87850695D01*
X154109380Y-88136409D02*
X153109380Y-88136409D01*
X153252238Y-88041171D01*
X153347476Y-87945933D01*
X153395095Y-87850695D01*
X154109380Y-88898314D02*
X154109380Y-89088790D01*
X154061761Y-89184028D01*
X154014142Y-89231647D01*
X153871285Y-89326885D01*
X153680809Y-89374504D01*
X153299857Y-89374504D01*
X153204619Y-89326885D01*
X153157000Y-89279266D01*
X153109380Y-89184028D01*
X153109380Y-88993552D01*
X153157000Y-88898314D01*
X153204619Y-88850695D01*
X153299857Y-88803076D01*
X153537952Y-88803076D01*
X153633190Y-88850695D01*
X153680809Y-88898314D01*
X153728428Y-88993552D01*
X153728428Y-89184028D01*
X153680809Y-89279266D01*
X153633190Y-89326885D01*
X153537952Y-89374504D01*
%TO.C,D18*%
X139746380Y-144114714D02*
X138746380Y-144114714D01*
X138746380Y-144352809D01*
X138794000Y-144495666D01*
X138889238Y-144590904D01*
X138984476Y-144638523D01*
X139174952Y-144686142D01*
X139317809Y-144686142D01*
X139508285Y-144638523D01*
X139603523Y-144590904D01*
X139698761Y-144495666D01*
X139746380Y-144352809D01*
X139746380Y-144114714D01*
X139746380Y-145638523D02*
X139746380Y-145067095D01*
X139746380Y-145352809D02*
X138746380Y-145352809D01*
X138889238Y-145257571D01*
X138984476Y-145162333D01*
X139032095Y-145067095D01*
X139174952Y-146209952D02*
X139127333Y-146114714D01*
X139079714Y-146067095D01*
X138984476Y-146019476D01*
X138936857Y-146019476D01*
X138841619Y-146067095D01*
X138794000Y-146114714D01*
X138746380Y-146209952D01*
X138746380Y-146400428D01*
X138794000Y-146495666D01*
X138841619Y-146543285D01*
X138936857Y-146590904D01*
X138984476Y-146590904D01*
X139079714Y-146543285D01*
X139127333Y-146495666D01*
X139174952Y-146400428D01*
X139174952Y-146209952D01*
X139222571Y-146114714D01*
X139270190Y-146067095D01*
X139365428Y-146019476D01*
X139555904Y-146019476D01*
X139651142Y-146067095D01*
X139698761Y-146114714D01*
X139746380Y-146209952D01*
X139746380Y-146400428D01*
X139698761Y-146495666D01*
X139651142Y-146543285D01*
X139555904Y-146590904D01*
X139365428Y-146590904D01*
X139270190Y-146543285D01*
X139222571Y-146495666D01*
X139174952Y-146400428D01*
%TO.C,D17*%
X149271380Y-125086714D02*
X148271380Y-125086714D01*
X148271380Y-125324809D01*
X148319000Y-125467666D01*
X148414238Y-125562904D01*
X148509476Y-125610523D01*
X148699952Y-125658142D01*
X148842809Y-125658142D01*
X149033285Y-125610523D01*
X149128523Y-125562904D01*
X149223761Y-125467666D01*
X149271380Y-125324809D01*
X149271380Y-125086714D01*
X149271380Y-126610523D02*
X149271380Y-126039095D01*
X149271380Y-126324809D02*
X148271380Y-126324809D01*
X148414238Y-126229571D01*
X148509476Y-126134333D01*
X148557095Y-126039095D01*
X148271380Y-126943857D02*
X148271380Y-127610523D01*
X149271380Y-127181952D01*
%TO.C,D16*%
X144483380Y-105935714D02*
X143483380Y-105935714D01*
X143483380Y-106173809D01*
X143531000Y-106316666D01*
X143626238Y-106411904D01*
X143721476Y-106459523D01*
X143911952Y-106507142D01*
X144054809Y-106507142D01*
X144245285Y-106459523D01*
X144340523Y-106411904D01*
X144435761Y-106316666D01*
X144483380Y-106173809D01*
X144483380Y-105935714D01*
X144483380Y-107459523D02*
X144483380Y-106888095D01*
X144483380Y-107173809D02*
X143483380Y-107173809D01*
X143626238Y-107078571D01*
X143721476Y-106983333D01*
X143769095Y-106888095D01*
X143483380Y-108316666D02*
X143483380Y-108126190D01*
X143531000Y-108030952D01*
X143578619Y-107983333D01*
X143721476Y-107888095D01*
X143911952Y-107840476D01*
X144292904Y-107840476D01*
X144388142Y-107888095D01*
X144435761Y-107935714D01*
X144483380Y-108030952D01*
X144483380Y-108221428D01*
X144435761Y-108316666D01*
X144388142Y-108364285D01*
X144292904Y-108411904D01*
X144054809Y-108411904D01*
X143959571Y-108364285D01*
X143911952Y-108316666D01*
X143864333Y-108221428D01*
X143864333Y-108030952D01*
X143911952Y-107935714D01*
X143959571Y-107888095D01*
X144054809Y-107840476D01*
%TO.C,D15*%
X135964285Y-80436980D02*
X135964285Y-79436980D01*
X135726190Y-79436980D01*
X135583333Y-79484600D01*
X135488095Y-79579838D01*
X135440476Y-79675076D01*
X135392857Y-79865552D01*
X135392857Y-80008409D01*
X135440476Y-80198885D01*
X135488095Y-80294123D01*
X135583333Y-80389361D01*
X135726190Y-80436980D01*
X135964285Y-80436980D01*
X134440476Y-80436980D02*
X135011904Y-80436980D01*
X134726190Y-80436980D02*
X134726190Y-79436980D01*
X134821428Y-79579838D01*
X134916666Y-79675076D01*
X135011904Y-79722695D01*
X133535714Y-79436980D02*
X134011904Y-79436980D01*
X134059523Y-79913171D01*
X134011904Y-79865552D01*
X133916666Y-79817933D01*
X133678571Y-79817933D01*
X133583333Y-79865552D01*
X133535714Y-79913171D01*
X133488095Y-80008409D01*
X133488095Y-80246504D01*
X133535714Y-80341742D01*
X133583333Y-80389361D01*
X133678571Y-80436980D01*
X133916666Y-80436980D01*
X134011904Y-80389361D01*
X134059523Y-80341742D01*
%TO.C,D13*%
X120721380Y-144101714D02*
X119721380Y-144101714D01*
X119721380Y-144339809D01*
X119769000Y-144482666D01*
X119864238Y-144577904D01*
X119959476Y-144625523D01*
X120149952Y-144673142D01*
X120292809Y-144673142D01*
X120483285Y-144625523D01*
X120578523Y-144577904D01*
X120673761Y-144482666D01*
X120721380Y-144339809D01*
X120721380Y-144101714D01*
X120721380Y-145625523D02*
X120721380Y-145054095D01*
X120721380Y-145339809D02*
X119721380Y-145339809D01*
X119864238Y-145244571D01*
X119959476Y-145149333D01*
X120007095Y-145054095D01*
X119721380Y-145958857D02*
X119721380Y-146577904D01*
X120102333Y-146244571D01*
X120102333Y-146387428D01*
X120149952Y-146482666D01*
X120197571Y-146530285D01*
X120292809Y-146577904D01*
X120530904Y-146577904D01*
X120626142Y-146530285D01*
X120673761Y-146482666D01*
X120721380Y-146387428D01*
X120721380Y-146101714D01*
X120673761Y-146006476D01*
X120626142Y-145958857D01*
%TO.C,D12*%
X130208380Y-125112714D02*
X129208380Y-125112714D01*
X129208380Y-125350809D01*
X129256000Y-125493666D01*
X129351238Y-125588904D01*
X129446476Y-125636523D01*
X129636952Y-125684142D01*
X129779809Y-125684142D01*
X129970285Y-125636523D01*
X130065523Y-125588904D01*
X130160761Y-125493666D01*
X130208380Y-125350809D01*
X130208380Y-125112714D01*
X130208380Y-126636523D02*
X130208380Y-126065095D01*
X130208380Y-126350809D02*
X129208380Y-126350809D01*
X129351238Y-126255571D01*
X129446476Y-126160333D01*
X129494095Y-126065095D01*
X129303619Y-127017476D02*
X129256000Y-127065095D01*
X129208380Y-127160333D01*
X129208380Y-127398428D01*
X129256000Y-127493666D01*
X129303619Y-127541285D01*
X129398857Y-127588904D01*
X129494095Y-127588904D01*
X129636952Y-127541285D01*
X130208380Y-126969857D01*
X130208380Y-127588904D01*
%TO.C,D11*%
X125445380Y-106036714D02*
X124445380Y-106036714D01*
X124445380Y-106274809D01*
X124493000Y-106417666D01*
X124588238Y-106512904D01*
X124683476Y-106560523D01*
X124873952Y-106608142D01*
X125016809Y-106608142D01*
X125207285Y-106560523D01*
X125302523Y-106512904D01*
X125397761Y-106417666D01*
X125445380Y-106274809D01*
X125445380Y-106036714D01*
X125445380Y-107560523D02*
X125445380Y-106989095D01*
X125445380Y-107274809D02*
X124445380Y-107274809D01*
X124588238Y-107179571D01*
X124683476Y-107084333D01*
X124731095Y-106989095D01*
X125445380Y-108512904D02*
X125445380Y-107941476D01*
X125445380Y-108227190D02*
X124445380Y-108227190D01*
X124588238Y-108131952D01*
X124683476Y-108036714D01*
X124731095Y-107941476D01*
%TO.C,D10*%
X115895380Y-87088814D02*
X114895380Y-87088814D01*
X114895380Y-87326909D01*
X114943000Y-87469766D01*
X115038238Y-87565004D01*
X115133476Y-87612623D01*
X115323952Y-87660242D01*
X115466809Y-87660242D01*
X115657285Y-87612623D01*
X115752523Y-87565004D01*
X115847761Y-87469766D01*
X115895380Y-87326909D01*
X115895380Y-87088814D01*
X115895380Y-88612623D02*
X115895380Y-88041195D01*
X115895380Y-88326909D02*
X114895380Y-88326909D01*
X115038238Y-88231671D01*
X115133476Y-88136433D01*
X115181095Y-88041195D01*
X114895380Y-89231671D02*
X114895380Y-89326909D01*
X114943000Y-89422147D01*
X114990619Y-89469766D01*
X115085857Y-89517385D01*
X115276333Y-89565004D01*
X115514428Y-89565004D01*
X115704904Y-89517385D01*
X115800142Y-89469766D01*
X115847761Y-89422147D01*
X115895380Y-89326909D01*
X115895380Y-89231671D01*
X115847761Y-89136433D01*
X115800142Y-89088814D01*
X115704904Y-89041195D01*
X115514428Y-88993576D01*
X115276333Y-88993576D01*
X115085857Y-89041195D01*
X114990619Y-89088814D01*
X114943000Y-89136433D01*
X114895380Y-89231671D01*
%TO.C,D8*%
X111171380Y-125477904D02*
X110171380Y-125477904D01*
X110171380Y-125716000D01*
X110219000Y-125858857D01*
X110314238Y-125954095D01*
X110409476Y-126001714D01*
X110599952Y-126049333D01*
X110742809Y-126049333D01*
X110933285Y-126001714D01*
X111028523Y-125954095D01*
X111123761Y-125858857D01*
X111171380Y-125716000D01*
X111171380Y-125477904D01*
X110599952Y-126620761D02*
X110552333Y-126525523D01*
X110504714Y-126477904D01*
X110409476Y-126430285D01*
X110361857Y-126430285D01*
X110266619Y-126477904D01*
X110219000Y-126525523D01*
X110171380Y-126620761D01*
X110171380Y-126811238D01*
X110219000Y-126906476D01*
X110266619Y-126954095D01*
X110361857Y-127001714D01*
X110409476Y-127001714D01*
X110504714Y-126954095D01*
X110552333Y-126906476D01*
X110599952Y-126811238D01*
X110599952Y-126620761D01*
X110647571Y-126525523D01*
X110695190Y-126477904D01*
X110790428Y-126430285D01*
X110980904Y-126430285D01*
X111076142Y-126477904D01*
X111123761Y-126525523D01*
X111171380Y-126620761D01*
X111171380Y-126811238D01*
X111123761Y-126906476D01*
X111076142Y-126954095D01*
X110980904Y-127001714D01*
X110790428Y-127001714D01*
X110695190Y-126954095D01*
X110647571Y-126906476D01*
X110599952Y-126811238D01*
%TO.C,D7*%
X106408380Y-106589904D02*
X105408380Y-106589904D01*
X105408380Y-106828000D01*
X105456000Y-106970857D01*
X105551238Y-107066095D01*
X105646476Y-107113714D01*
X105836952Y-107161333D01*
X105979809Y-107161333D01*
X106170285Y-107113714D01*
X106265523Y-107066095D01*
X106360761Y-106970857D01*
X106408380Y-106828000D01*
X106408380Y-106589904D01*
X105408380Y-107494666D02*
X105408380Y-108161333D01*
X106408380Y-107732761D01*
%TO.C,D6*%
X96845380Y-87565004D02*
X95845380Y-87565004D01*
X95845380Y-87803100D01*
X95893000Y-87945957D01*
X95988238Y-88041195D01*
X96083476Y-88088814D01*
X96273952Y-88136433D01*
X96416809Y-88136433D01*
X96607285Y-88088814D01*
X96702523Y-88041195D01*
X96797761Y-87945957D01*
X96845380Y-87803100D01*
X96845380Y-87565004D01*
X95845380Y-88993576D02*
X95845380Y-88803100D01*
X95893000Y-88707861D01*
X95940619Y-88660242D01*
X96083476Y-88565004D01*
X96273952Y-88517385D01*
X96654904Y-88517385D01*
X96750142Y-88565004D01*
X96797761Y-88612623D01*
X96845380Y-88707861D01*
X96845380Y-88898338D01*
X96797761Y-88993576D01*
X96750142Y-89041195D01*
X96654904Y-89088814D01*
X96416809Y-89088814D01*
X96321571Y-89041195D01*
X96273952Y-88993576D01*
X96226333Y-88898338D01*
X96226333Y-88707861D01*
X96273952Y-88612623D01*
X96321571Y-88565004D01*
X96416809Y-88517385D01*
%TO.C,D5*%
X80195680Y-163637904D02*
X79195680Y-163637904D01*
X79195680Y-163876000D01*
X79243300Y-164018857D01*
X79338538Y-164114095D01*
X79433776Y-164161714D01*
X79624252Y-164209333D01*
X79767109Y-164209333D01*
X79957585Y-164161714D01*
X80052823Y-164114095D01*
X80148061Y-164018857D01*
X80195680Y-163876000D01*
X80195680Y-163637904D01*
X79195680Y-165114095D02*
X79195680Y-164637904D01*
X79671871Y-164590285D01*
X79624252Y-164637904D01*
X79576633Y-164733142D01*
X79576633Y-164971238D01*
X79624252Y-165066476D01*
X79671871Y-165114095D01*
X79767109Y-165161714D01*
X80005204Y-165161714D01*
X80100442Y-165114095D01*
X80148061Y-165066476D01*
X80195680Y-164971238D01*
X80195680Y-164733142D01*
X80148061Y-164637904D01*
X80100442Y-164590285D01*
%TO.C,D4*%
X89733380Y-144638904D02*
X88733380Y-144638904D01*
X88733380Y-144877000D01*
X88781000Y-145019857D01*
X88876238Y-145115095D01*
X88971476Y-145162714D01*
X89161952Y-145210333D01*
X89304809Y-145210333D01*
X89495285Y-145162714D01*
X89590523Y-145115095D01*
X89685761Y-145019857D01*
X89733380Y-144877000D01*
X89733380Y-144638904D01*
X89066714Y-146067476D02*
X89733380Y-146067476D01*
X88685761Y-145829380D02*
X89400047Y-145591285D01*
X89400047Y-146210333D01*
%TO.C,D3*%
X84970880Y-125400904D02*
X83970880Y-125400904D01*
X83970880Y-125639000D01*
X84018500Y-125781857D01*
X84113738Y-125877095D01*
X84208976Y-125924714D01*
X84399452Y-125972333D01*
X84542309Y-125972333D01*
X84732785Y-125924714D01*
X84828023Y-125877095D01*
X84923261Y-125781857D01*
X84970880Y-125639000D01*
X84970880Y-125400904D01*
X83970880Y-126305666D02*
X83970880Y-126924714D01*
X84351833Y-126591380D01*
X84351833Y-126734238D01*
X84399452Y-126829476D01*
X84447071Y-126877095D01*
X84542309Y-126924714D01*
X84780404Y-126924714D01*
X84875642Y-126877095D01*
X84923261Y-126829476D01*
X84970880Y-126734238D01*
X84970880Y-126448523D01*
X84923261Y-126353285D01*
X84875642Y-126305666D01*
%TO.C,D2*%
X82519780Y-106510904D02*
X81519780Y-106510904D01*
X81519780Y-106749000D01*
X81567400Y-106891857D01*
X81662638Y-106987095D01*
X81757876Y-107034714D01*
X81948352Y-107082333D01*
X82091209Y-107082333D01*
X82281685Y-107034714D01*
X82376923Y-106987095D01*
X82472161Y-106891857D01*
X82519780Y-106749000D01*
X82519780Y-106510904D01*
X81615019Y-107463285D02*
X81567400Y-107510904D01*
X81519780Y-107606142D01*
X81519780Y-107844238D01*
X81567400Y-107939476D01*
X81615019Y-107987095D01*
X81710257Y-108034714D01*
X81805495Y-108034714D01*
X81948352Y-107987095D01*
X82519780Y-107415666D01*
X82519780Y-108034714D01*
%TO.C,D1*%
X77465180Y-88190304D02*
X76465180Y-88190304D01*
X76465180Y-88428400D01*
X76512800Y-88571257D01*
X76608038Y-88666495D01*
X76703276Y-88714114D01*
X76893752Y-88761733D01*
X77036609Y-88761733D01*
X77227085Y-88714114D01*
X77322323Y-88666495D01*
X77417561Y-88571257D01*
X77465180Y-88428400D01*
X77465180Y-88190304D01*
X77465180Y-89714114D02*
X77465180Y-89142685D01*
X77465180Y-89428400D02*
X76465180Y-89428400D01*
X76608038Y-89333161D01*
X76703276Y-89237923D01*
X76750895Y-89142685D01*
%TO.C,X1*%
X170484380Y-163185476D02*
X171484380Y-163852142D01*
X170484380Y-163852142D02*
X171484380Y-163185476D01*
X171484380Y-164756904D02*
X171484380Y-164185476D01*
X171484380Y-164471190D02*
X170484380Y-164471190D01*
X170627238Y-164375952D01*
X170722476Y-164280714D01*
X170770095Y-164185476D01*
%TO.C,R6*%
X217695666Y-172516380D02*
X218029000Y-172040190D01*
X218267095Y-172516380D02*
X218267095Y-171516380D01*
X217886142Y-171516380D01*
X217790904Y-171564000D01*
X217743285Y-171611619D01*
X217695666Y-171706857D01*
X217695666Y-171849714D01*
X217743285Y-171944952D01*
X217790904Y-171992571D01*
X217886142Y-172040190D01*
X218267095Y-172040190D01*
X216838523Y-171516380D02*
X217029000Y-171516380D01*
X217124238Y-171564000D01*
X217171857Y-171611619D01*
X217267095Y-171754476D01*
X217314714Y-171944952D01*
X217314714Y-172325904D01*
X217267095Y-172421142D01*
X217219476Y-172468761D01*
X217124238Y-172516380D01*
X216933761Y-172516380D01*
X216838523Y-172468761D01*
X216790904Y-172421142D01*
X216743285Y-172325904D01*
X216743285Y-172087809D01*
X216790904Y-171992571D01*
X216838523Y-171944952D01*
X216933761Y-171897333D01*
X217124238Y-171897333D01*
X217219476Y-171944952D01*
X217267095Y-171992571D01*
X217314714Y-172087809D01*
%TO.C,R5*%
X221378666Y-159290380D02*
X221712000Y-158814190D01*
X221950095Y-159290380D02*
X221950095Y-158290380D01*
X221569142Y-158290380D01*
X221473904Y-158338000D01*
X221426285Y-158385619D01*
X221378666Y-158480857D01*
X221378666Y-158623714D01*
X221426285Y-158718952D01*
X221473904Y-158766571D01*
X221569142Y-158814190D01*
X221950095Y-158814190D01*
X220473904Y-158290380D02*
X220950095Y-158290380D01*
X220997714Y-158766571D01*
X220950095Y-158718952D01*
X220854857Y-158671333D01*
X220616761Y-158671333D01*
X220521523Y-158718952D01*
X220473904Y-158766571D01*
X220426285Y-158861809D01*
X220426285Y-159099904D01*
X220473904Y-159195142D01*
X220521523Y-159242761D01*
X220616761Y-159290380D01*
X220854857Y-159290380D01*
X220950095Y-159242761D01*
X220997714Y-159195142D01*
%TO.C,R4*%
X203964666Y-163859380D02*
X204298000Y-163383190D01*
X204536095Y-163859380D02*
X204536095Y-162859380D01*
X204155142Y-162859380D01*
X204059904Y-162907000D01*
X204012285Y-162954619D01*
X203964666Y-163049857D01*
X203964666Y-163192714D01*
X204012285Y-163287952D01*
X204059904Y-163335571D01*
X204155142Y-163383190D01*
X204536095Y-163383190D01*
X203107523Y-163192714D02*
X203107523Y-163859380D01*
X203345619Y-162811761D02*
X203583714Y-163526047D01*
X202964666Y-163526047D01*
%TO.C,R3*%
X222584666Y-172511380D02*
X222918000Y-172035190D01*
X223156095Y-172511380D02*
X223156095Y-171511380D01*
X222775142Y-171511380D01*
X222679904Y-171559000D01*
X222632285Y-171606619D01*
X222584666Y-171701857D01*
X222584666Y-171844714D01*
X222632285Y-171939952D01*
X222679904Y-171987571D01*
X222775142Y-172035190D01*
X223156095Y-172035190D01*
X222251333Y-171511380D02*
X221632285Y-171511380D01*
X221965619Y-171892333D01*
X221822761Y-171892333D01*
X221727523Y-171939952D01*
X221679904Y-171987571D01*
X221632285Y-172082809D01*
X221632285Y-172320904D01*
X221679904Y-172416142D01*
X221727523Y-172463761D01*
X221822761Y-172511380D01*
X222108476Y-172511380D01*
X222203714Y-172463761D01*
X222251333Y-172416142D01*
%TO.C,C10*%
X207262857Y-155844142D02*
X207310476Y-155891761D01*
X207453333Y-155939380D01*
X207548571Y-155939380D01*
X207691428Y-155891761D01*
X207786666Y-155796523D01*
X207834285Y-155701285D01*
X207881904Y-155510809D01*
X207881904Y-155367952D01*
X207834285Y-155177476D01*
X207786666Y-155082238D01*
X207691428Y-154987000D01*
X207548571Y-154939380D01*
X207453333Y-154939380D01*
X207310476Y-154987000D01*
X207262857Y-155034619D01*
X206310476Y-155939380D02*
X206881904Y-155939380D01*
X206596190Y-155939380D02*
X206596190Y-154939380D01*
X206691428Y-155082238D01*
X206786666Y-155177476D01*
X206881904Y-155225095D01*
X205691428Y-154939380D02*
X205596190Y-154939380D01*
X205500952Y-154987000D01*
X205453333Y-155034619D01*
X205405714Y-155129857D01*
X205358095Y-155320333D01*
X205358095Y-155558428D01*
X205405714Y-155748904D01*
X205453333Y-155844142D01*
X205500952Y-155891761D01*
X205596190Y-155939380D01*
X205691428Y-155939380D01*
X205786666Y-155891761D01*
X205834285Y-155844142D01*
X205881904Y-155748904D01*
X205929523Y-155558428D01*
X205929523Y-155320333D01*
X205881904Y-155129857D01*
X205834285Y-155034619D01*
X205786666Y-154987000D01*
X205691428Y-154939380D01*
%TO.C,C9*%
X216629666Y-155832142D02*
X216677285Y-155879761D01*
X216820142Y-155927380D01*
X216915380Y-155927380D01*
X217058238Y-155879761D01*
X217153476Y-155784523D01*
X217201095Y-155689285D01*
X217248714Y-155498809D01*
X217248714Y-155355952D01*
X217201095Y-155165476D01*
X217153476Y-155070238D01*
X217058238Y-154975000D01*
X216915380Y-154927380D01*
X216820142Y-154927380D01*
X216677285Y-154975000D01*
X216629666Y-155022619D01*
X216153476Y-155927380D02*
X215963000Y-155927380D01*
X215867761Y-155879761D01*
X215820142Y-155832142D01*
X215724904Y-155689285D01*
X215677285Y-155498809D01*
X215677285Y-155117857D01*
X215724904Y-155022619D01*
X215772523Y-154975000D01*
X215867761Y-154927380D01*
X216058238Y-154927380D01*
X216153476Y-154975000D01*
X216201095Y-155022619D01*
X216248714Y-155117857D01*
X216248714Y-155355952D01*
X216201095Y-155451190D01*
X216153476Y-155498809D01*
X216058238Y-155546428D01*
X215867761Y-155546428D01*
X215772523Y-155498809D01*
X215724904Y-155451190D01*
X215677285Y-155355952D01*
%TO.C,C8*%
X212843666Y-172514142D02*
X212891285Y-172561761D01*
X213034142Y-172609380D01*
X213129380Y-172609380D01*
X213272238Y-172561761D01*
X213367476Y-172466523D01*
X213415095Y-172371285D01*
X213462714Y-172180809D01*
X213462714Y-172037952D01*
X213415095Y-171847476D01*
X213367476Y-171752238D01*
X213272238Y-171657000D01*
X213129380Y-171609380D01*
X213034142Y-171609380D01*
X212891285Y-171657000D01*
X212843666Y-171704619D01*
X212272238Y-172037952D02*
X212367476Y-171990333D01*
X212415095Y-171942714D01*
X212462714Y-171847476D01*
X212462714Y-171799857D01*
X212415095Y-171704619D01*
X212367476Y-171657000D01*
X212272238Y-171609380D01*
X212081761Y-171609380D01*
X211986523Y-171657000D01*
X211938904Y-171704619D01*
X211891285Y-171799857D01*
X211891285Y-171847476D01*
X211938904Y-171942714D01*
X211986523Y-171990333D01*
X212081761Y-172037952D01*
X212272238Y-172037952D01*
X212367476Y-172085571D01*
X212415095Y-172133190D01*
X212462714Y-172228428D01*
X212462714Y-172418904D01*
X212415095Y-172514142D01*
X212367476Y-172561761D01*
X212272238Y-172609380D01*
X212081761Y-172609380D01*
X211986523Y-172561761D01*
X211938904Y-172514142D01*
X211891285Y-172418904D01*
X211891285Y-172228428D01*
X211938904Y-172133190D01*
X211986523Y-172085571D01*
X212081761Y-172037952D01*
%TO.C,C7*%
X201976666Y-159204142D02*
X202024285Y-159251761D01*
X202167142Y-159299380D01*
X202262380Y-159299380D01*
X202405238Y-159251761D01*
X202500476Y-159156523D01*
X202548095Y-159061285D01*
X202595714Y-158870809D01*
X202595714Y-158727952D01*
X202548095Y-158537476D01*
X202500476Y-158442238D01*
X202405238Y-158347000D01*
X202262380Y-158299380D01*
X202167142Y-158299380D01*
X202024285Y-158347000D01*
X201976666Y-158394619D01*
X201643333Y-158299380D02*
X200976666Y-158299380D01*
X201405238Y-159299380D01*
%TO.C,C6*%
X204058666Y-168298142D02*
X204106285Y-168345761D01*
X204249142Y-168393380D01*
X204344380Y-168393380D01*
X204487238Y-168345761D01*
X204582476Y-168250523D01*
X204630095Y-168155285D01*
X204677714Y-167964809D01*
X204677714Y-167821952D01*
X204630095Y-167631476D01*
X204582476Y-167536238D01*
X204487238Y-167441000D01*
X204344380Y-167393380D01*
X204249142Y-167393380D01*
X204106285Y-167441000D01*
X204058666Y-167488619D01*
X203201523Y-167393380D02*
X203392000Y-167393380D01*
X203487238Y-167441000D01*
X203534857Y-167488619D01*
X203630095Y-167631476D01*
X203677714Y-167821952D01*
X203677714Y-168202904D01*
X203630095Y-168298142D01*
X203582476Y-168345761D01*
X203487238Y-168393380D01*
X203296761Y-168393380D01*
X203201523Y-168345761D01*
X203153904Y-168298142D01*
X203106285Y-168202904D01*
X203106285Y-167964809D01*
X203153904Y-167869571D01*
X203201523Y-167821952D01*
X203296761Y-167774333D01*
X203487238Y-167774333D01*
X203582476Y-167821952D01*
X203630095Y-167869571D01*
X203677714Y-167964809D01*
%TO.C,C5*%
X217899666Y-164356142D02*
X217947285Y-164403761D01*
X218090142Y-164451380D01*
X218185380Y-164451380D01*
X218328238Y-164403761D01*
X218423476Y-164308523D01*
X218471095Y-164213285D01*
X218518714Y-164022809D01*
X218518714Y-163879952D01*
X218471095Y-163689476D01*
X218423476Y-163594238D01*
X218328238Y-163499000D01*
X218185380Y-163451380D01*
X218090142Y-163451380D01*
X217947285Y-163499000D01*
X217899666Y-163546619D01*
X216994904Y-163451380D02*
X217471095Y-163451380D01*
X217518714Y-163927571D01*
X217471095Y-163879952D01*
X217375857Y-163832333D01*
X217137761Y-163832333D01*
X217042523Y-163879952D01*
X216994904Y-163927571D01*
X216947285Y-164022809D01*
X216947285Y-164260904D01*
X216994904Y-164356142D01*
X217042523Y-164403761D01*
X217137761Y-164451380D01*
X217375857Y-164451380D01*
X217471095Y-164403761D01*
X217518714Y-164356142D01*
%TO.C,C4*%
X206821066Y-169089342D02*
X206868685Y-169136961D01*
X207011542Y-169184580D01*
X207106780Y-169184580D01*
X207249638Y-169136961D01*
X207344876Y-169041723D01*
X207392495Y-168946485D01*
X207440114Y-168756009D01*
X207440114Y-168613152D01*
X207392495Y-168422676D01*
X207344876Y-168327438D01*
X207249638Y-168232200D01*
X207106780Y-168184580D01*
X207011542Y-168184580D01*
X206868685Y-168232200D01*
X206821066Y-168279819D01*
X205963923Y-168517914D02*
X205963923Y-169184580D01*
X206202019Y-168136961D02*
X206440114Y-168851247D01*
X205821066Y-168851247D01*
%TO.C,C3*%
X217924666Y-168572142D02*
X217972285Y-168619761D01*
X218115142Y-168667380D01*
X218210380Y-168667380D01*
X218353238Y-168619761D01*
X218448476Y-168524523D01*
X218496095Y-168429285D01*
X218543714Y-168238809D01*
X218543714Y-168095952D01*
X218496095Y-167905476D01*
X218448476Y-167810238D01*
X218353238Y-167715000D01*
X218210380Y-167667380D01*
X218115142Y-167667380D01*
X217972285Y-167715000D01*
X217924666Y-167762619D01*
X217591333Y-167667380D02*
X216972285Y-167667380D01*
X217305619Y-168048333D01*
X217162761Y-168048333D01*
X217067523Y-168095952D01*
X217019904Y-168143571D01*
X216972285Y-168238809D01*
X216972285Y-168476904D01*
X217019904Y-168572142D01*
X217067523Y-168619761D01*
X217162761Y-168667380D01*
X217448476Y-168667380D01*
X217543714Y-168619761D01*
X217591333Y-168572142D01*
%TO.C,C2*%
X211863666Y-159179142D02*
X211911285Y-159226761D01*
X212054142Y-159274380D01*
X212149380Y-159274380D01*
X212292238Y-159226761D01*
X212387476Y-159131523D01*
X212435095Y-159036285D01*
X212482714Y-158845809D01*
X212482714Y-158702952D01*
X212435095Y-158512476D01*
X212387476Y-158417238D01*
X212292238Y-158322000D01*
X212149380Y-158274380D01*
X212054142Y-158274380D01*
X211911285Y-158322000D01*
X211863666Y-158369619D01*
X211482714Y-158369619D02*
X211435095Y-158322000D01*
X211339857Y-158274380D01*
X211101761Y-158274380D01*
X211006523Y-158322000D01*
X210958904Y-158369619D01*
X210911285Y-158464857D01*
X210911285Y-158560095D01*
X210958904Y-158702952D01*
X211530333Y-159274380D01*
X210911285Y-159274380D01*
%TO.C,C1*%
X199163066Y-170816142D02*
X199210685Y-170863761D01*
X199353542Y-170911380D01*
X199448780Y-170911380D01*
X199591638Y-170863761D01*
X199686876Y-170768523D01*
X199734495Y-170673285D01*
X199782114Y-170482809D01*
X199782114Y-170339952D01*
X199734495Y-170149476D01*
X199686876Y-170054238D01*
X199591638Y-169959000D01*
X199448780Y-169911380D01*
X199353542Y-169911380D01*
X199210685Y-169959000D01*
X199163066Y-170006619D01*
X198210685Y-170911380D02*
X198782114Y-170911380D01*
X198496400Y-170911380D02*
X198496400Y-169911380D01*
X198591638Y-170054238D01*
X198686876Y-170149476D01*
X198782114Y-170197095D01*
%TD*%
M02*
