%TF.GenerationSoftware,KiCad,Pcbnew,(5.1.12)-1*%
%TF.CreationDate,2022-03-05T19:22:20+03:30*%
%TF.ProjectId,JKB67,4a4b4236-372e-46b6-9963-61645f706362,rev?*%
%TF.SameCoordinates,Original*%
%TF.FileFunction,Profile,NP*%
%FSLAX46Y46*%
G04 Gerber Fmt 4.6, Leading zero omitted, Abs format (unit mm)*
G04 Created by KiCad (PCBNEW (5.1.12)-1) date 2022-03-05 19:22:20*
%MOMM*%
%LPD*%
G01*
G04 APERTURE LIST*
%TA.AperFunction,Profile*%
%ADD10C,0.200000*%
%TD*%
%TA.AperFunction,Profile*%
%ADD11C,0.050000*%
%TD*%
%TA.AperFunction,Profile*%
%ADD12C,0.120000*%
%TD*%
G04 APERTURE END LIST*
D10*
X79767773Y-79880952D02*
G75*
G02*
X74181628Y-79880952I-2793073J1456452D01*
G01*
X295524700Y-155474500D02*
G75*
G02*
X296774700Y-154224500I1250000J0D01*
G01*
X107519128Y-172468048D02*
G75*
G02*
X106189094Y-173274500I-1330034J693548D01*
G01*
X304849700Y-154224500D02*
G75*
G02*
X306099700Y-155474500I0J-1250000D01*
G01*
X107519129Y-172468049D02*
G75*
G02*
X113105271Y-172468049I2793071J-1456451D01*
G01*
X269444129Y-172468049D02*
G75*
G02*
X275030271Y-172468049I2793071J-1456451D01*
G01*
X194067773Y-79880952D02*
G75*
G02*
X188481628Y-79880952I-2793073J1456452D01*
G01*
X72851594Y-79074500D02*
G75*
G02*
X74181628Y-79880952I0J-1500000D01*
G01*
X60699700Y-173274500D02*
G75*
G02*
X58449700Y-171024500I0J2250000D01*
G01*
X269444128Y-172468048D02*
G75*
G02*
X268114094Y-173274500I-1330034J693548D01*
G01*
X58449700Y-81324500D02*
G75*
G02*
X60699700Y-79074500I2250000J0D01*
G01*
X339551594Y-79074500D02*
X195397805Y-79074500D01*
X321831629Y-172468049D02*
G75*
G02*
X327417771Y-172468049I2793071J-1456451D01*
G01*
X359949700Y-79074500D02*
X347797805Y-79074500D01*
X295524700Y-171024500D02*
G75*
G02*
X293274700Y-173274500I-2250000J0D01*
G01*
X306099700Y-155474500D02*
X306099700Y-171024500D01*
X362199700Y-171024500D02*
G75*
G02*
X359949700Y-173274500I-2250000J0D01*
G01*
X308349700Y-173274500D02*
G75*
G02*
X306099700Y-171024500I0J2250000D01*
G01*
X328747806Y-173274500D02*
G75*
G02*
X327417771Y-172468049I-1J1500000D01*
G01*
X362199700Y-171024500D02*
X362199700Y-81324500D01*
X346467771Y-79880952D02*
G75*
G02*
X347797805Y-79074500I1330034J-693548D01*
G01*
X276360306Y-173274500D02*
G75*
G02*
X275030271Y-172468049I-1J1500000D01*
G01*
X320501594Y-173274500D02*
X308349700Y-173274500D01*
X359949700Y-173274500D02*
X328747805Y-173274500D01*
X359949700Y-79074500D02*
G75*
G02*
X362199700Y-81324500I0J-2250000D01*
G01*
X321831628Y-172468048D02*
G75*
G02*
X320501594Y-173274500I-1330034J693548D01*
G01*
X79767771Y-79880952D02*
G75*
G02*
X81097805Y-79074500I1330034J-693548D01*
G01*
X296774700Y-154224500D02*
X304849700Y-154224500D01*
X114435306Y-173274500D02*
G75*
G02*
X113105271Y-172468049I-1J1500000D01*
G01*
X268114094Y-173274500D02*
X114435305Y-173274500D01*
X187151594Y-79074500D02*
G75*
G02*
X188481628Y-79880952I0J-1500000D01*
G01*
X72851594Y-79074500D02*
X60699700Y-79074500D01*
X194067771Y-79880952D02*
G75*
G02*
X195397805Y-79074500I1330034J-693548D01*
G01*
X187151594Y-79074500D02*
X81097805Y-79074500D01*
X339551594Y-79074500D02*
G75*
G02*
X340881628Y-79880952I0J-1500000D01*
G01*
X295524700Y-155474500D02*
X295524700Y-171024500D01*
X293274700Y-173274500D02*
X276360305Y-173274500D01*
X58449700Y-171024500D02*
X58449700Y-81324500D01*
X346467773Y-79880952D02*
G75*
G02*
X340881628Y-79880952I-2793073J1456452D01*
G01*
X106189094Y-173274500D02*
X60699700Y-173274500D01*
D11*
X344774700Y-154724100D02*
G75*
G03*
X344774700Y-154724100I-1100000J0D01*
G01*
X342374400Y-107086400D02*
G75*
G03*
X342374400Y-107086400I-1100000J0D01*
G01*
X292361800Y-135737600D02*
G75*
G03*
X292361800Y-135737600I-1100000J0D01*
G01*
X244749500Y-116624100D02*
G75*
G03*
X244749500Y-116624100I-1100000J0D01*
G01*
X168549500Y-116598700D02*
G75*
G03*
X168549500Y-116598700I-1100000J0D01*
G01*
X132811700Y-135724900D02*
G75*
G03*
X132811700Y-135724900I-1100000J0D01*
G01*
X211399300Y-164261800D02*
G75*
G03*
X211399300Y-164261800I-1100000J0D01*
G01*
X85224800Y-107124500D02*
G75*
G03*
X85224800Y-107124500I-1100000J0D01*
G01*
D12*
X101899900Y-154736800D02*
G75*
G03*
X101899900Y-154736800I-1100000J0D01*
G01*
D11*
%TO.C,U72*%
X351512000Y-170799000D02*
X351512000Y-167799000D01*
X354912000Y-170799000D02*
X351512000Y-170799000D01*
X354912000Y-167799000D02*
X354912000Y-170799000D01*
X351512000Y-167799000D02*
X354912000Y-167799000D01*
%TO.C,U71*%
X351512000Y-151749000D02*
X351512000Y-148749000D01*
X354912000Y-151749000D02*
X351512000Y-151749000D01*
X354912000Y-148749000D02*
X354912000Y-151749000D01*
X351512000Y-148749000D02*
X354912000Y-148749000D01*
%TO.C,U70*%
X351500000Y-132686000D02*
X351500000Y-129686000D01*
X354900000Y-132686000D02*
X351500000Y-132686000D01*
X354900000Y-129686000D02*
X354900000Y-132686000D01*
X351500000Y-129686000D02*
X354900000Y-129686000D01*
%TO.C,U69*%
X351521000Y-113662000D02*
X351521000Y-110662000D01*
X354921000Y-113662000D02*
X351521000Y-113662000D01*
X354921000Y-110662000D02*
X354921000Y-113662000D01*
X351521000Y-110662000D02*
X354921000Y-110662000D01*
%TO.C,U68*%
X351512000Y-94611800D02*
X351512000Y-91611800D01*
X354912000Y-94611800D02*
X351512000Y-94611800D01*
X354912000Y-91611800D02*
X354912000Y-94611800D01*
X351512000Y-91611800D02*
X354912000Y-91611800D01*
%TO.C,U67*%
X322912000Y-91611800D02*
X326312000Y-91611800D01*
X326312000Y-91611800D02*
X326312000Y-94611800D01*
X326312000Y-94611800D02*
X322912000Y-94611800D01*
X322912000Y-94611800D02*
X322912000Y-91611800D01*
%TO.C,U66*%
X332462000Y-170799000D02*
X332462000Y-167799000D01*
X335862000Y-170799000D02*
X332462000Y-170799000D01*
X335862000Y-167799000D02*
X335862000Y-170799000D01*
X332462000Y-167799000D02*
X335862000Y-167799000D01*
%TO.C,U65*%
X332462000Y-151762000D02*
X332462000Y-148762000D01*
X335862000Y-151762000D02*
X332462000Y-151762000D01*
X335862000Y-148762000D02*
X335862000Y-151762000D01*
X332462000Y-148762000D02*
X335862000Y-148762000D01*
%TO.C,U64*%
X320575000Y-129712000D02*
X323975000Y-129712000D01*
X323975000Y-129712000D02*
X323975000Y-132712000D01*
X323975000Y-132712000D02*
X320575000Y-132712000D01*
X320575000Y-132712000D02*
X320575000Y-129712000D01*
%TO.C,U63*%
X327713000Y-110649000D02*
X331113000Y-110649000D01*
X331113000Y-110649000D02*
X331113000Y-113649000D01*
X331113000Y-113649000D02*
X327713000Y-113649000D01*
X327713000Y-113649000D02*
X327713000Y-110649000D01*
%TO.C,U62*%
X313387000Y-170812000D02*
X313387000Y-167812000D01*
X316787000Y-170812000D02*
X313387000Y-170812000D01*
X316787000Y-167812000D02*
X316787000Y-170812000D01*
X313387000Y-167812000D02*
X316787000Y-167812000D01*
%TO.C,U61*%
X306250000Y-148762000D02*
X309650000Y-148762000D01*
X309650000Y-148762000D02*
X309650000Y-151762000D01*
X309650000Y-151762000D02*
X306250000Y-151762000D01*
X306250000Y-151762000D02*
X306250000Y-148762000D01*
%TO.C,U60*%
X303900000Y-113649000D02*
X303900000Y-110649000D01*
X307300000Y-113649000D02*
X303900000Y-113649000D01*
X307300000Y-110649000D02*
X307300000Y-113649000D01*
X303900000Y-110649000D02*
X307300000Y-110649000D01*
%TO.C,U59*%
X294337000Y-94611800D02*
X294337000Y-91611800D01*
X297737000Y-94611800D02*
X294337000Y-94611800D01*
X297737000Y-91611800D02*
X297737000Y-94611800D01*
X294337000Y-91611800D02*
X297737000Y-91611800D01*
%TO.C,U58*%
X282513000Y-167863000D02*
X285913000Y-167863000D01*
X285913000Y-167863000D02*
X285913000Y-170863000D01*
X285913000Y-170863000D02*
X282513000Y-170863000D01*
X282513000Y-170863000D02*
X282513000Y-167863000D01*
%TO.C,U57*%
X280062000Y-151762000D02*
X280062000Y-148762000D01*
X283462000Y-151762000D02*
X280062000Y-151762000D01*
X283462000Y-148762000D02*
X283462000Y-151762000D01*
X280062000Y-148762000D02*
X283462000Y-148762000D01*
%TO.C,U56*%
X289625000Y-132699000D02*
X289625000Y-129699000D01*
X293025000Y-132699000D02*
X289625000Y-132699000D01*
X293025000Y-129699000D02*
X293025000Y-132699000D01*
X289625000Y-129699000D02*
X293025000Y-129699000D01*
%TO.C,U55*%
X284850000Y-113649000D02*
X284850000Y-110649000D01*
X288250000Y-113649000D02*
X284850000Y-113649000D01*
X288250000Y-110649000D02*
X288250000Y-113649000D01*
X284850000Y-110649000D02*
X288250000Y-110649000D01*
%TO.C,U54*%
X275300000Y-94611800D02*
X275300000Y-91611800D01*
X278700000Y-94611800D02*
X275300000Y-94611800D01*
X278700000Y-91611800D02*
X278700000Y-94611800D01*
X275300000Y-91611800D02*
X278700000Y-91611800D01*
%TO.C,U52*%
X261025000Y-151749000D02*
X261025000Y-148749000D01*
X264425000Y-151749000D02*
X261025000Y-151749000D01*
X264425000Y-148749000D02*
X264425000Y-151749000D01*
X261025000Y-148749000D02*
X264425000Y-148749000D01*
%TO.C,U51*%
X270575000Y-132699000D02*
X270575000Y-129699000D01*
X273975000Y-132699000D02*
X270575000Y-132699000D01*
X273975000Y-129699000D02*
X273975000Y-132699000D01*
X270575000Y-129699000D02*
X273975000Y-129699000D01*
%TO.C,U50*%
X265800000Y-113649000D02*
X265800000Y-110649000D01*
X269200000Y-113649000D02*
X265800000Y-113649000D01*
X269200000Y-110649000D02*
X269200000Y-113649000D01*
X265800000Y-110649000D02*
X269200000Y-110649000D01*
%TO.C,U49*%
X256250000Y-94611800D02*
X256250000Y-91611800D01*
X259650000Y-94611800D02*
X256250000Y-94611800D01*
X259650000Y-91611800D02*
X259650000Y-94611800D01*
X256250000Y-91611800D02*
X259650000Y-91611800D01*
%TO.C,U48*%
X258688000Y-167863000D02*
X262088000Y-167863000D01*
X262088000Y-167863000D02*
X262088000Y-170863000D01*
X262088000Y-170863000D02*
X258688000Y-170863000D01*
X258688000Y-170863000D02*
X258688000Y-167863000D01*
%TO.C,U47*%
X241975000Y-151787000D02*
X241975000Y-148787000D01*
X245375000Y-151787000D02*
X241975000Y-151787000D01*
X245375000Y-148787000D02*
X245375000Y-151787000D01*
X241975000Y-148787000D02*
X245375000Y-148787000D01*
%TO.C,U46*%
X251525000Y-132699000D02*
X251525000Y-129699000D01*
X254925000Y-132699000D02*
X251525000Y-132699000D01*
X254925000Y-129699000D02*
X254925000Y-132699000D01*
X251525000Y-129699000D02*
X254925000Y-129699000D01*
%TO.C,U45*%
X246737000Y-113674000D02*
X246737000Y-110674000D01*
X250137000Y-113674000D02*
X246737000Y-113674000D01*
X250137000Y-110674000D02*
X250137000Y-113674000D01*
X246737000Y-110674000D02*
X250137000Y-110674000D01*
%TO.C,U44*%
X237200000Y-94611800D02*
X237200000Y-91611800D01*
X240600000Y-94611800D02*
X237200000Y-94611800D01*
X240600000Y-91611800D02*
X240600000Y-94611800D01*
X237200000Y-91611800D02*
X240600000Y-91611800D01*
%TO.C,U43*%
X222938000Y-151774000D02*
X222938000Y-148774000D01*
X226338000Y-151774000D02*
X222938000Y-151774000D01*
X226338000Y-148774000D02*
X226338000Y-151774000D01*
X222938000Y-148774000D02*
X226338000Y-148774000D01*
%TO.C,U42*%
X232475000Y-132712000D02*
X232475000Y-129712000D01*
X235875000Y-132712000D02*
X232475000Y-132712000D01*
X235875000Y-129712000D02*
X235875000Y-132712000D01*
X232475000Y-129712000D02*
X235875000Y-129712000D01*
%TO.C,U41*%
X227687000Y-113662000D02*
X227687000Y-110662000D01*
X231087000Y-113662000D02*
X227687000Y-113662000D01*
X231087000Y-110662000D02*
X231087000Y-113662000D01*
X227687000Y-110662000D02*
X231087000Y-110662000D01*
%TO.C,U40*%
X218137000Y-94611800D02*
X218137000Y-91611800D01*
X221537000Y-94611800D02*
X218137000Y-94611800D01*
X221537000Y-91611800D02*
X221537000Y-94611800D01*
X218137000Y-91611800D02*
X221537000Y-91611800D01*
%TO.C,U39*%
X203888000Y-151774000D02*
X203888000Y-148774000D01*
X207288000Y-151774000D02*
X203888000Y-151774000D01*
X207288000Y-148774000D02*
X207288000Y-151774000D01*
X203888000Y-148774000D02*
X207288000Y-148774000D01*
%TO.C,U38*%
X213451000Y-132724000D02*
X213451000Y-129724000D01*
X216851000Y-132724000D02*
X213451000Y-132724000D01*
X216851000Y-129724000D02*
X216851000Y-132724000D01*
X213451000Y-129724000D02*
X216851000Y-129724000D01*
%TO.C,U37*%
X208637000Y-113662000D02*
X208637000Y-110662000D01*
X212037000Y-113662000D02*
X208637000Y-113662000D01*
X212037000Y-110662000D02*
X212037000Y-113662000D01*
X208637000Y-110662000D02*
X212037000Y-110662000D01*
%TO.C,U36*%
X199087000Y-94611800D02*
X199087000Y-91611800D01*
X202487000Y-94611800D02*
X199087000Y-94611800D01*
X202487000Y-91611800D02*
X202487000Y-94611800D01*
X199087000Y-91611800D02*
X202487000Y-91611800D01*
%TO.C,U35*%
X187238000Y-167812000D02*
X190638000Y-167812000D01*
X190638000Y-167812000D02*
X190638000Y-170812000D01*
X190638000Y-170812000D02*
X187238000Y-170812000D01*
X187238000Y-170812000D02*
X187238000Y-167812000D01*
%TO.C,U34*%
X184850000Y-151787000D02*
X184850000Y-148787000D01*
X188250000Y-151787000D02*
X184850000Y-151787000D01*
X188250000Y-148787000D02*
X188250000Y-151787000D01*
X184850000Y-148787000D02*
X188250000Y-148787000D01*
%TO.C,U33*%
X194388000Y-132712000D02*
X194388000Y-129712000D01*
X197788000Y-132712000D02*
X194388000Y-132712000D01*
X197788000Y-129712000D02*
X197788000Y-132712000D01*
X194388000Y-129712000D02*
X197788000Y-129712000D01*
%TO.C,U32*%
X189587000Y-113674000D02*
X189587000Y-110674000D01*
X192987000Y-113674000D02*
X189587000Y-113674000D01*
X192987000Y-110674000D02*
X192987000Y-113674000D01*
X189587000Y-110674000D02*
X192987000Y-110674000D01*
%TO.C,U31*%
X180050000Y-94611800D02*
X180050000Y-91611800D01*
X183450000Y-94611800D02*
X180050000Y-94611800D01*
X183450000Y-91611800D02*
X183450000Y-94611800D01*
X180050000Y-91611800D02*
X183450000Y-91611800D01*
%TO.C,U30*%
X165788000Y-151774000D02*
X165788000Y-148774000D01*
X169188000Y-151774000D02*
X165788000Y-151774000D01*
X169188000Y-148774000D02*
X169188000Y-151774000D01*
X165788000Y-148774000D02*
X169188000Y-148774000D01*
%TO.C,U29*%
X175338000Y-132724000D02*
X175338000Y-129724000D01*
X178738000Y-132724000D02*
X175338000Y-132724000D01*
X178738000Y-129724000D02*
X178738000Y-132724000D01*
X175338000Y-129724000D02*
X178738000Y-129724000D01*
%TO.C,U28*%
X170525000Y-113662000D02*
X170525000Y-110662000D01*
X173925000Y-113662000D02*
X170525000Y-113662000D01*
X173925000Y-110662000D02*
X173925000Y-113662000D01*
X170525000Y-110662000D02*
X173925000Y-110662000D01*
%TO.C,U27*%
X161000000Y-94611800D02*
X161000000Y-91611800D01*
X164400000Y-94611800D02*
X161000000Y-94611800D01*
X164400000Y-91611800D02*
X164400000Y-94611800D01*
X161000000Y-91611800D02*
X164400000Y-91611800D01*
%TO.C,U26*%
X146725000Y-151762000D02*
X146725000Y-148762000D01*
X150125000Y-151762000D02*
X146725000Y-151762000D01*
X150125000Y-148762000D02*
X150125000Y-151762000D01*
X146725000Y-148762000D02*
X150125000Y-148762000D01*
%TO.C,U25*%
X156275000Y-132712000D02*
X156275000Y-129712000D01*
X159675000Y-132712000D02*
X156275000Y-132712000D01*
X159675000Y-129712000D02*
X159675000Y-132712000D01*
X156275000Y-129712000D02*
X159675000Y-129712000D01*
%TO.C,U24*%
X151462000Y-113674000D02*
X151462000Y-110674000D01*
X154862000Y-113674000D02*
X151462000Y-113674000D01*
X154862000Y-110674000D02*
X154862000Y-113674000D01*
X151462000Y-110674000D02*
X154862000Y-110674000D01*
%TO.C,U23*%
X141962000Y-94611800D02*
X141962000Y-91611800D01*
X145362000Y-94611800D02*
X141962000Y-94611800D01*
X145362000Y-91611800D02*
X145362000Y-94611800D01*
X141962000Y-91611800D02*
X145362000Y-91611800D01*
%TO.C,U20*%
X127688000Y-151749000D02*
X127688000Y-148749000D01*
X131088000Y-151749000D02*
X127688000Y-151749000D01*
X131088000Y-148749000D02*
X131088000Y-151749000D01*
X127688000Y-148749000D02*
X131088000Y-148749000D01*
%TO.C,U19*%
X137200000Y-132712000D02*
X137200000Y-129712000D01*
X140600000Y-132712000D02*
X137200000Y-132712000D01*
X140600000Y-129712000D02*
X140600000Y-132712000D01*
X137200000Y-129712000D02*
X140600000Y-129712000D01*
%TO.C,U18*%
X132412000Y-113662000D02*
X132412000Y-110662000D01*
X135812000Y-113662000D02*
X132412000Y-113662000D01*
X135812000Y-110662000D02*
X135812000Y-113662000D01*
X132412000Y-110662000D02*
X135812000Y-110662000D01*
%TO.C,U17*%
X122900000Y-94611800D02*
X122900000Y-91611800D01*
X126300000Y-94611800D02*
X122900000Y-94611800D01*
X126300000Y-91611800D02*
X126300000Y-94611800D01*
X122900000Y-91611800D02*
X126300000Y-91611800D01*
%TO.C,U14*%
X115775000Y-167837000D02*
X119175000Y-167837000D01*
X119175000Y-167837000D02*
X119175000Y-170837000D01*
X119175000Y-170837000D02*
X115775000Y-170837000D01*
X115775000Y-170837000D02*
X115775000Y-167837000D01*
%TO.C,U13*%
X108638000Y-151749000D02*
X108638000Y-148749000D01*
X112038000Y-151749000D02*
X108638000Y-151749000D01*
X112038000Y-148749000D02*
X112038000Y-151749000D01*
X108638000Y-148749000D02*
X112038000Y-148749000D01*
%TO.C,U12*%
X118150000Y-132712000D02*
X118150000Y-129712000D01*
X121550000Y-132712000D02*
X118150000Y-132712000D01*
X121550000Y-129712000D02*
X121550000Y-132712000D01*
X118150000Y-129712000D02*
X121550000Y-129712000D01*
%TO.C,U11*%
X113387000Y-113662000D02*
X113387000Y-110662000D01*
X116787000Y-113662000D02*
X113387000Y-113662000D01*
X116787000Y-110662000D02*
X116787000Y-113662000D01*
X113387000Y-110662000D02*
X116787000Y-110662000D01*
%TO.C,U10*%
X103850000Y-94611800D02*
X103850000Y-91611800D01*
X107250000Y-94611800D02*
X103850000Y-94611800D01*
X107250000Y-91611800D02*
X107250000Y-94611800D01*
X103850000Y-91611800D02*
X107250000Y-91611800D01*
%TO.C,U9*%
X91962500Y-167824000D02*
X95362500Y-167824000D01*
X95362500Y-167824000D02*
X95362500Y-170824000D01*
X95362500Y-170824000D02*
X91962500Y-170824000D01*
X91962500Y-170824000D02*
X91962500Y-167824000D01*
%TO.C,U8*%
X99100000Y-132724000D02*
X99100000Y-129724000D01*
X102500000Y-132724000D02*
X99100000Y-132724000D01*
X102500000Y-129724000D02*
X102500000Y-132724000D01*
X99100000Y-129724000D02*
X102500000Y-129724000D01*
%TO.C,U7*%
X94337400Y-113662000D02*
X94337400Y-110662000D01*
X97737400Y-113662000D02*
X94337400Y-113662000D01*
X97737400Y-110662000D02*
X97737400Y-113662000D01*
X94337400Y-110662000D02*
X97737400Y-110662000D01*
%TO.C,U6*%
X84799700Y-94611800D02*
X84799700Y-91611800D01*
X88199700Y-94611800D02*
X84799700Y-94611800D01*
X88199700Y-91611800D02*
X88199700Y-94611800D01*
X84799700Y-91611800D02*
X88199700Y-91611800D01*
%TO.C,U5*%
X68137300Y-167824000D02*
X71537300Y-167824000D01*
X71537300Y-167824000D02*
X71537300Y-170824000D01*
X71537300Y-170824000D02*
X68137300Y-170824000D01*
X68137300Y-170824000D02*
X68137300Y-167824000D01*
%TO.C,U4*%
X77662300Y-148762000D02*
X81062300Y-148762000D01*
X81062300Y-148762000D02*
X81062300Y-151762000D01*
X81062300Y-151762000D02*
X77662300Y-151762000D01*
X77662300Y-151762000D02*
X77662300Y-148762000D01*
%TO.C,U3*%
X72899800Y-129724000D02*
X76299800Y-129724000D01*
X76299800Y-129724000D02*
X76299800Y-132724000D01*
X76299800Y-132724000D02*
X72899800Y-132724000D01*
X72899800Y-132724000D02*
X72899800Y-129724000D01*
%TO.C,U2*%
X70512200Y-110674000D02*
X73912200Y-110674000D01*
X73912200Y-110674000D02*
X73912200Y-113674000D01*
X73912200Y-113674000D02*
X70512200Y-113674000D01*
X70512200Y-113674000D02*
X70512200Y-110674000D01*
%TO.C,U1*%
X65749700Y-94624500D02*
X65749700Y-91624500D01*
X69149700Y-94624500D02*
X65749700Y-94624500D01*
X69149700Y-91624500D02*
X69149700Y-94624500D01*
X65749700Y-91624500D02*
X69149700Y-91624500D01*
%TD*%
M02*
