M48
METRIC,TZ
T1C0.400
%
G90
G05
T1
X60860Y-100146
X63911Y-151137
X64850Y-97646
X73008Y-134131
X73070Y-151218
X74432Y-114003
X75251Y-150684
X76893Y-110569
X80349Y-109713
X81569Y-133232
X81925Y-91272
X82962Y-148328
X85200Y-128499
X89996Y-96673
X90079Y-94942
X91236Y-156551
X92667Y-110355
X97697Y-133232
X98888Y-91262
X102117Y-151696
X102154Y-156456
X102158Y-94942
X102758Y-153421
X105215Y-109447
X105839Y-150190
X107400Y-128499
X110154Y-165896
X112850Y-170414
X116341Y-148062
X120260Y-91273
X121581Y-170318
X121817Y-168176
X123868Y-109793
X124304Y-95839
X124467Y-168849
X127322Y-96673
X131209Y-110250
X132339Y-116340
X133901Y-157337
X134955Y-151375
X136987Y-151350
X137800Y-108712
X138609Y-109879
X138886Y-147621
X139021Y-163483
X140124Y-151792
X140452Y-108746
X140825Y-113663
X141015Y-145878
X141068Y-129318
X141136Y-148754
X141174Y-135625
X142548Y-148437
X142608Y-116136
X143125Y-113686
X143274Y-166561
X143594Y-131425
X144489Y-162407
X145403Y-96673
X145416Y-166561
X145531Y-162409
X145884Y-114825
X146389Y-166077
X147839Y-108724
X148265Y-167287
X148475Y-160848
X150823Y-132250
X151802Y-154959
X152376Y-129318
X152826Y-166617
X152939Y-149397
X152947Y-164238
X153667Y-89704
X153854Y-156918
X154569Y-165773
X154763Y-154741
X155142Y-167818
X155302Y-161807
X155947Y-152613
X156742Y-156424
X156985Y-166498
X157748Y-168254
X157753Y-146871
X158421Y-153262
X159169Y-171443
X159196Y-95739
X159379Y-147596
X159854Y-166498
X160469Y-133124
X160942Y-152781
X162749Y-150486
X163178Y-128902
X163211Y-133294
X163333Y-163271
X163556Y-113906
X163979Y-147008
X164422Y-128499
X164761Y-133376
X164912Y-165075
X165627Y-135677
X165784Y-164260
X165979Y-108722
X166133Y-156271
X167678Y-163798
X168821Y-164252
X170445Y-164850
X172646Y-166597
X174047Y-168713
X174796Y-127809
X176227Y-141275
X176476Y-89674
X177255Y-142304
X180205Y-164850
X180331Y-158992
X180765Y-133029
X184217Y-167934
X184331Y-109843
X184331Y-114791
X186119Y-157954
X187204Y-160205
X188626Y-97223
X189334Y-152323
X189459Y-157533
X192568Y-91155
X194571Y-93495
X195337Y-167295
X197425Y-138294
X199637Y-133299
X200328Y-96887
X202080Y-133397
X202108Y-152323
X203419Y-164906
X204164Y-94974
X204215Y-157479
X205061Y-108715
X205436Y-152813
X205790Y-160730
X206776Y-114788
X206869Y-155272
X207263Y-127798
X208110Y-161178
X210462Y-160730
X211347Y-147966
X213790Y-155168
X214078Y-156411
X215561Y-91120
X216326Y-95757
X217466Y-154442
X219717Y-132702
X220099Y-165826
X220325Y-152864
X220467Y-127822
X224147Y-108693
X225638Y-128914
X227593Y-168020
X228655Y-118048
X229688Y-89737
X232324Y-152893
X232324Y-162131
X238363Y-146886
X238557Y-132862
X240322Y-96829
X243260Y-108735
X244872Y-127148
X245293Y-114794
X247570Y-167333
X248016Y-151100
X249543Y-89892
X252287Y-151819
X252764Y-113939
X253618Y-146540
X255253Y-95796
X255914Y-167984
X257163Y-133119
X258360Y-107921
X264846Y-127386
X267178Y-166727
X271351Y-89651
X276115Y-133052
X277853Y-108938
X278454Y-127998
X280407Y-94914
X282754Y-114778
X284979Y-153577
X285789Y-151801
X286660Y-148454
X288428Y-149204
X289506Y-148723
X290615Y-90931
X291129Y-148798
X292313Y-154182
X295684Y-132948
X300321Y-109112
X301233Y-110664
X302914Y-147566
X303156Y-148899
X303842Y-150885
X305829Y-94486
X307363Y-156590
X308312Y-94129
X310981Y-146751
X313131Y-147566
X313859Y-113954
X313881Y-91631
X321011Y-109207
X322687Y-153428
X323520Y-169807
X324519Y-129375
X324621Y-109207
X327036Y-113954
X327450Y-146751
X328067Y-151127
X328452Y-128519
X329076Y-131310
X329348Y-149612
X330251Y-148407
X332202Y-129375
X333611Y-111594
X335125Y-172032
X336318Y-110134
X345802Y-139691
X346521Y-147978
X346549Y-121416
X348391Y-101992
X348620Y-132261
X350141Y-114175
X353433Y-101992
X353852Y-99146
X357341Y-149439
X357393Y-128519
X357763Y-109213
X357859Y-132042
X359031Y-149871
X359790Y-151452
T0
M30
