M48
METRIC,TZ
T1C1.750
T2C3.000
T3C3.048
T4C3.988
T5C4.000
%
G90
G05
T1
X62370Y-88075
X64757Y-164274
X67132Y-107124
X69520Y-126174
X72530Y-88075
X74282Y-145212
X74917Y-164274
X77292Y-107124
X79680Y-126174
X81420Y-88062
X84442Y-145212
X88583Y-164274
X90957Y-107112
X91580Y-88062
X95720Y-126174
X98743Y-164274
X100470Y-88062
X101117Y-107112
X105258Y-145199
X105880Y-126174
X110007Y-107112
X110630Y-88062
X112395Y-164287
X114770Y-126162
X115418Y-145199
X119520Y-88062
X120167Y-107112
X122555Y-164287
X124308Y-145199
X124930Y-126162
X129032Y-107112
X129680Y-88062
X133820Y-126162
X134468Y-145199
X138582Y-88062
X139192Y-107112
X143345Y-145212
X143980Y-126162
X148082Y-107124
X148742Y-88062
X152895Y-126162
X153505Y-145212
X157620Y-88062
X158242Y-107124
X162408Y-145224
X163055Y-126162
X167145Y-107112
X167780Y-88062
X171958Y-126174
X172568Y-145224
X176670Y-88062
X177305Y-107112
X181470Y-145237
X182118Y-126174
X183858Y-164262
X186207Y-107124
X186830Y-88062
X191008Y-126162
X191630Y-145237
X194018Y-164262
X195707Y-88062
X196367Y-107124
X200508Y-145224
X201168Y-126162
X205257Y-107112
X205867Y-88062
X210071Y-126174
X210668Y-145224
X214757Y-88062
X215417Y-107112
X219558Y-145224
X220231Y-126174
X224307Y-107112
X224917Y-88062
X229095Y-126162
X229718Y-145224
X233820Y-88062
X234467Y-107112
X238595Y-145237
X239255Y-126162
X243357Y-107124
X243980Y-88062
X248145Y-126149
X248755Y-145237
X252870Y-88062
X253517Y-107124
X255308Y-164313
X257645Y-145199
X258305Y-126149
X262420Y-107099
X263030Y-88062
X265468Y-164313
X267195Y-126149
X267805Y-145199
X271920Y-88062
X272580Y-107099
X276682Y-145212
X277355Y-126149
X279133Y-164313
X281470Y-107099
X282080Y-88062
X286245Y-126149
X286842Y-145212
X289293Y-164313
X290957Y-88062
X291630Y-107099
X296405Y-126149
X300520Y-107099
X301117Y-88062
X302870Y-145212
X310007Y-164262
X310680Y-107099
X313030Y-145212
X317195Y-126162
X319532Y-88062
X320167Y-164262
X324333Y-107099
X327355Y-126162
X329082Y-145212
X329082Y-164249
X329692Y-88062
X334493Y-107099
X339242Y-145212
X339242Y-164249
X348120Y-126136
X348132Y-88062
X348132Y-145199
X348132Y-164249
X348141Y-107112
X358280Y-126136
X358292Y-88062
X358292Y-145199
X358292Y-164249
X358301Y-107112
T2
X63640Y-85534
X66027Y-161734
X68402Y-104584
X69990Y-82995
X70790Y-123634
X72377Y-159194
X74752Y-102044
X75552Y-142672
X77140Y-121094
X81902Y-140132
X82690Y-85522
X89040Y-82982
X89852Y-161734
X92227Y-104572
X96203Y-159194
X96990Y-123634
X98577Y-102032
X101740Y-85522
X103340Y-121094
X106528Y-142659
X108090Y-82982
X111277Y-104572
X112878Y-140119
X113665Y-161747
X116040Y-123622
X117627Y-102032
X120015Y-159207
X120790Y-85522
X122390Y-121082
X125578Y-142659
X127140Y-82982
X130302Y-104572
X131928Y-140119
X135090Y-123622
X136652Y-102032
X139852Y-85522
X141440Y-121082
X144615Y-142672
X146202Y-82982
X149352Y-104584
X150965Y-140132
X154165Y-123622
X155702Y-102044
X158890Y-85522
X160515Y-121082
X163678Y-142684
X165240Y-82982
X168415Y-104572
X170028Y-140144
X173228Y-123634
X174765Y-102032
X177940Y-85522
X179578Y-121094
X182740Y-142697
X184290Y-82982
X185128Y-161722
X187477Y-104584
X189090Y-140157
X191478Y-159182
X192278Y-123622
X193827Y-102044
X196977Y-85522
X198628Y-121082
X201778Y-142684
X203327Y-82982
X206527Y-104572
X208128Y-140144
X211341Y-123634
X212877Y-102032
X216027Y-85522
X217691Y-121094
X220828Y-142684
X222377Y-82982
X225577Y-104572
X227178Y-140144
X230365Y-123622
X231927Y-102032
X235090Y-85522
X236715Y-121082
X239865Y-142697
X241440Y-82982
X244627Y-104584
X246215Y-140157
X249415Y-123609
X250977Y-102044
X254140Y-85522
X255765Y-121069
X256578Y-161773
X258915Y-142659
X260490Y-82982
X262928Y-159233
X263690Y-104559
X265265Y-140119
X268465Y-123609
X270040Y-102019
X273190Y-85522
X274815Y-121069
X277952Y-142672
X279540Y-82982
X280403Y-161773
X282740Y-104559
X284302Y-140132
X286753Y-159233
X287515Y-123609
X289090Y-102019
X292227Y-85522
X293865Y-121069
X298577Y-82982
X301790Y-104559
X304140Y-142672
X308140Y-102019
X310490Y-140132
X311277Y-161722
X317627Y-159182
X318465Y-123622
X320802Y-85522
X324815Y-121082
X325603Y-104559
X327152Y-82982
X330352Y-142672
X330352Y-161709
X331953Y-102019
X336702Y-140132
X336702Y-159169
X349390Y-123596
X349402Y-85522
X349402Y-142659
X349402Y-161709
X349411Y-104572
X355740Y-121056
X355752Y-82982
X355752Y-140119
X355752Y-159169
X355761Y-102032
T3
X67424Y-138227
X91300Y-138227
X138938Y-171247
X238938Y-171247
X310324Y-133159
X312674Y-81077
X334200Y-133159
X336550Y-81077
T4
X67424Y-153467
X91300Y-153467
X138938Y-156007
X238938Y-156007
X310324Y-117919
X312674Y-96317
X334200Y-117919
X336550Y-96317
T5
X67450Y-88075
X69837Y-164274
X72212Y-107124
X74600Y-126174
X79362Y-145212
X86500Y-88062
X93663Y-164274
X96037Y-107112
X100800Y-126174
X105550Y-88062
X110338Y-145199
X115087Y-107112
X117475Y-164287
X119850Y-126162
X124600Y-88062
X129388Y-145199
X134112Y-107112
X138900Y-126162
X143662Y-88062
X148425Y-145212
X153162Y-107124
X157975Y-126162
X162700Y-88062
X167488Y-145224
X172225Y-107112
X177038Y-126174
X181750Y-88062
X186550Y-145237
X188938Y-164262
X191287Y-107124
X196088Y-126162
X200787Y-88062
X205588Y-145224
X210337Y-107112
X215151Y-126174
X219837Y-88062
X224638Y-145224
X229387Y-107112
X234175Y-126162
X238900Y-88062
X243675Y-145237
X248437Y-107124
X253225Y-126149
X257950Y-88062
X260388Y-164313
X262725Y-145199
X267500Y-107099
X272275Y-126149
X277000Y-88062
X281762Y-145212
X284213Y-164313
X286550Y-107099
X291325Y-126149
X296037Y-88062
X305600Y-107099
X307950Y-145212
X315087Y-164262
X322275Y-126162
X324612Y-88062
X329413Y-107099
X334162Y-145212
X334162Y-164249
X353200Y-126136
X353212Y-88062
X353212Y-145199
X353212Y-164249
X353221Y-107112
T0
M30
