%TF.GenerationSoftware,KiCad,Pcbnew,(5.1.12)-1*%
%TF.CreationDate,2022-03-05T19:22:20+03:30*%
%TF.ProjectId,JKB67,4a4b4236-372e-46b6-9963-61645f706362,rev?*%
%TF.SameCoordinates,Original*%
%TF.FileFunction,Copper,L2,Bot*%
%TF.FilePolarity,Positive*%
%FSLAX46Y46*%
G04 Gerber Fmt 4.6, Leading zero omitted, Abs format (unit mm)*
G04 Created by KiCad (PCBNEW (5.1.12)-1) date 2022-03-05 19:22:20*
%MOMM*%
%LPD*%
G01*
G04 APERTURE LIST*
%TA.AperFunction,SMDPad,CuDef*%
%ADD10R,1.800000X0.900000*%
%TD*%
%TA.AperFunction,SMDPad,CuDef*%
%ADD11R,2.550000X2.500000*%
%TD*%
%TA.AperFunction,SMDPad,CuDef*%
%ADD12R,2.200000X1.200000*%
%TD*%
%TA.AperFunction,SMDPad,CuDef*%
%ADD13R,1.550000X0.600000*%
%TD*%
%TA.AperFunction,SMDPad,CuDef*%
%ADD14R,1.500000X0.550000*%
%TD*%
%TA.AperFunction,SMDPad,CuDef*%
%ADD15R,0.550000X1.500000*%
%TD*%
%TA.AperFunction,SMDPad,CuDef*%
%ADD16R,1.100000X1.100000*%
%TD*%
%TA.AperFunction,SMDPad,CuDef*%
%ADD17R,1.200000X1.400000*%
%TD*%
%TA.AperFunction,ViaPad*%
%ADD18C,0.800000*%
%TD*%
%TA.AperFunction,Conductor*%
%ADD19C,0.300000*%
%TD*%
%TA.AperFunction,Conductor*%
%ADD20C,0.250000*%
%TD*%
G04 APERTURE END LIST*
D10*
%TO.P,U72,6*%
%TO.N,VBUS*%
X355812000Y-170049000D03*
%TO.P,U72,5*%
%TO.N,Net-(U72-Pad5)*%
X355812000Y-168549000D03*
%TO.P,U72,4*%
%TO.N,Net-(U66-Pad5)*%
X350612000Y-170049000D03*
%TO.P,U72,3*%
%TO.N,GND*%
X350612000Y-168549000D03*
D11*
%TO.P,U72,2*%
%TO.N,Net-(D68-Pad2)*%
X359227000Y-159169000D03*
%TO.P,U72,1*%
%TO.N,COL15*%
X345802000Y-161709000D03*
%TD*%
D10*
%TO.P,U71,6*%
%TO.N,VBUS*%
X355812000Y-150999000D03*
%TO.P,U71,5*%
%TO.N,Net-(U5-Pad4)*%
X355812000Y-149499000D03*
%TO.P,U71,4*%
%TO.N,Net-(U65-Pad5)*%
X350612000Y-150999000D03*
%TO.P,U71,3*%
%TO.N,GND*%
X350612000Y-149499000D03*
D11*
%TO.P,U71,2*%
%TO.N,Net-(D67-Pad2)*%
X359227000Y-140119000D03*
%TO.P,U71,1*%
%TO.N,COL15*%
X345802000Y-142659000D03*
%TD*%
D10*
%TO.P,U70,6*%
%TO.N,VBUS*%
X355800000Y-131936000D03*
%TO.P,U70,5*%
%TO.N,Net-(U4-Pad4)*%
X355800000Y-130436000D03*
%TO.P,U70,4*%
%TO.N,Net-(U64-Pad5)*%
X350600000Y-131936000D03*
%TO.P,U70,3*%
%TO.N,GND*%
X350600000Y-130436000D03*
D11*
%TO.P,U70,2*%
%TO.N,Net-(D66-Pad2)*%
X359215000Y-121056000D03*
%TO.P,U70,1*%
%TO.N,COL15*%
X345790000Y-123596000D03*
%TD*%
D10*
%TO.P,U69,6*%
%TO.N,VBUS*%
X355821000Y-112912000D03*
%TO.P,U69,5*%
%TO.N,Net-(U3-Pad4)*%
X355821000Y-111412000D03*
%TO.P,U69,4*%
%TO.N,Net-(U63-Pad5)*%
X350621000Y-112912000D03*
%TO.P,U69,3*%
%TO.N,GND*%
X350621000Y-111412000D03*
D11*
%TO.P,U69,2*%
%TO.N,Net-(D65-Pad2)*%
X359236000Y-102032000D03*
%TO.P,U69,1*%
%TO.N,COL15*%
X345811000Y-104572000D03*
%TD*%
D10*
%TO.P,U68,6*%
%TO.N,VBUS*%
X355812000Y-93861800D03*
%TO.P,U68,5*%
%TO.N,Net-(U2-Pad4)*%
X355812000Y-92361800D03*
%TO.P,U68,4*%
%TO.N,Net-(U67-Pad5)*%
X350612000Y-93861800D03*
%TO.P,U68,3*%
%TO.N,GND*%
X350612000Y-92361800D03*
D11*
%TO.P,U68,2*%
%TO.N,Net-(D64-Pad2)*%
X359227000Y-82981800D03*
%TO.P,U68,1*%
%TO.N,COL15*%
X345802000Y-85521800D03*
%TD*%
%TO.P,U67,1*%
%TO.N,COL14*%
X317202000Y-85521800D03*
%TO.P,U67,2*%
%TO.N,Net-(D63-Pad2)*%
X330627000Y-82981800D03*
D10*
%TO.P,U67,3*%
%TO.N,GND*%
X322012000Y-92361800D03*
%TO.P,U67,4*%
%TO.N,Net-(U59-Pad5)*%
X322012000Y-93861800D03*
%TO.P,U67,5*%
%TO.N,Net-(U67-Pad5)*%
X327212000Y-92361800D03*
%TO.P,U67,6*%
%TO.N,VBUS*%
X327212000Y-93861800D03*
%TD*%
%TO.P,U66,6*%
%TO.N,VBUS*%
X336762000Y-170049000D03*
%TO.P,U66,5*%
%TO.N,Net-(U66-Pad5)*%
X336762000Y-168549000D03*
%TO.P,U66,4*%
%TO.N,Net-(U62-Pad5)*%
X331562000Y-170049000D03*
%TO.P,U66,3*%
%TO.N,GND*%
X331562000Y-168549000D03*
D11*
%TO.P,U66,2*%
%TO.N,Net-(D62-Pad2)*%
X340177000Y-159169000D03*
%TO.P,U66,1*%
%TO.N,COL13*%
X326752000Y-161709000D03*
%TD*%
D10*
%TO.P,U65,6*%
%TO.N,VBUS*%
X336762000Y-151012000D03*
%TO.P,U65,5*%
%TO.N,Net-(U65-Pad5)*%
X336762000Y-149512000D03*
%TO.P,U65,4*%
%TO.N,Net-(U61-Pad5)*%
X331562000Y-151012000D03*
%TO.P,U65,3*%
%TO.N,GND*%
X331562000Y-149512000D03*
D11*
%TO.P,U65,2*%
%TO.N,Net-(D61-Pad2)*%
X340177000Y-140132000D03*
%TO.P,U65,1*%
%TO.N,COL13*%
X326752000Y-142672000D03*
%TD*%
%TO.P,U64,1*%
%TO.N,COL13*%
X314865000Y-123622000D03*
%TO.P,U64,2*%
%TO.N,Net-(D60-Pad2)*%
X328290000Y-121082000D03*
D10*
%TO.P,U64,3*%
%TO.N,GND*%
X319675000Y-130462000D03*
%TO.P,U64,4*%
%TO.N,Net-(U56-Pad5)*%
X319675000Y-131962000D03*
%TO.P,U64,5*%
%TO.N,Net-(U64-Pad5)*%
X324875000Y-130462000D03*
%TO.P,U64,6*%
%TO.N,VBUS*%
X324875000Y-131962000D03*
%TD*%
D11*
%TO.P,U63,1*%
%TO.N,COL13*%
X322003000Y-104559000D03*
%TO.P,U63,2*%
%TO.N,Net-(D59-Pad2)*%
X335428000Y-102019000D03*
D10*
%TO.P,U63,3*%
%TO.N,GND*%
X326813000Y-111399000D03*
%TO.P,U63,4*%
%TO.N,Net-(U60-Pad5)*%
X326813000Y-112899000D03*
%TO.P,U63,5*%
%TO.N,Net-(U63-Pad5)*%
X332013000Y-111399000D03*
%TO.P,U63,6*%
%TO.N,VBUS*%
X332013000Y-112899000D03*
%TD*%
%TO.P,U62,6*%
%TO.N,VBUS*%
X317687000Y-170062000D03*
%TO.P,U62,5*%
%TO.N,Net-(U62-Pad5)*%
X317687000Y-168562000D03*
%TO.P,U62,4*%
%TO.N,Net-(U58-Pad5)*%
X312487000Y-170062000D03*
%TO.P,U62,3*%
%TO.N,GND*%
X312487000Y-168562000D03*
D11*
%TO.P,U62,2*%
%TO.N,Net-(D58-Pad2)*%
X321102000Y-159182000D03*
%TO.P,U62,1*%
%TO.N,COL12*%
X307677000Y-161722000D03*
%TD*%
%TO.P,U61,1*%
%TO.N,COL12*%
X300540000Y-142672000D03*
%TO.P,U61,2*%
%TO.N,Net-(D57-Pad2)*%
X313965000Y-140132000D03*
D10*
%TO.P,U61,3*%
%TO.N,GND*%
X305350000Y-149512000D03*
%TO.P,U61,4*%
%TO.N,Net-(U57-Pad5)*%
X305350000Y-151012000D03*
%TO.P,U61,5*%
%TO.N,Net-(U61-Pad5)*%
X310550000Y-149512000D03*
%TO.P,U61,6*%
%TO.N,VBUS*%
X310550000Y-151012000D03*
%TD*%
%TO.P,U60,6*%
%TO.N,VBUS*%
X308200000Y-112899000D03*
%TO.P,U60,5*%
%TO.N,Net-(U60-Pad5)*%
X308200000Y-111399000D03*
%TO.P,U60,4*%
%TO.N,Net-(U55-Pad5)*%
X303000000Y-112899000D03*
%TO.P,U60,3*%
%TO.N,GND*%
X303000000Y-111399000D03*
D11*
%TO.P,U60,2*%
%TO.N,Net-(D56-Pad2)*%
X311615000Y-102019000D03*
%TO.P,U60,1*%
%TO.N,COL12*%
X298190000Y-104559000D03*
%TD*%
D10*
%TO.P,U59,6*%
%TO.N,VBUS*%
X298637000Y-93861800D03*
%TO.P,U59,5*%
%TO.N,Net-(U59-Pad5)*%
X298637000Y-92361800D03*
%TO.P,U59,4*%
%TO.N,Net-(U54-Pad5)*%
X293437000Y-93861800D03*
%TO.P,U59,3*%
%TO.N,GND*%
X293437000Y-92361800D03*
D11*
%TO.P,U59,2*%
%TO.N,Net-(D55-Pad2)*%
X302052000Y-82981800D03*
%TO.P,U59,1*%
%TO.N,COL12*%
X288627000Y-85521800D03*
%TD*%
%TO.P,U58,1*%
%TO.N,COL11*%
X276803000Y-161773000D03*
%TO.P,U58,2*%
%TO.N,Net-(D54-Pad2)*%
X290228000Y-159233000D03*
D10*
%TO.P,U58,3*%
%TO.N,GND*%
X281613000Y-168613000D03*
%TO.P,U58,4*%
%TO.N,Net-(U48-Pad5)*%
X281613000Y-170113000D03*
%TO.P,U58,5*%
%TO.N,Net-(U58-Pad5)*%
X286813000Y-168613000D03*
%TO.P,U58,6*%
%TO.N,VBUS*%
X286813000Y-170113000D03*
%TD*%
%TO.P,U57,6*%
%TO.N,VBUS*%
X284362000Y-151012000D03*
%TO.P,U57,5*%
%TO.N,Net-(U57-Pad5)*%
X284362000Y-149512000D03*
%TO.P,U57,4*%
%TO.N,Net-(U52-Pad5)*%
X279162000Y-151012000D03*
%TO.P,U57,3*%
%TO.N,GND*%
X279162000Y-149512000D03*
D11*
%TO.P,U57,2*%
%TO.N,Net-(D53-Pad2)*%
X287777000Y-140132000D03*
%TO.P,U57,1*%
%TO.N,COL11*%
X274352000Y-142672000D03*
%TD*%
D10*
%TO.P,U56,6*%
%TO.N,VBUS*%
X293925000Y-131949000D03*
%TO.P,U56,5*%
%TO.N,Net-(U56-Pad5)*%
X293925000Y-130449000D03*
%TO.P,U56,4*%
%TO.N,Net-(U51-Pad5)*%
X288725000Y-131949000D03*
%TO.P,U56,3*%
%TO.N,GND*%
X288725000Y-130449000D03*
D11*
%TO.P,U56,2*%
%TO.N,Net-(D52-Pad2)*%
X297340000Y-121069000D03*
%TO.P,U56,1*%
%TO.N,COL11*%
X283915000Y-123609000D03*
%TD*%
D10*
%TO.P,U55,6*%
%TO.N,VBUS*%
X289150000Y-112899000D03*
%TO.P,U55,5*%
%TO.N,Net-(U55-Pad5)*%
X289150000Y-111399000D03*
%TO.P,U55,4*%
%TO.N,Net-(U50-Pad5)*%
X283950000Y-112899000D03*
%TO.P,U55,3*%
%TO.N,GND*%
X283950000Y-111399000D03*
D11*
%TO.P,U55,2*%
%TO.N,Net-(D51-Pad2)*%
X292565000Y-102019000D03*
%TO.P,U55,1*%
%TO.N,COL11*%
X279140000Y-104559000D03*
%TD*%
D10*
%TO.P,U54,6*%
%TO.N,VBUS*%
X279600000Y-93861800D03*
%TO.P,U54,5*%
%TO.N,Net-(U54-Pad5)*%
X279600000Y-92361800D03*
%TO.P,U54,4*%
%TO.N,Net-(U49-Pad5)*%
X274400000Y-93861800D03*
%TO.P,U54,3*%
%TO.N,GND*%
X274400000Y-92361800D03*
D11*
%TO.P,U54,2*%
%TO.N,Net-(D50-Pad2)*%
X283015000Y-82981800D03*
%TO.P,U54,1*%
%TO.N,COL11*%
X269590000Y-85521800D03*
%TD*%
D10*
%TO.P,U52,6*%
%TO.N,VBUS*%
X265325000Y-150999000D03*
%TO.P,U52,5*%
%TO.N,Net-(U52-Pad5)*%
X265325000Y-149499000D03*
%TO.P,U52,4*%
%TO.N,Net-(U47-Pad5)*%
X260125000Y-150999000D03*
%TO.P,U52,3*%
%TO.N,GND*%
X260125000Y-149499000D03*
D11*
%TO.P,U52,2*%
%TO.N,Net-(D49-Pad2)*%
X268740000Y-140119000D03*
%TO.P,U52,1*%
%TO.N,COL10*%
X255315000Y-142659000D03*
%TD*%
D10*
%TO.P,U51,6*%
%TO.N,VBUS*%
X274875000Y-131949000D03*
%TO.P,U51,5*%
%TO.N,Net-(U51-Pad5)*%
X274875000Y-130449000D03*
%TO.P,U51,4*%
%TO.N,Net-(U46-Pad5)*%
X269675000Y-131949000D03*
%TO.P,U51,3*%
%TO.N,GND*%
X269675000Y-130449000D03*
D11*
%TO.P,U51,2*%
%TO.N,Net-(D48-Pad2)*%
X278290000Y-121069000D03*
%TO.P,U51,1*%
%TO.N,COL10*%
X264865000Y-123609000D03*
%TD*%
D10*
%TO.P,U50,6*%
%TO.N,VBUS*%
X270100000Y-112899000D03*
%TO.P,U50,5*%
%TO.N,Net-(U50-Pad5)*%
X270100000Y-111399000D03*
%TO.P,U50,4*%
%TO.N,Net-(U45-Pad5)*%
X264900000Y-112899000D03*
%TO.P,U50,3*%
%TO.N,GND*%
X264900000Y-111399000D03*
D11*
%TO.P,U50,2*%
%TO.N,Net-(D47-Pad2)*%
X273515000Y-102019000D03*
%TO.P,U50,1*%
%TO.N,COL10*%
X260090000Y-104559000D03*
%TD*%
D10*
%TO.P,U49,6*%
%TO.N,VBUS*%
X260550000Y-93861800D03*
%TO.P,U49,5*%
%TO.N,Net-(U49-Pad5)*%
X260550000Y-92361800D03*
%TO.P,U49,4*%
%TO.N,Net-(U44-Pad5)*%
X255350000Y-93861800D03*
%TO.P,U49,3*%
%TO.N,GND*%
X255350000Y-92361800D03*
D11*
%TO.P,U49,2*%
%TO.N,Net-(D46-Pad2)*%
X263965000Y-82981800D03*
%TO.P,U49,1*%
%TO.N,COL10*%
X250540000Y-85521800D03*
%TD*%
%TO.P,U48,1*%
%TO.N,COL10*%
X252978000Y-161773000D03*
%TO.P,U48,2*%
%TO.N,Net-(D45-Pad2)*%
X266403000Y-159233000D03*
D10*
%TO.P,U48,3*%
%TO.N,GND*%
X257788000Y-168613000D03*
%TO.P,U48,4*%
%TO.N,Net-(U35-Pad5)*%
X257788000Y-170113000D03*
%TO.P,U48,5*%
%TO.N,Net-(U48-Pad5)*%
X262988000Y-168613000D03*
%TO.P,U48,6*%
%TO.N,VBUS*%
X262988000Y-170113000D03*
%TD*%
%TO.P,U47,6*%
%TO.N,VBUS*%
X246275000Y-151037000D03*
%TO.P,U47,5*%
%TO.N,Net-(U47-Pad5)*%
X246275000Y-149537000D03*
%TO.P,U47,4*%
%TO.N,Net-(U43-Pad5)*%
X241075000Y-151037000D03*
%TO.P,U47,3*%
%TO.N,GND*%
X241075000Y-149537000D03*
D11*
%TO.P,U47,2*%
%TO.N,Net-(D44-Pad2)*%
X249690000Y-140157000D03*
%TO.P,U47,1*%
%TO.N,COL9*%
X236265000Y-142697000D03*
%TD*%
D10*
%TO.P,U46,6*%
%TO.N,VBUS*%
X255825000Y-131949000D03*
%TO.P,U46,5*%
%TO.N,Net-(U46-Pad5)*%
X255825000Y-130449000D03*
%TO.P,U46,4*%
%TO.N,Net-(U42-Pad5)*%
X250625000Y-131949000D03*
%TO.P,U46,3*%
%TO.N,GND*%
X250625000Y-130449000D03*
D11*
%TO.P,U46,2*%
%TO.N,Net-(D43-Pad2)*%
X259240000Y-121069000D03*
%TO.P,U46,1*%
%TO.N,COL9*%
X245815000Y-123609000D03*
%TD*%
D10*
%TO.P,U45,6*%
%TO.N,VBUS*%
X251037000Y-112924000D03*
%TO.P,U45,5*%
%TO.N,Net-(U45-Pad5)*%
X251037000Y-111424000D03*
%TO.P,U45,4*%
%TO.N,Net-(U41-Pad5)*%
X245837000Y-112924000D03*
%TO.P,U45,3*%
%TO.N,GND*%
X245837000Y-111424000D03*
D11*
%TO.P,U45,2*%
%TO.N,Net-(D42-Pad2)*%
X254452000Y-102044000D03*
%TO.P,U45,1*%
%TO.N,COL9*%
X241027000Y-104584000D03*
%TD*%
D10*
%TO.P,U44,6*%
%TO.N,VBUS*%
X241500000Y-93861800D03*
%TO.P,U44,5*%
%TO.N,Net-(U44-Pad5)*%
X241500000Y-92361800D03*
%TO.P,U44,4*%
%TO.N,Net-(U40-Pad5)*%
X236300000Y-93861800D03*
%TO.P,U44,3*%
%TO.N,GND*%
X236300000Y-92361800D03*
D11*
%TO.P,U44,2*%
%TO.N,Net-(D41-Pad2)*%
X244915000Y-82981800D03*
%TO.P,U44,1*%
%TO.N,COL9*%
X231490000Y-85521800D03*
%TD*%
D10*
%TO.P,U43,6*%
%TO.N,VBUS*%
X227238000Y-151024000D03*
%TO.P,U43,5*%
%TO.N,Net-(U43-Pad5)*%
X227238000Y-149524000D03*
%TO.P,U43,4*%
%TO.N,Net-(U39-Pad5)*%
X222038000Y-151024000D03*
%TO.P,U43,3*%
%TO.N,GND*%
X222038000Y-149524000D03*
D11*
%TO.P,U43,2*%
%TO.N,Net-(D40-Pad2)*%
X230653000Y-140144000D03*
%TO.P,U43,1*%
%TO.N,COL8*%
X217228000Y-142684000D03*
%TD*%
D10*
%TO.P,U42,6*%
%TO.N,VBUS*%
X236775000Y-131962000D03*
%TO.P,U42,5*%
%TO.N,Net-(U42-Pad5)*%
X236775000Y-130462000D03*
%TO.P,U42,4*%
%TO.N,Net-(U38-Pad5)*%
X231575000Y-131962000D03*
%TO.P,U42,3*%
%TO.N,GND*%
X231575000Y-130462000D03*
D11*
%TO.P,U42,2*%
%TO.N,Net-(D39-Pad2)*%
X240190000Y-121082000D03*
%TO.P,U42,1*%
%TO.N,COL8*%
X226765000Y-123622000D03*
%TD*%
D10*
%TO.P,U41,6*%
%TO.N,VBUS*%
X231987000Y-112912000D03*
%TO.P,U41,5*%
%TO.N,Net-(U41-Pad5)*%
X231987000Y-111412000D03*
%TO.P,U41,4*%
%TO.N,Net-(U37-Pad5)*%
X226787000Y-112912000D03*
%TO.P,U41,3*%
%TO.N,GND*%
X226787000Y-111412000D03*
D11*
%TO.P,U41,2*%
%TO.N,Net-(D38-Pad2)*%
X235402000Y-102032000D03*
%TO.P,U41,1*%
%TO.N,COL8*%
X221977000Y-104572000D03*
%TD*%
D10*
%TO.P,U40,6*%
%TO.N,VBUS*%
X222437000Y-93861800D03*
%TO.P,U40,5*%
%TO.N,Net-(U40-Pad5)*%
X222437000Y-92361800D03*
%TO.P,U40,4*%
%TO.N,Net-(U36-Pad5)*%
X217237000Y-93861800D03*
%TO.P,U40,3*%
%TO.N,GND*%
X217237000Y-92361800D03*
D11*
%TO.P,U40,2*%
%TO.N,Net-(D37-Pad2)*%
X225852000Y-82981800D03*
%TO.P,U40,1*%
%TO.N,COL8*%
X212427000Y-85521800D03*
%TD*%
D10*
%TO.P,U39,6*%
%TO.N,VBUS*%
X208188000Y-151024000D03*
%TO.P,U39,5*%
%TO.N,Net-(U39-Pad5)*%
X208188000Y-149524000D03*
%TO.P,U39,4*%
%TO.N,Net-(U34-Pad5)*%
X202988000Y-151024000D03*
%TO.P,U39,3*%
%TO.N,GND*%
X202988000Y-149524000D03*
D11*
%TO.P,U39,2*%
%TO.N,Net-(D36-Pad2)*%
X211603000Y-140144000D03*
%TO.P,U39,1*%
%TO.N,COL7*%
X198178000Y-142684000D03*
%TD*%
D10*
%TO.P,U38,6*%
%TO.N,VBUS*%
X217751000Y-131974000D03*
%TO.P,U38,5*%
%TO.N,Net-(U38-Pad5)*%
X217751000Y-130474000D03*
%TO.P,U38,4*%
%TO.N,Net-(U33-Pad5)*%
X212551000Y-131974000D03*
%TO.P,U38,3*%
%TO.N,GND*%
X212551000Y-130474000D03*
D11*
%TO.P,U38,2*%
%TO.N,Net-(D35-Pad2)*%
X221166000Y-121094000D03*
%TO.P,U38,1*%
%TO.N,COL7*%
X207741000Y-123634000D03*
%TD*%
D10*
%TO.P,U37,6*%
%TO.N,VBUS*%
X212937000Y-112912000D03*
%TO.P,U37,5*%
%TO.N,Net-(U37-Pad5)*%
X212937000Y-111412000D03*
%TO.P,U37,4*%
%TO.N,Net-(U32-Pad5)*%
X207737000Y-112912000D03*
%TO.P,U37,3*%
%TO.N,GND*%
X207737000Y-111412000D03*
D11*
%TO.P,U37,2*%
%TO.N,Net-(D34-Pad2)*%
X216352000Y-102032000D03*
%TO.P,U37,1*%
%TO.N,COL7*%
X202927000Y-104572000D03*
%TD*%
D10*
%TO.P,U36,6*%
%TO.N,VBUS*%
X203387000Y-93861800D03*
%TO.P,U36,5*%
%TO.N,Net-(U36-Pad5)*%
X203387000Y-92361800D03*
%TO.P,U36,4*%
%TO.N,Net-(U31-Pad5)*%
X198187000Y-93861800D03*
%TO.P,U36,3*%
%TO.N,GND*%
X198187000Y-92361800D03*
D11*
%TO.P,U36,2*%
%TO.N,Net-(D33-Pad2)*%
X206802000Y-82981800D03*
%TO.P,U36,1*%
%TO.N,COL7*%
X193377000Y-85521800D03*
%TD*%
%TO.P,U35,1*%
%TO.N,COL6*%
X181528000Y-161722000D03*
%TO.P,U35,2*%
%TO.N,Net-(D32-Pad2)*%
X194953000Y-159182000D03*
D10*
%TO.P,U35,3*%
%TO.N,GND*%
X186338000Y-168562000D03*
%TO.P,U35,4*%
%TO.N,Net-(U14-Pad5)*%
X186338000Y-170062000D03*
%TO.P,U35,5*%
%TO.N,Net-(U35-Pad5)*%
X191538000Y-168562000D03*
%TO.P,U35,6*%
%TO.N,VBUS*%
X191538000Y-170062000D03*
%TD*%
%TO.P,U34,6*%
%TO.N,VBUS*%
X189150000Y-151037000D03*
%TO.P,U34,5*%
%TO.N,Net-(U34-Pad5)*%
X189150000Y-149537000D03*
%TO.P,U34,4*%
%TO.N,Net-(U30-Pad5)*%
X183950000Y-151037000D03*
%TO.P,U34,3*%
%TO.N,GND*%
X183950000Y-149537000D03*
D11*
%TO.P,U34,2*%
%TO.N,Net-(D31-Pad2)*%
X192565000Y-140157000D03*
%TO.P,U34,1*%
%TO.N,COL6*%
X179140000Y-142697000D03*
%TD*%
D10*
%TO.P,U33,6*%
%TO.N,VBUS*%
X198688000Y-131962000D03*
%TO.P,U33,5*%
%TO.N,Net-(U33-Pad5)*%
X198688000Y-130462000D03*
%TO.P,U33,4*%
%TO.N,Net-(U29-Pad5)*%
X193488000Y-131962000D03*
%TO.P,U33,3*%
%TO.N,GND*%
X193488000Y-130462000D03*
D11*
%TO.P,U33,2*%
%TO.N,Net-(D30-Pad2)*%
X202103000Y-121082000D03*
%TO.P,U33,1*%
%TO.N,COL6*%
X188678000Y-123622000D03*
%TD*%
D10*
%TO.P,U32,6*%
%TO.N,VBUS*%
X193887000Y-112924000D03*
%TO.P,U32,5*%
%TO.N,Net-(U32-Pad5)*%
X193887000Y-111424000D03*
%TO.P,U32,4*%
%TO.N,Net-(U28-Pad5)*%
X188687000Y-112924000D03*
%TO.P,U32,3*%
%TO.N,GND*%
X188687000Y-111424000D03*
D11*
%TO.P,U32,2*%
%TO.N,Net-(D29-Pad2)*%
X197302000Y-102044000D03*
%TO.P,U32,1*%
%TO.N,COL6*%
X183877000Y-104584000D03*
%TD*%
D10*
%TO.P,U31,6*%
%TO.N,VBUS*%
X184350000Y-93861800D03*
%TO.P,U31,5*%
%TO.N,Net-(U31-Pad5)*%
X184350000Y-92361800D03*
%TO.P,U31,4*%
%TO.N,Net-(U27-Pad5)*%
X179150000Y-93861800D03*
%TO.P,U31,3*%
%TO.N,GND*%
X179150000Y-92361800D03*
D11*
%TO.P,U31,2*%
%TO.N,Net-(D28-Pad2)*%
X187765000Y-82981800D03*
%TO.P,U31,1*%
%TO.N,COL6*%
X174340000Y-85521800D03*
%TD*%
D10*
%TO.P,U30,6*%
%TO.N,VBUS*%
X170088000Y-151024000D03*
%TO.P,U30,5*%
%TO.N,Net-(U30-Pad5)*%
X170088000Y-149524000D03*
%TO.P,U30,4*%
%TO.N,Net-(U26-Pad5)*%
X164888000Y-151024000D03*
%TO.P,U30,3*%
%TO.N,GND*%
X164888000Y-149524000D03*
D11*
%TO.P,U30,2*%
%TO.N,Net-(D27-Pad2)*%
X173503000Y-140144000D03*
%TO.P,U30,1*%
%TO.N,COL5*%
X160078000Y-142684000D03*
%TD*%
D10*
%TO.P,U29,6*%
%TO.N,VBUS*%
X179638000Y-131974000D03*
%TO.P,U29,5*%
%TO.N,Net-(U29-Pad5)*%
X179638000Y-130474000D03*
%TO.P,U29,4*%
%TO.N,Net-(U25-Pad5)*%
X174438000Y-131974000D03*
%TO.P,U29,3*%
%TO.N,GND*%
X174438000Y-130474000D03*
D11*
%TO.P,U29,2*%
%TO.N,Net-(D26-Pad2)*%
X183053000Y-121094000D03*
%TO.P,U29,1*%
%TO.N,COL5*%
X169628000Y-123634000D03*
%TD*%
D10*
%TO.P,U28,6*%
%TO.N,VBUS*%
X174825000Y-112912000D03*
%TO.P,U28,5*%
%TO.N,Net-(U28-Pad5)*%
X174825000Y-111412000D03*
%TO.P,U28,4*%
%TO.N,Net-(U24-Pad5)*%
X169625000Y-112912000D03*
%TO.P,U28,3*%
%TO.N,GND*%
X169625000Y-111412000D03*
D11*
%TO.P,U28,2*%
%TO.N,Net-(D25-Pad2)*%
X178240000Y-102032000D03*
%TO.P,U28,1*%
%TO.N,COL5*%
X164815000Y-104572000D03*
%TD*%
D10*
%TO.P,U27,6*%
%TO.N,VBUS*%
X165300000Y-93861800D03*
%TO.P,U27,5*%
%TO.N,Net-(U27-Pad5)*%
X165300000Y-92361800D03*
%TO.P,U27,4*%
%TO.N,Net-(U23-Pad5)*%
X160100000Y-93861800D03*
%TO.P,U27,3*%
%TO.N,GND*%
X160100000Y-92361800D03*
D11*
%TO.P,U27,2*%
%TO.N,Net-(D24-Pad2)*%
X168715000Y-82981800D03*
%TO.P,U27,1*%
%TO.N,COL5*%
X155290000Y-85521800D03*
%TD*%
D10*
%TO.P,U26,6*%
%TO.N,VBUS*%
X151025000Y-151012000D03*
%TO.P,U26,5*%
%TO.N,Net-(U26-Pad5)*%
X151025000Y-149512000D03*
%TO.P,U26,4*%
%TO.N,Net-(U20-Pad5)*%
X145825000Y-151012000D03*
%TO.P,U26,3*%
%TO.N,GND*%
X145825000Y-149512000D03*
D11*
%TO.P,U26,2*%
%TO.N,Net-(D22-Pad2)*%
X154440000Y-140132000D03*
%TO.P,U26,1*%
%TO.N,COL4*%
X141015000Y-142672000D03*
%TD*%
D10*
%TO.P,U25,6*%
%TO.N,VBUS*%
X160575000Y-131962000D03*
%TO.P,U25,5*%
%TO.N,Net-(U25-Pad5)*%
X160575000Y-130462000D03*
%TO.P,U25,4*%
%TO.N,Net-(U19-Pad5)*%
X155375000Y-131962000D03*
%TO.P,U25,3*%
%TO.N,GND*%
X155375000Y-130462000D03*
D11*
%TO.P,U25,2*%
%TO.N,Net-(D21-Pad2)*%
X163990000Y-121082000D03*
%TO.P,U25,1*%
%TO.N,COL4*%
X150565000Y-123622000D03*
%TD*%
D10*
%TO.P,U24,6*%
%TO.N,VBUS*%
X155762000Y-112924000D03*
%TO.P,U24,5*%
%TO.N,Net-(U24-Pad5)*%
X155762000Y-111424000D03*
%TO.P,U24,4*%
%TO.N,Net-(U18-Pad5)*%
X150562000Y-112924000D03*
%TO.P,U24,3*%
%TO.N,GND*%
X150562000Y-111424000D03*
D11*
%TO.P,U24,2*%
%TO.N,Net-(D20-Pad2)*%
X159177000Y-102044000D03*
%TO.P,U24,1*%
%TO.N,COL4*%
X145752000Y-104584000D03*
%TD*%
D10*
%TO.P,U23,6*%
%TO.N,VBUS*%
X146262000Y-93861800D03*
%TO.P,U23,5*%
%TO.N,Net-(U23-Pad5)*%
X146262000Y-92361800D03*
%TO.P,U23,4*%
%TO.N,Net-(U17-Pad5)*%
X141062000Y-93861800D03*
%TO.P,U23,3*%
%TO.N,GND*%
X141062000Y-92361800D03*
D11*
%TO.P,U23,2*%
%TO.N,Net-(D19-Pad2)*%
X149677000Y-82981800D03*
%TO.P,U23,1*%
%TO.N,COL4*%
X136252000Y-85521800D03*
%TD*%
D10*
%TO.P,U20,6*%
%TO.N,VBUS*%
X131988000Y-150999000D03*
%TO.P,U20,5*%
%TO.N,Net-(U20-Pad5)*%
X131988000Y-149499000D03*
%TO.P,U20,4*%
%TO.N,Net-(U13-Pad5)*%
X126788000Y-150999000D03*
%TO.P,U20,3*%
%TO.N,GND*%
X126788000Y-149499000D03*
D11*
%TO.P,U20,2*%
%TO.N,Net-(D18-Pad2)*%
X135403000Y-140119000D03*
%TO.P,U20,1*%
%TO.N,COL3*%
X121978000Y-142659000D03*
%TD*%
D10*
%TO.P,U19,6*%
%TO.N,VBUS*%
X141500000Y-131962000D03*
%TO.P,U19,5*%
%TO.N,Net-(U19-Pad5)*%
X141500000Y-130462000D03*
%TO.P,U19,4*%
%TO.N,Net-(U12-Pad5)*%
X136300000Y-131962000D03*
%TO.P,U19,3*%
%TO.N,GND*%
X136300000Y-130462000D03*
D11*
%TO.P,U19,2*%
%TO.N,Net-(D17-Pad2)*%
X144915000Y-121082000D03*
%TO.P,U19,1*%
%TO.N,COL3*%
X131490000Y-123622000D03*
%TD*%
D10*
%TO.P,U18,6*%
%TO.N,VBUS*%
X136712000Y-112912000D03*
%TO.P,U18,5*%
%TO.N,Net-(U18-Pad5)*%
X136712000Y-111412000D03*
%TO.P,U18,4*%
%TO.N,Net-(U11-Pad5)*%
X131512000Y-112912000D03*
%TO.P,U18,3*%
%TO.N,GND*%
X131512000Y-111412000D03*
D11*
%TO.P,U18,2*%
%TO.N,Net-(D16-Pad2)*%
X140127000Y-102032000D03*
%TO.P,U18,1*%
%TO.N,COL3*%
X126702000Y-104572000D03*
%TD*%
D10*
%TO.P,U17,6*%
%TO.N,VBUS*%
X127200000Y-93861800D03*
%TO.P,U17,5*%
%TO.N,Net-(U17-Pad5)*%
X127200000Y-92361800D03*
%TO.P,U17,4*%
%TO.N,Net-(U10-Pad5)*%
X122000000Y-93861800D03*
%TO.P,U17,3*%
%TO.N,GND*%
X122000000Y-92361800D03*
D11*
%TO.P,U17,2*%
%TO.N,Net-(D15-Pad2)*%
X130615000Y-82981800D03*
%TO.P,U17,1*%
%TO.N,COL3*%
X117190000Y-85521800D03*
%TD*%
%TO.P,U14,1*%
%TO.N,COL2*%
X110065000Y-161747000D03*
%TO.P,U14,2*%
%TO.N,Net-(D14-Pad2)*%
X123490000Y-159207000D03*
D10*
%TO.P,U14,3*%
%TO.N,GND*%
X114875000Y-168587000D03*
%TO.P,U14,4*%
%TO.N,Net-(U14-Pad4)*%
X114875000Y-170087000D03*
%TO.P,U14,5*%
%TO.N,Net-(U14-Pad5)*%
X120075000Y-168587000D03*
%TO.P,U14,6*%
%TO.N,VBUS*%
X120075000Y-170087000D03*
%TD*%
%TO.P,U13,6*%
%TO.N,VBUS*%
X112938000Y-150999000D03*
%TO.P,U13,5*%
%TO.N,Net-(U13-Pad5)*%
X112938000Y-149499000D03*
%TO.P,U13,4*%
%TO.N,Net-(U13-Pad4)*%
X107738000Y-150999000D03*
%TO.P,U13,3*%
%TO.N,GND*%
X107738000Y-149499000D03*
D11*
%TO.P,U13,2*%
%TO.N,Net-(D13-Pad2)*%
X116353000Y-140119000D03*
%TO.P,U13,1*%
%TO.N,COL2*%
X102928000Y-142659000D03*
%TD*%
D10*
%TO.P,U12,6*%
%TO.N,VBUS*%
X122450000Y-131962000D03*
%TO.P,U12,5*%
%TO.N,Net-(U12-Pad5)*%
X122450000Y-130462000D03*
%TO.P,U12,4*%
%TO.N,Net-(U12-Pad4)*%
X117250000Y-131962000D03*
%TO.P,U12,3*%
%TO.N,GND*%
X117250000Y-130462000D03*
D11*
%TO.P,U12,2*%
%TO.N,Net-(D12-Pad2)*%
X125865000Y-121082000D03*
%TO.P,U12,1*%
%TO.N,COL2*%
X112440000Y-123622000D03*
%TD*%
D10*
%TO.P,U11,6*%
%TO.N,VBUS*%
X117687000Y-112912000D03*
%TO.P,U11,5*%
%TO.N,Net-(U11-Pad5)*%
X117687000Y-111412000D03*
%TO.P,U11,4*%
%TO.N,Net-(U11-Pad4)*%
X112487000Y-112912000D03*
%TO.P,U11,3*%
%TO.N,GND*%
X112487000Y-111412000D03*
D11*
%TO.P,U11,2*%
%TO.N,Net-(D11-Pad2)*%
X121102000Y-102032000D03*
%TO.P,U11,1*%
%TO.N,COL2*%
X107677000Y-104572000D03*
%TD*%
D10*
%TO.P,U10,6*%
%TO.N,VBUS*%
X108150000Y-93861800D03*
%TO.P,U10,5*%
%TO.N,Net-(U10-Pad5)*%
X108150000Y-92361800D03*
%TO.P,U10,4*%
%TO.N,Net-(U10-Pad4)*%
X102950000Y-93861800D03*
%TO.P,U10,3*%
%TO.N,GND*%
X102950000Y-92361800D03*
D11*
%TO.P,U10,2*%
%TO.N,Net-(D10-Pad2)*%
X111565000Y-82981800D03*
%TO.P,U10,1*%
%TO.N,COL2*%
X98140000Y-85521800D03*
%TD*%
%TO.P,U9,1*%
%TO.N,COL1*%
X86252500Y-161734000D03*
%TO.P,U9,2*%
%TO.N,Net-(D9-Pad2)*%
X99677500Y-159194000D03*
D10*
%TO.P,U9,3*%
%TO.N,GND*%
X91062500Y-168574000D03*
%TO.P,U9,4*%
%TO.N,Net-(U5-Pad5)*%
X91062500Y-170074000D03*
%TO.P,U9,5*%
%TO.N,Net-(U14-Pad4)*%
X96262500Y-168574000D03*
%TO.P,U9,6*%
%TO.N,VBUS*%
X96262500Y-170074000D03*
%TD*%
%TO.P,U8,6*%
%TO.N,VBUS*%
X103400000Y-131974000D03*
%TO.P,U8,5*%
%TO.N,Net-(U12-Pad4)*%
X103400000Y-130474000D03*
%TO.P,U8,4*%
%TO.N,Net-(U3-Pad5)*%
X98200000Y-131974000D03*
%TO.P,U8,3*%
%TO.N,GND*%
X98200000Y-130474000D03*
D11*
%TO.P,U8,2*%
%TO.N,Net-(D8-Pad2)*%
X106815000Y-121094000D03*
%TO.P,U8,1*%
%TO.N,COL1*%
X93390000Y-123634000D03*
%TD*%
D10*
%TO.P,U7,6*%
%TO.N,VBUS*%
X98637400Y-112912000D03*
%TO.P,U7,5*%
%TO.N,Net-(U11-Pad4)*%
X98637400Y-111412000D03*
%TO.P,U7,4*%
%TO.N,Net-(U2-Pad5)*%
X93437400Y-112912000D03*
%TO.P,U7,3*%
%TO.N,GND*%
X93437400Y-111412000D03*
D11*
%TO.P,U7,2*%
%TO.N,Net-(D7-Pad2)*%
X102052400Y-102032000D03*
%TO.P,U7,1*%
%TO.N,COL1*%
X88627400Y-104572000D03*
%TD*%
D10*
%TO.P,U6,6*%
%TO.N,VBUS*%
X89099700Y-93861800D03*
%TO.P,U6,5*%
%TO.N,Net-(U10-Pad4)*%
X89099700Y-92361800D03*
%TO.P,U6,4*%
%TO.N,Net-(U1-Pad5)*%
X83899700Y-93861800D03*
%TO.P,U6,3*%
%TO.N,GND*%
X83899700Y-92361800D03*
D11*
%TO.P,U6,2*%
%TO.N,Net-(D6-Pad2)*%
X92514700Y-82981800D03*
%TO.P,U6,1*%
%TO.N,COL1*%
X79089700Y-85521800D03*
%TD*%
%TO.P,U5,1*%
%TO.N,COL0*%
X62427300Y-161734000D03*
%TO.P,U5,2*%
%TO.N,Net-(D5-Pad2)*%
X75852300Y-159194000D03*
D10*
%TO.P,U5,3*%
%TO.N,GND*%
X67237300Y-168574000D03*
%TO.P,U5,4*%
%TO.N,Net-(U5-Pad4)*%
X67237300Y-170074000D03*
%TO.P,U5,5*%
%TO.N,Net-(U5-Pad5)*%
X72437300Y-168574000D03*
%TO.P,U5,6*%
%TO.N,VBUS*%
X72437300Y-170074000D03*
%TD*%
D11*
%TO.P,U4,1*%
%TO.N,COL0*%
X71952300Y-142672000D03*
%TO.P,U4,2*%
%TO.N,Net-(D4-Pad2)*%
X85377300Y-140132000D03*
D10*
%TO.P,U4,3*%
%TO.N,GND*%
X76762300Y-149512000D03*
%TO.P,U4,4*%
%TO.N,Net-(U4-Pad4)*%
X76762300Y-151012000D03*
%TO.P,U4,5*%
%TO.N,Net-(U13-Pad4)*%
X81962300Y-149512000D03*
%TO.P,U4,6*%
%TO.N,VBUS*%
X81962300Y-151012000D03*
%TD*%
D11*
%TO.P,U3,1*%
%TO.N,COL0*%
X67189800Y-123634000D03*
%TO.P,U3,2*%
%TO.N,Net-(D3-Pad2)*%
X80614800Y-121094000D03*
D10*
%TO.P,U3,3*%
%TO.N,GND*%
X71999800Y-130474000D03*
%TO.P,U3,4*%
%TO.N,Net-(U3-Pad4)*%
X71999800Y-131974000D03*
%TO.P,U3,5*%
%TO.N,Net-(U3-Pad5)*%
X77199800Y-130474000D03*
%TO.P,U3,6*%
%TO.N,VBUS*%
X77199800Y-131974000D03*
%TD*%
D11*
%TO.P,U2,1*%
%TO.N,COL0*%
X64802200Y-104584000D03*
%TO.P,U2,2*%
%TO.N,Net-(D2-Pad2)*%
X78227200Y-102044000D03*
D10*
%TO.P,U2,3*%
%TO.N,GND*%
X69612200Y-111424000D03*
%TO.P,U2,4*%
%TO.N,Net-(U2-Pad4)*%
X69612200Y-112924000D03*
%TO.P,U2,5*%
%TO.N,Net-(U2-Pad5)*%
X74812200Y-111424000D03*
%TO.P,U2,6*%
%TO.N,VBUS*%
X74812200Y-112924000D03*
%TD*%
%TO.P,U1,6*%
%TO.N,VBUS*%
X70049700Y-93874500D03*
%TO.P,U1,5*%
%TO.N,Net-(U1-Pad5)*%
X70049700Y-92374500D03*
%TO.P,U1,4*%
%TO.N,RGB_DIN*%
X64849700Y-93874500D03*
%TO.P,U1,3*%
%TO.N,GND*%
X64849700Y-92374500D03*
D11*
%TO.P,U1,2*%
%TO.N,Net-(D1-Pad2)*%
X73464700Y-82994500D03*
%TO.P,U1,1*%
%TO.N,COL0*%
X60039700Y-85534500D03*
%TD*%
D12*
%TO.P,J1,*%
%TO.N,*%
X134612180Y-98676460D03*
D13*
%TO.P,J1,4*%
%TO.N,GND*%
X131780080Y-96713040D03*
%TO.P,J1,3*%
%TO.N,Connector_D+*%
X131798380Y-95467040D03*
%TO.P,J1,2*%
%TO.N,Connector_D-*%
X131802940Y-94203520D03*
D12*
%TO.P,J1,*%
%TO.N,*%
X134629960Y-90893900D03*
D13*
%TO.P,J1,1*%
%TO.N,VBUS*%
X131821240Y-92957520D03*
%TD*%
D14*
%TO.P,U53,44*%
%TO.N,VBUS*%
X150154000Y-160363000D03*
%TO.P,U53,43*%
%TO.N,GND*%
X150154000Y-161163000D03*
%TO.P,U53,42*%
%TO.N,Net-(C9-Pad2)*%
X150154000Y-161963000D03*
%TO.P,U53,41*%
%TO.N,RGB_DIN*%
X150154000Y-162763000D03*
%TO.P,U53,40*%
%TO.N,COL2*%
X150154000Y-163563000D03*
%TO.P,U53,39*%
%TO.N,ROW3*%
X150154000Y-164363000D03*
%TO.P,U53,38*%
%TO.N,ROW4*%
X150154000Y-165163000D03*
%TO.P,U53,37*%
%TO.N,COL0*%
X150154000Y-165963000D03*
%TO.P,U53,36*%
%TO.N,ROW2*%
X150154000Y-166763000D03*
%TO.P,U53,35*%
%TO.N,GND*%
X150154000Y-167563000D03*
%TO.P,U53,34*%
%TO.N,VBUS*%
X150154000Y-168363000D03*
D15*
%TO.P,U53,33*%
%TO.N,GND*%
X151854000Y-170063000D03*
%TO.P,U53,32*%
%TO.N,COL3*%
X152654000Y-170063000D03*
%TO.P,U53,31*%
%TO.N,COL4*%
X153454000Y-170063000D03*
%TO.P,U53,30*%
%TO.N,COL5*%
X154254000Y-170063000D03*
%TO.P,U53,29*%
%TO.N,COL6*%
X155054000Y-170063000D03*
%TO.P,U53,28*%
%TO.N,COL7*%
X155854000Y-170063000D03*
%TO.P,U53,27*%
%TO.N,COL8*%
X156654000Y-170063000D03*
%TO.P,U53,26*%
%TO.N,COL9*%
X157454000Y-170063000D03*
%TO.P,U53,25*%
%TO.N,COL10*%
X158254000Y-170063000D03*
%TO.P,U53,24*%
%TO.N,VBUS*%
X159054000Y-170063000D03*
%TO.P,U53,23*%
%TO.N,GND*%
X159854000Y-170063000D03*
D14*
%TO.P,U53,22*%
%TO.N,COL11*%
X161554000Y-168363000D03*
%TO.P,U53,21*%
%TO.N,COL12*%
X161554000Y-167563000D03*
%TO.P,U53,20*%
%TO.N,COL13*%
X161554000Y-166763000D03*
%TO.P,U53,19*%
%TO.N,COL14*%
X161554000Y-165963000D03*
%TO.P,U53,18*%
%TO.N,COL15*%
X161554000Y-165163000D03*
%TO.P,U53,17*%
%TO.N,Net-(C7-Pad1)*%
X161554000Y-164363000D03*
%TO.P,U53,16*%
%TO.N,Net-(C8-Pad1)*%
X161554000Y-163563000D03*
%TO.P,U53,15*%
%TO.N,GND*%
X161554000Y-162763000D03*
%TO.P,U53,14*%
%TO.N,VBUS*%
X161554000Y-161963000D03*
%TO.P,U53,13*%
%TO.N,/RESET*%
X161554000Y-161163000D03*
%TO.P,U53,12*%
%TO.N,ROW1*%
X161554000Y-160363000D03*
D15*
%TO.P,U53,11*%
%TO.N,Net-(U53-Pad11)*%
X159854000Y-158663000D03*
%TO.P,U53,10*%
%TO.N,Net-(U53-Pad10)*%
X159054000Y-158663000D03*
%TO.P,U53,9*%
%TO.N,Net-(U53-Pad9)*%
X158254000Y-158663000D03*
%TO.P,U53,8*%
%TO.N,COL1*%
X157454000Y-158663000D03*
%TO.P,U53,7*%
%TO.N,VBUS*%
X156654000Y-158663000D03*
%TO.P,U53,6*%
%TO.N,Net-(C10-Pad1)*%
X155854000Y-158663000D03*
%TO.P,U53,5*%
%TO.N,GND*%
X155054000Y-158663000D03*
%TO.P,U53,4*%
%TO.N,Net-(R4-Pad1)*%
X154254000Y-158663000D03*
%TO.P,U53,3*%
%TO.N,Net-(R5-Pad1)*%
X153454000Y-158663000D03*
%TO.P,U53,2*%
%TO.N,VBUS*%
X152654000Y-158663000D03*
%TO.P,U53,1*%
%TO.N,ROW0*%
X151854000Y-158663000D03*
%TD*%
D16*
%TO.P,D68,1*%
%TO.N,ROW4*%
X360261000Y-169307000D03*
%TO.P,D68,2*%
%TO.N,Net-(D68-Pad2)*%
X360261000Y-166507000D03*
%TD*%
%TO.P,D67,1*%
%TO.N,ROW3*%
X360210000Y-150272000D03*
%TO.P,D67,2*%
%TO.N,Net-(D67-Pad2)*%
X360210000Y-147472000D03*
%TD*%
%TO.P,D66,1*%
%TO.N,ROW2*%
X360223000Y-131349000D03*
%TO.P,D66,2*%
%TO.N,Net-(D66-Pad2)*%
X360223000Y-128549000D03*
%TD*%
%TO.P,D65,1*%
%TO.N,ROW1*%
X360236000Y-112109000D03*
%TO.P,D65,2*%
%TO.N,Net-(D65-Pad2)*%
X360236000Y-109309000D03*
%TD*%
%TO.P,D64,1*%
%TO.N,ROW0*%
X360210000Y-93147800D03*
%TO.P,D64,2*%
%TO.N,Net-(D64-Pad2)*%
X360210000Y-90347800D03*
%TD*%
%TO.P,D63,1*%
%TO.N,ROW0*%
X332626000Y-89449100D03*
%TO.P,D63,2*%
%TO.N,Net-(D63-Pad2)*%
X332626000Y-86649100D03*
%TD*%
%TO.P,D62,1*%
%TO.N,ROW4*%
X342202000Y-165471000D03*
%TO.P,D62,2*%
%TO.N,Net-(D62-Pad2)*%
X342202000Y-162671000D03*
%TD*%
%TO.P,D61,1*%
%TO.N,ROW3*%
X342163000Y-146574000D03*
%TO.P,D61,2*%
%TO.N,Net-(D61-Pad2)*%
X342163000Y-143774000D03*
%TD*%
%TO.P,D60,1*%
%TO.N,ROW2*%
X330251000Y-127600000D03*
%TO.P,D60,2*%
%TO.N,Net-(D60-Pad2)*%
X330251000Y-124800000D03*
%TD*%
%TO.P,D59,1*%
%TO.N,ROW1*%
X337528000Y-108448000D03*
%TO.P,D59,2*%
%TO.N,Net-(D59-Pad2)*%
X337528000Y-105648000D03*
%TD*%
%TO.P,D58,1*%
%TO.N,ROW4*%
X323126000Y-165713000D03*
%TO.P,D58,2*%
%TO.N,Net-(D58-Pad2)*%
X323126000Y-162913000D03*
%TD*%
%TO.P,D57,1*%
%TO.N,ROW3*%
X315951000Y-146536000D03*
%TO.P,D57,2*%
%TO.N,Net-(D57-Pad2)*%
X315951000Y-143736000D03*
%TD*%
%TO.P,D56,1*%
%TO.N,ROW1*%
X313601000Y-108575000D03*
%TO.P,D56,2*%
%TO.N,Net-(D56-Pad2)*%
X313601000Y-105775000D03*
%TD*%
%TO.P,D55,1*%
%TO.N,ROW0*%
X304051000Y-89522300D03*
%TO.P,D55,2*%
%TO.N,Net-(D55-Pad2)*%
X304051000Y-86722300D03*
%TD*%
%TO.P,D54,1*%
%TO.N,ROW4*%
X292240000Y-165789000D03*
%TO.P,D54,2*%
%TO.N,Net-(D54-Pad2)*%
X292240000Y-162989000D03*
%TD*%
%TO.P,D53,1*%
%TO.N,ROW3*%
X289763000Y-146574000D03*
%TO.P,D53,2*%
%TO.N,Net-(D53-Pad2)*%
X289763000Y-143774000D03*
%TD*%
%TO.P,D52,1*%
%TO.N,ROW2*%
X299326000Y-127524000D03*
%TO.P,D52,2*%
%TO.N,Net-(D52-Pad2)*%
X299326000Y-124724000D03*
%TD*%
%TO.P,D51,1*%
%TO.N,ROW1*%
X294551000Y-108486000D03*
%TO.P,D51,2*%
%TO.N,Net-(D51-Pad2)*%
X294551000Y-105686000D03*
%TD*%
%TO.P,D50,1*%
%TO.N,ROW0*%
X285026000Y-89487200D03*
%TO.P,D50,2*%
%TO.N,Net-(D50-Pad2)*%
X285026000Y-86687200D03*
%TD*%
%TO.P,D49,1*%
%TO.N,ROW3*%
X270688000Y-146612000D03*
%TO.P,D49,2*%
%TO.N,Net-(D49-Pad2)*%
X270688000Y-143812000D03*
%TD*%
%TO.P,D48,1*%
%TO.N,ROW2*%
X280264000Y-127625000D03*
%TO.P,D48,2*%
%TO.N,Net-(D48-Pad2)*%
X280264000Y-124825000D03*
%TD*%
%TO.P,D47,1*%
%TO.N,ROW1*%
X275488000Y-108524000D03*
%TO.P,D47,2*%
%TO.N,Net-(D47-Pad2)*%
X275488000Y-105724000D03*
%TD*%
%TO.P,D46,1*%
%TO.N,ROW0*%
X266014000Y-89553700D03*
%TO.P,D46,2*%
%TO.N,Net-(D46-Pad2)*%
X266014000Y-86753700D03*
%TD*%
%TO.P,D45,1*%
%TO.N,ROW4*%
X268389000Y-165674000D03*
%TO.P,D45,2*%
%TO.N,Net-(D45-Pad2)*%
X268389000Y-162874000D03*
%TD*%
%TO.P,D44,1*%
%TO.N,ROW3*%
X251701000Y-146650000D03*
%TO.P,D44,2*%
%TO.N,Net-(D44-Pad2)*%
X251701000Y-143850000D03*
%TD*%
%TO.P,D43,1*%
%TO.N,ROW2*%
X261214000Y-127565000D03*
%TO.P,D43,2*%
%TO.N,Net-(D43-Pad2)*%
X261214000Y-124765000D03*
%TD*%
%TO.P,D42,1*%
%TO.N,ROW1*%
X256464000Y-108528000D03*
%TO.P,D42,2*%
%TO.N,Net-(D42-Pad2)*%
X256464000Y-105728000D03*
%TD*%
%TO.P,D41,1*%
%TO.N,ROW0*%
X246926000Y-89560400D03*
%TO.P,D41,2*%
%TO.N,Net-(D41-Pad2)*%
X246926000Y-86760400D03*
%TD*%
%TO.P,D40,1*%
%TO.N,ROW3*%
X232626000Y-146589000D03*
%TO.P,D40,2*%
%TO.N,Net-(D40-Pad2)*%
X232626000Y-143789000D03*
%TD*%
%TO.P,D39,1*%
%TO.N,ROW2*%
X242189000Y-127476000D03*
%TO.P,D39,2*%
%TO.N,Net-(D39-Pad2)*%
X242189000Y-124676000D03*
%TD*%
%TO.P,D38,1*%
%TO.N,ROW1*%
X237401000Y-108537000D03*
%TO.P,D38,2*%
%TO.N,Net-(D38-Pad2)*%
X237401000Y-105737000D03*
%TD*%
%TO.P,D37,1*%
%TO.N,ROW0*%
X227825000Y-89449100D03*
%TO.P,D37,2*%
%TO.N,Net-(D37-Pad2)*%
X227825000Y-86649100D03*
%TD*%
%TO.P,D36,1*%
%TO.N,ROW3*%
X213576000Y-146612000D03*
%TO.P,D36,2*%
%TO.N,Net-(D36-Pad2)*%
X213576000Y-143812000D03*
%TD*%
%TO.P,D35,1*%
%TO.N,ROW2*%
X223164000Y-127549000D03*
%TO.P,D35,2*%
%TO.N,Net-(D35-Pad2)*%
X223164000Y-124749000D03*
%TD*%
%TO.P,D34,1*%
%TO.N,ROW1*%
X218351000Y-108537000D03*
%TO.P,D34,2*%
%TO.N,Net-(D34-Pad2)*%
X218351000Y-105737000D03*
%TD*%
%TO.P,D33,1*%
%TO.N,ROW0*%
X208788000Y-89439400D03*
%TO.P,D33,2*%
%TO.N,Net-(D33-Pad2)*%
X208788000Y-86639400D03*
%TD*%
%TO.P,D32,1*%
%TO.N,ROW4*%
X196990000Y-165776000D03*
%TO.P,D32,2*%
%TO.N,Net-(D32-Pad2)*%
X196990000Y-162976000D03*
%TD*%
%TO.P,D31,1*%
%TO.N,ROW3*%
X194602000Y-146688000D03*
%TO.P,D31,2*%
%TO.N,Net-(D31-Pad2)*%
X194602000Y-143888000D03*
%TD*%
%TO.P,D30,1*%
%TO.N,ROW2*%
X204114000Y-127600000D03*
%TO.P,D30,2*%
%TO.N,Net-(D30-Pad2)*%
X204114000Y-124800000D03*
%TD*%
%TO.P,D29,1*%
%TO.N,ROW1*%
X199326000Y-108550000D03*
%TO.P,D29,2*%
%TO.N,Net-(D29-Pad2)*%
X199326000Y-105750000D03*
%TD*%
%TO.P,D28,1*%
%TO.N,ROW0*%
X189751000Y-89449100D03*
%TO.P,D28,2*%
%TO.N,Net-(D28-Pad2)*%
X189751000Y-86649100D03*
%TD*%
%TO.P,D27,1*%
%TO.N,ROW3*%
X175501000Y-147097000D03*
%TO.P,D27,2*%
%TO.N,Net-(D27-Pad2)*%
X175501000Y-144297000D03*
%TD*%
%TO.P,D26,1*%
%TO.N,ROW2*%
X185052000Y-127578000D03*
%TO.P,D26,2*%
%TO.N,Net-(D26-Pad2)*%
X185052000Y-124778000D03*
%TD*%
%TO.P,D25,1*%
%TO.N,ROW1*%
X180238000Y-108524000D03*
%TO.P,D25,2*%
%TO.N,Net-(D25-Pad2)*%
X180238000Y-105724000D03*
%TD*%
%TO.P,D24,1*%
%TO.N,ROW0*%
X170726000Y-89487200D03*
%TO.P,D24,2*%
%TO.N,Net-(D24-Pad2)*%
X170726000Y-86687200D03*
%TD*%
%TO.P,D22,1*%
%TO.N,ROW3*%
X156426000Y-146602000D03*
%TO.P,D22,2*%
%TO.N,Net-(D22-Pad2)*%
X156426000Y-143802000D03*
%TD*%
%TO.P,D21,1*%
%TO.N,ROW2*%
X166002000Y-127549000D03*
%TO.P,D21,2*%
%TO.N,Net-(D21-Pad2)*%
X166002000Y-124749000D03*
%TD*%
%TO.P,D20,1*%
%TO.N,ROW1*%
X161176000Y-108537000D03*
%TO.P,D20,2*%
%TO.N,Net-(D20-Pad2)*%
X161176000Y-105737000D03*
%TD*%
%TO.P,D19,1*%
%TO.N,ROW0*%
X151752000Y-89385600D03*
%TO.P,D19,2*%
%TO.N,Net-(D19-Pad2)*%
X151752000Y-86585600D03*
%TD*%
%TO.P,D18,1*%
%TO.N,ROW3*%
X137389000Y-146602000D03*
%TO.P,D18,2*%
%TO.N,Net-(D18-Pad2)*%
X137389000Y-143802000D03*
%TD*%
%TO.P,D17,1*%
%TO.N,ROW2*%
X146914000Y-127574000D03*
%TO.P,D17,2*%
%TO.N,Net-(D17-Pad2)*%
X146914000Y-124774000D03*
%TD*%
%TO.P,D16,1*%
%TO.N,ROW1*%
X142126000Y-108423000D03*
%TO.P,D16,2*%
%TO.N,Net-(D16-Pad2)*%
X142126000Y-105623000D03*
%TD*%
%TO.P,D15,1*%
%TO.N,ROW0*%
X136023000Y-81889600D03*
%TO.P,D15,2*%
%TO.N,Net-(D15-Pad2)*%
X133223000Y-81889600D03*
%TD*%
%TO.P,D14,1*%
%TO.N,ROW4*%
X125489000Y-165662000D03*
%TO.P,D14,2*%
%TO.N,Net-(D14-Pad2)*%
X125489000Y-162862000D03*
%TD*%
%TO.P,D13,1*%
%TO.N,ROW3*%
X118364000Y-146589000D03*
%TO.P,D13,2*%
%TO.N,Net-(D13-Pad2)*%
X118364000Y-143789000D03*
%TD*%
%TO.P,D12,1*%
%TO.N,ROW2*%
X127851000Y-127600000D03*
%TO.P,D12,2*%
%TO.N,Net-(D12-Pad2)*%
X127851000Y-124800000D03*
%TD*%
%TO.P,D11,1*%
%TO.N,ROW1*%
X123088000Y-108524000D03*
%TO.P,D11,2*%
%TO.N,Net-(D11-Pad2)*%
X123088000Y-105724000D03*
%TD*%
%TO.P,D10,1*%
%TO.N,ROW0*%
X113538000Y-89576100D03*
%TO.P,D10,2*%
%TO.N,Net-(D10-Pad2)*%
X113538000Y-86776100D03*
%TD*%
%TO.P,D9,1*%
%TO.N,ROW4*%
X101664000Y-165725000D03*
%TO.P,D9,2*%
%TO.N,Net-(D9-Pad2)*%
X101664000Y-162925000D03*
%TD*%
%TO.P,D8,1*%
%TO.N,ROW2*%
X108814000Y-127489000D03*
%TO.P,D8,2*%
%TO.N,Net-(D8-Pad2)*%
X108814000Y-124689000D03*
%TD*%
%TO.P,D7,1*%
%TO.N,ROW1*%
X104051000Y-108601000D03*
%TO.P,D7,2*%
%TO.N,Net-(D7-Pad2)*%
X104051000Y-105801000D03*
%TD*%
%TO.P,D6,1*%
%TO.N,ROW0*%
X94488000Y-89576100D03*
%TO.P,D6,2*%
%TO.N,Net-(D6-Pad2)*%
X94488000Y-86776100D03*
%TD*%
%TO.P,D5,1*%
%TO.N,ROW4*%
X77838300Y-165649000D03*
%TO.P,D5,2*%
%TO.N,Net-(D5-Pad2)*%
X77838300Y-162849000D03*
%TD*%
%TO.P,D4,1*%
%TO.N,ROW3*%
X87376000Y-146650000D03*
%TO.P,D4,2*%
%TO.N,Net-(D4-Pad2)*%
X87376000Y-143850000D03*
%TD*%
%TO.P,D3,1*%
%TO.N,ROW2*%
X82613500Y-127412000D03*
%TO.P,D3,2*%
%TO.N,Net-(D3-Pad2)*%
X82613500Y-124612000D03*
%TD*%
%TO.P,D2,1*%
%TO.N,ROW1*%
X80162400Y-108522000D03*
%TO.P,D2,2*%
%TO.N,Net-(D2-Pad2)*%
X80162400Y-105722000D03*
%TD*%
%TO.P,D1,1*%
%TO.N,ROW0*%
X75107800Y-90201400D03*
%TO.P,D1,2*%
%TO.N,Net-(D1-Pad2)*%
X75107800Y-87401400D03*
%TD*%
D17*
%TO.P,X1,4*%
%TO.N,GND*%
X172682000Y-162895000D03*
%TO.P,X1,3*%
%TO.N,Net-(C8-Pad1)*%
X172682000Y-165095000D03*
%TO.P,X1,2*%
%TO.N,GND*%
X174282000Y-165095000D03*
%TO.P,X1,1*%
%TO.N,Net-(C7-Pad1)*%
X174282000Y-162895000D03*
%TD*%
%TO.P,R6,2*%
%TO.N,VBUS*%
%TA.AperFunction,SMDPad,CuDef*%
G36*
G01*
X217929000Y-170864001D02*
X217929000Y-169963999D01*
G75*
G02*
X218178999Y-169714000I249999J0D01*
G01*
X218879001Y-169714000D01*
G75*
G02*
X219129000Y-169963999I0J-249999D01*
G01*
X219129000Y-170864001D01*
G75*
G02*
X218879001Y-171114000I-249999J0D01*
G01*
X218178999Y-171114000D01*
G75*
G02*
X217929000Y-170864001I0J249999D01*
G01*
G37*
%TD.AperFunction*%
%TO.P,R6,1*%
%TO.N,/RESET*%
%TA.AperFunction,SMDPad,CuDef*%
G36*
G01*
X215929000Y-170864001D02*
X215929000Y-169963999D01*
G75*
G02*
X216178999Y-169714000I249999J0D01*
G01*
X216879001Y-169714000D01*
G75*
G02*
X217129000Y-169963999I0J-249999D01*
G01*
X217129000Y-170864001D01*
G75*
G02*
X216879001Y-171114000I-249999J0D01*
G01*
X216178999Y-171114000D01*
G75*
G02*
X215929000Y-170864001I0J249999D01*
G01*
G37*
%TD.AperFunction*%
%TD*%
%TO.P,R5,2*%
%TO.N,Connector_D-*%
%TA.AperFunction,SMDPad,CuDef*%
G36*
G01*
X221612000Y-157638001D02*
X221612000Y-156737999D01*
G75*
G02*
X221861999Y-156488000I249999J0D01*
G01*
X222562001Y-156488000D01*
G75*
G02*
X222812000Y-156737999I0J-249999D01*
G01*
X222812000Y-157638001D01*
G75*
G02*
X222562001Y-157888000I-249999J0D01*
G01*
X221861999Y-157888000D01*
G75*
G02*
X221612000Y-157638001I0J249999D01*
G01*
G37*
%TD.AperFunction*%
%TO.P,R5,1*%
%TO.N,Net-(R5-Pad1)*%
%TA.AperFunction,SMDPad,CuDef*%
G36*
G01*
X219612000Y-157638001D02*
X219612000Y-156737999D01*
G75*
G02*
X219861999Y-156488000I249999J0D01*
G01*
X220562001Y-156488000D01*
G75*
G02*
X220812000Y-156737999I0J-249999D01*
G01*
X220812000Y-157638001D01*
G75*
G02*
X220562001Y-157888000I-249999J0D01*
G01*
X219861999Y-157888000D01*
G75*
G02*
X219612000Y-157638001I0J249999D01*
G01*
G37*
%TD.AperFunction*%
%TD*%
%TO.P,R4,2*%
%TO.N,Connector_D+*%
%TA.AperFunction,SMDPad,CuDef*%
G36*
G01*
X204198000Y-162207001D02*
X204198000Y-161306999D01*
G75*
G02*
X204447999Y-161057000I249999J0D01*
G01*
X205148001Y-161057000D01*
G75*
G02*
X205398000Y-161306999I0J-249999D01*
G01*
X205398000Y-162207001D01*
G75*
G02*
X205148001Y-162457000I-249999J0D01*
G01*
X204447999Y-162457000D01*
G75*
G02*
X204198000Y-162207001I0J249999D01*
G01*
G37*
%TD.AperFunction*%
%TO.P,R4,1*%
%TO.N,Net-(R4-Pad1)*%
%TA.AperFunction,SMDPad,CuDef*%
G36*
G01*
X202198000Y-162207001D02*
X202198000Y-161306999D01*
G75*
G02*
X202447999Y-161057000I249999J0D01*
G01*
X203148001Y-161057000D01*
G75*
G02*
X203398000Y-161306999I0J-249999D01*
G01*
X203398000Y-162207001D01*
G75*
G02*
X203148001Y-162457000I-249999J0D01*
G01*
X202447999Y-162457000D01*
G75*
G02*
X202198000Y-162207001I0J249999D01*
G01*
G37*
%TD.AperFunction*%
%TD*%
%TO.P,R3,2*%
%TO.N,VBUS*%
%TA.AperFunction,SMDPad,CuDef*%
G36*
G01*
X222818000Y-170859001D02*
X222818000Y-169958999D01*
G75*
G02*
X223067999Y-169709000I249999J0D01*
G01*
X223768001Y-169709000D01*
G75*
G02*
X224018000Y-169958999I0J-249999D01*
G01*
X224018000Y-170859001D01*
G75*
G02*
X223768001Y-171109000I-249999J0D01*
G01*
X223067999Y-171109000D01*
G75*
G02*
X222818000Y-170859001I0J249999D01*
G01*
G37*
%TD.AperFunction*%
%TO.P,R3,1*%
%TO.N,GND*%
%TA.AperFunction,SMDPad,CuDef*%
G36*
G01*
X220818000Y-170859001D02*
X220818000Y-169958999D01*
G75*
G02*
X221067999Y-169709000I249999J0D01*
G01*
X221768001Y-169709000D01*
G75*
G02*
X222018000Y-169958999I0J-249999D01*
G01*
X222018000Y-170859001D01*
G75*
G02*
X221768001Y-171109000I-249999J0D01*
G01*
X221067999Y-171109000D01*
G75*
G02*
X220818000Y-170859001I0J249999D01*
G01*
G37*
%TD.AperFunction*%
%TD*%
%TO.P,C10,2*%
%TO.N,GND*%
%TA.AperFunction,SMDPad,CuDef*%
G36*
G01*
X206170000Y-156692000D02*
X206170000Y-157642000D01*
G75*
G02*
X205920000Y-157892000I-250000J0D01*
G01*
X205245000Y-157892000D01*
G75*
G02*
X204995000Y-157642000I0J250000D01*
G01*
X204995000Y-156692000D01*
G75*
G02*
X205245000Y-156442000I250000J0D01*
G01*
X205920000Y-156442000D01*
G75*
G02*
X206170000Y-156692000I0J-250000D01*
G01*
G37*
%TD.AperFunction*%
%TO.P,C10,1*%
%TO.N,Net-(C10-Pad1)*%
%TA.AperFunction,SMDPad,CuDef*%
G36*
G01*
X208245000Y-156692000D02*
X208245000Y-157642000D01*
G75*
G02*
X207995000Y-157892000I-250000J0D01*
G01*
X207320000Y-157892000D01*
G75*
G02*
X207070000Y-157642000I0J250000D01*
G01*
X207070000Y-156692000D01*
G75*
G02*
X207320000Y-156442000I250000J0D01*
G01*
X207995000Y-156442000D01*
G75*
G02*
X208245000Y-156692000I0J-250000D01*
G01*
G37*
%TD.AperFunction*%
%TD*%
%TO.P,C9,2*%
%TO.N,Net-(C9-Pad2)*%
%TA.AperFunction,SMDPad,CuDef*%
G36*
G01*
X216013000Y-156680000D02*
X216013000Y-157630000D01*
G75*
G02*
X215763000Y-157880000I-250000J0D01*
G01*
X215088000Y-157880000D01*
G75*
G02*
X214838000Y-157630000I0J250000D01*
G01*
X214838000Y-156680000D01*
G75*
G02*
X215088000Y-156430000I250000J0D01*
G01*
X215763000Y-156430000D01*
G75*
G02*
X216013000Y-156680000I0J-250000D01*
G01*
G37*
%TD.AperFunction*%
%TO.P,C9,1*%
%TO.N,GND*%
%TA.AperFunction,SMDPad,CuDef*%
G36*
G01*
X218088000Y-156680000D02*
X218088000Y-157630000D01*
G75*
G02*
X217838000Y-157880000I-250000J0D01*
G01*
X217163000Y-157880000D01*
G75*
G02*
X216913000Y-157630000I0J250000D01*
G01*
X216913000Y-156680000D01*
G75*
G02*
X217163000Y-156430000I250000J0D01*
G01*
X217838000Y-156430000D01*
G75*
G02*
X218088000Y-156680000I0J-250000D01*
G01*
G37*
%TD.AperFunction*%
%TD*%
%TO.P,C8,2*%
%TO.N,GND*%
%TA.AperFunction,SMDPad,CuDef*%
G36*
G01*
X213127000Y-170952000D02*
X213127000Y-170002000D01*
G75*
G02*
X213377000Y-169752000I250000J0D01*
G01*
X214052000Y-169752000D01*
G75*
G02*
X214302000Y-170002000I0J-250000D01*
G01*
X214302000Y-170952000D01*
G75*
G02*
X214052000Y-171202000I-250000J0D01*
G01*
X213377000Y-171202000D01*
G75*
G02*
X213127000Y-170952000I0J250000D01*
G01*
G37*
%TD.AperFunction*%
%TO.P,C8,1*%
%TO.N,Net-(C8-Pad1)*%
%TA.AperFunction,SMDPad,CuDef*%
G36*
G01*
X211052000Y-170952000D02*
X211052000Y-170002000D01*
G75*
G02*
X211302000Y-169752000I250000J0D01*
G01*
X211977000Y-169752000D01*
G75*
G02*
X212227000Y-170002000I0J-250000D01*
G01*
X212227000Y-170952000D01*
G75*
G02*
X211977000Y-171202000I-250000J0D01*
G01*
X211302000Y-171202000D01*
G75*
G02*
X211052000Y-170952000I0J250000D01*
G01*
G37*
%TD.AperFunction*%
%TD*%
%TO.P,C7,2*%
%TO.N,GND*%
%TA.AperFunction,SMDPad,CuDef*%
G36*
G01*
X202260000Y-157642000D02*
X202260000Y-156692000D01*
G75*
G02*
X202510000Y-156442000I250000J0D01*
G01*
X203185000Y-156442000D01*
G75*
G02*
X203435000Y-156692000I0J-250000D01*
G01*
X203435000Y-157642000D01*
G75*
G02*
X203185000Y-157892000I-250000J0D01*
G01*
X202510000Y-157892000D01*
G75*
G02*
X202260000Y-157642000I0J250000D01*
G01*
G37*
%TD.AperFunction*%
%TO.P,C7,1*%
%TO.N,Net-(C7-Pad1)*%
%TA.AperFunction,SMDPad,CuDef*%
G36*
G01*
X200185000Y-157642000D02*
X200185000Y-156692000D01*
G75*
G02*
X200435000Y-156442000I250000J0D01*
G01*
X201110000Y-156442000D01*
G75*
G02*
X201360000Y-156692000I0J-250000D01*
G01*
X201360000Y-157642000D01*
G75*
G02*
X201110000Y-157892000I-250000J0D01*
G01*
X200435000Y-157892000D01*
G75*
G02*
X200185000Y-157642000I0J250000D01*
G01*
G37*
%TD.AperFunction*%
%TD*%
%TO.P,C6,2*%
%TO.N,GND*%
%TA.AperFunction,SMDPad,CuDef*%
G36*
G01*
X204342000Y-166736000D02*
X204342000Y-165786000D01*
G75*
G02*
X204592000Y-165536000I250000J0D01*
G01*
X205267000Y-165536000D01*
G75*
G02*
X205517000Y-165786000I0J-250000D01*
G01*
X205517000Y-166736000D01*
G75*
G02*
X205267000Y-166986000I-250000J0D01*
G01*
X204592000Y-166986000D01*
G75*
G02*
X204342000Y-166736000I0J250000D01*
G01*
G37*
%TD.AperFunction*%
%TO.P,C6,1*%
%TO.N,VBUS*%
%TA.AperFunction,SMDPad,CuDef*%
G36*
G01*
X202267000Y-166736000D02*
X202267000Y-165786000D01*
G75*
G02*
X202517000Y-165536000I250000J0D01*
G01*
X203192000Y-165536000D01*
G75*
G02*
X203442000Y-165786000I0J-250000D01*
G01*
X203442000Y-166736000D01*
G75*
G02*
X203192000Y-166986000I-250000J0D01*
G01*
X202517000Y-166986000D01*
G75*
G02*
X202267000Y-166736000I0J250000D01*
G01*
G37*
%TD.AperFunction*%
%TD*%
%TO.P,C5,2*%
%TO.N,GND*%
%TA.AperFunction,SMDPad,CuDef*%
G36*
G01*
X218183000Y-162794000D02*
X218183000Y-161844000D01*
G75*
G02*
X218433000Y-161594000I250000J0D01*
G01*
X219108000Y-161594000D01*
G75*
G02*
X219358000Y-161844000I0J-250000D01*
G01*
X219358000Y-162794000D01*
G75*
G02*
X219108000Y-163044000I-250000J0D01*
G01*
X218433000Y-163044000D01*
G75*
G02*
X218183000Y-162794000I0J250000D01*
G01*
G37*
%TD.AperFunction*%
%TO.P,C5,1*%
%TO.N,VBUS*%
%TA.AperFunction,SMDPad,CuDef*%
G36*
G01*
X216108000Y-162794000D02*
X216108000Y-161844000D01*
G75*
G02*
X216358000Y-161594000I250000J0D01*
G01*
X217033000Y-161594000D01*
G75*
G02*
X217283000Y-161844000I0J-250000D01*
G01*
X217283000Y-162794000D01*
G75*
G02*
X217033000Y-163044000I-250000J0D01*
G01*
X216358000Y-163044000D01*
G75*
G02*
X216108000Y-162794000I0J250000D01*
G01*
G37*
%TD.AperFunction*%
%TD*%
%TO.P,C4,2*%
%TO.N,GND*%
%TA.AperFunction,SMDPad,CuDef*%
G36*
G01*
X206196000Y-170010000D02*
X206196000Y-170960000D01*
G75*
G02*
X205946000Y-171210000I-250000J0D01*
G01*
X205271000Y-171210000D01*
G75*
G02*
X205021000Y-170960000I0J250000D01*
G01*
X205021000Y-170010000D01*
G75*
G02*
X205271000Y-169760000I250000J0D01*
G01*
X205946000Y-169760000D01*
G75*
G02*
X206196000Y-170010000I0J-250000D01*
G01*
G37*
%TD.AperFunction*%
%TO.P,C4,1*%
%TO.N,VBUS*%
%TA.AperFunction,SMDPad,CuDef*%
G36*
G01*
X208271000Y-170010000D02*
X208271000Y-170960000D01*
G75*
G02*
X208021000Y-171210000I-250000J0D01*
G01*
X207346000Y-171210000D01*
G75*
G02*
X207096000Y-170960000I0J250000D01*
G01*
X207096000Y-170010000D01*
G75*
G02*
X207346000Y-169760000I250000J0D01*
G01*
X208021000Y-169760000D01*
G75*
G02*
X208271000Y-170010000I0J-250000D01*
G01*
G37*
%TD.AperFunction*%
%TD*%
%TO.P,C3,2*%
%TO.N,GND*%
%TA.AperFunction,SMDPad,CuDef*%
G36*
G01*
X218208000Y-167010000D02*
X218208000Y-166060000D01*
G75*
G02*
X218458000Y-165810000I250000J0D01*
G01*
X219133000Y-165810000D01*
G75*
G02*
X219383000Y-166060000I0J-250000D01*
G01*
X219383000Y-167010000D01*
G75*
G02*
X219133000Y-167260000I-250000J0D01*
G01*
X218458000Y-167260000D01*
G75*
G02*
X218208000Y-167010000I0J250000D01*
G01*
G37*
%TD.AperFunction*%
%TO.P,C3,1*%
%TO.N,VBUS*%
%TA.AperFunction,SMDPad,CuDef*%
G36*
G01*
X216133000Y-167010000D02*
X216133000Y-166060000D01*
G75*
G02*
X216383000Y-165810000I250000J0D01*
G01*
X217058000Y-165810000D01*
G75*
G02*
X217308000Y-166060000I0J-250000D01*
G01*
X217308000Y-167010000D01*
G75*
G02*
X217058000Y-167260000I-250000J0D01*
G01*
X216383000Y-167260000D01*
G75*
G02*
X216133000Y-167010000I0J250000D01*
G01*
G37*
%TD.AperFunction*%
%TD*%
%TO.P,C2,2*%
%TO.N,GND*%
%TA.AperFunction,SMDPad,CuDef*%
G36*
G01*
X212147000Y-157617000D02*
X212147000Y-156667000D01*
G75*
G02*
X212397000Y-156417000I250000J0D01*
G01*
X213072000Y-156417000D01*
G75*
G02*
X213322000Y-156667000I0J-250000D01*
G01*
X213322000Y-157617000D01*
G75*
G02*
X213072000Y-157867000I-250000J0D01*
G01*
X212397000Y-157867000D01*
G75*
G02*
X212147000Y-157617000I0J250000D01*
G01*
G37*
%TD.AperFunction*%
%TO.P,C2,1*%
%TO.N,VBUS*%
%TA.AperFunction,SMDPad,CuDef*%
G36*
G01*
X210072000Y-157617000D02*
X210072000Y-156667000D01*
G75*
G02*
X210322000Y-156417000I250000J0D01*
G01*
X210997000Y-156417000D01*
G75*
G02*
X211247000Y-156667000I0J-250000D01*
G01*
X211247000Y-157617000D01*
G75*
G02*
X210997000Y-157867000I-250000J0D01*
G01*
X210322000Y-157867000D01*
G75*
G02*
X210072000Y-157617000I0J250000D01*
G01*
G37*
%TD.AperFunction*%
%TD*%
%TO.P,C1,2*%
%TO.N,GND*%
%TA.AperFunction,SMDPad,CuDef*%
G36*
G01*
X202257000Y-170934000D02*
X202257000Y-169984000D01*
G75*
G02*
X202507000Y-169734000I250000J0D01*
G01*
X203182000Y-169734000D01*
G75*
G02*
X203432000Y-169984000I0J-250000D01*
G01*
X203432000Y-170934000D01*
G75*
G02*
X203182000Y-171184000I-250000J0D01*
G01*
X202507000Y-171184000D01*
G75*
G02*
X202257000Y-170934000I0J250000D01*
G01*
G37*
%TD.AperFunction*%
%TO.P,C1,1*%
%TO.N,VBUS*%
%TA.AperFunction,SMDPad,CuDef*%
G36*
G01*
X200182000Y-170934000D02*
X200182000Y-169984000D01*
G75*
G02*
X200432000Y-169734000I250000J0D01*
G01*
X201107000Y-169734000D01*
G75*
G02*
X201357000Y-169984000I0J-250000D01*
G01*
X201357000Y-170934000D01*
G75*
G02*
X201107000Y-171184000I-250000J0D01*
G01*
X200432000Y-171184000D01*
G75*
G02*
X200182000Y-170934000I0J250000D01*
G01*
G37*
%TD.AperFunction*%
%TD*%
D18*
%TO.N,GND*%
X81924600Y-91271600D03*
X98888300Y-91261500D03*
X150822600Y-132250200D03*
X255914300Y-167983500D03*
X227593100Y-168019900D03*
X324519000Y-129375100D03*
X332202400Y-129375100D03*
X152375700Y-129318200D03*
X141067800Y-129318200D03*
X324620800Y-109206800D03*
X321011400Y-109206800D03*
X213789900Y-155167500D03*
X206869300Y-155272100D03*
X194570800Y-93495300D03*
X200328400Y-96887300D03*
X156985100Y-166498200D03*
X159854000Y-166498200D03*
X152825600Y-166617000D03*
X330251500Y-148407000D03*
X286659800Y-148453700D03*
X303156400Y-148898700D03*
%TO.N,Net-(C8-Pad1)*%
X208109900Y-161177600D03*
X163333200Y-163271000D03*
X172645500Y-166597000D03*
%TO.N,COL12*%
X295683700Y-132947800D03*
X301233100Y-110663600D03*
X292312600Y-154181700D03*
X307362500Y-156590400D03*
X284978800Y-153577000D03*
X165783500Y-164260000D03*
X305829100Y-94485900D03*
X290614700Y-90931100D03*
%TO.N,VBUS*%
X89996200Y-96672700D03*
X159169100Y-171442500D03*
X145402800Y-96672700D03*
X127321700Y-96672700D03*
X335124900Y-172031500D03*
X323519600Y-169807300D03*
X121581200Y-170317800D03*
X112849600Y-170413800D03*
X131209300Y-110250400D03*
X164760700Y-133376400D03*
X152946500Y-164238300D03*
X203418500Y-164905700D03*
X220099500Y-165825600D03*
%TO.N,Net-(C9-Pad2)*%
X148475400Y-160847900D03*
X214078200Y-156410800D03*
%TO.N,Net-(C10-Pad1)*%
X156741900Y-156423900D03*
X204215000Y-157478700D03*
%TO.N,Net-(R4-Pad1)*%
X158421300Y-153261800D03*
X205436300Y-152813300D03*
%TO.N,Net-(R5-Pad1)*%
X154762900Y-154740900D03*
X217466200Y-154442200D03*
%TO.N,/RESET*%
X166133000Y-156270600D03*
X210462200Y-160730000D03*
%TO.N,RGB_DIN*%
X64849700Y-97645700D03*
X60860500Y-100145600D03*
X63910800Y-151136900D03*
X133901100Y-157337100D03*
%TO.N,Net-(U2-Pad5)*%
X76892700Y-110568800D03*
X92666700Y-110354500D03*
%TO.N,Net-(U2-Pad4)*%
X74431900Y-114003400D03*
X353852300Y-99146000D03*
%TO.N,Net-(U3-Pad5)*%
X81569300Y-133232000D03*
X97696500Y-133232000D03*
%TO.N,Net-(U3-Pad4)*%
X73008000Y-134131400D03*
X346548600Y-121416200D03*
%TO.N,Net-(U13-Pad4)*%
X82962500Y-148328100D03*
X105838500Y-150190300D03*
%TO.N,Net-(U4-Pad4)*%
X75251300Y-150683500D03*
X357858600Y-132042000D03*
%TO.N,Net-(U5-Pad4)*%
X73070200Y-151218300D03*
X357340600Y-149439100D03*
%TO.N,Net-(U10-Pad4)*%
X90079200Y-94941900D03*
X102158100Y-94941900D03*
%TO.N,COL1*%
X102153700Y-156456100D03*
X91235600Y-156550600D03*
X155302200Y-161807200D03*
%TO.N,Net-(U14-Pad5)*%
X121816600Y-168176400D03*
X174047400Y-168713300D03*
%TO.N,COL3*%
X120260100Y-91273000D03*
X124303800Y-95838800D03*
X123868300Y-109792800D03*
X132338600Y-116339700D03*
X138886500Y-147620700D03*
X136987100Y-151350400D03*
X144488600Y-162407000D03*
X145416400Y-166561300D03*
%TO.N,Net-(U19-Pad5)*%
X143594100Y-131425000D03*
X160469000Y-133123800D03*
%TO.N,COL4*%
X141015000Y-145877600D03*
X134954600Y-151374700D03*
X139021100Y-163482900D03*
X143273600Y-166561300D03*
X147839000Y-108724500D03*
X145884200Y-114825300D03*
%TO.N,Net-(U26-Pad5)*%
X152938500Y-149396900D03*
X162748600Y-150486000D03*
%TO.N,COL5*%
X159379400Y-147596400D03*
X140124300Y-151791900D03*
X145531300Y-162408800D03*
X146388600Y-166076600D03*
X163178200Y-128902400D03*
X163210900Y-133293600D03*
X165979300Y-108722100D03*
X163555800Y-113906300D03*
X153667300Y-89704200D03*
X159195700Y-95739300D03*
%TO.N,COL6*%
X180331400Y-158992000D03*
X154569200Y-165772800D03*
X176475700Y-89673600D03*
X188625900Y-97223300D03*
X177255200Y-142303800D03*
X176226700Y-141275300D03*
X180764700Y-133029000D03*
X174795500Y-127808700D03*
X184330800Y-114790600D03*
X184330800Y-109842600D03*
%TO.N,Net-(U34-Pad5)*%
X189333900Y-152323300D03*
X202107900Y-152323300D03*
%TO.N,Net-(U35-Pad5)*%
X247570400Y-167332600D03*
X195337400Y-167294600D03*
%TO.N,COL7*%
X186118500Y-157953700D03*
X155142400Y-167817600D03*
X207262600Y-127797900D03*
X199637000Y-133299400D03*
X205061500Y-108714600D03*
X206775600Y-114788100D03*
X204163800Y-94974200D03*
X192568400Y-91155000D03*
%TO.N,COL8*%
X189458600Y-157532800D03*
X157747600Y-168253800D03*
X224147100Y-108692500D03*
X216326000Y-95757300D03*
X215560900Y-91119600D03*
X219716600Y-132701600D03*
X225637800Y-128914100D03*
%TO.N,COL9*%
X238363200Y-146885500D03*
X252286700Y-151819400D03*
X229687900Y-89737100D03*
X240322400Y-96828700D03*
X243260300Y-108735000D03*
X245292800Y-114793900D03*
X244871800Y-127148000D03*
X238557000Y-132861900D03*
%TO.N,COL10*%
X253617700Y-146539900D03*
X248016400Y-151100000D03*
X264845700Y-127385800D03*
X257162600Y-133118700D03*
X249543300Y-89891600D03*
X255252600Y-95795600D03*
X258360200Y-107921200D03*
X252764200Y-113938500D03*
%TO.N,COL11*%
X232323600Y-152893300D03*
X232323600Y-162130700D03*
X168821300Y-164252200D03*
X280407400Y-94914500D03*
X271351000Y-89650900D03*
X277852700Y-108937600D03*
X282754200Y-114778100D03*
X288428100Y-149204000D03*
X285788600Y-151801000D03*
X276115500Y-133052200D03*
X278453600Y-127998200D03*
%TO.N,Net-(U57-Pad5)*%
X303842000Y-150885100D03*
X291129400Y-148797600D03*
%TO.N,Net-(U61-Pad5)*%
X327449800Y-146750900D03*
X310981100Y-146750900D03*
%TO.N,Net-(U64-Pad5)*%
X329076400Y-131309600D03*
X348620400Y-132261500D03*
%TO.N,COL14*%
X167678400Y-163798100D03*
X187203900Y-160205400D03*
X202079700Y-133396900D03*
X220467200Y-127822000D03*
X228654700Y-118048400D03*
X300320800Y-109112000D03*
X308312200Y-94129400D03*
X313881200Y-91631000D03*
%TO.N,Net-(U60-Pad5)*%
X327035500Y-113953600D03*
X313858900Y-113953600D03*
%TO.N,Net-(U63-Pad5)*%
X350140800Y-114174900D03*
X333610700Y-111594300D03*
%TO.N,COL13*%
X329347700Y-149611700D03*
X328067300Y-151127100D03*
X322687200Y-153427700D03*
X164911600Y-165074700D03*
%TO.N,COL15*%
X197425000Y-138293700D03*
X180204600Y-164849600D03*
X170444500Y-164849600D03*
X353433300Y-101991700D03*
X348391300Y-101991700D03*
X345802000Y-139691200D03*
X359790200Y-151452500D03*
%TO.N,ROW0*%
X102758300Y-153420700D03*
X151802200Y-154958900D03*
%TO.N,ROW1*%
X160941500Y-152781400D03*
X141135900Y-148754200D03*
X140825400Y-113662500D03*
X138609100Y-109878800D03*
X357763000Y-109213300D03*
X336317600Y-110134000D03*
X105215200Y-109446500D03*
X80348500Y-109713400D03*
%TO.N,ROW2*%
X148264800Y-167286600D03*
X110154200Y-165896400D03*
X357392600Y-128518600D03*
X328452200Y-128518600D03*
X164422200Y-128499400D03*
X107400300Y-128499400D03*
X85199800Y-128499400D03*
%TO.N,ROW3*%
X211347100Y-147965600D03*
X163979200Y-147008100D03*
X157752900Y-146871100D03*
X155946900Y-152613000D03*
X289505500Y-148723300D03*
X359031100Y-149871100D03*
X346521000Y-147977700D03*
X102117100Y-151695800D03*
X116341000Y-148061800D03*
%TO.N,ROW4*%
X313130800Y-147566400D03*
X302914100Y-147566400D03*
X124467000Y-168848900D03*
X267177900Y-166727100D03*
X184217000Y-167934000D03*
%TO.N,Connector_D+*%
X140451800Y-108746300D03*
X142607800Y-116135500D03*
X141174200Y-135624600D03*
X165626900Y-135676600D03*
X153854000Y-156918200D03*
X205790300Y-160729900D03*
%TO.N,Connector_D-*%
X137800300Y-108712400D03*
X143124600Y-113685700D03*
X142548300Y-148436600D03*
X220325400Y-152863800D03*
%TD*%
D19*
%TO.N,GND*%
X174438000Y-130015400D02*
X174438000Y-130474000D01*
X193488000Y-130016700D02*
X192841000Y-129369700D01*
X192841000Y-129369700D02*
X175083700Y-129369700D01*
X175083700Y-129369700D02*
X174438000Y-130015400D01*
X155375000Y-130462000D02*
X155375000Y-130063500D01*
X155375000Y-130063500D02*
X156108000Y-129330500D01*
X156108000Y-129330500D02*
X162545300Y-129330500D01*
X162545300Y-129330500D02*
X163084500Y-129869700D01*
X163084500Y-129869700D02*
X174292300Y-129869700D01*
X174292300Y-129869700D02*
X174438000Y-130015400D01*
X74901000Y-149512000D02*
X74353800Y-150059200D01*
X74353800Y-150059200D02*
X74353800Y-150995800D01*
X74353800Y-150995800D02*
X69265000Y-156084600D01*
X69265000Y-156084600D02*
X69265000Y-161317800D01*
X69265000Y-161317800D02*
X67468200Y-163114600D01*
X67468200Y-163114600D02*
X67468200Y-167465500D01*
X75512000Y-149512000D02*
X74901000Y-149512000D01*
X74901000Y-149512000D02*
X73001800Y-147612800D01*
X73001800Y-147612800D02*
X73001800Y-144730600D01*
X73001800Y-144730600D02*
X73577700Y-144154700D01*
X73577700Y-144154700D02*
X73577700Y-136094500D01*
X73577700Y-136094500D02*
X70749500Y-133266300D01*
X70749500Y-133266300D02*
X70749500Y-130474000D01*
X102950000Y-92361800D02*
X102950000Y-91906000D01*
X102950000Y-91906000D02*
X103611800Y-91244200D01*
X103611800Y-91244200D02*
X119170300Y-91244200D01*
X119170300Y-91244200D02*
X120287900Y-92361800D01*
X120287900Y-92361800D02*
X120749700Y-92361800D01*
X131780100Y-96713000D02*
X130654800Y-96713000D01*
X127177400Y-108150200D02*
X127177400Y-107204700D01*
X127177400Y-107204700D02*
X128327400Y-106054700D01*
X128327400Y-106054700D02*
X128327400Y-103296000D01*
X128327400Y-103296000D02*
X130654800Y-100968600D01*
X130654800Y-100968600D02*
X130654800Y-96713000D01*
X127177400Y-108150200D02*
X130048500Y-111021300D01*
X130048500Y-111021300D02*
X131512000Y-111021300D01*
X111861900Y-111412000D02*
X112962300Y-110311600D01*
X112962300Y-110311600D02*
X123326100Y-110311600D01*
X123326100Y-110311600D02*
X123557600Y-110543100D01*
X123557600Y-110543100D02*
X124784500Y-110543100D01*
X124784500Y-110543100D02*
X127177400Y-108150200D01*
X81741900Y-91454300D02*
X81924600Y-91271600D01*
X111861900Y-111412000D02*
X110739100Y-110289200D01*
X110739100Y-110289200D02*
X103140100Y-110289200D01*
X112487000Y-111412000D02*
X111861900Y-111412000D01*
X131512000Y-111021300D02*
X132233100Y-110300200D01*
X132233100Y-110300200D02*
X137969500Y-110300200D01*
X137969500Y-110300200D02*
X138298400Y-110629100D01*
X138298400Y-110629100D02*
X150165600Y-110629100D01*
X150165600Y-110629100D02*
X150562000Y-111025500D01*
X131512000Y-111412000D02*
X131512000Y-111021300D01*
X101407800Y-92653700D02*
X101699700Y-92361800D01*
X103140100Y-110289200D02*
X103140100Y-107850600D01*
X103140100Y-107850600D02*
X103836600Y-107154100D01*
X103836600Y-107154100D02*
X108118900Y-107154100D01*
X108118900Y-107154100D02*
X109302400Y-105970600D01*
X109302400Y-105970600D02*
X109302400Y-103147200D01*
X109302400Y-103147200D02*
X101407800Y-95252600D01*
X101407800Y-95252600D02*
X101407800Y-92653700D01*
X101407800Y-92653700D02*
X100280500Y-92653700D01*
X100280500Y-92653700D02*
X98888300Y-91261500D01*
X64849700Y-92374500D02*
X64849700Y-91976000D01*
X64849700Y-91976000D02*
X65551600Y-91274100D01*
X65551600Y-91274100D02*
X81561700Y-91274100D01*
X81561700Y-91274100D02*
X81741900Y-91454300D01*
X82649400Y-92361800D02*
X81741900Y-91454300D01*
X150822600Y-132250200D02*
X147852700Y-135220100D01*
X147852700Y-135220100D02*
X147852700Y-142255800D01*
X147852700Y-142255800D02*
X144574700Y-145533800D01*
X144574700Y-145533800D02*
X144574700Y-149512000D01*
X126162900Y-149499000D02*
X127266500Y-148395400D01*
X127266500Y-148395400D02*
X139371300Y-148395400D01*
X139371300Y-148395400D02*
X140487900Y-149512000D01*
X140487900Y-149512000D02*
X144574700Y-149512000D01*
X117250000Y-130016700D02*
X116575800Y-129342500D01*
X116575800Y-129342500D02*
X98909900Y-129342500D01*
X98909900Y-129342500D02*
X98200000Y-130052400D01*
X98200000Y-130052400D02*
X98200000Y-130474000D01*
X93437400Y-111412000D02*
X93437400Y-110953700D01*
X93437400Y-110953700D02*
X94101900Y-110289200D01*
X94101900Y-110289200D02*
X103140100Y-110289200D01*
X159854000Y-168962700D02*
X159854000Y-166498200D01*
X322012000Y-92361800D02*
X320761700Y-92361800D01*
X292811900Y-92361800D02*
X293934800Y-91238900D01*
X293934800Y-91238900D02*
X312428100Y-91238900D01*
X312428100Y-91238900D02*
X313570500Y-92381300D01*
X313570500Y-92381300D02*
X320742200Y-92381300D01*
X320742200Y-92381300D02*
X320761700Y-92361800D01*
X322012000Y-92361800D02*
X322012000Y-91963300D01*
X322012000Y-91963300D02*
X322713900Y-91261400D01*
X322713900Y-91261400D02*
X347602500Y-91261400D01*
X347602500Y-91261400D02*
X348702900Y-92361800D01*
X348702900Y-92361800D02*
X349361700Y-92361800D01*
X302374900Y-111399000D02*
X304298600Y-109475300D01*
X304298600Y-109475300D02*
X320742900Y-109475300D01*
X320742900Y-109475300D02*
X321011400Y-109206800D01*
X171731700Y-162895000D02*
X170970900Y-162134200D01*
X170970900Y-162134200D02*
X163283100Y-162134200D01*
X163283100Y-162134200D02*
X162654300Y-162763000D01*
X151854000Y-169031700D02*
X152825600Y-168060100D01*
X152825600Y-168060100D02*
X152825600Y-166617000D01*
X224408200Y-169004600D02*
X220478400Y-165074800D01*
X220478400Y-165074800D02*
X218795500Y-165074800D01*
X221418000Y-170409000D02*
X222473900Y-171464900D01*
X222473900Y-171464900D02*
X224011500Y-171464900D01*
X224011500Y-171464900D02*
X224408200Y-171068200D01*
X224408200Y-171068200D02*
X224408200Y-169004600D01*
X224408200Y-169004600D02*
X226608400Y-169004600D01*
X226608400Y-169004600D02*
X227593100Y-168019900D01*
X256537700Y-168613000D02*
X256537700Y-168606900D01*
X256537700Y-168606900D02*
X255914300Y-167983500D01*
X257788000Y-168613000D02*
X256537700Y-168613000D01*
X163637700Y-149524000D02*
X162644300Y-149524000D01*
X162644300Y-149524000D02*
X160191200Y-151977100D01*
X160191200Y-151977100D02*
X160191200Y-155638300D01*
X283950000Y-111399000D02*
X283950000Y-111051300D01*
X283950000Y-111051300D02*
X284726500Y-110274800D01*
X284726500Y-110274800D02*
X299744200Y-110274800D01*
X299744200Y-110274800D02*
X300883300Y-111413900D01*
X300883300Y-111413900D02*
X301734800Y-111413900D01*
X301734800Y-111413900D02*
X301749700Y-111399000D01*
X155054000Y-158663000D02*
X155054000Y-157562700D01*
X155054000Y-157562700D02*
X155054600Y-157562100D01*
X155054600Y-157562100D02*
X155054600Y-157025000D01*
X155054600Y-157025000D02*
X156441300Y-155638300D01*
X156441300Y-155638300D02*
X160191200Y-155638300D01*
X303769700Y-149512000D02*
X303156400Y-148898700D01*
X305350000Y-149512000D02*
X303769700Y-149512000D01*
X317500400Y-167424100D02*
X317500400Y-163346100D01*
X317500400Y-163346100D02*
X306978200Y-152823900D01*
X306978200Y-152823900D02*
X304656000Y-152823900D01*
X304656000Y-152823900D02*
X303027900Y-151195800D01*
X303027900Y-151195800D02*
X303027900Y-150253800D01*
X303027900Y-150253800D02*
X303769700Y-149512000D01*
X317500400Y-167424100D02*
X313247500Y-167424100D01*
X313247500Y-167424100D02*
X312487000Y-168184600D01*
X312487000Y-168184600D02*
X312487000Y-168562000D01*
X330311700Y-168549000D02*
X329186800Y-167424100D01*
X329186800Y-167424100D02*
X317500400Y-167424100D01*
X161554000Y-162763000D02*
X162654300Y-162763000D01*
X202988000Y-149524000D02*
X202988000Y-149125500D01*
X202988000Y-149125500D02*
X203721000Y-148392500D01*
X203721000Y-148392500D02*
X209763100Y-148392500D01*
X209763100Y-148392500D02*
X210547500Y-149176900D01*
X210547500Y-149176900D02*
X222038000Y-149176900D01*
X156985100Y-166498200D02*
X156985100Y-163374100D01*
X156985100Y-163374100D02*
X160489100Y-159870100D01*
X160489100Y-159870100D02*
X160489100Y-155936200D01*
X160489100Y-155936200D02*
X160191200Y-155638300D01*
X332202400Y-129375100D02*
X332202400Y-143643100D01*
X332202400Y-143643100D02*
X331779100Y-144066400D01*
X331779100Y-144066400D02*
X331779100Y-147859900D01*
X331779100Y-147859900D02*
X332297700Y-148378500D01*
X325562700Y-111399000D02*
X325562700Y-113551700D01*
X325562700Y-113551700D02*
X332202400Y-120191400D01*
X332202400Y-120191400D02*
X332202400Y-129375100D01*
X319675000Y-130462000D02*
X319675000Y-130114700D01*
X319675000Y-130114700D02*
X320451000Y-129338700D01*
X320451000Y-129338700D02*
X324482600Y-129338700D01*
X324482600Y-129338700D02*
X324519000Y-129375100D01*
X257788000Y-168613000D02*
X257788000Y-168214500D01*
X257788000Y-168214500D02*
X258521000Y-167481500D01*
X258521000Y-167481500D02*
X279231200Y-167481500D01*
X279231200Y-167481500D02*
X280362700Y-168613000D01*
X135674900Y-130462000D02*
X136818700Y-129318200D01*
X136818700Y-129318200D02*
X141067800Y-129318200D01*
X154124700Y-130462000D02*
X153519500Y-130462000D01*
X153519500Y-130462000D02*
X152375700Y-129318200D01*
X155375000Y-130462000D02*
X154124700Y-130462000D01*
X135674900Y-130462000D02*
X135049700Y-130462000D01*
X136300000Y-130462000D02*
X135674900Y-130462000D01*
X107738000Y-149499000D02*
X107738000Y-149057800D01*
X107738000Y-149057800D02*
X108423300Y-148372500D01*
X108423300Y-148372500D02*
X115590700Y-148372500D01*
X115590700Y-148372500D02*
X116717200Y-149499000D01*
X116717200Y-149499000D02*
X126162900Y-149499000D01*
X330311700Y-149512000D02*
X330311700Y-148467200D01*
X330311700Y-148467200D02*
X330251500Y-148407000D01*
X331562000Y-149512000D02*
X330311700Y-149512000D01*
X324620800Y-109206800D02*
X325562700Y-110148700D01*
X325562700Y-110148700D02*
X325562700Y-111399000D01*
X302374900Y-111399000D02*
X301749700Y-111399000D01*
X303000000Y-111399000D02*
X302374900Y-111399000D01*
X169625000Y-110964300D02*
X170329800Y-110259500D01*
X170329800Y-110259500D02*
X183686700Y-110259500D01*
X183686700Y-110259500D02*
X184403600Y-110976400D01*
X184403600Y-110976400D02*
X188687000Y-110976400D01*
X213789900Y-155660500D02*
X213767500Y-155660500D01*
X213767500Y-155660500D02*
X212734500Y-156693500D01*
X212734500Y-156693500D02*
X212734500Y-157142000D01*
X217500500Y-157155000D02*
X216006000Y-155660500D01*
X216006000Y-155660500D02*
X213789900Y-155660500D01*
X213789900Y-155167500D02*
X213789900Y-155660500D01*
X205582500Y-157167000D02*
X205582500Y-156558900D01*
X205582500Y-156558900D02*
X206869300Y-155272100D01*
X198369800Y-110308200D02*
X207078500Y-110308200D01*
X207078500Y-110308200D02*
X207737000Y-110966700D01*
X188687000Y-110976400D02*
X189355200Y-110308200D01*
X189355200Y-110308200D02*
X198369800Y-110308200D01*
X198369800Y-110308200D02*
X198369800Y-107899700D01*
X198369800Y-107899700D02*
X198619900Y-107649600D01*
X198619900Y-107649600D02*
X199122000Y-107649600D01*
X199122000Y-107649600D02*
X200328400Y-106443200D01*
X200328400Y-106443200D02*
X200328400Y-96887300D01*
X194570800Y-91908200D02*
X198187000Y-91908200D01*
X179150000Y-91914200D02*
X179837300Y-91226900D01*
X179837300Y-91226900D02*
X191579300Y-91226900D01*
X191579300Y-91226900D02*
X192260600Y-91908200D01*
X192260600Y-91908200D02*
X194570800Y-91908200D01*
X194570800Y-93495300D02*
X194570800Y-91908200D01*
X71999800Y-130474000D02*
X71999800Y-129551000D01*
X71999800Y-129551000D02*
X72236000Y-129314800D01*
X72236000Y-129314800D02*
X72236000Y-125009300D01*
X72236000Y-125009300D02*
X72687200Y-124558100D01*
X72687200Y-124558100D02*
X72687200Y-121673000D01*
X72687200Y-121673000D02*
X68361900Y-117347700D01*
X68361900Y-117347700D02*
X68361900Y-111424000D01*
X174335400Y-166073600D02*
X174888000Y-166626200D01*
X174888000Y-166626200D02*
X183438100Y-166626200D01*
X174282000Y-166020200D02*
X174335400Y-166073600D01*
X159854000Y-168962700D02*
X160322900Y-168962700D01*
X160322900Y-168962700D02*
X160391700Y-169031500D01*
X160391700Y-169031500D02*
X171377500Y-169031500D01*
X171377500Y-169031500D02*
X174335400Y-166073600D01*
X159854000Y-170063000D02*
X159854000Y-168962700D01*
X258874700Y-149499000D02*
X257807700Y-148432000D01*
X257807700Y-148432000D02*
X241730500Y-148432000D01*
X241730500Y-148432000D02*
X241075000Y-149087500D01*
X241075000Y-149087500D02*
X241075000Y-149537000D01*
X319675000Y-130462000D02*
X318424700Y-130462000D01*
X274400000Y-91903700D02*
X275061900Y-91241800D01*
X275061900Y-91241800D02*
X289864400Y-91241800D01*
X289864400Y-91241800D02*
X290984400Y-92361800D01*
X290984400Y-92361800D02*
X292186700Y-92361800D01*
X102950000Y-92361800D02*
X101699700Y-92361800D01*
X160100000Y-92015800D02*
X159314500Y-91230300D01*
X159314500Y-91230300D02*
X141811000Y-91230300D01*
X141811000Y-91230300D02*
X141062000Y-91979300D01*
X141062000Y-91979300D02*
X141062000Y-92361800D01*
X63599400Y-92374500D02*
X63599400Y-97456400D01*
X63599400Y-97456400D02*
X66427600Y-100284600D01*
X66427600Y-100284600D02*
X66427600Y-106066700D01*
X66427600Y-106066700D02*
X65857400Y-106636900D01*
X65857400Y-106636900D02*
X65857400Y-108919500D01*
X65857400Y-108919500D02*
X68361900Y-111424000D01*
X151854000Y-169512800D02*
X151854000Y-169031700D01*
X149053700Y-167563000D02*
X149053700Y-168809500D01*
X149053700Y-168809500D02*
X149275900Y-169031700D01*
X149275900Y-169031700D02*
X151854000Y-169031700D01*
X160453700Y-162763000D02*
X159854000Y-163362700D01*
X159854000Y-163362700D02*
X159854000Y-166498200D01*
X151854000Y-170063000D02*
X151854000Y-169512800D01*
X183438100Y-166626200D02*
X193858400Y-166626200D01*
X193858400Y-166626200D02*
X195958000Y-164526600D01*
X195958000Y-164526600D02*
X197037700Y-164526600D01*
X197037700Y-164526600D02*
X202847500Y-158716800D01*
X202847500Y-158716800D02*
X202847500Y-157167000D01*
X185087700Y-168562000D02*
X184965400Y-168684300D01*
X184965400Y-168684300D02*
X183891500Y-168684300D01*
X183891500Y-168684300D02*
X183438100Y-168230900D01*
X183438100Y-168230900D02*
X183438100Y-166626200D01*
X279162000Y-149512000D02*
X279162000Y-149113500D01*
X279162000Y-149113500D02*
X279884100Y-148391400D01*
X279884100Y-148391400D02*
X286597500Y-148391400D01*
X286597500Y-148391400D02*
X286659800Y-148453700D01*
X150562000Y-111025500D02*
X150562000Y-111424000D01*
X169625000Y-110964300D02*
X168953200Y-110292500D01*
X168953200Y-110292500D02*
X151295000Y-110292500D01*
X151295000Y-110292500D02*
X150562000Y-111025500D01*
X164888000Y-149524000D02*
X163637700Y-149524000D01*
X347271300Y-148378500D02*
X348241200Y-148378500D01*
X348241200Y-148378500D02*
X349361700Y-149499000D01*
X332297700Y-148378500D02*
X345860800Y-148378500D01*
X345860800Y-148378500D02*
X346210300Y-148728000D01*
X346210300Y-148728000D02*
X346921800Y-148728000D01*
X346921800Y-148728000D02*
X347271300Y-148378500D01*
X347271300Y-148378500D02*
X347271300Y-147666900D01*
X347271300Y-147666900D02*
X346885500Y-147281100D01*
X346885500Y-147281100D02*
X346885500Y-144621700D01*
X346885500Y-144621700D02*
X347493700Y-144013500D01*
X347493700Y-144013500D02*
X347493700Y-132292000D01*
X347493700Y-132292000D02*
X349349700Y-130436000D01*
X161554000Y-162763000D02*
X160453700Y-162763000D01*
X218795500Y-165074800D02*
X218795500Y-162344000D01*
X218795500Y-162344000D02*
X218770500Y-162319000D01*
X218795500Y-166535000D02*
X218795500Y-165074800D01*
X213714500Y-170477000D02*
X214749200Y-171511700D01*
X214749200Y-171511700D02*
X220315300Y-171511700D01*
X220315300Y-171511700D02*
X221418000Y-170409000D01*
X326813000Y-111399000D02*
X325562700Y-111399000D01*
X331562000Y-149512000D02*
X331562000Y-149114200D01*
X331562000Y-149114200D02*
X332297700Y-148378500D01*
X288225000Y-130449000D02*
X289384700Y-129289300D01*
X289384700Y-129289300D02*
X317252000Y-129289300D01*
X317252000Y-129289300D02*
X318424700Y-130462000D01*
X182699700Y-149537000D02*
X181554800Y-148392100D01*
X181554800Y-148392100D02*
X165672700Y-148392100D01*
X165672700Y-148392100D02*
X164888000Y-149176800D01*
X164888000Y-149176800D02*
X164888000Y-149524000D01*
X183950000Y-149537000D02*
X182699700Y-149537000D01*
X201737700Y-149524000D02*
X201357600Y-149904100D01*
X201357600Y-149904100D02*
X201357600Y-154799900D01*
X201357600Y-154799900D02*
X203286100Y-156728400D01*
X202988000Y-149524000D02*
X201737700Y-149524000D01*
X203286100Y-156728400D02*
X202847500Y-157167000D01*
X205582500Y-157167000D02*
X205143900Y-156728400D01*
X205143900Y-156728400D02*
X203286100Y-156728400D01*
X288225000Y-130449000D02*
X287474700Y-130449000D01*
X288725000Y-130449000D02*
X288225000Y-130449000D01*
X260125000Y-149499000D02*
X258874700Y-149499000D01*
X278536900Y-149512000D02*
X277392400Y-148367500D01*
X277392400Y-148367500D02*
X260858000Y-148367500D01*
X260858000Y-148367500D02*
X260125000Y-149100500D01*
X260125000Y-149100500D02*
X260125000Y-149499000D01*
X292811900Y-92361800D02*
X292186700Y-92361800D01*
X293437000Y-92361800D02*
X292811900Y-92361800D01*
X350621000Y-111412000D02*
X349370700Y-111412000D01*
X349370700Y-111412000D02*
X349370700Y-119718300D01*
X349370700Y-119718300D02*
X351287400Y-121635000D01*
X351287400Y-121635000D02*
X351287400Y-124520100D01*
X351287400Y-124520100D02*
X350600000Y-125207500D01*
X350600000Y-125207500D02*
X350600000Y-130436000D01*
X150154000Y-167563000D02*
X149053700Y-167563000D01*
X150704200Y-167563000D02*
X150154000Y-167563000D01*
X150704200Y-167563000D02*
X151254300Y-167563000D01*
X151254300Y-167563000D02*
X151254300Y-161542900D01*
X151254300Y-161542900D02*
X151049100Y-161337700D01*
X151049100Y-161337700D02*
X150328700Y-161337700D01*
X150328700Y-161337700D02*
X150154000Y-161163000D01*
X172682000Y-162895000D02*
X171731700Y-162895000D01*
X208648600Y-171583800D02*
X212607700Y-171583800D01*
X212607700Y-171583800D02*
X213714500Y-170477000D01*
X202844500Y-170459000D02*
X205582500Y-170459000D01*
X205582500Y-170459000D02*
X205608500Y-170485000D01*
X186338000Y-168562000D02*
X185087700Y-168562000D01*
X83899700Y-92361800D02*
X82649400Y-92361800D01*
X67237300Y-168574000D02*
X67468200Y-168343100D01*
X67468200Y-168343100D02*
X67468200Y-167465500D01*
X67468200Y-167465500D02*
X90352500Y-167465500D01*
X90352500Y-167465500D02*
X91062500Y-168175500D01*
X91062500Y-168175500D02*
X91062500Y-168574000D01*
X113624700Y-168587000D02*
X112511300Y-167473600D01*
X112511300Y-167473600D02*
X91764400Y-167473600D01*
X91764400Y-167473600D02*
X91062500Y-168175500D01*
X122000000Y-92361800D02*
X120749700Y-92361800D01*
X193488000Y-130016700D02*
X194208100Y-129296600D01*
X194208100Y-129296600D02*
X211721300Y-129296600D01*
X211721300Y-129296600D02*
X212551000Y-130126300D01*
X198187000Y-91908200D02*
X198835700Y-91259500D01*
X198835700Y-91259500D02*
X214639800Y-91259500D01*
X214639800Y-91259500D02*
X215288500Y-91908200D01*
X215288500Y-91908200D02*
X217237000Y-91908200D01*
X207737000Y-110966700D02*
X208441700Y-110262000D01*
X208441700Y-110262000D02*
X226084700Y-110262000D01*
X226084700Y-110262000D02*
X226787000Y-110964300D01*
X212551000Y-130126300D02*
X213336500Y-129340800D01*
X213336500Y-129340800D02*
X225003500Y-129340800D01*
X225003500Y-129340800D02*
X225671000Y-130008300D01*
X225671000Y-130008300D02*
X231575000Y-130008300D01*
X222038000Y-149176900D02*
X222038000Y-149524000D01*
X239824700Y-149537000D02*
X238699700Y-148412000D01*
X238699700Y-148412000D02*
X222802900Y-148412000D01*
X222802900Y-148412000D02*
X222038000Y-149176900D01*
X241075000Y-149537000D02*
X239824700Y-149537000D01*
X279162000Y-149512000D02*
X278536900Y-149512000D01*
X350600000Y-130436000D02*
X349349700Y-130436000D01*
X218770500Y-162319000D02*
X218770500Y-158425000D01*
X218770500Y-158425000D02*
X217500500Y-157155000D01*
X145825000Y-149512000D02*
X144574700Y-149512000D01*
X281613000Y-168613000D02*
X280362700Y-168613000D01*
X114875000Y-168587000D02*
X113624700Y-168587000D01*
X71999800Y-130474000D02*
X70749500Y-130474000D01*
X68487000Y-111424000D02*
X68361900Y-111424000D01*
X69612200Y-111424000D02*
X68487000Y-111424000D01*
X76762300Y-149512000D02*
X75512000Y-149512000D01*
X64849700Y-92374500D02*
X63599400Y-92374500D01*
X283950000Y-111399000D02*
X282699700Y-111399000D01*
X126788000Y-149499000D02*
X126162900Y-149499000D01*
X117250000Y-130016700D02*
X117250000Y-130462000D01*
X135049700Y-130462000D02*
X133933800Y-129346100D01*
X133933800Y-129346100D02*
X117920600Y-129346100D01*
X117920600Y-129346100D02*
X117250000Y-130016700D01*
X160100000Y-92015800D02*
X160100000Y-92361800D01*
X179150000Y-91914200D02*
X178478700Y-91242900D01*
X178478700Y-91242900D02*
X160872900Y-91242900D01*
X160872900Y-91242900D02*
X160100000Y-92015800D01*
X169625000Y-110964300D02*
X169625000Y-111412000D01*
X179150000Y-91914200D02*
X179150000Y-92361800D01*
X188687000Y-110976400D02*
X188687000Y-111424000D01*
X193488000Y-130016700D02*
X193488000Y-130462000D01*
X198187000Y-91908200D02*
X198187000Y-92361800D01*
X207737000Y-110966700D02*
X207737000Y-111412000D01*
X212551000Y-130126300D02*
X212551000Y-130474000D01*
X217237000Y-91908200D02*
X217237000Y-92361800D01*
X236300000Y-91904400D02*
X235639300Y-91243700D01*
X235639300Y-91243700D02*
X217901500Y-91243700D01*
X217901500Y-91243700D02*
X217237000Y-91908200D01*
X226787000Y-110964300D02*
X226787000Y-111412000D01*
X245837000Y-110965600D02*
X245181900Y-110310500D01*
X245181900Y-110310500D02*
X227440800Y-110310500D01*
X227440800Y-110310500D02*
X226787000Y-110964300D01*
X231575000Y-130008300D02*
X231575000Y-130462000D01*
X250625000Y-129999600D02*
X249974000Y-129348600D01*
X249974000Y-129348600D02*
X232234700Y-129348600D01*
X232234700Y-129348600D02*
X231575000Y-130008300D01*
X236300000Y-91904400D02*
X236300000Y-92361800D01*
X255350000Y-91904400D02*
X254647100Y-91201500D01*
X254647100Y-91201500D02*
X237002900Y-91201500D01*
X237002900Y-91201500D02*
X236300000Y-91904400D01*
X245837000Y-110965600D02*
X245837000Y-111424000D01*
X264900000Y-110952000D02*
X264245500Y-110297500D01*
X264245500Y-110297500D02*
X246505100Y-110297500D01*
X246505100Y-110297500D02*
X245837000Y-110965600D01*
X250625000Y-129999600D02*
X250625000Y-130449000D01*
X269675000Y-130050500D02*
X268968600Y-129344100D01*
X268968600Y-129344100D02*
X251280500Y-129344100D01*
X251280500Y-129344100D02*
X250625000Y-129999600D01*
X255350000Y-91904400D02*
X255350000Y-92361800D01*
X274400000Y-91903700D02*
X273752400Y-91256100D01*
X273752400Y-91256100D02*
X255998300Y-91256100D01*
X255998300Y-91256100D02*
X255350000Y-91904400D01*
X264900000Y-110952000D02*
X264900000Y-111399000D01*
X282699700Y-111399000D02*
X281548500Y-110247800D01*
X281548500Y-110247800D02*
X265604200Y-110247800D01*
X265604200Y-110247800D02*
X264900000Y-110952000D01*
X269675000Y-130050500D02*
X269675000Y-130449000D01*
X287474700Y-130449000D02*
X286343200Y-129317500D01*
X286343200Y-129317500D02*
X270408000Y-129317500D01*
X270408000Y-129317500D02*
X269675000Y-130050500D01*
X274400000Y-91903700D02*
X274400000Y-92361800D01*
X350612000Y-168549000D02*
X349361700Y-168549000D01*
X330936900Y-168549000D02*
X332037300Y-167448600D01*
X332037300Y-167448600D02*
X348261300Y-167448600D01*
X348261300Y-167448600D02*
X349361700Y-168549000D01*
X330936900Y-168549000D02*
X330311700Y-168549000D01*
X331562000Y-168549000D02*
X330936900Y-168549000D01*
X350612000Y-149499000D02*
X349361700Y-149499000D01*
X350612000Y-92361800D02*
X349361700Y-92361800D01*
X174282000Y-165095000D02*
X174282000Y-166020200D01*
X205608500Y-170485000D02*
X206707300Y-171583800D01*
X206707300Y-171583800D02*
X208648600Y-171583800D01*
X204929500Y-166261000D02*
X205150700Y-166261000D01*
X205150700Y-166261000D02*
X208648600Y-169758900D01*
X208648600Y-169758900D02*
X208648600Y-171583800D01*
D20*
%TO.N,Net-(C7-Pad1)*%
X175207300Y-162895000D02*
X177897900Y-165585600D01*
X177897900Y-165585600D02*
X184285000Y-165585600D01*
X184285000Y-165585600D02*
X188984900Y-160885700D01*
X188984900Y-160885700D02*
X188984900Y-159032300D01*
X188984900Y-159032300D02*
X190850100Y-157167100D01*
X190850100Y-157167100D02*
X190850100Y-157167000D01*
X190850100Y-157167000D02*
X200772500Y-157167000D01*
X174282000Y-163920300D02*
X170152100Y-163920300D01*
X170152100Y-163920300D02*
X168841300Y-162609500D01*
X168841300Y-162609500D02*
X165020600Y-162609500D01*
X165020600Y-162609500D02*
X163267200Y-164362900D01*
X163267200Y-164362900D02*
X162629300Y-164362900D01*
X162629300Y-164362900D02*
X162629300Y-164363000D01*
X161554000Y-164363000D02*
X162629300Y-164363000D01*
X174282000Y-162895000D02*
X174282000Y-163920300D01*
X174282000Y-162895000D02*
X175207300Y-162895000D01*
%TO.N,Net-(C8-Pad1)*%
X163333200Y-163271000D02*
X163041200Y-163563000D01*
X163041200Y-163563000D02*
X161554000Y-163563000D01*
X211639500Y-170477000D02*
X208109900Y-166947400D01*
X208109900Y-166947400D02*
X208109900Y-161177600D01*
X172682000Y-166120300D02*
X172682000Y-166560500D01*
X172682000Y-166560500D02*
X172645500Y-166597000D01*
X172682000Y-165095000D02*
X172682000Y-166120300D01*
%TO.N,Net-(D31-Pad2)*%
X192565000Y-140157000D02*
X192565000Y-141732300D01*
X194602000Y-143888000D02*
X194602000Y-143012700D01*
X194602000Y-143012700D02*
X193321600Y-141732300D01*
X193321600Y-141732300D02*
X192565000Y-141732300D01*
%TO.N,Net-(D34-Pad2)*%
X216352000Y-102032000D02*
X216352000Y-103607300D01*
X218351000Y-105737000D02*
X218351000Y-104861700D01*
X218351000Y-104861700D02*
X217096600Y-103607300D01*
X217096600Y-103607300D02*
X216352000Y-103607300D01*
%TO.N,Net-(D7-Pad2)*%
X102052400Y-102032000D02*
X102052400Y-103607300D01*
X104051000Y-105801000D02*
X104051000Y-104925700D01*
X104051000Y-104925700D02*
X102732600Y-103607300D01*
X102732600Y-103607300D02*
X102052400Y-103607300D01*
%TO.N,Net-(D1-Pad2)*%
X73000000Y-82994500D02*
X73000000Y-84069800D01*
X75107800Y-87401400D02*
X75107800Y-86177600D01*
X75107800Y-86177600D02*
X73000000Y-84069800D01*
%TO.N,Net-(D2-Pad2)*%
X78227200Y-102044000D02*
X78227200Y-103619300D01*
X80162400Y-105722000D02*
X80162400Y-104846700D01*
X80162400Y-104846700D02*
X78935000Y-103619300D01*
X78935000Y-103619300D02*
X78227200Y-103619300D01*
%TO.N,Net-(D3-Pad2)*%
X80614800Y-121094000D02*
X80614800Y-122669300D01*
X82613500Y-124612000D02*
X82613500Y-123736700D01*
X82613500Y-123736700D02*
X81546100Y-122669300D01*
X81546100Y-122669300D02*
X80614800Y-122669300D01*
%TO.N,Net-(D4-Pad2)*%
X85377300Y-140132000D02*
X85377300Y-141707300D01*
X87376000Y-143850000D02*
X87376000Y-142974700D01*
X87376000Y-142974700D02*
X86108600Y-141707300D01*
X86108600Y-141707300D02*
X85377300Y-141707300D01*
%TO.N,Net-(D5-Pad2)*%
X75852300Y-159194000D02*
X75852300Y-160769300D01*
X77838300Y-162849000D02*
X77838300Y-161973700D01*
X77838300Y-161973700D02*
X76633900Y-160769300D01*
X76633900Y-160769300D02*
X75852300Y-160769300D01*
%TO.N,Net-(D6-Pad2)*%
X92514700Y-82981800D02*
X92514700Y-84557100D01*
X94488000Y-86776100D02*
X94488000Y-85900800D01*
X94488000Y-85900800D02*
X93144300Y-84557100D01*
X93144300Y-84557100D02*
X92514700Y-84557100D01*
%TO.N,Net-(D8-Pad2)*%
X106815000Y-121094000D02*
X106815000Y-122669300D01*
X108814000Y-124689000D02*
X108814000Y-123813700D01*
X108814000Y-123813700D02*
X107669600Y-122669300D01*
X107669600Y-122669300D02*
X106815000Y-122669300D01*
%TO.N,Net-(D15-Pad2)*%
X133223000Y-81889600D02*
X133223000Y-82764900D01*
X130615000Y-82981800D02*
X132215300Y-82981800D01*
X133223000Y-82764900D02*
X132432200Y-82764900D01*
X132432200Y-82764900D02*
X132215300Y-82981800D01*
%TO.N,Net-(D9-Pad2)*%
X99677500Y-159194000D02*
X99677500Y-160769300D01*
X101664000Y-162925000D02*
X101664000Y-162049700D01*
X101664000Y-162049700D02*
X100383600Y-160769300D01*
X100383600Y-160769300D02*
X99677500Y-160769300D01*
%TO.N,Net-(D10-Pad2)*%
X111565000Y-82981800D02*
X111565000Y-84557100D01*
X113538000Y-86776100D02*
X113538000Y-85900800D01*
X113538000Y-85900800D02*
X112194300Y-84557100D01*
X112194300Y-84557100D02*
X111565000Y-84557100D01*
%TO.N,Net-(D11-Pad2)*%
X121102000Y-102032000D02*
X121102000Y-103607300D01*
X123088000Y-105724000D02*
X123088000Y-104848700D01*
X123088000Y-104848700D02*
X121846600Y-103607300D01*
X121846600Y-103607300D02*
X121102000Y-103607300D01*
%TO.N,Net-(D12-Pad2)*%
X125865000Y-121082000D02*
X125865000Y-122657300D01*
X127851000Y-124800000D02*
X127851000Y-123924700D01*
X127851000Y-123924700D02*
X126583600Y-122657300D01*
X126583600Y-122657300D02*
X125865000Y-122657300D01*
%TO.N,Net-(D13-Pad2)*%
X116353000Y-140119000D02*
X116353000Y-141694300D01*
X118364000Y-143789000D02*
X118364000Y-142913700D01*
X118364000Y-142913700D02*
X117144600Y-141694300D01*
X117144600Y-141694300D02*
X116353000Y-141694300D01*
%TO.N,Net-(D14-Pad2)*%
X123490000Y-159207000D02*
X123490000Y-160782300D01*
X125489000Y-162862000D02*
X125489000Y-161986700D01*
X125489000Y-161986700D02*
X124284600Y-160782300D01*
X124284600Y-160782300D02*
X123490000Y-160782300D01*
%TO.N,Net-(D18-Pad2)*%
X135403000Y-140119000D02*
X135403000Y-141694300D01*
X137389000Y-143802000D02*
X137389000Y-142926700D01*
X137389000Y-142926700D02*
X136156600Y-141694300D01*
X136156600Y-141694300D02*
X135403000Y-141694300D01*
%TO.N,Net-(D19-Pad2)*%
X151752000Y-86585600D02*
X150876700Y-86585600D01*
X149677000Y-82981800D02*
X149677000Y-84557100D01*
X150876700Y-86585600D02*
X150876700Y-85756800D01*
X150876700Y-85756800D02*
X149677000Y-84557100D01*
%TO.N,Net-(D20-Pad2)*%
X159177000Y-102044000D02*
X159177000Y-103619300D01*
X161176000Y-105737000D02*
X161176000Y-104861700D01*
X161176000Y-104861700D02*
X159933600Y-103619300D01*
X159933600Y-103619300D02*
X159177000Y-103619300D01*
%TO.N,Net-(D21-Pad2)*%
X163990000Y-121082000D02*
X163990000Y-122657300D01*
X166002000Y-124749000D02*
X166002000Y-123873700D01*
X166002000Y-123873700D02*
X164785600Y-122657300D01*
X164785600Y-122657300D02*
X163990000Y-122657300D01*
%TO.N,Net-(D22-Pad2)*%
X154440000Y-140132000D02*
X154440000Y-141707300D01*
X156426000Y-143802000D02*
X156426000Y-142926700D01*
X156426000Y-142926700D02*
X155206600Y-141707300D01*
X155206600Y-141707300D02*
X154440000Y-141707300D01*
%TO.N,Net-(D24-Pad2)*%
X168715000Y-82981800D02*
X168715000Y-84557100D01*
X170726000Y-86687200D02*
X170726000Y-85811900D01*
X170726000Y-85811900D02*
X169471200Y-84557100D01*
X169471200Y-84557100D02*
X168715000Y-84557100D01*
%TO.N,Net-(D25-Pad2)*%
X178240000Y-102032000D02*
X178240000Y-103607300D01*
X180238000Y-105724000D02*
X180238000Y-104848700D01*
X180238000Y-104848700D02*
X178996600Y-103607300D01*
X178996600Y-103607300D02*
X178240000Y-103607300D01*
%TO.N,Net-(D26-Pad2)*%
X183053000Y-121094000D02*
X183053000Y-122669300D01*
X185052000Y-124778000D02*
X185052000Y-123902700D01*
X185052000Y-123902700D02*
X183818600Y-122669300D01*
X183818600Y-122669300D02*
X183053000Y-122669300D01*
%TO.N,Net-(D27-Pad2)*%
X173503000Y-140144000D02*
X173503000Y-141719300D01*
X175501000Y-144297000D02*
X175501000Y-143421700D01*
X175501000Y-143421700D02*
X173798600Y-141719300D01*
X173798600Y-141719300D02*
X173503000Y-141719300D01*
%TO.N,Net-(D28-Pad2)*%
X187765000Y-82981800D02*
X187765000Y-84557100D01*
X189751000Y-86649100D02*
X189751000Y-85773800D01*
X189751000Y-85773800D02*
X188534300Y-84557100D01*
X188534300Y-84557100D02*
X187765000Y-84557100D01*
%TO.N,Net-(D29-Pad2)*%
X197302000Y-102044000D02*
X197302000Y-103619300D01*
X199326000Y-105750000D02*
X199326000Y-104874700D01*
X199326000Y-104874700D02*
X198070600Y-103619300D01*
X198070600Y-103619300D02*
X197302000Y-103619300D01*
%TO.N,Net-(D30-Pad2)*%
X202103000Y-121082000D02*
X202103000Y-122657300D01*
X204114000Y-124800000D02*
X204114000Y-123924700D01*
X204114000Y-123924700D02*
X202846600Y-122657300D01*
X202846600Y-122657300D02*
X202103000Y-122657300D01*
%TO.N,Net-(D32-Pad2)*%
X196990000Y-162976000D02*
X196990000Y-162100700D01*
X194953000Y-159182000D02*
X194953000Y-160757300D01*
X196990000Y-162100700D02*
X196296400Y-162100700D01*
X196296400Y-162100700D02*
X194953000Y-160757300D01*
%TO.N,Net-(D33-Pad2)*%
X206802000Y-82981800D02*
X206802000Y-84557100D01*
X208788000Y-86639400D02*
X208788000Y-85764100D01*
X208788000Y-85764100D02*
X207581000Y-84557100D01*
X207581000Y-84557100D02*
X206802000Y-84557100D01*
%TO.N,Net-(D35-Pad2)*%
X221166000Y-121094000D02*
X221166000Y-122669300D01*
X223164000Y-124749000D02*
X223164000Y-123873700D01*
X223164000Y-123873700D02*
X221959600Y-122669300D01*
X221959600Y-122669300D02*
X221166000Y-122669300D01*
%TO.N,Net-(D36-Pad2)*%
X211603000Y-140144000D02*
X211603000Y-141719300D01*
X213576000Y-143812000D02*
X213576000Y-142936700D01*
X213576000Y-142936700D02*
X212358600Y-141719300D01*
X212358600Y-141719300D02*
X211603000Y-141719300D01*
%TO.N,COL12*%
X305829100Y-94485900D02*
X305829100Y-95344600D01*
X305829100Y-95344600D02*
X298190000Y-102983700D01*
X161554000Y-167563000D02*
X163456400Y-167563000D01*
X163456400Y-167563000D02*
X165783500Y-165235900D01*
X165783500Y-165235900D02*
X165783500Y-164260000D01*
X298190000Y-104559000D02*
X298190000Y-108048400D01*
X298190000Y-108048400D02*
X300805200Y-110663600D01*
X300805200Y-110663600D02*
X301233100Y-110663600D01*
X291459100Y-153328200D02*
X292312600Y-154181700D01*
X291459100Y-153328200D02*
X285227600Y-153328200D01*
X285227600Y-153328200D02*
X284978800Y-153577000D01*
X295683700Y-132947800D02*
X300540000Y-137804100D01*
X300540000Y-137804100D02*
X300540000Y-142672000D01*
X298190000Y-103974400D02*
X298190000Y-104559000D01*
X298190000Y-103974400D02*
X298190000Y-102983700D01*
X307677000Y-161722000D02*
X307677000Y-160146700D01*
X291459100Y-153328200D02*
X300540000Y-144247300D01*
X307677000Y-160146700D02*
X307362500Y-159832200D01*
X307362500Y-159832200D02*
X307362500Y-156590400D01*
X300540000Y-142672000D02*
X300540000Y-144247300D01*
X288627000Y-85521800D02*
X288627000Y-88943400D01*
X288627000Y-88943400D02*
X290614700Y-90931100D01*
D19*
%TO.N,VBUS*%
X198688000Y-131962000D02*
X198688000Y-132364700D01*
X198688000Y-132364700D02*
X197990400Y-133062300D01*
X197990400Y-133062300D02*
X181980900Y-133062300D01*
X181980900Y-133062300D02*
X180945800Y-132027200D01*
X180945800Y-132027200D02*
X180842800Y-132027200D01*
X180842800Y-132027200D02*
X180842700Y-132027300D01*
X180842700Y-132027300D02*
X180835200Y-132027300D01*
X180835200Y-132027300D02*
X180835200Y-132027200D01*
X180835200Y-132027200D02*
X180888300Y-131974100D01*
X180888300Y-131974100D02*
X180888300Y-131974000D01*
X361123400Y-132792300D02*
X361123400Y-116964100D01*
X361123400Y-116964100D02*
X357071300Y-112912000D01*
X360424200Y-148857300D02*
X361123400Y-148158100D01*
X361123400Y-148158100D02*
X361123400Y-132792300D01*
X357050300Y-131936000D02*
X357050300Y-132294700D01*
X357050300Y-132294700D02*
X357547900Y-132792300D01*
X357547900Y-132792300D02*
X361123400Y-132792300D01*
X355800000Y-131936000D02*
X357050300Y-131936000D01*
X179638000Y-131974000D02*
X179638000Y-132361000D01*
X179638000Y-132361000D02*
X178876300Y-133122700D01*
X178876300Y-133122700D02*
X165568100Y-133122700D01*
X165568100Y-133122700D02*
X165071500Y-132626100D01*
X165071500Y-132626100D02*
X164826100Y-132626100D01*
X164826100Y-132626100D02*
X164743300Y-132543300D01*
X164743300Y-132543300D02*
X162685800Y-132543300D01*
X162685800Y-132543300D02*
X162657700Y-132571400D01*
X162657700Y-132571400D02*
X162434700Y-132571400D01*
X162434700Y-132571400D02*
X162434700Y-132571300D01*
X75285800Y-112924000D02*
X78267700Y-112924000D01*
X78267700Y-112924000D02*
X81113000Y-110078700D01*
X81113000Y-110078700D02*
X81113000Y-95007400D01*
X74812200Y-112924000D02*
X75285800Y-112924000D01*
X79999600Y-134002800D02*
X81897400Y-134002800D01*
X81897400Y-134002800D02*
X82325200Y-133575000D01*
X82325200Y-133575000D02*
X82325200Y-132172300D01*
X82325200Y-132172300D02*
X77935400Y-127782500D01*
X77935400Y-127782500D02*
X77935400Y-125994400D01*
X77935400Y-125994400D02*
X75285800Y-123344800D01*
X75285800Y-123344800D02*
X75285800Y-112924000D01*
X149053700Y-160363000D02*
X149053700Y-159660200D01*
X149053700Y-159660200D02*
X140435100Y-151041600D01*
X140435100Y-151041600D02*
X137739400Y-151041600D01*
X137739400Y-151041600D02*
X137297900Y-150600100D01*
X137297900Y-150600100D02*
X133637200Y-150600100D01*
X133637200Y-150600100D02*
X133238300Y-150999000D01*
X117687000Y-113301600D02*
X117687000Y-112912000D01*
X99887700Y-112912000D02*
X101000200Y-114024500D01*
X101000200Y-114024500D02*
X116964100Y-114024500D01*
X116964100Y-114024500D02*
X117687000Y-113301600D01*
X117687000Y-113301600D02*
X118421100Y-114035700D01*
X118421100Y-114035700D02*
X135962100Y-114035700D01*
X135962100Y-114035700D02*
X136712000Y-113285800D01*
X136712000Y-113285800D02*
X136712000Y-112912000D01*
X126417500Y-95005000D02*
X127321700Y-95909200D01*
X127321700Y-95909200D02*
X127321700Y-96672700D01*
X113292600Y-151040900D02*
X113921400Y-151669800D01*
X113921400Y-151669800D02*
X114111300Y-151669800D01*
X114111300Y-151669800D02*
X114576700Y-152135200D01*
X114576700Y-152135200D02*
X131210700Y-152135200D01*
X131210700Y-152135200D02*
X131988000Y-151357900D01*
X131988000Y-151357900D02*
X131988000Y-150999000D01*
X113250600Y-150999000D02*
X113292600Y-151040900D01*
X113292600Y-151040900D02*
X112229900Y-152103600D01*
X112229900Y-152103600D02*
X106690600Y-152103600D01*
X106690600Y-152103600D02*
X103968300Y-149381300D01*
X103968300Y-149381300D02*
X103968300Y-144726800D01*
X103968300Y-144726800D02*
X104650300Y-144044800D01*
X104650300Y-144044800D02*
X104650300Y-133068800D01*
X104650300Y-133068800D02*
X104650300Y-131974000D01*
X123075200Y-131962000D02*
X121968400Y-133068800D01*
X121968400Y-133068800D02*
X104650300Y-133068800D01*
X123075200Y-131962000D02*
X123700300Y-131962000D01*
X122450000Y-131962000D02*
X123075200Y-131962000D01*
X103400000Y-131974000D02*
X104650300Y-131974000D01*
X112938000Y-150999000D02*
X113250600Y-150999000D01*
X88330900Y-95007400D02*
X89996200Y-96672700D01*
X88330900Y-95007400D02*
X81113000Y-95007400D01*
X89099700Y-93861800D02*
X89099700Y-94238600D01*
X89099700Y-94238600D02*
X88330900Y-95007400D01*
X98637400Y-112912000D02*
X99887700Y-112912000D01*
X83212600Y-151012000D02*
X83712800Y-150511800D01*
X83712800Y-150511800D02*
X83712800Y-148017300D01*
X83712800Y-148017300D02*
X83212700Y-147517200D01*
X83212700Y-147517200D02*
X83212600Y-147517200D01*
X83212600Y-147517200D02*
X83212600Y-145715300D01*
X83212600Y-145715300D02*
X79999600Y-142502300D01*
X79999600Y-142502300D02*
X79999600Y-134002800D01*
X81113000Y-95007400D02*
X72432900Y-95007400D01*
X72432900Y-95007400D02*
X71300000Y-93874500D01*
X131988000Y-150999000D02*
X133238300Y-150999000D01*
X151754600Y-165004000D02*
X151754600Y-161335700D01*
X151754600Y-161335700D02*
X151254400Y-160835500D01*
X151254400Y-160835500D02*
X151254300Y-160835500D01*
X151254300Y-160835500D02*
X151254300Y-160704300D01*
X151254300Y-160704300D02*
X150913000Y-160363000D01*
X150913000Y-160363000D02*
X150568600Y-160363000D01*
X151254300Y-168363000D02*
X151754600Y-167862700D01*
X151754600Y-167862700D02*
X151754600Y-165004000D01*
X159054000Y-167260600D02*
X156635600Y-167260600D01*
X156635600Y-167260600D02*
X155769800Y-166394800D01*
X155769800Y-166394800D02*
X155769800Y-165877200D01*
X155769800Y-165877200D02*
X154896600Y-165004000D01*
X154896600Y-165004000D02*
X151754600Y-165004000D01*
X160578800Y-161963000D02*
X160502100Y-161963000D01*
X160502100Y-161963000D02*
X159054000Y-163411100D01*
X159054000Y-163411100D02*
X159054000Y-167260600D01*
X159054000Y-170063000D02*
X159054000Y-167260600D01*
X217751000Y-131974000D02*
X217751000Y-132379000D01*
X217751000Y-132379000D02*
X217043900Y-133086100D01*
X217043900Y-133086100D02*
X202830000Y-133086100D01*
X202830000Y-133086100D02*
X201705900Y-131962000D01*
X201705900Y-131962000D02*
X199938300Y-131962000D01*
X327212000Y-93861800D02*
X327212000Y-94304300D01*
X327212000Y-94304300D02*
X326548500Y-94967800D01*
X326548500Y-94967800D02*
X315419400Y-94967800D01*
X315419400Y-94967800D02*
X313783500Y-93331900D01*
X313783500Y-93331900D02*
X313176700Y-93331900D01*
X313176700Y-93331900D02*
X312773600Y-92928800D01*
X312773600Y-92928800D02*
X300820300Y-92928800D01*
X300820300Y-92928800D02*
X299887300Y-93861800D01*
X236775000Y-131962000D02*
X236775000Y-132364600D01*
X236775000Y-132364600D02*
X236045600Y-133094000D01*
X236045600Y-133094000D02*
X221170100Y-133094000D01*
X221170100Y-133094000D02*
X220027400Y-131951300D01*
X220027400Y-131951300D02*
X219024000Y-131951300D01*
X219024000Y-131951300D02*
X219001300Y-131974000D01*
X158259800Y-136746200D02*
X151620200Y-130106600D01*
X151620200Y-130106600D02*
X151620200Y-125674900D01*
X151620200Y-125674900D02*
X152190400Y-125104700D01*
X152190400Y-125104700D02*
X152190400Y-114028800D01*
X152275300Y-151012000D02*
X152428500Y-151012000D01*
X152428500Y-151012000D02*
X155086100Y-148354400D01*
X155086100Y-148354400D02*
X155086100Y-146328100D01*
X155086100Y-146328100D02*
X155712600Y-145701600D01*
X155712600Y-145701600D02*
X156217000Y-145701600D01*
X156217000Y-145701600D02*
X158259800Y-143658800D01*
X158259800Y-143658800D02*
X158259800Y-136746200D01*
X161825300Y-131962000D02*
X162434700Y-132571300D01*
X158259800Y-136746200D02*
X162434700Y-132571300D01*
X210659500Y-159979600D02*
X210659500Y-157142000D01*
X216720500Y-166535000D02*
X216720500Y-165927200D01*
X216720500Y-165927200D02*
X210773000Y-159979700D01*
X210773000Y-159979700D02*
X210659500Y-159979700D01*
X210659500Y-159979700D02*
X210659500Y-159979600D01*
X210659500Y-159979600D02*
X204894700Y-159979600D01*
X204894700Y-159979600D02*
X203781000Y-161093300D01*
X203781000Y-161093300D02*
X203781000Y-163305000D01*
X203781000Y-163305000D02*
X201893900Y-165192100D01*
X201893900Y-165192100D02*
X201893900Y-169334600D01*
X246275000Y-151037000D02*
X246275000Y-151411700D01*
X246275000Y-151411700D02*
X245543700Y-152143000D01*
X245543700Y-152143000D02*
X229607300Y-152143000D01*
X229607300Y-152143000D02*
X228488300Y-151024000D01*
X162654300Y-161963000D02*
X170588100Y-154029200D01*
X170588100Y-154029200D02*
X170588100Y-151024000D01*
X152190400Y-114028800D02*
X145151900Y-114028800D01*
X145151900Y-114028800D02*
X144035100Y-112912000D01*
X144035100Y-112912000D02*
X136712000Y-112912000D01*
X269305700Y-152145900D02*
X283634100Y-152145900D01*
X283634100Y-152145900D02*
X284362000Y-151418000D01*
X284362000Y-151418000D02*
X284362000Y-151012000D01*
X266575300Y-150999000D02*
X267722200Y-152145900D01*
X267722200Y-152145900D02*
X269305700Y-152145900D01*
X262988000Y-170113000D02*
X262988000Y-170488100D01*
X262988000Y-170488100D02*
X262228700Y-171247400D01*
X262228700Y-171247400D02*
X250424200Y-171247400D01*
X250424200Y-171247400D02*
X246820100Y-167643300D01*
X246820100Y-167643300D02*
X246820100Y-166951200D01*
X246820100Y-166951200D02*
X247206100Y-166565200D01*
X247206100Y-166565200D02*
X248254100Y-166565200D01*
X248254100Y-166565200D02*
X248358100Y-166669200D01*
X248358100Y-166669200D02*
X264847400Y-166669200D01*
X264847400Y-166669200D02*
X267243400Y-164273200D01*
X267243400Y-164273200D02*
X268650100Y-164273200D01*
X268650100Y-164273200D02*
X269305700Y-163617600D01*
X269305700Y-163617600D02*
X269305700Y-152145900D01*
X262988000Y-170113000D02*
X273708700Y-170113000D01*
X273708700Y-170113000D02*
X274842900Y-171247200D01*
X274842900Y-171247200D02*
X286073400Y-171247200D01*
X286073400Y-171247200D02*
X286813000Y-170507600D01*
X286813000Y-170507600D02*
X286813000Y-170113000D01*
X159054000Y-170063000D02*
X159054000Y-171163300D01*
X159169100Y-171163300D02*
X159054000Y-171163300D01*
X192163200Y-170062000D02*
X191061900Y-171163300D01*
X191061900Y-171163300D02*
X159169100Y-171163300D01*
X159169100Y-171442500D02*
X159169100Y-171163300D01*
X126417500Y-95005000D02*
X110543500Y-95005000D01*
X110543500Y-95005000D02*
X109400300Y-93861800D01*
X127200000Y-93861800D02*
X127200000Y-94222500D01*
X127200000Y-94222500D02*
X126417500Y-95005000D01*
X146262000Y-93861800D02*
X146262000Y-95813500D01*
X146262000Y-95813500D02*
X145402800Y-96672700D01*
X174825000Y-112912000D02*
X174825000Y-113324800D01*
X174825000Y-113324800D02*
X174137400Y-114012400D01*
X174137400Y-114012400D02*
X164723000Y-114012400D01*
X164723000Y-114012400D02*
X163634600Y-112924000D01*
X163634600Y-112924000D02*
X157012300Y-112924000D01*
X155762000Y-112924000D02*
X155762000Y-113297900D01*
X155762000Y-113297900D02*
X155031100Y-114028800D01*
X155031100Y-114028800D02*
X152190400Y-114028800D01*
X284362000Y-151012000D02*
X289997500Y-151012000D01*
X289997500Y-151012000D02*
X292713500Y-148296000D01*
X292713500Y-148296000D02*
X292713500Y-133095000D01*
X293925000Y-132197500D02*
X293925000Y-131949000D01*
X292713500Y-133095000D02*
X293157200Y-133095000D01*
X293157200Y-133095000D02*
X293925000Y-132327200D01*
X293925000Y-132327200D02*
X293925000Y-132197500D01*
X311800300Y-146467000D02*
X311800300Y-145738300D01*
X311800300Y-145738300D02*
X298259500Y-132197500D01*
X298259500Y-132197500D02*
X293925000Y-132197500D01*
X265325000Y-150999000D02*
X266575300Y-150999000D01*
X335124900Y-172031500D02*
X336762000Y-170394400D01*
X336762000Y-170394400D02*
X336762000Y-170049000D01*
X317687000Y-170062000D02*
X323264900Y-170062000D01*
X323264900Y-170062000D02*
X323519600Y-169807300D01*
X320017500Y-142001900D02*
X330128000Y-152112400D01*
X330128000Y-152112400D02*
X336286800Y-152112400D01*
X336286800Y-152112400D02*
X337387200Y-151012000D01*
X324875000Y-131962000D02*
X324875000Y-137144400D01*
X324875000Y-137144400D02*
X320017500Y-142001900D01*
X320017500Y-142001900D02*
X316884100Y-145135300D01*
X316884100Y-145135300D02*
X314843500Y-145135300D01*
X314843500Y-145135300D02*
X313511800Y-146467000D01*
X313511800Y-146467000D02*
X311800300Y-146467000D01*
X151025000Y-151012000D02*
X152275300Y-151012000D01*
X150568600Y-160363000D02*
X150568600Y-151468400D01*
X150568600Y-151468400D02*
X151025000Y-151012000D01*
X227863200Y-151024000D02*
X226725500Y-152161700D01*
X226725500Y-152161700D02*
X220684400Y-152161700D01*
X220684400Y-152161700D02*
X220636200Y-152113500D01*
X220636200Y-152113500D02*
X210707700Y-152113500D01*
X210707700Y-152113500D02*
X210659500Y-152161700D01*
X193887000Y-112924000D02*
X193887000Y-113269500D01*
X193887000Y-113269500D02*
X193128100Y-114028400D01*
X193128100Y-114028400D02*
X177191700Y-114028400D01*
X177191700Y-114028400D02*
X176075300Y-112912000D01*
X204012200Y-93861800D02*
X202888800Y-94985200D01*
X202888800Y-94985200D02*
X186723700Y-94985200D01*
X186723700Y-94985200D02*
X185600300Y-93861800D01*
X292713500Y-133095000D02*
X277271300Y-133095000D01*
X277271300Y-133095000D02*
X276125300Y-131949000D01*
X298637000Y-93861800D02*
X299887300Y-93861800D01*
X298637000Y-93861800D02*
X298637000Y-94230300D01*
X298637000Y-94230300D02*
X297848200Y-95019100D01*
X297848200Y-95019100D02*
X282007600Y-95019100D01*
X282007600Y-95019100D02*
X280850300Y-93861800D01*
X352198500Y-98674600D02*
X352198500Y-102742500D01*
X352198500Y-102742500D02*
X357012700Y-107556700D01*
X357012700Y-107556700D02*
X357012700Y-109524000D01*
X357012700Y-109524000D02*
X357071300Y-109582600D01*
X357071300Y-109582600D02*
X357071300Y-112912000D01*
X355812000Y-93861800D02*
X355812000Y-94776000D01*
X355812000Y-94776000D02*
X352198500Y-98389500D01*
X352198500Y-98389500D02*
X352198500Y-98674600D01*
X352198500Y-98674600D02*
X338438600Y-98674600D01*
X337387200Y-151012000D02*
X338012300Y-151012000D01*
X336762000Y-151012000D02*
X337387200Y-151012000D01*
X360424200Y-148857300D02*
X360061700Y-148494900D01*
X360061700Y-148494900D02*
X359346300Y-148494900D01*
X359346300Y-148494900D02*
X357062300Y-150778900D01*
X357062300Y-150778900D02*
X357062300Y-150999000D01*
X355812000Y-170255400D02*
X360942600Y-170255400D01*
X360942600Y-170255400D02*
X361183500Y-170014500D01*
X361183500Y-170014500D02*
X361183500Y-149616700D01*
X361183500Y-149616700D02*
X360424200Y-148857300D01*
X123700300Y-131962000D02*
X124800700Y-133062400D01*
X124800700Y-133062400D02*
X140812400Y-133062400D01*
X140812400Y-133062400D02*
X141500000Y-132374800D01*
X141500000Y-132374800D02*
X141500000Y-131962000D01*
X161554000Y-161963000D02*
X160578800Y-161963000D01*
X332013000Y-112899000D02*
X334688100Y-112899000D01*
X334688100Y-112899000D02*
X338438600Y-109148500D01*
X338438600Y-109148500D02*
X338438600Y-98674600D01*
X192163200Y-170062000D02*
X192788300Y-170062000D01*
X191538000Y-170062000D02*
X192163200Y-170062000D01*
X96262500Y-170074000D02*
X97512800Y-170074000D01*
X97512800Y-170074000D02*
X97658400Y-169928400D01*
X97658400Y-169928400D02*
X112364200Y-169928400D01*
X112364200Y-169928400D02*
X112849600Y-170413800D01*
X96262500Y-170074000D02*
X96262500Y-170462000D01*
X96262500Y-170462000D02*
X95527100Y-171197400D01*
X95527100Y-171197400D02*
X74811000Y-171197400D01*
X74811000Y-171197400D02*
X73687600Y-170074000D01*
X120075000Y-170087000D02*
X121325300Y-170087000D01*
X121325300Y-170087000D02*
X121556100Y-170317800D01*
X121556100Y-170317800D02*
X121581200Y-170317800D01*
X355821000Y-112912000D02*
X357071300Y-112912000D01*
X79999600Y-134002800D02*
X78325000Y-132328200D01*
X78325000Y-132328200D02*
X78325000Y-131974000D01*
X108150000Y-93861800D02*
X109400300Y-93861800D01*
X161554000Y-161963000D02*
X162654300Y-161963000D01*
X170588100Y-151024000D02*
X171338300Y-151024000D01*
X170088000Y-151024000D02*
X170588100Y-151024000D01*
X208188000Y-151024000D02*
X209438300Y-151024000D01*
X210659500Y-152161700D02*
X210576000Y-152161700D01*
X210576000Y-152161700D02*
X209438300Y-151024000D01*
X210659500Y-152161700D02*
X210659500Y-157142000D01*
X227863200Y-151024000D02*
X228488300Y-151024000D01*
X227238000Y-151024000D02*
X227863200Y-151024000D01*
X311800300Y-151012000D02*
X311800300Y-146467000D01*
X165925200Y-93861800D02*
X164820400Y-94966600D01*
X164820400Y-94966600D02*
X148617100Y-94966600D01*
X148617100Y-94966600D02*
X147512300Y-93861800D01*
X155762000Y-112924000D02*
X157012300Y-112924000D01*
X338438600Y-98674600D02*
X333275100Y-98674600D01*
X333275100Y-98674600D02*
X328462300Y-93861800D01*
X355812000Y-150999000D02*
X357062300Y-150999000D01*
X355812000Y-150999000D02*
X355812000Y-151411600D01*
X355812000Y-151411600D02*
X355073300Y-152150300D01*
X355073300Y-152150300D02*
X339150600Y-152150300D01*
X339150600Y-152150300D02*
X338012300Y-151012000D01*
X355812000Y-170255400D02*
X355812000Y-170461900D01*
X355812000Y-170461900D02*
X355102200Y-171171700D01*
X355102200Y-171171700D02*
X339135000Y-171171700D01*
X339135000Y-171171700D02*
X338012300Y-170049000D01*
X355812000Y-170049000D02*
X355812000Y-170255400D01*
X150154000Y-168363000D02*
X151254300Y-168363000D01*
X201893900Y-169334600D02*
X200769500Y-170459000D01*
X207683500Y-170485000D02*
X206533100Y-169334600D01*
X206533100Y-169334600D02*
X201893900Y-169334600D01*
X310550000Y-151012000D02*
X311800300Y-151012000D01*
X77199800Y-131974000D02*
X78325000Y-131974000D01*
X327212000Y-93861800D02*
X328462300Y-93861800D01*
X189150000Y-151037000D02*
X189150000Y-151406100D01*
X189150000Y-151406100D02*
X188357500Y-152198600D01*
X188357500Y-152198600D02*
X172512900Y-152198600D01*
X172512900Y-152198600D02*
X171338300Y-151024000D01*
X212937000Y-112912000D02*
X212937000Y-113257900D01*
X212937000Y-113257900D02*
X212177300Y-114017600D01*
X212177300Y-114017600D02*
X196230900Y-114017600D01*
X196230900Y-114017600D02*
X195137300Y-112924000D01*
X231987000Y-112912000D02*
X231987000Y-113257500D01*
X231987000Y-113257500D02*
X231228200Y-114016300D01*
X231228200Y-114016300D02*
X215291600Y-114016300D01*
X215291600Y-114016300D02*
X214187300Y-112912000D01*
X255825000Y-131949000D02*
X255825000Y-132352800D01*
X255825000Y-132352800D02*
X255093400Y-133084400D01*
X255093400Y-133084400D02*
X239840600Y-133084400D01*
X239840600Y-133084400D02*
X238718200Y-131962000D01*
X238718200Y-131962000D02*
X238025300Y-131962000D01*
X270100000Y-112899000D02*
X270100000Y-113245900D01*
X270100000Y-113245900D02*
X269338100Y-114007800D01*
X269338100Y-114007800D02*
X253894600Y-114007800D01*
X253894600Y-114007800D02*
X252810800Y-112924000D01*
X252810800Y-112924000D02*
X252287300Y-112924000D01*
X308200000Y-112899000D02*
X308200000Y-113339000D01*
X308200000Y-113339000D02*
X307477000Y-114062000D01*
X307477000Y-114062000D02*
X291563300Y-114062000D01*
X291563300Y-114062000D02*
X290400300Y-112899000D01*
X150154000Y-160363000D02*
X150568600Y-160363000D01*
X150154000Y-160363000D02*
X149053700Y-160363000D01*
X200769500Y-170459000D02*
X193185300Y-170459000D01*
X193185300Y-170459000D02*
X192788300Y-170062000D01*
X72437300Y-170074000D02*
X73687600Y-170074000D01*
X81962300Y-151012000D02*
X83212600Y-151012000D01*
X70049700Y-93874500D02*
X71300000Y-93874500D01*
X160575000Y-131962000D02*
X161825300Y-131962000D01*
X146262000Y-93861800D02*
X147512300Y-93861800D01*
X165925200Y-93861800D02*
X166550300Y-93861800D01*
X165300000Y-93861800D02*
X165925200Y-93861800D01*
X174825000Y-112912000D02*
X176075300Y-112912000D01*
X179638000Y-131974000D02*
X180888300Y-131974000D01*
X184975200Y-93861800D02*
X183872500Y-94964500D01*
X183872500Y-94964500D02*
X167653000Y-94964500D01*
X167653000Y-94964500D02*
X166550300Y-93861800D01*
X184975200Y-93861800D02*
X185600300Y-93861800D01*
X184350000Y-93861800D02*
X184975200Y-93861800D01*
X193887000Y-112924000D02*
X195137300Y-112924000D01*
X198688000Y-131962000D02*
X199938300Y-131962000D01*
X204012200Y-93861800D02*
X204637300Y-93861800D01*
X203387000Y-93861800D02*
X204012200Y-93861800D01*
X212937000Y-112912000D02*
X214187300Y-112912000D01*
X217751000Y-131974000D02*
X219001300Y-131974000D01*
X223062200Y-93861800D02*
X221944100Y-94979900D01*
X221944100Y-94979900D02*
X205755400Y-94979900D01*
X205755400Y-94979900D02*
X204637300Y-93861800D01*
X223062200Y-93861800D02*
X223687300Y-93861800D01*
X222437000Y-93861800D02*
X223062200Y-93861800D01*
X231987000Y-112912000D02*
X233237300Y-112912000D01*
X233237300Y-112912000D02*
X234349700Y-114024400D01*
X234349700Y-114024400D02*
X250349400Y-114024400D01*
X250349400Y-114024400D02*
X251037000Y-113336800D01*
X251037000Y-113336800D02*
X251037000Y-112924000D01*
X236775000Y-131962000D02*
X238025300Y-131962000D01*
X242125200Y-93861800D02*
X241022500Y-94964500D01*
X241022500Y-94964500D02*
X224790000Y-94964500D01*
X224790000Y-94964500D02*
X223687300Y-93861800D01*
X242125200Y-93861800D02*
X242750300Y-93861800D01*
X241500000Y-93861800D02*
X242125200Y-93861800D01*
X251037000Y-112924000D02*
X252287300Y-112924000D01*
X255825000Y-131949000D02*
X257075300Y-131949000D01*
X257075300Y-131949000D02*
X258210700Y-133084400D01*
X258210700Y-133084400D02*
X274143400Y-133084400D01*
X274143400Y-133084400D02*
X274875000Y-132352800D01*
X274875000Y-132352800D02*
X274875000Y-131949000D01*
X261175200Y-93861800D02*
X260003900Y-95033100D01*
X260003900Y-95033100D02*
X243921600Y-95033100D01*
X243921600Y-95033100D02*
X242750300Y-93861800D01*
X261175200Y-93861800D02*
X261800300Y-93861800D01*
X260550000Y-93861800D02*
X261175200Y-93861800D01*
X270100000Y-112899000D02*
X271350300Y-112899000D01*
X271350300Y-112899000D02*
X272457900Y-114006600D01*
X272457900Y-114006600D02*
X288388900Y-114006600D01*
X288388900Y-114006600D02*
X289150000Y-113245500D01*
X289150000Y-113245500D02*
X289150000Y-112899000D01*
X274875000Y-131949000D02*
X276125300Y-131949000D01*
X279600000Y-93861800D02*
X279600000Y-94226200D01*
X279600000Y-94226200D02*
X278810900Y-95015300D01*
X278810900Y-95015300D02*
X262953800Y-95015300D01*
X262953800Y-95015300D02*
X261800300Y-93861800D01*
X280225200Y-93861800D02*
X279600000Y-93861800D01*
X280225200Y-93861800D02*
X280850300Y-93861800D01*
X289150000Y-112899000D02*
X290400300Y-112899000D01*
X336762000Y-170049000D02*
X338012300Y-170049000D01*
X218529000Y-170414000D02*
X216720500Y-168605500D01*
X216720500Y-168605500D02*
X216720500Y-166535000D01*
D20*
X130720900Y-92957500D02*
X130698400Y-92980000D01*
X130698400Y-92980000D02*
X130698400Y-94710300D01*
X130698400Y-94710300D02*
X130823300Y-94835200D01*
X130823300Y-94835200D02*
X132701700Y-94835200D01*
X132701700Y-94835200D02*
X132898700Y-95032200D01*
X132898700Y-95032200D02*
X132898700Y-102573600D01*
X132898700Y-102573600D02*
X136462400Y-106137300D01*
X136462400Y-106137300D02*
X136462400Y-108085300D01*
X136462400Y-108085300D02*
X134757300Y-109790400D01*
X134757300Y-109790400D02*
X131669300Y-109790400D01*
X131669300Y-109790400D02*
X131209300Y-110250400D01*
X131821200Y-92957500D02*
X130720900Y-92957500D01*
X152654000Y-158663000D02*
X152654000Y-155800900D01*
X152654000Y-155800900D02*
X154993000Y-153461900D01*
X154993000Y-153461900D02*
X156148200Y-153461900D01*
X156148200Y-153461900D02*
X160528400Y-149081700D01*
X160528400Y-149081700D02*
X160528400Y-145341700D01*
X160528400Y-145341700D02*
X161678400Y-144191700D01*
X161678400Y-144191700D02*
X161678400Y-136458700D01*
X161678400Y-136458700D02*
X164760700Y-133376400D01*
X152654000Y-159144300D02*
X152654000Y-158663000D01*
X152654000Y-159144300D02*
X152654000Y-159625700D01*
X152946500Y-159738300D02*
X156654000Y-159738300D01*
X152654000Y-159625700D02*
X152766600Y-159738300D01*
X152766600Y-159738300D02*
X152946500Y-159738300D01*
X152946500Y-159738300D02*
X152946500Y-164238300D01*
X202854500Y-166261000D02*
X202854500Y-165469700D01*
X202854500Y-165469700D02*
X203418500Y-164905700D01*
X156654000Y-158663000D02*
X156654000Y-159738300D01*
X220099500Y-167591000D02*
X218183600Y-167591000D01*
X218183600Y-167591000D02*
X217778700Y-167186100D01*
X217778700Y-167186100D02*
X217778700Y-163402200D01*
X217778700Y-163402200D02*
X216695500Y-162319000D01*
X223418000Y-170409000D02*
X220600000Y-167591000D01*
X220600000Y-167591000D02*
X220099500Y-167591000D01*
X220099500Y-167591000D02*
X220099500Y-165825600D01*
X216695500Y-166510000D02*
X216720500Y-166535000D01*
X216695500Y-162319000D02*
X216695500Y-166510000D01*
%TO.N,Net-(C9-Pad2)*%
X149078700Y-161963000D02*
X149078700Y-161451200D01*
X149078700Y-161451200D02*
X148475400Y-160847900D01*
X150154000Y-161963000D02*
X149078700Y-161963000D01*
X215425500Y-157155000D02*
X214822400Y-157155000D01*
X214822400Y-157155000D02*
X214078200Y-156410800D01*
%TO.N,Net-(C10-Pad1)*%
X155854000Y-158663000D02*
X155854000Y-157311800D01*
X155854000Y-157311800D02*
X156741900Y-156423900D01*
X207657500Y-157167000D02*
X206591000Y-158233500D01*
X206591000Y-158233500D02*
X204969800Y-158233500D01*
X204969800Y-158233500D02*
X204215000Y-157478700D01*
%TO.N,Net-(R4-Pad1)*%
X154254000Y-158663000D02*
X154254000Y-157544000D01*
X154254000Y-157544000D02*
X154579300Y-157218700D01*
X154579300Y-157218700D02*
X154579300Y-156789200D01*
X154579300Y-156789200D02*
X158106700Y-153261800D01*
X158106700Y-153261800D02*
X158421300Y-153261800D01*
X205436300Y-152813300D02*
X208571400Y-155948400D01*
X208571400Y-155948400D02*
X208571400Y-157893200D01*
X208571400Y-157893200D02*
X206960300Y-159504300D01*
X206960300Y-159504300D02*
X204636600Y-159504300D01*
X204636600Y-159504300D02*
X202798000Y-161342900D01*
X202798000Y-161342900D02*
X202798000Y-161757000D01*
%TO.N,Net-(R5-Pad1)*%
X153454000Y-157587700D02*
X153128700Y-157262400D01*
X153128700Y-157262400D02*
X153128700Y-156375100D01*
X153128700Y-156375100D02*
X154762900Y-154740900D01*
X220212000Y-157188000D02*
X217466200Y-154442200D01*
X153454000Y-158663000D02*
X153454000Y-157587700D01*
%TO.N,/RESET*%
X162629300Y-161163000D02*
X162629300Y-159774300D01*
X162629300Y-159774300D02*
X166133000Y-156270600D01*
X161554000Y-161163000D02*
X162629300Y-161163000D01*
X216529000Y-170414000D02*
X215806600Y-169691600D01*
X215806600Y-169691600D02*
X215806600Y-166074400D01*
X215806600Y-166074400D02*
X210462200Y-160730000D01*
%TO.N,Net-(U1-Pad5)*%
X83899700Y-93861800D02*
X82674400Y-93861800D01*
X82674400Y-93861800D02*
X81187100Y-92374500D01*
X81187100Y-92374500D02*
X70049700Y-92374500D01*
%TO.N,RGB_DIN*%
X133901100Y-157337100D02*
X139698100Y-163134100D01*
X139698100Y-163134100D02*
X146898200Y-163134100D01*
X146898200Y-163134100D02*
X147269300Y-162763000D01*
X147269300Y-162763000D02*
X150154000Y-162763000D01*
X64849700Y-97645700D02*
X64849700Y-93874500D01*
X60860500Y-100145600D02*
X60860500Y-148086600D01*
X60860500Y-148086600D02*
X63910800Y-151136900D01*
%TO.N,COL0*%
X62427300Y-161734000D02*
X62427300Y-167105300D01*
X62427300Y-167105300D02*
X66999600Y-171677600D01*
X66999600Y-171677600D02*
X97814300Y-171677600D01*
X97814300Y-171677600D02*
X99056600Y-170435300D01*
X99056600Y-170435300D02*
X111845400Y-170435300D01*
X111845400Y-170435300D02*
X112577400Y-171167300D01*
X112577400Y-171167300D02*
X135886700Y-171167300D01*
X135886700Y-171167300D02*
X140716700Y-166337300D01*
X140716700Y-166337300D02*
X141353600Y-166337300D01*
X141353600Y-166337300D02*
X142346700Y-165344200D01*
X142346700Y-165344200D02*
X148459900Y-165344200D01*
X148459900Y-165344200D02*
X149078700Y-165963000D01*
X64802200Y-104584000D02*
X64802200Y-103008700D01*
X64802200Y-103008700D02*
X60039700Y-98246200D01*
X60039700Y-98246200D02*
X60039700Y-85534500D01*
X67189800Y-122058700D02*
X64802200Y-119671100D01*
X64802200Y-119671100D02*
X64802200Y-104584000D01*
X150154000Y-165963000D02*
X149078700Y-165963000D01*
X71952300Y-144247300D02*
X62427300Y-153772300D01*
X62427300Y-153772300D02*
X62427300Y-161734000D01*
X71952300Y-142672000D02*
X71952300Y-144247300D01*
X71952300Y-142672000D02*
X71952300Y-135279300D01*
X71952300Y-135279300D02*
X67189800Y-130516800D01*
X67189800Y-130516800D02*
X67189800Y-123634000D01*
X67189800Y-123634000D02*
X67189800Y-122058700D01*
%TO.N,Net-(U2-Pad5)*%
X92212100Y-112912000D02*
X92212100Y-110809100D01*
X92212100Y-110809100D02*
X92666700Y-110354500D01*
X93437400Y-112912000D02*
X92212100Y-112912000D01*
X76037500Y-111424000D02*
X76892700Y-110568800D01*
X74812200Y-111424000D02*
X76037500Y-111424000D01*
%TO.N,Net-(U2-Pad4)*%
X355812000Y-92361800D02*
X357037300Y-92361800D01*
X357037300Y-92361800D02*
X357037300Y-95961000D01*
X357037300Y-95961000D02*
X353852300Y-99146000D01*
X69612200Y-112924000D02*
X69612200Y-113264100D01*
X69612200Y-113264100D02*
X70351500Y-114003400D01*
X70351500Y-114003400D02*
X74431900Y-114003400D01*
%TO.N,Net-(U3-Pad5)*%
X77199800Y-130474000D02*
X78811300Y-130474000D01*
X78811300Y-130474000D02*
X81569300Y-133232000D01*
X98200000Y-131974000D02*
X97696500Y-132477500D01*
X97696500Y-132477500D02*
X97696500Y-133232000D01*
%TO.N,Net-(U3-Pad4)*%
X71999800Y-131974000D02*
X71999800Y-133123200D01*
X71999800Y-133123200D02*
X73008000Y-134131400D01*
X355821000Y-111412000D02*
X355821000Y-111027500D01*
X355821000Y-111027500D02*
X355064700Y-110271200D01*
X355064700Y-110271200D02*
X349776200Y-110271200D01*
X349776200Y-110271200D02*
X346548600Y-113498800D01*
X346548600Y-113498800D02*
X346548600Y-121416200D01*
%TO.N,Net-(U13-Pad4)*%
X81962300Y-149512000D02*
X83187600Y-149512000D01*
X107738000Y-150999000D02*
X106512700Y-150999000D01*
X82962500Y-148328100D02*
X83187600Y-148553200D01*
X83187600Y-148553200D02*
X83187600Y-149512000D01*
X106512700Y-150999000D02*
X106512700Y-150864500D01*
X106512700Y-150864500D02*
X105838500Y-150190300D01*
%TO.N,Net-(U4-Pad4)*%
X355800000Y-130436000D02*
X357025300Y-130436000D01*
X75537000Y-151012000D02*
X75251300Y-150726300D01*
X75251300Y-150726300D02*
X75251300Y-150683500D01*
X76762300Y-151012000D02*
X75537000Y-151012000D01*
X357025300Y-130436000D02*
X357025300Y-131208700D01*
X357025300Y-131208700D02*
X357858600Y-132042000D01*
%TO.N,Net-(U5-Pad5)*%
X72437300Y-168574000D02*
X73662600Y-168574000D01*
X73662600Y-168574000D02*
X75162600Y-170074000D01*
X75162600Y-170074000D02*
X91062500Y-170074000D01*
%TO.N,Net-(U5-Pad4)*%
X73070200Y-151218300D02*
X64185300Y-160103200D01*
X64185300Y-160103200D02*
X64185300Y-163027200D01*
X64185300Y-163027200D02*
X63531500Y-163681000D01*
X63531500Y-163681000D02*
X63531500Y-166747700D01*
X63531500Y-166747700D02*
X66857800Y-170074000D01*
X66857800Y-170074000D02*
X67237300Y-170074000D01*
X355812000Y-149499000D02*
X357280700Y-149499000D01*
X357280700Y-149499000D02*
X357340600Y-149439100D01*
%TO.N,Net-(U10-Pad4)*%
X90325000Y-92361800D02*
X90325000Y-94696100D01*
X90325000Y-94696100D02*
X90079200Y-94941900D01*
X89099700Y-92361800D02*
X90325000Y-92361800D01*
X102950000Y-93861800D02*
X102950000Y-94150000D01*
X102950000Y-94150000D02*
X102158100Y-94941900D01*
%TO.N,COL1*%
X93390000Y-124421600D02*
X88627400Y-119659000D01*
X88627400Y-119659000D02*
X88627400Y-104572000D01*
X93390000Y-124421600D02*
X93390000Y-125209300D01*
X93390000Y-123634000D02*
X93390000Y-124421600D01*
X102153700Y-156456100D02*
X103523500Y-155086300D01*
X103523500Y-155086300D02*
X103523500Y-151439300D01*
X103523500Y-151439300D02*
X94048300Y-141964100D01*
X94048300Y-141964100D02*
X94048300Y-125867600D01*
X94048300Y-125867600D02*
X93390000Y-125209300D01*
X88627400Y-104572000D02*
X88627400Y-100268000D01*
X88627400Y-100268000D02*
X91281600Y-97613800D01*
X91281600Y-97613800D02*
X91281600Y-92031000D01*
X91281600Y-92031000D02*
X89637700Y-90387100D01*
X89637700Y-90387100D02*
X83071900Y-90387100D01*
X83071900Y-90387100D02*
X82621600Y-89936800D01*
X82621600Y-89936800D02*
X81562700Y-89936800D01*
X81562700Y-89936800D02*
X79089700Y-87463800D01*
X79089700Y-87463800D02*
X79089700Y-85521800D01*
X157454000Y-158663000D02*
X157454000Y-159738300D01*
X157454000Y-159738300D02*
X157371100Y-159738300D01*
X157371100Y-159738300D02*
X155302200Y-161807200D01*
X91235600Y-156550600D02*
X87627500Y-160158700D01*
X87627500Y-160158700D02*
X86252500Y-160158700D01*
X86252500Y-161734000D02*
X86252500Y-160158700D01*
%TO.N,Net-(U11-Pad4)*%
X98637400Y-111412000D02*
X99862700Y-111412000D01*
X112487000Y-112912000D02*
X101362700Y-112912000D01*
X101362700Y-112912000D02*
X99862700Y-111412000D01*
%TO.N,Net-(U12-Pad4)*%
X117250000Y-131962000D02*
X107215200Y-131962000D01*
X107215200Y-131962000D02*
X105727200Y-130474000D01*
X105727200Y-130474000D02*
X103400000Y-130474000D01*
%TO.N,Net-(U14-Pad4)*%
X114875000Y-170087000D02*
X113649700Y-170087000D01*
X96262500Y-168574000D02*
X112136700Y-168574000D01*
X112136700Y-168574000D02*
X113649700Y-170087000D01*
%TO.N,Net-(U10-Pad5)*%
X122000000Y-93861800D02*
X115900400Y-93861800D01*
X115900400Y-93861800D02*
X114400400Y-92361800D01*
X114400400Y-92361800D02*
X108150000Y-92361800D01*
%TO.N,COL2*%
X109953100Y-157354700D02*
X108464700Y-158843100D01*
X108464700Y-158843100D02*
X108464700Y-161747000D01*
X110065000Y-161747000D02*
X108464700Y-161747000D01*
X109953100Y-157354700D02*
X109953100Y-157119300D01*
X109953100Y-157119300D02*
X102928000Y-150094200D01*
X102928000Y-150094200D02*
X102928000Y-144234300D01*
X149078700Y-163563000D02*
X149057300Y-163584400D01*
X149057300Y-163584400D02*
X139945400Y-163584400D01*
X139945400Y-163584400D02*
X139321600Y-164208200D01*
X139321600Y-164208200D02*
X138720700Y-164208200D01*
X138720700Y-164208200D02*
X131867200Y-157354700D01*
X131867200Y-157354700D02*
X109953100Y-157354700D01*
X96924200Y-128529700D02*
X96326900Y-128529700D01*
X96326900Y-128529700D02*
X94498700Y-126701500D01*
X94498700Y-126701500D02*
X94498700Y-125633400D01*
X94498700Y-125633400D02*
X94990400Y-125141700D01*
X94990400Y-125141700D02*
X94990400Y-116646900D01*
X94990400Y-116646900D02*
X89717800Y-111374300D01*
X89717800Y-111374300D02*
X89717800Y-106589700D01*
X89717800Y-106589700D02*
X90227800Y-106079700D01*
X90227800Y-106079700D02*
X90227800Y-102826200D01*
X90227800Y-102826200D02*
X98140000Y-94914000D01*
X98140000Y-94914000D02*
X98140000Y-85521800D01*
X107677000Y-102996700D02*
X99594300Y-94914000D01*
X99594300Y-94914000D02*
X98140000Y-94914000D01*
X112440000Y-125197300D02*
X111548300Y-126089000D01*
X111548300Y-126089000D02*
X108601200Y-126089000D01*
X108601200Y-126089000D02*
X106160500Y-128529700D01*
X106160500Y-128529700D02*
X96924200Y-128529700D01*
X96924200Y-128529700D02*
X96924200Y-135079900D01*
X96924200Y-135079900D02*
X102928000Y-141083700D01*
X150154000Y-163563000D02*
X149078700Y-163563000D01*
X102928000Y-142659000D02*
X102928000Y-144234300D01*
X102928000Y-142659000D02*
X102928000Y-141083700D01*
X112440000Y-123622000D02*
X112440000Y-125197300D01*
X107677000Y-104572000D02*
X107677000Y-102996700D01*
%TO.N,Net-(U11-Pad5)*%
X117687000Y-111412000D02*
X118912300Y-111412000D01*
X131512000Y-112912000D02*
X120412300Y-112912000D01*
X120412300Y-112912000D02*
X118912300Y-111412000D01*
%TO.N,Net-(U12-Pad5)*%
X136300000Y-131962000D02*
X130200400Y-131962000D01*
X130200400Y-131962000D02*
X128700400Y-130462000D01*
X128700400Y-130462000D02*
X122450000Y-130462000D01*
%TO.N,Net-(U13-Pad5)*%
X112938000Y-149499000D02*
X114163300Y-149499000D01*
X114163300Y-149499000D02*
X115663300Y-150999000D01*
X115663300Y-150999000D02*
X126788000Y-150999000D01*
%TO.N,Net-(U14-Pad5)*%
X121300300Y-168587000D02*
X121710900Y-168176400D01*
X121710900Y-168176400D02*
X121816600Y-168176400D01*
X186338000Y-170062000D02*
X175396100Y-170062000D01*
X175396100Y-170062000D02*
X174047400Y-168713300D01*
X120075000Y-168587000D02*
X121300300Y-168587000D01*
%TO.N,Net-(U17-Pad5)*%
X127200000Y-92361800D02*
X128425300Y-92361800D01*
X141062000Y-93861800D02*
X139836700Y-93861800D01*
X139836700Y-93861800D02*
X137381600Y-91406700D01*
X137381600Y-91406700D02*
X137381600Y-87500300D01*
X137381600Y-87500300D02*
X137852400Y-87029500D01*
X137852400Y-87029500D02*
X137852400Y-84136000D01*
X137852400Y-84136000D02*
X137662800Y-83946400D01*
X137662800Y-83946400D02*
X134820200Y-83946400D01*
X134820200Y-83946400D02*
X133204600Y-85562000D01*
X133204600Y-85562000D02*
X133204600Y-87582500D01*
X133204600Y-87582500D02*
X128425300Y-92361800D01*
%TO.N,COL3*%
X126702000Y-104572000D02*
X126702000Y-102996700D01*
X126702000Y-102996700D02*
X124303800Y-100598500D01*
X124303800Y-100598500D02*
X124303800Y-95838800D01*
X123868300Y-109792800D02*
X126702000Y-106959100D01*
X126702000Y-106959100D02*
X126702000Y-104572000D01*
X120260100Y-91273000D02*
X117190000Y-88202900D01*
X117190000Y-88202900D02*
X117190000Y-85521800D01*
X136987100Y-151350400D02*
X138933400Y-153296700D01*
X138933400Y-153296700D02*
X139507900Y-153296700D01*
X139507900Y-153296700D02*
X144488600Y-158277400D01*
X144488600Y-158277400D02*
X144488600Y-162407000D01*
X145416400Y-166561300D02*
X149993400Y-171138300D01*
X149993400Y-171138300D02*
X152654000Y-171138300D01*
X132338600Y-121796500D02*
X137823200Y-121796500D01*
X137823200Y-121796500D02*
X140592600Y-124565900D01*
X140592600Y-124565900D02*
X145145800Y-124565900D01*
X145145800Y-124565900D02*
X146253500Y-125673600D01*
X146253500Y-125673600D02*
X146629900Y-125673600D01*
X146629900Y-125673600D02*
X147826100Y-126869800D01*
X147826100Y-126869800D02*
X147826100Y-128260000D01*
X147826100Y-128260000D02*
X141186800Y-134899300D01*
X141186800Y-134899300D02*
X140822800Y-134899300D01*
X140822800Y-134899300D02*
X138431600Y-137290500D01*
X138431600Y-137290500D02*
X138431600Y-138242000D01*
X131490000Y-122046700D02*
X131740200Y-121796500D01*
X131740200Y-121796500D02*
X132338600Y-121796500D01*
X132338600Y-121796500D02*
X132338600Y-116339700D01*
X138431600Y-138242000D02*
X124819700Y-138242000D01*
X124819700Y-138242000D02*
X121978000Y-141083700D01*
X138431600Y-138242000D02*
X138431600Y-147165800D01*
X138431600Y-147165800D02*
X138886500Y-147620700D01*
X152654000Y-170063000D02*
X152654000Y-171138300D01*
X121978000Y-142659000D02*
X121978000Y-141083700D01*
X131490000Y-123622000D02*
X131490000Y-122046700D01*
%TO.N,Net-(U18-Pad5)*%
X136712000Y-111412000D02*
X144577000Y-111412000D01*
X144577000Y-111412000D02*
X146089000Y-112924000D01*
X146089000Y-112924000D02*
X150562000Y-112924000D01*
%TO.N,Net-(D16-Pad2)*%
X140127000Y-102032000D02*
X140127000Y-103607300D01*
X142126000Y-105623000D02*
X142126000Y-104747700D01*
X142126000Y-104747700D02*
X140985600Y-103607300D01*
X140985600Y-103607300D02*
X140127000Y-103607300D01*
%TO.N,Net-(U19-Pad5)*%
X142725300Y-130462000D02*
X142725300Y-130556200D01*
X142725300Y-130556200D02*
X143594100Y-131425000D01*
X141500000Y-130462000D02*
X142725300Y-130462000D01*
X155375000Y-131962000D02*
X155375000Y-132365400D01*
X155375000Y-132365400D02*
X156133300Y-133123700D01*
X156133300Y-133123700D02*
X160469000Y-133123700D01*
X160469000Y-133123700D02*
X160469000Y-133123800D01*
%TO.N,Net-(D17-Pad2)*%
X144915000Y-121082000D02*
X144915000Y-122657300D01*
X146914000Y-124774000D02*
X146914000Y-123898700D01*
X146914000Y-123898700D02*
X145672600Y-122657300D01*
X145672600Y-122657300D02*
X144915000Y-122657300D01*
%TO.N,Net-(U20-Pad5)*%
X144599700Y-151012000D02*
X144154000Y-150566300D01*
X144154000Y-150566300D02*
X139297600Y-150566300D01*
X139297600Y-150566300D02*
X138230300Y-149499000D01*
X138230300Y-149499000D02*
X131988000Y-149499000D01*
X145825000Y-151012000D02*
X144599700Y-151012000D01*
%TO.N,Net-(U23-Pad5)*%
X160100000Y-93861800D02*
X151652000Y-93861800D01*
X151652000Y-93861800D02*
X150152000Y-92361800D01*
X150152000Y-92361800D02*
X146262000Y-92361800D01*
%TO.N,COL4*%
X143273600Y-166561300D02*
X148314900Y-171602600D01*
X148314900Y-171602600D02*
X152989700Y-171602600D01*
X152989700Y-171602600D02*
X153454000Y-171138300D01*
X145752000Y-104584000D02*
X145752000Y-103008700D01*
X145752000Y-103008700D02*
X136252000Y-93508700D01*
X136252000Y-93508700D02*
X136252000Y-85521800D01*
X147839000Y-108724500D02*
X145752000Y-106637500D01*
X145752000Y-106637500D02*
X145752000Y-104584000D01*
X150565000Y-123622000D02*
X150565000Y-131482200D01*
X150565000Y-131482200D02*
X150564900Y-131482200D01*
X150564900Y-131482200D02*
X141015000Y-141032100D01*
X141015000Y-141032100D02*
X141015000Y-141096700D01*
X139021100Y-163482900D02*
X133121400Y-157583200D01*
X133121400Y-157583200D02*
X133121400Y-153207900D01*
X133121400Y-153207900D02*
X134954600Y-151374700D01*
X141015000Y-145877600D02*
X141015000Y-142672000D01*
X153454000Y-170063000D02*
X153454000Y-171138300D01*
X141015000Y-141884300D02*
X141015000Y-142672000D01*
X150565000Y-123622000D02*
X150565000Y-119506100D01*
X150565000Y-119506100D02*
X145884200Y-114825300D01*
X141015000Y-141884300D02*
X141015000Y-141096700D01*
%TO.N,Net-(U24-Pad5)*%
X169625000Y-112912000D02*
X168399700Y-112912000D01*
X168399700Y-112912000D02*
X166911700Y-111424000D01*
X166911700Y-111424000D02*
X155762000Y-111424000D01*
%TO.N,Net-(U25-Pad5)*%
X174438000Y-131974000D02*
X165040000Y-131974000D01*
X165040000Y-131974000D02*
X163528000Y-130462000D01*
X163528000Y-130462000D02*
X160575000Y-130462000D01*
%TO.N,Net-(U26-Pad5)*%
X152250300Y-149512000D02*
X152365400Y-149396900D01*
X152365400Y-149396900D02*
X152938500Y-149396900D01*
X163662700Y-151024000D02*
X163286600Y-151024000D01*
X163286600Y-151024000D02*
X162748600Y-150486000D01*
X151025000Y-149512000D02*
X152250300Y-149512000D01*
X164888000Y-151024000D02*
X163662700Y-151024000D01*
%TO.N,Net-(U27-Pad5)*%
X179150000Y-93861800D02*
X173050400Y-93861800D01*
X173050400Y-93861800D02*
X171550400Y-92361800D01*
X171550400Y-92361800D02*
X165300000Y-92361800D01*
%TO.N,COL5*%
X154254000Y-171138300D02*
X153311600Y-172080700D01*
X153311600Y-172080700D02*
X147767300Y-172080700D01*
X147767300Y-172080700D02*
X142546900Y-166860300D01*
X142546900Y-166860300D02*
X142546900Y-166220200D01*
X142546900Y-166220200D02*
X142931200Y-165835900D01*
X142931200Y-165835900D02*
X146147900Y-165835900D01*
X146147900Y-165835900D02*
X146388600Y-166076600D01*
X145531300Y-162408800D02*
X145531300Y-157198900D01*
X145531300Y-157198900D02*
X140124300Y-151791900D01*
X154254000Y-170063000D02*
X154254000Y-171138300D01*
X160078000Y-142684000D02*
X160078000Y-144259300D01*
X159379400Y-147596400D02*
X159379400Y-144957900D01*
X159379400Y-144957900D02*
X160078000Y-144259300D01*
X169628000Y-123634000D02*
X169628000Y-125209300D01*
X163178200Y-128902400D02*
X163178200Y-128713000D01*
X163178200Y-128713000D02*
X165217600Y-126673600D01*
X165217600Y-126673600D02*
X168163700Y-126673600D01*
X168163700Y-126673600D02*
X169628000Y-125209300D01*
X160078000Y-142684000D02*
X160078000Y-136426500D01*
X160078000Y-136426500D02*
X163210900Y-133293600D01*
X169628000Y-123634000D02*
X169628000Y-122058700D01*
X164815000Y-104572000D02*
X164815000Y-107557800D01*
X164815000Y-107557800D02*
X165979300Y-108722100D01*
X169628000Y-122058700D02*
X163555800Y-115986500D01*
X163555800Y-115986500D02*
X163555800Y-113906300D01*
X164815000Y-102996700D02*
X159195700Y-97377400D01*
X159195700Y-97377400D02*
X159195700Y-95739300D01*
X164815000Y-104572000D02*
X164815000Y-102996700D01*
X153667300Y-89704200D02*
X155290000Y-88081500D01*
X155290000Y-88081500D02*
X155290000Y-85521800D01*
%TO.N,Net-(U28-Pad5)*%
X188687000Y-112924000D02*
X180525900Y-112924000D01*
X180525900Y-112924000D02*
X179013900Y-111412000D01*
X179013900Y-111412000D02*
X174825000Y-111412000D01*
%TO.N,Net-(U29-Pad5)*%
X193488000Y-131962000D02*
X185308900Y-131962000D01*
X185308900Y-131962000D02*
X183820900Y-130474000D01*
X183820900Y-130474000D02*
X179638000Y-130474000D01*
%TO.N,Net-(U30-Pad5)*%
X183950000Y-151037000D02*
X177855800Y-151037000D01*
X177855800Y-151037000D02*
X176342800Y-149524000D01*
X176342800Y-149524000D02*
X170088000Y-149524000D01*
%TO.N,Net-(U31-Pad5)*%
X198187000Y-93861800D02*
X196961700Y-93861800D01*
X184350000Y-92361800D02*
X190593900Y-92361800D01*
X190593900Y-92361800D02*
X192452700Y-94220600D01*
X192452700Y-94220600D02*
X196602900Y-94220600D01*
X196602900Y-94220600D02*
X196961700Y-93861800D01*
%TO.N,COL6*%
X184330800Y-116964200D02*
X181050500Y-116964200D01*
X181050500Y-116964200D02*
X176448000Y-121566700D01*
X176448000Y-121566700D02*
X176448000Y-123434600D01*
X176448000Y-123434600D02*
X174667200Y-125215400D01*
X174667200Y-125215400D02*
X174667200Y-127680400D01*
X174667200Y-127680400D02*
X174795500Y-127808700D01*
X176226700Y-141275300D02*
X176226700Y-137567000D01*
X176226700Y-137567000D02*
X180764700Y-133029000D01*
X179140000Y-142697000D02*
X179140000Y-144684500D01*
X179140000Y-144684500D02*
X182018900Y-147563400D01*
X182018900Y-147563400D02*
X188989900Y-147563400D01*
X188989900Y-147563400D02*
X190901300Y-149474800D01*
X190901300Y-149474800D02*
X190901300Y-151804100D01*
X190901300Y-151804100D02*
X185927300Y-156778100D01*
X185927300Y-156778100D02*
X184896600Y-156778100D01*
X184896600Y-156778100D02*
X181528000Y-160146700D01*
X154569200Y-165772800D02*
X154417100Y-165924900D01*
X154417100Y-165924900D02*
X154417100Y-168350700D01*
X154417100Y-168350700D02*
X155054000Y-168987600D01*
X155054000Y-168987600D02*
X155054000Y-170063000D01*
X180331400Y-158992000D02*
X180373300Y-158992000D01*
X180373300Y-158992000D02*
X181528000Y-160146700D01*
X183877000Y-104584000D02*
X183877000Y-101972200D01*
X183877000Y-101972200D02*
X188625900Y-97223300D01*
X174340000Y-85521800D02*
X174340000Y-87537900D01*
X174340000Y-87537900D02*
X176475700Y-89673600D01*
X184330800Y-109842600D02*
X183877000Y-109388800D01*
X183877000Y-109388800D02*
X183877000Y-104584000D01*
X181528000Y-161722000D02*
X181528000Y-160146700D01*
X188678000Y-123622000D02*
X188678000Y-121311400D01*
X188678000Y-121311400D02*
X184330800Y-116964200D01*
X184330800Y-116964200D02*
X184330800Y-114790600D01*
X179140000Y-142697000D02*
X177539700Y-142697000D01*
X177255200Y-142303800D02*
X177539700Y-142588300D01*
X177539700Y-142588300D02*
X177539700Y-142697000D01*
%TO.N,Net-(U32-Pad5)*%
X207737000Y-112912000D02*
X199557900Y-112912000D01*
X199557900Y-112912000D02*
X198069900Y-111424000D01*
X198069900Y-111424000D02*
X193887000Y-111424000D01*
%TO.N,Net-(U33-Pad5)*%
X212551000Y-131974000D02*
X204389400Y-131974000D01*
X204389400Y-131974000D02*
X202877400Y-130462000D01*
X202877400Y-130462000D02*
X198688000Y-130462000D01*
%TO.N,Net-(U34-Pad5)*%
X202988000Y-151024000D02*
X202988000Y-151443200D01*
X202988000Y-151443200D02*
X202107900Y-152323300D01*
X189150000Y-149537000D02*
X189501300Y-149537000D01*
X189501300Y-149537000D02*
X190394700Y-150430400D01*
X190394700Y-150430400D02*
X190394700Y-151673800D01*
X190394700Y-151673800D02*
X189745200Y-152323300D01*
X189745200Y-152323300D02*
X189333900Y-152323300D01*
%TO.N,Net-(U35-Pad5)*%
X191538000Y-168562000D02*
X194070000Y-168562000D01*
X194070000Y-168562000D02*
X195337400Y-167294600D01*
X257788000Y-170113000D02*
X250350800Y-170113000D01*
X250350800Y-170113000D02*
X247570400Y-167332600D01*
%TO.N,Net-(U36-Pad5)*%
X217237000Y-93861800D02*
X211137400Y-93861800D01*
X211137400Y-93861800D02*
X209637400Y-92361800D01*
X209637400Y-92361800D02*
X203387000Y-92361800D01*
%TO.N,COL7*%
X198178000Y-142684000D02*
X198178000Y-145894200D01*
X198178000Y-145894200D02*
X186118500Y-157953700D01*
X155854000Y-170063000D02*
X155854000Y-168529200D01*
X155854000Y-168529200D02*
X155142400Y-167817600D01*
X199637000Y-133299400D02*
X198178000Y-134758400D01*
X198178000Y-134758400D02*
X198178000Y-142684000D01*
X207741000Y-123634000D02*
X207741000Y-127319500D01*
X207741000Y-127319500D02*
X207262600Y-127797900D01*
X207741000Y-123634000D02*
X207741000Y-115753500D01*
X207741000Y-115753500D02*
X206775600Y-114788100D01*
X202927000Y-104572000D02*
X202927000Y-106580100D01*
X202927000Y-106580100D02*
X205061500Y-108714600D01*
X193377000Y-87097100D02*
X192568400Y-87905700D01*
X192568400Y-87905700D02*
X192568400Y-91155000D01*
X193377000Y-85521800D02*
X193377000Y-87097100D01*
X202927000Y-104572000D02*
X202927000Y-102996700D01*
X204163800Y-94974200D02*
X204163800Y-101759900D01*
X204163800Y-101759900D02*
X202927000Y-102996700D01*
%TO.N,Net-(U37-Pad5)*%
X226787000Y-112912000D02*
X218619900Y-112912000D01*
X218619900Y-112912000D02*
X217119900Y-111412000D01*
X217119900Y-111412000D02*
X212937000Y-111412000D01*
%TO.N,Net-(U38-Pad5)*%
X231575000Y-131962000D02*
X223408900Y-131962000D01*
X223408900Y-131962000D02*
X221920900Y-130474000D01*
X221920900Y-130474000D02*
X217751000Y-130474000D01*
%TO.N,Net-(U39-Pad5)*%
X208188000Y-149524000D02*
X209413300Y-149524000D01*
X222038000Y-151024000D02*
X210913300Y-151024000D01*
X210913300Y-151024000D02*
X209413300Y-149524000D01*
%TO.N,Net-(U40-Pad5)*%
X236300000Y-93861800D02*
X230193900Y-93861800D01*
X230193900Y-93861800D02*
X228693900Y-92361800D01*
X228693900Y-92361800D02*
X222437000Y-92361800D01*
%TO.N,Net-(D37-Pad2)*%
X225852000Y-82981800D02*
X225852000Y-84557100D01*
X227825000Y-86649100D02*
X227825000Y-85773800D01*
X227825000Y-85773800D02*
X226608300Y-84557100D01*
X226608300Y-84557100D02*
X225852000Y-84557100D01*
%TO.N,COL8*%
X156654000Y-170063000D02*
X156654000Y-168987700D01*
X156654000Y-168987700D02*
X157013700Y-168987700D01*
X157013700Y-168987700D02*
X157747600Y-168253800D01*
X217228000Y-142684000D02*
X217228000Y-144259300D01*
X189458600Y-157532800D02*
X199074300Y-147917100D01*
X199074300Y-147917100D02*
X210062200Y-147917100D01*
X210062200Y-147917100D02*
X212242700Y-145736600D01*
X212242700Y-145736600D02*
X215750700Y-145736600D01*
X215750700Y-145736600D02*
X217228000Y-144259300D01*
X217228000Y-142684000D02*
X217228000Y-135190200D01*
X217228000Y-135190200D02*
X219716600Y-132701600D01*
X221977000Y-104572000D02*
X221977000Y-106522400D01*
X221977000Y-106522400D02*
X224147100Y-108692500D01*
X212427000Y-85521800D02*
X212427000Y-87985700D01*
X212427000Y-87985700D02*
X215560900Y-91119600D01*
X221977000Y-104572000D02*
X221977000Y-101408300D01*
X221977000Y-101408300D02*
X216326000Y-95757300D01*
X226765000Y-123622000D02*
X226765000Y-125197300D01*
X226765000Y-125197300D02*
X225637800Y-126324500D01*
X225637800Y-126324500D02*
X225637800Y-128914100D01*
%TO.N,Net-(U41-Pad5)*%
X245837000Y-112924000D02*
X241364000Y-112924000D01*
X241364000Y-112924000D02*
X239852000Y-111412000D01*
X239852000Y-111412000D02*
X231987000Y-111412000D01*
%TO.N,Net-(D38-Pad2)*%
X235402000Y-102032000D02*
X235402000Y-103607300D01*
X237401000Y-105737000D02*
X237401000Y-104861700D01*
X237401000Y-104861700D02*
X236146600Y-103607300D01*
X236146600Y-103607300D02*
X235402000Y-103607300D01*
%TO.N,Net-(U42-Pad5)*%
X250625000Y-131949000D02*
X242444900Y-131949000D01*
X242444900Y-131949000D02*
X240957900Y-130462000D01*
X240957900Y-130462000D02*
X236775000Y-130462000D01*
%TO.N,Net-(D39-Pad2)*%
X240190000Y-121082000D02*
X240190000Y-122657300D01*
X242189000Y-124676000D02*
X242189000Y-123800700D01*
X242189000Y-123800700D02*
X241045600Y-122657300D01*
X241045600Y-122657300D02*
X240190000Y-122657300D01*
%TO.N,Net-(U43-Pad5)*%
X241075000Y-151037000D02*
X232539000Y-151037000D01*
X232539000Y-151037000D02*
X231026000Y-149524000D01*
X231026000Y-149524000D02*
X227238000Y-149524000D01*
%TO.N,Net-(D40-Pad2)*%
X230653000Y-140144000D02*
X230653000Y-141719300D01*
X232626000Y-143789000D02*
X232626000Y-142913700D01*
X232626000Y-142913700D02*
X231431600Y-141719300D01*
X231431600Y-141719300D02*
X230653000Y-141719300D01*
%TO.N,Net-(U44-Pad5)*%
X255350000Y-93861800D02*
X249250400Y-93861800D01*
X249250400Y-93861800D02*
X247750400Y-92361800D01*
X247750400Y-92361800D02*
X241500000Y-92361800D01*
%TO.N,Net-(D41-Pad2)*%
X244915000Y-82981800D02*
X244915000Y-84557100D01*
X246926000Y-86760400D02*
X246926000Y-85885100D01*
X246926000Y-85885100D02*
X245598000Y-84557100D01*
X245598000Y-84557100D02*
X244915000Y-84557100D01*
%TO.N,COL9*%
X157454000Y-171138300D02*
X157454000Y-171390000D01*
X157454000Y-171390000D02*
X158682100Y-172618100D01*
X158682100Y-172618100D02*
X234406000Y-172618100D01*
X234406000Y-172618100D02*
X242143000Y-164881100D01*
X242143000Y-164881100D02*
X252905600Y-164881100D01*
X252905600Y-164881100D02*
X254602900Y-163183800D01*
X254602900Y-163183800D02*
X254602900Y-154135600D01*
X254602900Y-154135600D02*
X252286700Y-151819400D01*
X157454000Y-170063000D02*
X157454000Y-171138300D01*
X236265000Y-142697000D02*
X236265000Y-144787300D01*
X236265000Y-144787300D02*
X238363200Y-146885500D01*
X238557000Y-132861900D02*
X236265000Y-135153900D01*
X236265000Y-135153900D02*
X236265000Y-142697000D01*
X229687900Y-89737100D02*
X231490000Y-87935000D01*
X231490000Y-87935000D02*
X231490000Y-85521800D01*
X241027000Y-104584000D02*
X241027000Y-97533300D01*
X241027000Y-97533300D02*
X240322400Y-96828700D01*
X243260300Y-108735000D02*
X241027000Y-106501700D01*
X241027000Y-106501700D02*
X241027000Y-104584000D01*
X245815000Y-123609000D02*
X245815000Y-115316100D01*
X245815000Y-115316100D02*
X245292800Y-114793900D01*
X244871800Y-127148000D02*
X245815000Y-126204800D01*
X245815000Y-126204800D02*
X245815000Y-123609000D01*
%TO.N,Net-(U45-Pad5)*%
X264900000Y-112899000D02*
X256701400Y-112899000D01*
X256701400Y-112899000D02*
X255226400Y-111424000D01*
X255226400Y-111424000D02*
X251037000Y-111424000D01*
%TO.N,Net-(D42-Pad2)*%
X254452000Y-102044000D02*
X254452000Y-103619300D01*
X256464000Y-105728000D02*
X256464000Y-104852700D01*
X256464000Y-104852700D02*
X255230600Y-103619300D01*
X255230600Y-103619300D02*
X254452000Y-103619300D01*
%TO.N,Net-(U46-Pad5)*%
X269675000Y-131949000D02*
X261507900Y-131949000D01*
X261507900Y-131949000D02*
X260007900Y-130449000D01*
X260007900Y-130449000D02*
X255825000Y-130449000D01*
%TO.N,Net-(D43-Pad2)*%
X259240000Y-121069000D02*
X259240000Y-122644300D01*
X261214000Y-124765000D02*
X261214000Y-123889700D01*
X261214000Y-123889700D02*
X259968600Y-122644300D01*
X259968600Y-122644300D02*
X259240000Y-122644300D01*
%TO.N,Net-(U47-Pad5)*%
X246275000Y-149537000D02*
X247500300Y-149537000D01*
X260125000Y-150999000D02*
X248962300Y-150999000D01*
X248962300Y-150999000D02*
X247500300Y-149537000D01*
%TO.N,Net-(D44-Pad2)*%
X249690000Y-140157000D02*
X249690000Y-141732300D01*
X251701000Y-143850000D02*
X251701000Y-142974700D01*
X251701000Y-142974700D02*
X250458600Y-141732300D01*
X250458600Y-141732300D02*
X249690000Y-141732300D01*
%TO.N,Net-(U48-Pad5)*%
X281613000Y-170113000D02*
X280387700Y-170113000D01*
X280387700Y-170113000D02*
X278887700Y-168613000D01*
X278887700Y-168613000D02*
X262988000Y-168613000D01*
%TO.N,Net-(D45-Pad2)*%
X266403000Y-159233000D02*
X266403000Y-160808300D01*
X268389000Y-162874000D02*
X268389000Y-161998700D01*
X268389000Y-161998700D02*
X267198600Y-160808300D01*
X267198600Y-160808300D02*
X266403000Y-160808300D01*
%TO.N,COL10*%
X158254000Y-171138300D02*
X158254000Y-171553100D01*
X158254000Y-171553100D02*
X158868700Y-172167800D01*
X158868700Y-172167800D02*
X226311200Y-172167800D01*
X226311200Y-172167800D02*
X237493700Y-160985300D01*
X237493700Y-160985300D02*
X252978000Y-160985300D01*
X252978000Y-160985300D02*
X252978000Y-156061600D01*
X252978000Y-156061600D02*
X248016400Y-151100000D01*
X253617700Y-146539900D02*
X255315000Y-144842600D01*
X255315000Y-144842600D02*
X255315000Y-142659000D01*
X264865000Y-123609000D02*
X264865000Y-125184300D01*
X255315000Y-142659000D02*
X255315000Y-134966300D01*
X255315000Y-134966300D02*
X257162600Y-133118700D01*
X264845700Y-127385800D02*
X264845700Y-125203600D01*
X264845700Y-125203600D02*
X264865000Y-125184300D01*
X158254000Y-170063000D02*
X158254000Y-171138300D01*
X252978000Y-161773000D02*
X252978000Y-160985300D01*
X250540000Y-85521800D02*
X250540000Y-87097100D01*
X260090000Y-104559000D02*
X260090000Y-100633000D01*
X260090000Y-100633000D02*
X255252600Y-95795600D01*
X249543300Y-89891600D02*
X249543300Y-88093800D01*
X249543300Y-88093800D02*
X250540000Y-87097100D01*
X258360200Y-107921200D02*
X260090000Y-106191400D01*
X260090000Y-106191400D02*
X260090000Y-104559000D01*
X264865000Y-122033700D02*
X262324900Y-119493600D01*
X262324900Y-119493600D02*
X258319300Y-119493600D01*
X258319300Y-119493600D02*
X252764200Y-113938500D01*
X264865000Y-123609000D02*
X264865000Y-122033700D01*
%TO.N,Net-(U49-Pad5)*%
X274400000Y-93861800D02*
X268300400Y-93861800D01*
X268300400Y-93861800D02*
X266800400Y-92361800D01*
X266800400Y-92361800D02*
X260550000Y-92361800D01*
%TO.N,Net-(U50-Pad5)*%
X270100000Y-111399000D02*
X271325300Y-111399000D01*
X283950000Y-112899000D02*
X272825300Y-112899000D01*
X272825300Y-112899000D02*
X271325300Y-111399000D01*
%TO.N,Net-(D47-Pad2)*%
X273515000Y-102019000D02*
X273515000Y-103594300D01*
X275488000Y-105724000D02*
X275488000Y-104848700D01*
X275488000Y-104848700D02*
X274233600Y-103594300D01*
X274233600Y-103594300D02*
X273515000Y-103594300D01*
%TO.N,Net-(U51-Pad5)*%
X288725000Y-131949000D02*
X279244200Y-131949000D01*
X279244200Y-131949000D02*
X277744200Y-130449000D01*
X277744200Y-130449000D02*
X274875000Y-130449000D01*
%TO.N,Net-(D48-Pad2)*%
X278290000Y-121069000D02*
X278290000Y-122644300D01*
X280264000Y-124825000D02*
X280264000Y-123949700D01*
X280264000Y-123949700D02*
X278958600Y-122644300D01*
X278958600Y-122644300D02*
X278290000Y-122644300D01*
%TO.N,Net-(U52-Pad5)*%
X279162000Y-151012000D02*
X270601000Y-151012000D01*
X270601000Y-151012000D02*
X269088000Y-149499000D01*
X269088000Y-149499000D02*
X265325000Y-149499000D01*
%TO.N,Net-(D49-Pad2)*%
X268740000Y-140119000D02*
X268740000Y-141694300D01*
X270688000Y-143812000D02*
X270688000Y-142936700D01*
X270688000Y-142936700D02*
X269445600Y-141694300D01*
X269445600Y-141694300D02*
X268740000Y-141694300D01*
%TO.N,Net-(D50-Pad2)*%
X283015000Y-82981800D02*
X283015000Y-84557100D01*
X285026000Y-86687200D02*
X285026000Y-85811900D01*
X285026000Y-85811900D02*
X283771200Y-84557100D01*
X283771200Y-84557100D02*
X283015000Y-84557100D01*
%TO.N,COL11*%
X232323600Y-162130700D02*
X232323600Y-152893300D01*
X161554000Y-168363000D02*
X164710500Y-168363000D01*
X164710500Y-168363000D02*
X168821300Y-164252200D01*
X276115500Y-139524200D02*
X278114300Y-139524200D01*
X278114300Y-139524200D02*
X281476700Y-142886600D01*
X281476700Y-142886600D02*
X287183400Y-142886600D01*
X287183400Y-142886600D02*
X289062900Y-144766100D01*
X289062900Y-144766100D02*
X289524700Y-144766100D01*
X289524700Y-144766100D02*
X290681200Y-145922600D01*
X290681200Y-145922600D02*
X290681200Y-147937100D01*
X290681200Y-147937100D02*
X290230900Y-148387400D01*
X290230900Y-148387400D02*
X290230900Y-149059200D01*
X290230900Y-149059200D02*
X289780300Y-149509800D01*
X289780300Y-149509800D02*
X288733900Y-149509800D01*
X288733900Y-149509800D02*
X288428100Y-149204000D01*
X285788600Y-151801000D02*
X285199700Y-151801000D01*
X285199700Y-151801000D02*
X276803000Y-160197700D01*
X269590000Y-85521800D02*
X269590000Y-87889900D01*
X269590000Y-87889900D02*
X271351000Y-89650900D01*
X279140000Y-102983700D02*
X280407400Y-101716300D01*
X280407400Y-101716300D02*
X280407400Y-94914500D01*
X279140000Y-104559000D02*
X279140000Y-102983700D01*
X283915000Y-123609000D02*
X283915000Y-115938900D01*
X283915000Y-115938900D02*
X282754200Y-114778100D01*
X277852700Y-108937600D02*
X279140000Y-107650300D01*
X279140000Y-107650300D02*
X279140000Y-104559000D01*
X283915000Y-123891900D02*
X283915000Y-123609000D01*
X283915000Y-123891900D02*
X283915000Y-125184300D01*
X276803000Y-161773000D02*
X276803000Y-160197700D01*
X276115500Y-139524200D02*
X275924500Y-139524200D01*
X275924500Y-139524200D02*
X274352000Y-141096700D01*
X276115500Y-139524200D02*
X276115500Y-133052200D01*
X274352000Y-142672000D02*
X274352000Y-141096700D01*
X283915000Y-125184300D02*
X282351200Y-126748100D01*
X282351200Y-126748100D02*
X279547300Y-126748100D01*
X279547300Y-126748100D02*
X278453600Y-127841800D01*
X278453600Y-127841800D02*
X278453600Y-127998200D01*
%TO.N,Net-(U55-Pad5)*%
X303000000Y-112899000D02*
X297283500Y-112899000D01*
X297283500Y-112899000D02*
X295783500Y-111399000D01*
X295783500Y-111399000D02*
X289150000Y-111399000D01*
%TO.N,Net-(D51-Pad2)*%
X292565000Y-102019000D02*
X292565000Y-103594300D01*
X294551000Y-105686000D02*
X294551000Y-104810700D01*
X294551000Y-104810700D02*
X293334600Y-103594300D01*
X293334600Y-103594300D02*
X292565000Y-103594300D01*
%TO.N,Net-(D52-Pad2)*%
X297340000Y-121069000D02*
X297340000Y-122644300D01*
X299326000Y-124724000D02*
X299326000Y-123848700D01*
X299326000Y-123848700D02*
X298121600Y-122644300D01*
X298121600Y-122644300D02*
X297340000Y-122644300D01*
%TO.N,Net-(U57-Pad5)*%
X284362000Y-149512000D02*
X285587300Y-149512000D01*
X285587300Y-149512000D02*
X286042700Y-149967400D01*
X286042700Y-149967400D02*
X289959600Y-149967400D01*
X289959600Y-149967400D02*
X291129400Y-148797600D01*
X305350000Y-151012000D02*
X304124700Y-151012000D01*
X303842000Y-150885100D02*
X303997800Y-150885100D01*
X303997800Y-150885100D02*
X304124700Y-151012000D01*
%TO.N,Net-(D53-Pad2)*%
X287777000Y-140132000D02*
X287777000Y-141707300D01*
X289763000Y-143774000D02*
X289763000Y-142898700D01*
X289763000Y-142898700D02*
X288571600Y-141707300D01*
X288571600Y-141707300D02*
X287777000Y-141707300D01*
%TO.N,Net-(U58-Pad5)*%
X311261700Y-170062000D02*
X308788900Y-167589200D01*
X308788900Y-167589200D02*
X308788900Y-163732800D01*
X308788900Y-163732800D02*
X309292000Y-163229700D01*
X309292000Y-163229700D02*
X309292000Y-157494100D01*
X309292000Y-157494100D02*
X305682000Y-153884100D01*
X305682000Y-153884100D02*
X296071200Y-153884100D01*
X296071200Y-153884100D02*
X295189600Y-154765700D01*
X295189600Y-154765700D02*
X295189600Y-164443100D01*
X295189600Y-164443100D02*
X291019700Y-168613000D01*
X291019700Y-168613000D02*
X286813000Y-168613000D01*
X312487000Y-170062000D02*
X311261700Y-170062000D01*
%TO.N,Net-(D54-Pad2)*%
X290228000Y-159233000D02*
X290228000Y-160808300D01*
X292240000Y-162989000D02*
X292240000Y-162113700D01*
X292240000Y-162113700D02*
X290934600Y-160808300D01*
X290934600Y-160808300D02*
X290228000Y-160808300D01*
%TO.N,Net-(U59-Pad5)*%
X298637000Y-92361800D02*
X312878800Y-92361800D01*
X312878800Y-92361800D02*
X313373600Y-92856600D01*
X313373600Y-92856600D02*
X319781500Y-92856600D01*
X319781500Y-92856600D02*
X320786700Y-93861800D01*
X322012000Y-93861800D02*
X320786700Y-93861800D01*
%TO.N,Net-(D55-Pad2)*%
X302052000Y-82981800D02*
X302052000Y-84557100D01*
X304051000Y-86722300D02*
X304051000Y-85847000D01*
X304051000Y-85847000D02*
X302761100Y-84557100D01*
X302761100Y-84557100D02*
X302052000Y-84557100D01*
%TO.N,Net-(D56-Pad2)*%
X311615000Y-102019000D02*
X311615000Y-103594300D01*
X313601000Y-105775000D02*
X313601000Y-104899700D01*
X313601000Y-104899700D02*
X312295600Y-103594300D01*
X312295600Y-103594300D02*
X311615000Y-103594300D01*
%TO.N,Net-(U61-Pad5)*%
X327449800Y-146750900D02*
X327449800Y-148762000D01*
X327449800Y-148762000D02*
X329699800Y-151012000D01*
X329699800Y-151012000D02*
X330336700Y-151012000D01*
X331562000Y-151012000D02*
X330336700Y-151012000D01*
X310550000Y-149512000D02*
X310981100Y-149080900D01*
X310981100Y-149080900D02*
X310981100Y-146750900D01*
%TO.N,Net-(D57-Pad2)*%
X313965000Y-140132000D02*
X313965000Y-141707300D01*
X315951000Y-143736000D02*
X315951000Y-142860700D01*
X315951000Y-142860700D02*
X314797600Y-141707300D01*
X314797600Y-141707300D02*
X313965000Y-141707300D01*
%TO.N,Net-(U62-Pad5)*%
X331562000Y-170049000D02*
X325514200Y-170049000D01*
X325514200Y-170049000D02*
X324027200Y-168562000D01*
X324027200Y-168562000D02*
X317687000Y-168562000D01*
%TO.N,Net-(D58-Pad2)*%
X321102000Y-159182000D02*
X321102000Y-160757300D01*
X323126000Y-162913000D02*
X323126000Y-162037700D01*
X323126000Y-162037700D02*
X321845600Y-160757300D01*
X321845600Y-160757300D02*
X321102000Y-160757300D01*
%TO.N,Net-(D59-Pad2)*%
X335428000Y-102019000D02*
X335428000Y-103594300D01*
X337528000Y-105648000D02*
X337528000Y-104772700D01*
X337528000Y-104772700D02*
X336349600Y-103594300D01*
X336349600Y-103594300D02*
X335428000Y-103594300D01*
%TO.N,Net-(U64-Pad5)*%
X350600000Y-131936000D02*
X348945900Y-131936000D01*
X348945900Y-131936000D02*
X348620400Y-132261500D01*
X324875000Y-130462000D02*
X328228800Y-130462000D01*
X328228800Y-130462000D02*
X329076400Y-131309600D01*
%TO.N,Net-(D60-Pad2)*%
X328290000Y-121082000D02*
X328290000Y-122657300D01*
X330251000Y-124800000D02*
X330251000Y-123924700D01*
X330251000Y-123924700D02*
X328983600Y-122657300D01*
X328983600Y-122657300D02*
X328290000Y-122657300D01*
%TO.N,Net-(U65-Pad5)*%
X350612000Y-150999000D02*
X342431900Y-150999000D01*
X342431900Y-150999000D02*
X340944900Y-149512000D01*
X340944900Y-149512000D02*
X336762000Y-149512000D01*
%TO.N,Net-(D61-Pad2)*%
X340177000Y-140132000D02*
X340177000Y-141707300D01*
X342163000Y-143774000D02*
X342163000Y-142898700D01*
X342163000Y-142898700D02*
X340971600Y-141707300D01*
X340971600Y-141707300D02*
X340177000Y-141707300D01*
%TO.N,Net-(U66-Pad5)*%
X350612000Y-170049000D02*
X347018400Y-170049000D01*
X347018400Y-170049000D02*
X345518400Y-168549000D01*
X345518400Y-168549000D02*
X336762000Y-168549000D01*
%TO.N,Net-(D62-Pad2)*%
X340177000Y-159169000D02*
X340177000Y-160744300D01*
X342202000Y-162671000D02*
X342202000Y-161795700D01*
X342202000Y-161795700D02*
X341150600Y-160744300D01*
X341150600Y-160744300D02*
X340177000Y-160744300D01*
%TO.N,Net-(D63-Pad2)*%
X330627000Y-82981800D02*
X330627000Y-84557100D01*
X332626000Y-86649100D02*
X332626000Y-85773800D01*
X332626000Y-85773800D02*
X331409300Y-84557100D01*
X331409300Y-84557100D02*
X330627000Y-84557100D01*
%TO.N,COL14*%
X202079700Y-133396900D02*
X199936000Y-135540600D01*
X199936000Y-135540600D02*
X199936000Y-143977200D01*
X199936000Y-143977200D02*
X199307600Y-144605600D01*
X199307600Y-144605600D02*
X199307600Y-146658100D01*
X199307600Y-146658100D02*
X187203900Y-158761800D01*
X187203900Y-158761800D02*
X187203900Y-160205400D01*
X161554000Y-165963000D02*
X162940900Y-165963000D01*
X162940900Y-165963000D02*
X165393800Y-163510100D01*
X165393800Y-163510100D02*
X167390400Y-163510100D01*
X167390400Y-163510100D02*
X167678400Y-163798100D01*
X317202000Y-85521800D02*
X317202000Y-87097100D01*
X308312200Y-94129400D02*
X305010000Y-97431600D01*
X305010000Y-97431600D02*
X305010000Y-104068500D01*
X305010000Y-104068500D02*
X301733200Y-107345300D01*
X301733200Y-107345300D02*
X301733200Y-107699600D01*
X301733200Y-107699600D02*
X300320800Y-109112000D01*
X220467200Y-127822000D02*
X222305700Y-125983500D01*
X222305700Y-125983500D02*
X223535900Y-125983500D01*
X223535900Y-125983500D02*
X224039300Y-125480100D01*
X224039300Y-125480100D02*
X224039300Y-122663800D01*
X224039300Y-122663800D02*
X228654700Y-118048400D01*
X317202000Y-87097100D02*
X313881200Y-90417900D01*
X313881200Y-90417900D02*
X313881200Y-91631000D01*
%TO.N,Net-(D64-Pad2)*%
X359227000Y-82981800D02*
X359227000Y-84557100D01*
X360210000Y-90347800D02*
X360210000Y-85540100D01*
X360210000Y-85540100D02*
X359227000Y-84557100D01*
%TO.N,Net-(D65-Pad2)*%
X359236000Y-102032000D02*
X359236000Y-103607300D01*
X360236000Y-109309000D02*
X360236000Y-104607300D01*
X360236000Y-104607300D02*
X359236000Y-103607300D01*
%TO.N,Net-(D66-Pad2)*%
X359215000Y-121056000D02*
X359215000Y-122631300D01*
X360223000Y-128549000D02*
X360223000Y-123639300D01*
X360223000Y-123639300D02*
X359215000Y-122631300D01*
%TO.N,Net-(D67-Pad2)*%
X359227000Y-140119000D02*
X359227000Y-141694300D01*
X360210000Y-147472000D02*
X360210000Y-142677300D01*
X360210000Y-142677300D02*
X359227000Y-141694300D01*
%TO.N,Net-(D68-Pad2)*%
X359227000Y-159169000D02*
X359227000Y-160744300D01*
X360261000Y-166507000D02*
X360261000Y-161778300D01*
X360261000Y-161778300D02*
X359227000Y-160744300D01*
%TO.N,Net-(U54-Pad5)*%
X293437000Y-93861800D02*
X287343900Y-93861800D01*
X287343900Y-93861800D02*
X285843900Y-92361800D01*
X285843900Y-92361800D02*
X279600000Y-92361800D01*
%TO.N,Net-(U56-Pad5)*%
X319675000Y-131962000D02*
X318449700Y-131962000D01*
X318449700Y-131962000D02*
X316936700Y-130449000D01*
X316936700Y-130449000D02*
X293925000Y-130449000D01*
%TO.N,Net-(U60-Pad5)*%
X308200000Y-111399000D02*
X311304300Y-111399000D01*
X311304300Y-111399000D02*
X313858900Y-113953600D01*
X326813000Y-112899000D02*
X326813000Y-113731100D01*
X326813000Y-113731100D02*
X327035500Y-113953600D01*
%TO.N,Net-(U63-Pad5)*%
X350621000Y-112912000D02*
X350621000Y-113694700D01*
X350621000Y-113694700D02*
X350140800Y-114174900D01*
X332013000Y-111399000D02*
X333415400Y-111399000D01*
X333415400Y-111399000D02*
X333610700Y-111594300D01*
%TO.N,COL13*%
X161554000Y-166763000D02*
X163223300Y-166763000D01*
X163223300Y-166763000D02*
X164911600Y-165074700D01*
X324227000Y-154967400D02*
X328067300Y-151127100D01*
X324227000Y-154967400D02*
X322687200Y-153427700D01*
X326752000Y-161709000D02*
X326752000Y-157492500D01*
X326752000Y-157492500D02*
X324227000Y-154967400D01*
X329347700Y-149611700D02*
X329347700Y-147455600D01*
X329347700Y-147455600D02*
X326752000Y-144859900D01*
X326752000Y-144859900D02*
X326752000Y-142672000D01*
X322003000Y-121796600D02*
X315115100Y-121796600D01*
X315115100Y-121796600D02*
X314865000Y-122046700D01*
X326752000Y-141096700D02*
X331139200Y-136709500D01*
X331139200Y-136709500D02*
X331139200Y-126917000D01*
X331139200Y-126917000D02*
X330513400Y-126291200D01*
X330513400Y-126291200D02*
X329887400Y-126291200D01*
X329887400Y-126291200D02*
X326508300Y-122912100D01*
X326508300Y-122912100D02*
X323118500Y-122912100D01*
X323118500Y-122912100D02*
X322003000Y-121796600D01*
X322003000Y-121796600D02*
X322003000Y-106134300D01*
X314865000Y-123622000D02*
X314865000Y-122046700D01*
X326752000Y-142672000D02*
X326752000Y-141096700D01*
X322003000Y-104559000D02*
X322003000Y-106134300D01*
%TO.N,Net-(U67-Pad5)*%
X327212000Y-92361800D02*
X328437300Y-92361800D01*
X350612000Y-93861800D02*
X329937300Y-93861800D01*
X329937300Y-93861800D02*
X328437300Y-92361800D01*
%TO.N,COL15*%
X170444500Y-164849600D02*
X168654700Y-163059800D01*
X168654700Y-163059800D02*
X165207200Y-163059800D01*
X165207200Y-163059800D02*
X163104000Y-165163000D01*
X163104000Y-165163000D02*
X161554000Y-165163000D01*
X197425000Y-138293700D02*
X196191200Y-139527500D01*
X196191200Y-139527500D02*
X196191200Y-147161700D01*
X196191200Y-147161700D02*
X186124500Y-157228400D01*
X186124500Y-157228400D02*
X185747200Y-157228400D01*
X185747200Y-157228400D02*
X183302700Y-159672900D01*
X183302700Y-159672900D02*
X183302700Y-162983000D01*
X183302700Y-162983000D02*
X181436100Y-164849600D01*
X181436100Y-164849600D02*
X180204600Y-164849600D01*
X345811000Y-104572000D02*
X345811000Y-102996700D01*
X345811000Y-102996700D02*
X347386300Y-102996700D01*
X347386300Y-102996700D02*
X348391300Y-101991700D01*
X353433300Y-101991700D02*
X353433300Y-101761500D01*
X353433300Y-101761500D02*
X361085400Y-94109400D01*
X361085400Y-94109400D02*
X361085400Y-92463100D01*
X361085400Y-92463100D02*
X360894700Y-92272400D01*
X360894700Y-92272400D02*
X359334600Y-92272400D01*
X359334600Y-92272400D02*
X357516700Y-90454500D01*
X357516700Y-90454500D02*
X348820400Y-90454500D01*
X348820400Y-90454500D02*
X345802000Y-87436100D01*
X345802000Y-87436100D02*
X345802000Y-85521800D01*
X345811000Y-104672300D02*
X345811000Y-104572000D01*
X345811000Y-104672300D02*
X345811000Y-104772600D01*
X345802000Y-160133700D02*
X348116800Y-157818900D01*
X348116800Y-157818900D02*
X353423800Y-157818900D01*
X353423800Y-157818900D02*
X359790200Y-151452500D01*
X345802000Y-161709000D02*
X345802000Y-160133700D01*
X345802000Y-142659000D02*
X345802000Y-139691200D01*
X345790000Y-125171300D02*
X345802000Y-125183300D01*
X345802000Y-125183300D02*
X345802000Y-139691200D01*
X345811000Y-104784900D02*
X345811000Y-104772600D01*
X345811000Y-104784900D02*
X345811000Y-106147300D01*
X345790000Y-123596000D02*
X345790000Y-106168300D01*
X345790000Y-106168300D02*
X345811000Y-106147300D01*
X345790000Y-124264500D02*
X345790000Y-123596000D01*
X345790000Y-124264500D02*
X345790000Y-125171300D01*
%TO.N,ROW0*%
X94488000Y-88700800D02*
X90872800Y-85085600D01*
X90872800Y-85085600D02*
X86812200Y-85085600D01*
X86812200Y-85085600D02*
X83899600Y-82173000D01*
X83899600Y-82173000D02*
X77376200Y-82173000D01*
X77376200Y-82173000D02*
X75798200Y-83751000D01*
X75798200Y-83751000D02*
X75798200Y-85340100D01*
X75798200Y-85340100D02*
X75983100Y-85525000D01*
X75983100Y-85525000D02*
X75983100Y-88450800D01*
X102758300Y-153420700D02*
X102907800Y-153271200D01*
X102907800Y-153271200D02*
X102907800Y-151460500D01*
X102907800Y-151460500D02*
X93149700Y-141702400D01*
X93149700Y-141702400D02*
X93149700Y-129413200D01*
X93149700Y-129413200D02*
X87026000Y-123289500D01*
X87026000Y-123289500D02*
X87026000Y-101119100D01*
X87026000Y-101119100D02*
X90831300Y-97313800D01*
X90831300Y-97313800D02*
X90831300Y-92217700D01*
X90831300Y-92217700D02*
X89516100Y-90902500D01*
X89516100Y-90902500D02*
X82725100Y-90902500D01*
X82725100Y-90902500D02*
X82368700Y-90546100D01*
X82368700Y-90546100D02*
X78078400Y-90546100D01*
X78078400Y-90546100D02*
X75983100Y-88450800D01*
X151854000Y-158663000D02*
X151854000Y-157587700D01*
X151802200Y-154958900D02*
X151802200Y-157535900D01*
X151802200Y-157535900D02*
X151854000Y-157587700D01*
X75107800Y-89326100D02*
X75983100Y-88450800D01*
X75107800Y-90201400D02*
X75107800Y-89326100D01*
X94488000Y-89576100D02*
X94488000Y-88700800D01*
X94488000Y-88700800D02*
X95363300Y-87825500D01*
X95363300Y-87825500D02*
X95363300Y-85298600D01*
X95363300Y-85298600D02*
X97008400Y-83653500D01*
X97008400Y-83653500D02*
X104430400Y-83653500D01*
X104430400Y-83653500D02*
X105862500Y-85085600D01*
X105862500Y-85085600D02*
X109485200Y-85085600D01*
X109485200Y-85085600D02*
X113538000Y-89138400D01*
X151752000Y-89385600D02*
X148290100Y-89385600D01*
X148290100Y-89385600D02*
X144629000Y-85724500D01*
X144629000Y-85724500D02*
X142837900Y-85724500D01*
X142837900Y-85724500D02*
X142823100Y-85709700D01*
X142823100Y-85709700D02*
X142631800Y-85709700D01*
X142631800Y-85709700D02*
X138811600Y-81889600D01*
X138811600Y-81889600D02*
X136023000Y-81889600D01*
X135147700Y-81889600D02*
X134272400Y-81014300D01*
X134272400Y-81014300D02*
X118635500Y-81014300D01*
X118635500Y-81014300D02*
X114697700Y-84952100D01*
X114697700Y-84952100D02*
X114697700Y-87978700D01*
X114697700Y-87978700D02*
X113538000Y-89138400D01*
X152627300Y-89385600D02*
X152627300Y-89689900D01*
X152627300Y-89689900D02*
X153383900Y-90446500D01*
X153383900Y-90446500D02*
X168891400Y-90446500D01*
X168891400Y-90446500D02*
X169850700Y-89487200D01*
X333501300Y-89449100D02*
X346462400Y-89449100D01*
X346462400Y-89449100D02*
X347918200Y-90904900D01*
X347918200Y-90904900D02*
X357091800Y-90904900D01*
X357091800Y-90904900D02*
X359334700Y-93147800D01*
X170726000Y-89487200D02*
X169850700Y-89487200D01*
X151752000Y-89385600D02*
X152627300Y-89385600D01*
X135585400Y-81889600D02*
X135147700Y-81889600D01*
X285026000Y-89487200D02*
X285026000Y-88611900D01*
X285026000Y-88611900D02*
X285901300Y-87736600D01*
X285901300Y-87736600D02*
X285901300Y-85234100D01*
X285901300Y-85234100D02*
X287491100Y-83644300D01*
X287491100Y-83644300D02*
X294908200Y-83644300D01*
X294908200Y-83644300D02*
X296349500Y-85085600D01*
X296349500Y-85085600D02*
X300489600Y-85085600D01*
X300489600Y-85085600D02*
X304051000Y-88647000D01*
X284588400Y-89487200D02*
X285026000Y-89487200D01*
X304051000Y-89522300D02*
X304051000Y-88647000D01*
X208788000Y-87926800D02*
X209066700Y-87926800D01*
X209066700Y-87926800D02*
X210354200Y-86639300D01*
X210354200Y-86639300D02*
X210354200Y-84524100D01*
X210354200Y-84524100D02*
X211235600Y-83642700D01*
X211235600Y-83642700D02*
X218706600Y-83642700D01*
X218706600Y-83642700D02*
X220149500Y-85085600D01*
X220149500Y-85085600D02*
X224336800Y-85085600D01*
X224336800Y-85085600D02*
X227825000Y-88573800D01*
X189751000Y-88573800D02*
X190626300Y-87698500D01*
X190626300Y-87698500D02*
X190626300Y-85255400D01*
X190626300Y-85255400D02*
X192217100Y-83664600D01*
X192217100Y-83664600D02*
X199678500Y-83664600D01*
X199678500Y-83664600D02*
X201099500Y-85085600D01*
X201099500Y-85085600D02*
X205309500Y-85085600D01*
X205309500Y-85085600D02*
X208150700Y-87926800D01*
X208150700Y-87926800D02*
X208788000Y-87926800D01*
X208788000Y-87926800D02*
X208788000Y-88564100D01*
X227825000Y-89449100D02*
X227825000Y-88573800D01*
X189751000Y-89449100D02*
X189751000Y-88573800D01*
X189313400Y-89449100D02*
X189751000Y-89449100D01*
X208788000Y-89439400D02*
X208788000Y-88564100D01*
X135585400Y-81889600D02*
X136023000Y-81889600D01*
X304051000Y-89522300D02*
X304926300Y-89522300D01*
X228700300Y-89449100D02*
X228700300Y-89775200D01*
X228700300Y-89775200D02*
X229387500Y-90462400D01*
X229387500Y-90462400D02*
X245148700Y-90462400D01*
X245148700Y-90462400D02*
X246050700Y-89560400D01*
X247801300Y-89560400D02*
X248857800Y-90616900D01*
X248857800Y-90616900D02*
X264075500Y-90616900D01*
X264075500Y-90616900D02*
X265138700Y-89553700D01*
X332626000Y-89449100D02*
X332626000Y-88573800D01*
X304926300Y-89522300D02*
X310770200Y-83678400D01*
X310770200Y-83678400D02*
X323517300Y-83678400D01*
X323517300Y-83678400D02*
X324924500Y-85085600D01*
X324924500Y-85085600D02*
X329137800Y-85085600D01*
X329137800Y-85085600D02*
X332626000Y-88573800D01*
X284588400Y-89487200D02*
X284150700Y-89487200D01*
X266014000Y-89553700D02*
X266889300Y-89553700D01*
X266889300Y-89553700D02*
X267724000Y-90388400D01*
X267724000Y-90388400D02*
X283249500Y-90388400D01*
X283249500Y-90388400D02*
X284150700Y-89487200D01*
X265576400Y-89553700D02*
X266014000Y-89553700D01*
X265576400Y-89553700D02*
X265138700Y-89553700D01*
X246926000Y-89560400D02*
X247801300Y-89560400D01*
X246488400Y-89560400D02*
X246926000Y-89560400D01*
X246488400Y-89560400D02*
X246050700Y-89560400D01*
X227825000Y-89449100D02*
X228700300Y-89449100D01*
X189313400Y-89449100D02*
X188875700Y-89449100D01*
X170726000Y-89487200D02*
X171601300Y-89487200D01*
X171601300Y-89487200D02*
X172538800Y-90424700D01*
X172538800Y-90424700D02*
X187900100Y-90424700D01*
X187900100Y-90424700D02*
X188875700Y-89449100D01*
X113538000Y-89576100D02*
X113538000Y-89138400D01*
X360210000Y-93147800D02*
X359334700Y-93147800D01*
X332626000Y-89449100D02*
X333501300Y-89449100D01*
%TO.N,ROW1*%
X141135900Y-148754200D02*
X138913800Y-146532100D01*
X138913800Y-146532100D02*
X138913800Y-138910800D01*
X138913800Y-138910800D02*
X148734700Y-129089900D01*
X148734700Y-129089900D02*
X148734700Y-126142900D01*
X148734700Y-126142900D02*
X148284400Y-125692600D01*
X148284400Y-125692600D02*
X148284400Y-120770600D01*
X148284400Y-120770600D02*
X142499900Y-114986100D01*
X142499900Y-114986100D02*
X142148900Y-114986100D01*
X142148900Y-114986100D02*
X142148900Y-114986000D01*
X142148900Y-114986000D02*
X140825400Y-113662500D01*
X105215200Y-109437400D02*
X105215200Y-109446500D01*
X104926300Y-108601000D02*
X105215200Y-108889900D01*
X105215200Y-108889900D02*
X105215200Y-109437400D01*
X105215200Y-109437400D02*
X121299300Y-109437400D01*
X121299300Y-109437400D02*
X122212700Y-108524000D01*
X80162400Y-109397300D02*
X80348500Y-109583400D01*
X80348500Y-109583400D02*
X80348500Y-109713400D01*
X320390100Y-102661200D02*
X320390100Y-100637700D01*
X320390100Y-100637700D02*
X313559600Y-93807200D01*
X313559600Y-93807200D02*
X309015800Y-93807200D01*
X309015800Y-93807200D02*
X308612700Y-93404100D01*
X308612700Y-93404100D02*
X305885200Y-93404100D01*
X305885200Y-93404100D02*
X295426300Y-103863000D01*
X295426300Y-103863000D02*
X295426300Y-106735400D01*
X295426300Y-106735400D02*
X294551000Y-107610700D01*
X138609100Y-109878800D02*
X140345100Y-109878800D01*
X140345100Y-109878800D02*
X141250700Y-108973200D01*
X141250700Y-108973200D02*
X141250700Y-108423000D01*
X199326000Y-108550000D02*
X201054300Y-106821700D01*
X201054300Y-106821700D02*
X201054300Y-96518800D01*
X201054300Y-96518800D02*
X200674700Y-96139200D01*
X200674700Y-96139200D02*
X188644500Y-96139200D01*
X188644500Y-96139200D02*
X181113300Y-103670400D01*
X181113300Y-103670400D02*
X181113300Y-106773400D01*
X181113300Y-106773400D02*
X180238000Y-107648700D01*
X179362700Y-108524000D02*
X178436700Y-109450000D01*
X178436700Y-109450000D02*
X162964300Y-109450000D01*
X162964300Y-109450000D02*
X162051300Y-108537000D01*
X160941500Y-152781400D02*
X161553900Y-153393800D01*
X161553900Y-153393800D02*
X161554000Y-153393800D01*
X161554000Y-153393800D02*
X161554000Y-160363000D01*
X180238000Y-108524000D02*
X180238000Y-107648700D01*
X179800400Y-108524000D02*
X180238000Y-108524000D01*
X276363300Y-108524000D02*
X277502200Y-109662900D01*
X277502200Y-109662900D02*
X292498800Y-109662900D01*
X292498800Y-109662900D02*
X293675700Y-108486000D01*
X360236000Y-112109000D02*
X360236000Y-111233700D01*
X336317600Y-108448000D02*
X334050700Y-108448000D01*
X334050700Y-108448000D02*
X328263900Y-102661200D01*
X328263900Y-102661200D02*
X320390100Y-102661200D01*
X337528000Y-108448000D02*
X336317600Y-108448000D01*
X336317600Y-108448000D02*
X336317600Y-110134000D01*
X357763000Y-109213300D02*
X359783400Y-111233700D01*
X359783400Y-111233700D02*
X360236000Y-111233700D01*
X294551000Y-108486000D02*
X294551000Y-107610700D01*
X294113400Y-108486000D02*
X294551000Y-108486000D01*
X320390100Y-102661200D02*
X314476300Y-108575000D01*
X141250700Y-108423000D02*
X142313700Y-109486000D01*
X142313700Y-109486000D02*
X159351700Y-109486000D01*
X159351700Y-109486000D02*
X160300700Y-108537000D01*
X161176000Y-108537000D02*
X160300700Y-108537000D01*
X80162400Y-108522000D02*
X80162400Y-109397300D01*
X161613700Y-108537000D02*
X161176000Y-108537000D01*
X161613700Y-108537000D02*
X162051300Y-108537000D01*
X237401000Y-108537000D02*
X236525700Y-108537000D01*
X218351000Y-108537000D02*
X219226300Y-108537000D01*
X219226300Y-108537000D02*
X220127900Y-109438600D01*
X220127900Y-109438600D02*
X235624100Y-109438600D01*
X235624100Y-109438600D02*
X236525700Y-108537000D01*
X217913400Y-108537000D02*
X218351000Y-108537000D01*
X217913400Y-108537000D02*
X217475700Y-108537000D01*
X199326000Y-108550000D02*
X200201300Y-108550000D01*
X200201300Y-108550000D02*
X201129100Y-109477800D01*
X201129100Y-109477800D02*
X216534900Y-109477800D01*
X216534900Y-109477800D02*
X217475700Y-108537000D01*
X237401000Y-108537000D02*
X238276300Y-108537000D01*
X313601000Y-108575000D02*
X314476300Y-108575000D01*
X142126000Y-108423000D02*
X141250700Y-108423000D01*
X294113400Y-108486000D02*
X293675700Y-108486000D01*
X275488000Y-108524000D02*
X276363300Y-108524000D01*
X275050400Y-108524000D02*
X275488000Y-108524000D01*
X275050400Y-108524000D02*
X274612700Y-108524000D01*
X256464000Y-108528000D02*
X257339300Y-108528000D01*
X257339300Y-108528000D02*
X258274100Y-109462800D01*
X258274100Y-109462800D02*
X273673900Y-109462800D01*
X273673900Y-109462800D02*
X274612700Y-108524000D01*
X256026400Y-108528000D02*
X256464000Y-108528000D01*
X256026400Y-108528000D02*
X255588700Y-108528000D01*
X238276300Y-108537000D02*
X239224900Y-109485600D01*
X239224900Y-109485600D02*
X254631100Y-109485600D01*
X254631100Y-109485600D02*
X255588700Y-108528000D01*
X179800400Y-108524000D02*
X179362700Y-108524000D01*
X122650400Y-108524000D02*
X123088000Y-108524000D01*
X122650400Y-108524000D02*
X122212700Y-108524000D01*
X104051000Y-108601000D02*
X104926300Y-108601000D01*
%TO.N,ROW2*%
X166877300Y-127549000D02*
X167862700Y-128534400D01*
X167862700Y-128534400D02*
X183220300Y-128534400D01*
X183220300Y-128534400D02*
X184176700Y-127578000D01*
X109931400Y-165896400D02*
X110154200Y-165896400D01*
X149078700Y-166763000D02*
X148555100Y-167286600D01*
X148555100Y-167286600D02*
X148264800Y-167286600D01*
X223164000Y-126673700D02*
X223562100Y-126673700D01*
X223562100Y-126673700D02*
X224489600Y-125746200D01*
X224489600Y-125746200D02*
X224489600Y-122850400D01*
X224489600Y-122850400D02*
X225594100Y-121745900D01*
X225594100Y-121745900D02*
X233047600Y-121745900D01*
X233047600Y-121745900D02*
X234487500Y-123185800D01*
X234487500Y-123185800D02*
X238774100Y-123185800D01*
X238774100Y-123185800D02*
X242189000Y-126600700D01*
X150154000Y-166763000D02*
X149078700Y-166763000D01*
X82613500Y-127412000D02*
X84112400Y-127412000D01*
X84112400Y-127412000D02*
X85199800Y-128499400D01*
X328452200Y-128489900D02*
X328485800Y-128489900D01*
X328485800Y-128489900D02*
X329375700Y-127600000D01*
X300201300Y-127524000D02*
X301167200Y-128489900D01*
X301167200Y-128489900D02*
X328452200Y-128489900D01*
X328452200Y-128489900D02*
X328452200Y-128518600D01*
X360223000Y-131349000D02*
X360223000Y-130473700D01*
X357392600Y-128518600D02*
X359347700Y-130473700D01*
X359347700Y-130473700D02*
X360223000Y-130473700D01*
X330251000Y-127600000D02*
X329375700Y-127600000D01*
X299326000Y-127524000D02*
X300201300Y-127524000D01*
X298888400Y-127524000D02*
X299326000Y-127524000D01*
X223164000Y-127549000D02*
X222288700Y-127549000D01*
X204114000Y-127600000D02*
X204989300Y-127600000D01*
X204989300Y-127600000D02*
X205938600Y-128549300D01*
X205938600Y-128549300D02*
X221288400Y-128549300D01*
X221288400Y-128549300D02*
X222288700Y-127549000D01*
X203676400Y-127600000D02*
X204114000Y-127600000D01*
X203676400Y-127600000D02*
X203238700Y-127600000D01*
X165126700Y-127549000D02*
X165126700Y-127794900D01*
X165126700Y-127794900D02*
X164422200Y-128499400D01*
X166002000Y-127549000D02*
X165126700Y-127549000D01*
X107938700Y-127489000D02*
X107938700Y-127961000D01*
X107938700Y-127961000D02*
X107400300Y-128499400D01*
X108814000Y-127489000D02*
X107938700Y-127489000D01*
X223164000Y-127549000D02*
X223164000Y-126673700D01*
X262089300Y-127565000D02*
X263247800Y-128723500D01*
X263247800Y-128723500D02*
X278754100Y-128723500D01*
X278754100Y-128723500D02*
X279388700Y-128088900D01*
X279388700Y-128088900D02*
X279388700Y-127625000D01*
X146038700Y-127574000D02*
X145119300Y-128493400D01*
X145119300Y-128493400D02*
X129619700Y-128493400D01*
X129619700Y-128493400D02*
X128726300Y-127600000D01*
X146914000Y-127574000D02*
X146038700Y-127574000D01*
X127851000Y-127600000D02*
X128726300Y-127600000D01*
X298888400Y-127524000D02*
X298450700Y-127524000D01*
X280264000Y-127625000D02*
X281139300Y-127625000D01*
X281139300Y-127625000D02*
X281991800Y-128477500D01*
X281991800Y-128477500D02*
X297497200Y-128477500D01*
X297497200Y-128477500D02*
X298450700Y-127524000D01*
X279826400Y-127625000D02*
X280264000Y-127625000D01*
X279826400Y-127625000D02*
X279388700Y-127625000D01*
X242189000Y-127476000D02*
X242189000Y-126600700D01*
X185052000Y-127578000D02*
X185927300Y-127578000D01*
X185927300Y-127578000D02*
X186867000Y-128517700D01*
X186867000Y-128517700D02*
X202321000Y-128517700D01*
X202321000Y-128517700D02*
X203238700Y-127600000D01*
X184614400Y-127578000D02*
X185052000Y-127578000D01*
X127413400Y-127600000D02*
X127851000Y-127600000D01*
X166439700Y-127549000D02*
X166002000Y-127549000D01*
X166439700Y-127549000D02*
X166877300Y-127549000D01*
X261214000Y-127565000D02*
X262089300Y-127565000D01*
X260776400Y-127565000D02*
X261214000Y-127565000D01*
X260776400Y-127565000D02*
X260338700Y-127565000D01*
X242189000Y-127476000D02*
X243064300Y-127476000D01*
X243064300Y-127476000D02*
X244069000Y-128480700D01*
X244069000Y-128480700D02*
X259423000Y-128480700D01*
X259423000Y-128480700D02*
X260338700Y-127565000D01*
X184614400Y-127578000D02*
X184176700Y-127578000D01*
X127413400Y-127600000D02*
X126975700Y-127600000D01*
X108814000Y-127489000D02*
X109689300Y-127489000D01*
X109689300Y-127489000D02*
X110746700Y-128546400D01*
X110746700Y-128546400D02*
X126029300Y-128546400D01*
X126029300Y-128546400D02*
X126975700Y-127600000D01*
X88255900Y-144579300D02*
X88255900Y-131555500D01*
X110154200Y-165896400D02*
X104570400Y-165896400D01*
X86477600Y-147328900D02*
X86477600Y-145979400D01*
X104570400Y-165896400D02*
X103012000Y-164338000D01*
X103012000Y-164338000D02*
X101041200Y-164338000D01*
X89871200Y-150722500D02*
X86477600Y-147328900D01*
X101041200Y-164338000D02*
X98069400Y-161366200D01*
X94137500Y-155315900D02*
X94137500Y-150722500D01*
X88255900Y-131555500D02*
X85199800Y-128499400D01*
X98069400Y-161366200D02*
X93649800Y-161366200D01*
X93649800Y-161366200D02*
X93649800Y-155803600D01*
X93649800Y-155803600D02*
X94137500Y-155315900D01*
X94137500Y-150722500D02*
X89871200Y-150722500D01*
X86477600Y-145979400D02*
X87084200Y-145372800D01*
X87462400Y-145372800D02*
X88255900Y-144579300D01*
X87084200Y-145372800D02*
X87462400Y-145372800D01*
%TO.N,ROW3*%
X108855200Y-164183300D02*
X110593800Y-164183300D01*
X110593800Y-164183300D02*
X111897800Y-165487300D01*
X111897800Y-165487300D02*
X115386800Y-165487300D01*
X115386800Y-165487300D02*
X116511800Y-166612300D01*
X116511800Y-166612300D02*
X121914000Y-166612300D01*
X121914000Y-166612300D02*
X122399900Y-166126400D01*
X122399900Y-166126400D02*
X122995600Y-166126400D01*
X122995600Y-166126400D02*
X124463400Y-164658600D01*
X124463400Y-164658600D02*
X141758500Y-164658600D01*
X141758500Y-164658600D02*
X142054100Y-164363000D01*
X142054100Y-164363000D02*
X149078700Y-164363000D01*
X102117100Y-151695800D02*
X101102800Y-151695800D01*
X101102800Y-151695800D02*
X99379600Y-153419000D01*
X88251300Y-146650000D02*
X92610600Y-146650000D01*
X92610600Y-146650000D02*
X99379600Y-153419000D01*
X150154000Y-164363000D02*
X149078700Y-164363000D01*
X156426000Y-147477300D02*
X155946900Y-147956400D01*
X155946900Y-147956400D02*
X155946900Y-152613000D01*
X156426000Y-147039600D02*
X157584400Y-147039600D01*
X157584400Y-147039600D02*
X157752900Y-146871100D01*
X211347100Y-147965600D02*
X212700700Y-146612000D01*
X213576000Y-146612000D02*
X212700700Y-146612000D01*
X175501000Y-147097000D02*
X174625700Y-147097000D01*
X174625700Y-147097000D02*
X174146500Y-147576200D01*
X174146500Y-147576200D02*
X164547300Y-147576200D01*
X164547300Y-147576200D02*
X163979200Y-147008100D01*
X156426000Y-147039600D02*
X156426000Y-147477300D01*
X156426000Y-146602000D02*
X156426000Y-147039600D01*
X289763000Y-147449300D02*
X289505500Y-147706800D01*
X289505500Y-147706800D02*
X289505500Y-148723300D01*
X194602000Y-146688000D02*
X191382600Y-146688000D01*
X191382600Y-146688000D02*
X185519400Y-140824800D01*
X185519400Y-140824800D02*
X177708500Y-140824800D01*
X177708500Y-140824800D02*
X176376300Y-142157000D01*
X176376300Y-142157000D02*
X176376300Y-145346400D01*
X176376300Y-145346400D02*
X175501000Y-146221700D01*
X359334700Y-150272000D02*
X352263100Y-157343600D01*
X352263100Y-157343600D02*
X332126900Y-157343600D01*
X332126900Y-157343600D02*
X328371300Y-161099200D01*
X328371300Y-161099200D02*
X328371300Y-163125400D01*
X328371300Y-163125400D02*
X328212300Y-163284400D01*
X328212300Y-163284400D02*
X325339900Y-163284400D01*
X325339900Y-163284400D02*
X324001400Y-161945900D01*
X324001400Y-161945900D02*
X324001400Y-155843800D01*
X324001400Y-155843800D02*
X315951000Y-147793400D01*
X315951000Y-147793400D02*
X315951000Y-147411300D01*
X289763000Y-146574000D02*
X289763000Y-147449300D01*
X359031100Y-149871100D02*
X359334700Y-150174700D01*
X359334700Y-150174700D02*
X359334700Y-150272000D01*
X342163000Y-146574000D02*
X345117300Y-146574000D01*
X345117300Y-146574000D02*
X346521000Y-147977700D01*
X360210000Y-150272000D02*
X359334700Y-150272000D01*
X315951000Y-146536000D02*
X315951000Y-147411300D01*
X214013700Y-146612000D02*
X213576000Y-146612000D01*
X214013700Y-146612000D02*
X214451300Y-146612000D01*
X289763000Y-146574000D02*
X288887700Y-146574000D01*
X270688000Y-146612000D02*
X271563300Y-146612000D01*
X271563300Y-146612000D02*
X272546900Y-147595600D01*
X272546900Y-147595600D02*
X287866100Y-147595600D01*
X287866100Y-147595600D02*
X288887700Y-146574000D01*
X270250400Y-146612000D02*
X270688000Y-146612000D01*
X270250400Y-146612000D02*
X269812700Y-146612000D01*
X251701000Y-146650000D02*
X252576300Y-146650000D01*
X252576300Y-146650000D02*
X253504800Y-147578500D01*
X253504800Y-147578500D02*
X268846200Y-147578500D01*
X268846200Y-147578500D02*
X269812700Y-146612000D01*
X251263400Y-146650000D02*
X251701000Y-146650000D01*
X118364000Y-146589000D02*
X117488700Y-146589000D01*
X116341000Y-148061800D02*
X117488700Y-146914100D01*
X117488700Y-146914100D02*
X117488700Y-146589000D01*
X175501000Y-147097000D02*
X175501000Y-146221700D01*
X251263400Y-146650000D02*
X250825700Y-146650000D01*
X136951400Y-146602000D02*
X137389000Y-146602000D01*
X87376000Y-146650000D02*
X88251300Y-146650000D01*
X232626000Y-146589000D02*
X231750700Y-146589000D01*
X214451300Y-146612000D02*
X215391800Y-147552500D01*
X215391800Y-147552500D02*
X230787200Y-147552500D01*
X230787200Y-147552500D02*
X231750700Y-146589000D01*
X232626000Y-146589000D02*
X233501300Y-146589000D01*
X250825700Y-146650000D02*
X249862600Y-147613100D01*
X249862600Y-147613100D02*
X234525400Y-147613100D01*
X234525400Y-147613100D02*
X233501300Y-146589000D01*
X136951400Y-146602000D02*
X136513700Y-146602000D01*
X118364000Y-146589000D02*
X119239300Y-146589000D01*
X119239300Y-146589000D02*
X120220600Y-147570300D01*
X120220600Y-147570300D02*
X135545400Y-147570300D01*
X135545400Y-147570300D02*
X136513700Y-146602000D01*
X99308013Y-155360370D02*
X101224443Y-157276800D01*
X99308013Y-153723893D02*
X99308013Y-155360370D01*
X99379600Y-153652306D02*
X99308013Y-153723893D01*
X99379600Y-153419000D02*
X99379600Y-153652306D01*
X101224443Y-157276800D02*
X105448100Y-157276800D01*
X105448100Y-160776200D02*
X108855200Y-164183300D01*
X105448100Y-157276800D02*
X105448100Y-160776200D01*
%TO.N,ROW4*%
X102539300Y-165725000D02*
X103468600Y-166654300D01*
X103468600Y-166654300D02*
X115916900Y-166654300D01*
X115916900Y-166654300D02*
X116325200Y-167062600D01*
X116325200Y-167062600D02*
X122109100Y-167062600D01*
X122109100Y-167062600D02*
X122292300Y-166879400D01*
X122292300Y-166879400D02*
X123396200Y-166879400D01*
X123396200Y-166879400D02*
X123396300Y-166879400D01*
X126364300Y-165662000D02*
X141392000Y-165662000D01*
X141392000Y-165662000D02*
X142188100Y-164865900D01*
X142188100Y-164865900D02*
X148781600Y-164865900D01*
X148781600Y-164865900D02*
X149078700Y-165163000D01*
X123396300Y-166879400D02*
X123621400Y-167104600D01*
X123621400Y-167104600D02*
X123621400Y-168003300D01*
X123621400Y-168003300D02*
X124467000Y-168848900D01*
X123396300Y-166879400D02*
X124613700Y-165662000D01*
X125489000Y-165662000D02*
X124613700Y-165662000D01*
X323126000Y-165713000D02*
X323126000Y-164837700D01*
X292130600Y-165789000D02*
X294467500Y-163452100D01*
X294467500Y-163452100D02*
X294467500Y-154847300D01*
X294467500Y-154847300D02*
X301748400Y-147566400D01*
X301748400Y-147566400D02*
X302914100Y-147566400D01*
X313130800Y-147566400D02*
X319501700Y-153937300D01*
X319501700Y-153937300D02*
X319501700Y-161213400D01*
X319501700Y-161213400D02*
X323126000Y-164837700D01*
X292130600Y-165789000D02*
X291364700Y-165789000D01*
X292240000Y-165789000D02*
X292130600Y-165789000D01*
X196114700Y-165776000D02*
X195622900Y-165776000D01*
X195622900Y-165776000D02*
X194297300Y-167101600D01*
X194297300Y-167101600D02*
X185049400Y-167101600D01*
X185049400Y-167101600D02*
X184217000Y-167934000D01*
X323126000Y-165713000D02*
X324001300Y-165713000D01*
X267513700Y-165674000D02*
X267513700Y-166391300D01*
X267513700Y-166391300D02*
X267177900Y-166727100D01*
X268389000Y-165674000D02*
X267513700Y-165674000D01*
X196990000Y-165776000D02*
X196114700Y-165776000D01*
X149616400Y-165163000D02*
X150154000Y-165163000D01*
X149616400Y-165163000D02*
X149078700Y-165163000D01*
X360261000Y-169307000D02*
X359385700Y-169307000D01*
X342202000Y-165471000D02*
X343077300Y-165471000D01*
X343077300Y-165471000D02*
X344180700Y-166574400D01*
X344180700Y-166574400D02*
X356653100Y-166574400D01*
X356653100Y-166574400D02*
X359385700Y-169307000D01*
X341764400Y-165471000D02*
X342202000Y-165471000D01*
X101664000Y-165725000D02*
X100788700Y-165725000D01*
X77838300Y-165649000D02*
X78713600Y-165649000D01*
X78713600Y-165649000D02*
X79664900Y-166600300D01*
X79664900Y-166600300D02*
X99913400Y-166600300D01*
X99913400Y-166600300D02*
X100788700Y-165725000D01*
X101664000Y-165725000D02*
X102539300Y-165725000D01*
X125489000Y-165662000D02*
X126364300Y-165662000D01*
X268826700Y-165674000D02*
X268389000Y-165674000D01*
X268826700Y-165674000D02*
X269264300Y-165674000D01*
X341764400Y-165471000D02*
X341326700Y-165471000D01*
X324001300Y-165713000D02*
X324886600Y-166598300D01*
X324886600Y-166598300D02*
X340199400Y-166598300D01*
X340199400Y-166598300D02*
X341326700Y-165471000D01*
X269264300Y-165674000D02*
X270243600Y-166653300D01*
X270243600Y-166653300D02*
X290500400Y-166653300D01*
X290500400Y-166653300D02*
X291364700Y-165789000D01*
%TO.N,Net-(D46-Pad2)*%
X263965000Y-82981800D02*
X263965000Y-84557100D01*
X266014000Y-86753700D02*
X266014000Y-85878400D01*
X266014000Y-85878400D02*
X264692700Y-84557100D01*
X264692700Y-84557100D02*
X263965000Y-84557100D01*
%TO.N,Connector_D+*%
X141174200Y-135624600D02*
X148284400Y-128514400D01*
X148284400Y-128514400D02*
X148284400Y-126554800D01*
X148284400Y-126554800D02*
X147834000Y-126104400D01*
X147834000Y-126104400D02*
X147834000Y-120957100D01*
X147834000Y-120957100D02*
X143012400Y-116135500D01*
X143012400Y-116135500D02*
X142607800Y-116135500D01*
X140451800Y-108746300D02*
X140451800Y-106590300D01*
X140451800Y-106590300D02*
X138526600Y-104665100D01*
X138526600Y-104665100D02*
X138526600Y-98117400D01*
X138526600Y-98117400D02*
X132728500Y-92319300D01*
X132728500Y-92319300D02*
X130710000Y-92319300D01*
X130710000Y-92319300D02*
X130247800Y-92781500D01*
X130247800Y-92781500D02*
X130247800Y-95016700D01*
X130247800Y-95016700D02*
X130698100Y-95467000D01*
X153854000Y-156918200D02*
X153854000Y-156780800D01*
X153854000Y-156780800D02*
X162699100Y-147935700D01*
X162699100Y-147935700D02*
X162699100Y-146724200D01*
X162699100Y-146724200D02*
X165626900Y-143796400D01*
X165626900Y-143796400D02*
X165626900Y-135676600D01*
X204798000Y-161757000D02*
X204798000Y-161722200D01*
X204798000Y-161722200D02*
X205790300Y-160729900D01*
X131798400Y-95467000D02*
X130698100Y-95467000D01*
%TO.N,Connector_D-*%
X142548300Y-148436600D02*
X139414600Y-145302900D01*
X139414600Y-145302900D02*
X139414600Y-139046900D01*
X139414600Y-139046900D02*
X149185000Y-129276500D01*
X149185000Y-129276500D02*
X149185000Y-125956300D01*
X149185000Y-125956300D02*
X148734700Y-125506000D01*
X148734700Y-125506000D02*
X148734700Y-119295800D01*
X148734700Y-119295800D02*
X143124600Y-113685700D01*
X132903200Y-94203500D02*
X136112500Y-97412800D01*
X136112500Y-97412800D02*
X136112500Y-99851500D01*
X136112500Y-99851500D02*
X134806300Y-101157700D01*
X134806300Y-101157700D02*
X134806300Y-103525900D01*
X134806300Y-103525900D02*
X137800300Y-106519900D01*
X137800300Y-106519900D02*
X137800300Y-108712400D01*
X131802900Y-94203500D02*
X132903200Y-94203500D01*
X222212000Y-157188000D02*
X222212000Y-154750400D01*
X222212000Y-154750400D02*
X220325400Y-152863800D01*
%TD*%
M02*
