%TF.GenerationSoftware,KiCad,Pcbnew,(5.1.12)-1*%
%TF.CreationDate,2022-03-05T19:22:20+03:30*%
%TF.ProjectId,JKB67,4a4b4236-372e-46b6-9963-61645f706362,rev?*%
%TF.SameCoordinates,Original*%
%TF.FileFunction,Copper,L1,Top*%
%TF.FilePolarity,Positive*%
%FSLAX46Y46*%
G04 Gerber Fmt 4.6, Leading zero omitted, Abs format (unit mm)*
G04 Created by KiCad (PCBNEW (5.1.12)-1) date 2022-03-05 19:22:20*
%MOMM*%
%LPD*%
G01*
G04 APERTURE LIST*
%TA.AperFunction,ViaPad*%
%ADD10C,0.800000*%
%TD*%
%TA.AperFunction,Conductor*%
%ADD11C,0.300000*%
%TD*%
%TA.AperFunction,Conductor*%
%ADD12C,0.250000*%
%TD*%
G04 APERTURE END LIST*
D10*
%TO.N,GND*%
X81924600Y-91271600D03*
X98888300Y-91261500D03*
X150822600Y-132250200D03*
X255914300Y-167983500D03*
X227593100Y-168019900D03*
X324519000Y-129375100D03*
X332202400Y-129375100D03*
X152375700Y-129318200D03*
X141067800Y-129318200D03*
X324620800Y-109206800D03*
X321011400Y-109206800D03*
X213789900Y-155167500D03*
X206869300Y-155272100D03*
X194570800Y-93495300D03*
X200328400Y-96887300D03*
X156985100Y-166498200D03*
X159854000Y-166498200D03*
X152825600Y-166617000D03*
X330251500Y-148407000D03*
X286659800Y-148453700D03*
X303156400Y-148898700D03*
%TO.N,Net-(C8-Pad1)*%
X208109900Y-161177600D03*
X163333200Y-163271000D03*
X172645500Y-166597000D03*
%TO.N,COL12*%
X295683700Y-132947800D03*
X301233100Y-110663600D03*
X292312600Y-154181700D03*
X307362500Y-156590400D03*
X284978800Y-153577000D03*
X165783500Y-164260000D03*
X305829100Y-94485900D03*
X290614700Y-90931100D03*
%TO.N,VBUS*%
X89996200Y-96672700D03*
X159169100Y-171442500D03*
X145402800Y-96672700D03*
X127321700Y-96672700D03*
X335124900Y-172031500D03*
X323519600Y-169807300D03*
X121581200Y-170317800D03*
X112849600Y-170413800D03*
X131209300Y-110250400D03*
X164760700Y-133376400D03*
X152946500Y-164238300D03*
X203418500Y-164905700D03*
X220099500Y-165825600D03*
%TO.N,Net-(C9-Pad2)*%
X148475400Y-160847900D03*
X214078200Y-156410800D03*
%TO.N,Net-(C10-Pad1)*%
X156741900Y-156423900D03*
X204215000Y-157478700D03*
%TO.N,Net-(R4-Pad1)*%
X158421300Y-153261800D03*
X205436300Y-152813300D03*
%TO.N,Net-(R5-Pad1)*%
X154762900Y-154740900D03*
X217466200Y-154442200D03*
%TO.N,/RESET*%
X166133000Y-156270600D03*
X210462200Y-160730000D03*
%TO.N,RGB_DIN*%
X64849700Y-97645700D03*
X60860500Y-100145600D03*
X63910800Y-151136900D03*
X133901100Y-157337100D03*
%TO.N,Net-(U2-Pad5)*%
X76892700Y-110568800D03*
X92666700Y-110354500D03*
%TO.N,Net-(U2-Pad4)*%
X74431900Y-114003400D03*
X353852300Y-99146000D03*
%TO.N,Net-(U3-Pad5)*%
X81569300Y-133232000D03*
X97696500Y-133232000D03*
%TO.N,Net-(U3-Pad4)*%
X73008000Y-134131400D03*
X346548600Y-121416200D03*
%TO.N,Net-(U13-Pad4)*%
X82962500Y-148328100D03*
X105838500Y-150190300D03*
%TO.N,Net-(U4-Pad4)*%
X75251300Y-150683500D03*
X357858600Y-132042000D03*
%TO.N,Net-(U5-Pad4)*%
X73070200Y-151218300D03*
X357340600Y-149439100D03*
%TO.N,Net-(U10-Pad4)*%
X90079200Y-94941900D03*
X102158100Y-94941900D03*
%TO.N,COL1*%
X102153700Y-156456100D03*
X91235600Y-156550600D03*
X155302200Y-161807200D03*
%TO.N,Net-(U14-Pad5)*%
X121816600Y-168176400D03*
X174047400Y-168713300D03*
%TO.N,COL3*%
X120260100Y-91273000D03*
X124303800Y-95838800D03*
X123868300Y-109792800D03*
X132338600Y-116339700D03*
X138886500Y-147620700D03*
X136987100Y-151350400D03*
X144488600Y-162407000D03*
X145416400Y-166561300D03*
%TO.N,Net-(U19-Pad5)*%
X143594100Y-131425000D03*
X160469000Y-133123800D03*
%TO.N,COL4*%
X141015000Y-145877600D03*
X134954600Y-151374700D03*
X139021100Y-163482900D03*
X143273600Y-166561300D03*
X147839000Y-108724500D03*
X145884200Y-114825300D03*
%TO.N,Net-(U26-Pad5)*%
X152938500Y-149396900D03*
X162748600Y-150486000D03*
%TO.N,COL5*%
X159379400Y-147596400D03*
X140124300Y-151791900D03*
X145531300Y-162408800D03*
X146388600Y-166076600D03*
X163178200Y-128902400D03*
X163210900Y-133293600D03*
X165979300Y-108722100D03*
X163555800Y-113906300D03*
X153667300Y-89704200D03*
X159195700Y-95739300D03*
%TO.N,COL6*%
X180331400Y-158992000D03*
X154569200Y-165772800D03*
X176475700Y-89673600D03*
X188625900Y-97223300D03*
X177255200Y-142303800D03*
X176226700Y-141275300D03*
X180764700Y-133029000D03*
X174795500Y-127808700D03*
X184330800Y-114790600D03*
X184330800Y-109842600D03*
%TO.N,Net-(U34-Pad5)*%
X189333900Y-152323300D03*
X202107900Y-152323300D03*
%TO.N,Net-(U35-Pad5)*%
X247570400Y-167332600D03*
X195337400Y-167294600D03*
%TO.N,COL7*%
X186118500Y-157953700D03*
X155142400Y-167817600D03*
X207262600Y-127797900D03*
X199637000Y-133299400D03*
X205061500Y-108714600D03*
X206775600Y-114788100D03*
X204163800Y-94974200D03*
X192568400Y-91155000D03*
%TO.N,COL8*%
X189458600Y-157532800D03*
X157747600Y-168253800D03*
X224147100Y-108692500D03*
X216326000Y-95757300D03*
X215560900Y-91119600D03*
X219716600Y-132701600D03*
X225637800Y-128914100D03*
%TO.N,COL9*%
X238363200Y-146885500D03*
X252286700Y-151819400D03*
X229687900Y-89737100D03*
X240322400Y-96828700D03*
X243260300Y-108735000D03*
X245292800Y-114793900D03*
X244871800Y-127148000D03*
X238557000Y-132861900D03*
%TO.N,COL10*%
X253617700Y-146539900D03*
X248016400Y-151100000D03*
X264845700Y-127385800D03*
X257162600Y-133118700D03*
X249543300Y-89891600D03*
X255252600Y-95795600D03*
X258360200Y-107921200D03*
X252764200Y-113938500D03*
%TO.N,COL11*%
X232323600Y-152893300D03*
X232323600Y-162130700D03*
X168821300Y-164252200D03*
X280407400Y-94914500D03*
X271351000Y-89650900D03*
X277852700Y-108937600D03*
X282754200Y-114778100D03*
X288428100Y-149204000D03*
X285788600Y-151801000D03*
X276115500Y-133052200D03*
X278453600Y-127998200D03*
%TO.N,Net-(U57-Pad5)*%
X303842000Y-150885100D03*
X291129400Y-148797600D03*
%TO.N,Net-(U61-Pad5)*%
X327449800Y-146750900D03*
X310981100Y-146750900D03*
%TO.N,Net-(U64-Pad5)*%
X329076400Y-131309600D03*
X348620400Y-132261500D03*
%TO.N,COL14*%
X167678400Y-163798100D03*
X187203900Y-160205400D03*
X202079700Y-133396900D03*
X220467200Y-127822000D03*
X228654700Y-118048400D03*
X300320800Y-109112000D03*
X308312200Y-94129400D03*
X313881200Y-91631000D03*
%TO.N,Net-(U60-Pad5)*%
X327035500Y-113953600D03*
X313858900Y-113953600D03*
%TO.N,Net-(U63-Pad5)*%
X350140800Y-114174900D03*
X333610700Y-111594300D03*
%TO.N,COL13*%
X329347700Y-149611700D03*
X328067300Y-151127100D03*
X322687200Y-153427700D03*
X164911600Y-165074700D03*
%TO.N,COL15*%
X197425000Y-138293700D03*
X180204600Y-164849600D03*
X170444500Y-164849600D03*
X353433300Y-101991700D03*
X348391300Y-101991700D03*
X345802000Y-139691200D03*
X359790200Y-151452500D03*
%TO.N,ROW0*%
X102758300Y-153420700D03*
X151802200Y-154958900D03*
%TO.N,ROW1*%
X160941500Y-152781400D03*
X141135900Y-148754200D03*
X140825400Y-113662500D03*
X138609100Y-109878800D03*
X357763000Y-109213300D03*
X336317600Y-110134000D03*
X105215200Y-109446500D03*
X80348500Y-109713400D03*
%TO.N,ROW2*%
X148264800Y-167286600D03*
X110154200Y-165896400D03*
X357392600Y-128518600D03*
X328452200Y-128518600D03*
X164422200Y-128499400D03*
X107400300Y-128499400D03*
X85199800Y-128499400D03*
%TO.N,ROW3*%
X211347100Y-147965600D03*
X163979200Y-147008100D03*
X157752900Y-146871100D03*
X155946900Y-152613000D03*
X289505500Y-148723300D03*
X359031100Y-149871100D03*
X346521000Y-147977700D03*
X102117100Y-151695800D03*
X116341000Y-148061800D03*
%TO.N,ROW4*%
X313130800Y-147566400D03*
X302914100Y-147566400D03*
X124467000Y-168848900D03*
X267177900Y-166727100D03*
X184217000Y-167934000D03*
%TO.N,Connector_D+*%
X140451800Y-108746300D03*
X142607800Y-116135500D03*
X141174200Y-135624600D03*
X165626900Y-135676600D03*
X153854000Y-156918200D03*
X205790300Y-160729900D03*
%TO.N,Connector_D-*%
X137800300Y-108712400D03*
X143124600Y-113685700D03*
X142548300Y-148436600D03*
X220325400Y-152863800D03*
%TD*%
D11*
%TO.N,GND*%
X98888300Y-91261500D02*
X81934700Y-91261500D01*
X81934700Y-91261500D02*
X81924600Y-91271600D01*
X150822600Y-129318200D02*
X141067800Y-129318200D01*
X152375700Y-129318200D02*
X150822600Y-129318200D01*
X150822600Y-129318200D02*
X150822600Y-132250200D01*
X321011400Y-109206800D02*
X324620800Y-109206800D01*
X156985100Y-166498200D02*
X156866300Y-166617000D01*
X156866300Y-166617000D02*
X152825600Y-166617000D01*
X227593100Y-168019900D02*
X227663000Y-168089800D01*
X227663000Y-168089800D02*
X255808000Y-168089800D01*
X255808000Y-168089800D02*
X255914300Y-167983500D01*
X332202400Y-129375100D02*
X324519000Y-129375100D01*
X303156400Y-148898700D02*
X302220700Y-147963000D01*
X302220700Y-147963000D02*
X289204800Y-147963000D01*
X289204800Y-147963000D02*
X288714200Y-148453600D01*
X288714200Y-148453600D02*
X288714200Y-148453700D01*
X288714200Y-148453700D02*
X286659800Y-148453700D01*
X303156400Y-148898700D02*
X303648100Y-148407000D01*
X303648100Y-148407000D02*
X330251500Y-148407000D01*
X206869300Y-155272100D02*
X206973900Y-155167500D01*
X206973900Y-155167500D02*
X213789900Y-155167500D01*
X200328400Y-96887300D02*
X197962800Y-96887300D01*
X197962800Y-96887300D02*
X194570800Y-93495300D01*
X159854000Y-166498200D02*
X156985100Y-166498200D01*
D12*
%TO.N,Net-(C8-Pad1)*%
X163634600Y-163572400D02*
X163333200Y-163271000D01*
X208109900Y-161177600D02*
X207832300Y-161455200D01*
X207832300Y-161455200D02*
X190989100Y-161455200D01*
X190989100Y-161455200D02*
X188529900Y-158996000D01*
X188529900Y-158996000D02*
X181353200Y-158996000D01*
X181353200Y-158996000D02*
X180631900Y-159717300D01*
X180631900Y-159717300D02*
X167489700Y-159717300D01*
X167489700Y-159717300D02*
X163634600Y-163572400D01*
X172645500Y-166597000D02*
X165408200Y-166597000D01*
X165408200Y-166597000D02*
X163634600Y-164823400D01*
X163634600Y-164823400D02*
X163634600Y-163572400D01*
%TO.N,COL12*%
X284978800Y-153577000D02*
X258307300Y-153577000D01*
X258307300Y-153577000D02*
X250478900Y-161405400D01*
X250478900Y-161405400D02*
X232023200Y-161405400D01*
X232023200Y-161405400D02*
X231523100Y-161905500D01*
X231523100Y-161905500D02*
X190802500Y-161905500D01*
X190802500Y-161905500D02*
X188343300Y-159446300D01*
X188343300Y-159446300D02*
X183570600Y-159446300D01*
X183570600Y-159446300D02*
X182849300Y-160167600D01*
X182849300Y-160167600D02*
X169875900Y-160167600D01*
X169875900Y-160167600D02*
X165783500Y-164260000D01*
X295683700Y-132947800D02*
X301233100Y-127398400D01*
X301233100Y-127398400D02*
X301233100Y-110663600D01*
X307362500Y-156590400D02*
X307362500Y-155726600D01*
X307362500Y-155726600D02*
X305513900Y-153878000D01*
X305513900Y-153878000D02*
X292616300Y-153878000D01*
X292616300Y-153878000D02*
X292312600Y-154181700D01*
X290614700Y-90931100D02*
X302274300Y-90931100D01*
X302274300Y-90931100D02*
X305829100Y-94485900D01*
D11*
%TO.N,VBUS*%
X127321700Y-96672700D02*
X89996200Y-96672700D01*
X145402800Y-96672700D02*
X127321700Y-96672700D01*
X121581200Y-170317800D02*
X130387600Y-170317800D01*
X130387600Y-170317800D02*
X131378900Y-169326500D01*
X131378900Y-169326500D02*
X150508200Y-169326500D01*
X150508200Y-169326500D02*
X152624200Y-171442500D01*
X152624200Y-171442500D02*
X159169100Y-171442500D01*
X112849600Y-170413800D02*
X113623200Y-171187400D01*
X113623200Y-171187400D02*
X120711600Y-171187400D01*
X120711600Y-171187400D02*
X121581200Y-170317800D01*
X323519600Y-169807300D02*
X330084400Y-169807300D01*
X330084400Y-169807300D02*
X332308600Y-172031500D01*
X332308600Y-172031500D02*
X335124900Y-172031500D01*
D12*
X164760700Y-133376400D02*
X165170900Y-132966200D01*
X165170900Y-132966200D02*
X165170900Y-126580200D01*
X165170900Y-126580200D02*
X161502800Y-122912100D01*
X161502800Y-122912100D02*
X158689600Y-122912100D01*
X158689600Y-122912100D02*
X152713400Y-116935900D01*
X152713400Y-116935900D02*
X142362200Y-116935900D01*
X142362200Y-116935900D02*
X136137300Y-110711000D01*
X136137300Y-110711000D02*
X136137300Y-110527200D01*
X136137300Y-110527200D02*
X135860500Y-110250400D01*
X135860500Y-110250400D02*
X131209300Y-110250400D01*
X203418500Y-165825600D02*
X195780400Y-165825600D01*
X195780400Y-165825600D02*
X194397300Y-167208700D01*
X194397300Y-167208700D02*
X178262800Y-167208700D01*
X178262800Y-167208700D02*
X178084900Y-167386600D01*
X178084900Y-167386600D02*
X155737200Y-167386600D01*
X155737200Y-167386600D02*
X155442900Y-167092300D01*
X155442900Y-167092300D02*
X154842000Y-167092300D01*
X154842000Y-167092300D02*
X154547700Y-167386600D01*
X154547700Y-167386600D02*
X152534700Y-167386600D01*
X152534700Y-167386600D02*
X152060600Y-166912500D01*
X152060600Y-166912500D02*
X152060600Y-165124200D01*
X152060600Y-165124200D02*
X152946500Y-164238300D01*
X220099500Y-165825600D02*
X203418500Y-165825600D01*
X203418500Y-165825600D02*
X203418500Y-164905700D01*
%TO.N,Net-(C9-Pad2)*%
X214078200Y-156410800D02*
X206982300Y-156410800D01*
X206982300Y-156410800D02*
X205666500Y-155095000D01*
X205666500Y-155095000D02*
X165646000Y-155095000D01*
X165646000Y-155095000D02*
X165195700Y-155545300D01*
X165195700Y-155545300D02*
X153778000Y-155545300D01*
X153778000Y-155545300D02*
X148475400Y-160847900D01*
%TO.N,Net-(C10-Pad1)*%
X204215000Y-157478700D02*
X202281600Y-155545300D01*
X202281600Y-155545300D02*
X165832600Y-155545300D01*
X165832600Y-155545300D02*
X164954100Y-156423800D01*
X164954100Y-156423800D02*
X164954100Y-156423900D01*
X164954100Y-156423900D02*
X156741900Y-156423900D01*
%TO.N,Net-(R4-Pad1)*%
X205436300Y-152813300D02*
X205024400Y-152813300D01*
X205024400Y-152813300D02*
X204331000Y-153506700D01*
X204331000Y-153506700D02*
X158666200Y-153506700D01*
X158666200Y-153506700D02*
X158421300Y-153261800D01*
%TO.N,Net-(R5-Pad1)*%
X154762900Y-154740900D02*
X155061600Y-154442200D01*
X155061600Y-154442200D02*
X217466200Y-154442200D01*
%TO.N,/RESET*%
X210462200Y-160730000D02*
X209736800Y-160004600D01*
X209736800Y-160004600D02*
X196450900Y-160004600D01*
X196450900Y-160004600D02*
X192716900Y-156270600D01*
X192716900Y-156270600D02*
X166133000Y-156270600D01*
%TO.N,RGB_DIN*%
X63910800Y-151136900D02*
X69052400Y-151136900D01*
X69052400Y-151136900D02*
X75252600Y-157337100D01*
X75252600Y-157337100D02*
X133901100Y-157337100D01*
X60860500Y-100145600D02*
X63360300Y-97645800D01*
X63360300Y-97645800D02*
X64849700Y-97645800D01*
X64849700Y-97645800D02*
X64849700Y-97645700D01*
%TO.N,Net-(U2-Pad5)*%
X76892700Y-110568800D02*
X92452400Y-110568800D01*
X92452400Y-110568800D02*
X92666700Y-110354500D01*
%TO.N,Net-(U2-Pad4)*%
X353852300Y-99146000D02*
X87289700Y-99146000D01*
X87289700Y-99146000D02*
X74431900Y-112003800D01*
X74431900Y-112003800D02*
X74431900Y-114003400D01*
%TO.N,Net-(U3-Pad5)*%
X97696500Y-133232000D02*
X81569300Y-133232000D01*
%TO.N,Net-(U3-Pad4)*%
X346548600Y-121416200D02*
X340404800Y-127560000D01*
X340404800Y-127560000D02*
X326454200Y-127560000D01*
X326454200Y-127560000D02*
X325473800Y-128540400D01*
X325473800Y-128540400D02*
X301116900Y-128540400D01*
X301116900Y-128540400D02*
X295832600Y-133824700D01*
X295832600Y-133824700D02*
X289736500Y-133824700D01*
X289736500Y-133824700D02*
X289429800Y-134131400D01*
X289429800Y-134131400D02*
X73008000Y-134131400D01*
%TO.N,Net-(U13-Pad4)*%
X105838500Y-150190300D02*
X84824700Y-150190300D01*
X84824700Y-150190300D02*
X82962500Y-148328100D01*
%TO.N,Net-(U4-Pad4)*%
X357858600Y-132042000D02*
X354876800Y-135023800D01*
X354876800Y-135023800D02*
X293248100Y-135023800D01*
X293248100Y-135023800D02*
X292524500Y-134300200D01*
X292524500Y-134300200D02*
X290123200Y-134300200D01*
X290123200Y-134300200D02*
X287365900Y-137057500D01*
X287365900Y-137057500D02*
X137917200Y-137057500D01*
X137917200Y-137057500D02*
X132987300Y-141987400D01*
X132987300Y-141987400D02*
X129270300Y-141987400D01*
X129270300Y-141987400D02*
X124858300Y-146399400D01*
X124858300Y-146399400D02*
X114927300Y-146399400D01*
X114927300Y-146399400D02*
X113789300Y-147537400D01*
X113789300Y-147537400D02*
X78397400Y-147537400D01*
X78397400Y-147537400D02*
X75251300Y-150683500D01*
%TO.N,Net-(U5-Pad4)*%
X357340600Y-149439100D02*
X357340600Y-149788600D01*
X357340600Y-149788600D02*
X354557200Y-152572000D01*
X354557200Y-152572000D02*
X284957800Y-152572000D01*
X284957800Y-152572000D02*
X284507500Y-153022300D01*
X284507500Y-153022300D02*
X245269100Y-153022300D01*
X245269100Y-153022300D02*
X244672800Y-153618600D01*
X244672800Y-153618600D02*
X204896000Y-153618600D01*
X204896000Y-153618600D02*
X204522700Y-153991900D01*
X204522700Y-153991900D02*
X144050700Y-153991900D01*
X144050700Y-153991900D02*
X143026400Y-152967600D01*
X143026400Y-152967600D02*
X103331000Y-152967600D01*
X103331000Y-152967600D02*
X103058800Y-152695400D01*
X103058800Y-152695400D02*
X93969600Y-152695400D01*
X93969600Y-152695400D02*
X92413900Y-151139700D01*
X92413900Y-151139700D02*
X90239600Y-151139700D01*
X90239600Y-151139700D02*
X89259900Y-152119400D01*
X89259900Y-152119400D02*
X73971300Y-152119400D01*
X73971300Y-152119400D02*
X73070200Y-151218300D01*
%TO.N,Net-(U10-Pad4)*%
X102158100Y-94941900D02*
X90079200Y-94941900D01*
%TO.N,COL1*%
X102153700Y-156550600D02*
X91235600Y-156550600D01*
X155302200Y-161807200D02*
X147262800Y-161807200D01*
X147262800Y-161807200D02*
X146992400Y-161536800D01*
X146992400Y-161536800D02*
X141102700Y-161536800D01*
X141102700Y-161536800D02*
X136116500Y-156550600D01*
X136116500Y-156550600D02*
X102153700Y-156550600D01*
X102153700Y-156550600D02*
X102153700Y-156456100D01*
%TO.N,Net-(U14-Pad5)*%
X174047400Y-168713300D02*
X173767500Y-168993200D01*
X173767500Y-168993200D02*
X151484000Y-168993200D01*
X151484000Y-168993200D02*
X150614300Y-168123500D01*
X150614300Y-168123500D02*
X121869500Y-168123500D01*
X121869500Y-168123500D02*
X121816600Y-168176400D01*
%TO.N,COL3*%
X124303800Y-95838800D02*
X123663900Y-95838800D01*
X123663900Y-95838800D02*
X120260100Y-92435000D01*
X120260100Y-92435000D02*
X120260100Y-91273000D01*
X144488600Y-162407000D02*
X144488600Y-165633500D01*
X144488600Y-165633500D02*
X145416400Y-166561300D01*
X132338600Y-116339700D02*
X130415200Y-116339700D01*
X130415200Y-116339700D02*
X123868300Y-109792800D01*
X136987100Y-151350400D02*
X136987100Y-149520100D01*
X136987100Y-149520100D02*
X138886500Y-147620700D01*
%TO.N,Net-(U19-Pad5)*%
X160469000Y-133123800D02*
X145292900Y-133123800D01*
X145292900Y-133123800D02*
X143594100Y-131425000D01*
%TO.N,COL4*%
X139021100Y-163482900D02*
X139021100Y-163483000D01*
X139021100Y-163483000D02*
X140195300Y-163483000D01*
X140195300Y-163483000D02*
X143273600Y-166561300D01*
X134954600Y-151374700D02*
X134954600Y-150517400D01*
X134954600Y-150517400D02*
X139594300Y-145877700D01*
X139594300Y-145877700D02*
X141015000Y-145877700D01*
X141015000Y-145877700D02*
X141015000Y-145877600D01*
X145884200Y-114825300D02*
X147839000Y-112870500D01*
X147839000Y-112870500D02*
X147839000Y-108724500D01*
%TO.N,Net-(U26-Pad5)*%
X162748600Y-150486000D02*
X154027600Y-150486000D01*
X154027600Y-150486000D02*
X152938500Y-149396900D01*
%TO.N,COL5*%
X145531300Y-162408800D02*
X145531300Y-165219300D01*
X145531300Y-165219300D02*
X146388600Y-166076600D01*
X140124300Y-151791900D02*
X140124300Y-148733900D01*
X140124300Y-148733900D02*
X141261800Y-147596400D01*
X141261800Y-147596400D02*
X159379400Y-147596400D01*
X163210900Y-133293600D02*
X163178200Y-133260900D01*
X163178200Y-133260900D02*
X163178200Y-128902400D01*
X163555800Y-113906300D02*
X163555800Y-111145600D01*
X163555800Y-111145600D02*
X165979300Y-108722100D01*
X159195700Y-95739300D02*
X153667300Y-90210900D01*
X153667300Y-90210900D02*
X153667300Y-89704200D01*
%TO.N,COL6*%
X180764700Y-133029000D02*
X180764700Y-131283400D01*
X180764700Y-131283400D02*
X178589600Y-129108300D01*
X178589600Y-129108300D02*
X176095100Y-129108300D01*
X176095100Y-129108300D02*
X174795500Y-127808700D01*
X154569200Y-165772800D02*
X157059700Y-165772800D01*
X157059700Y-165772800D02*
X163840500Y-158992000D01*
X163840500Y-158992000D02*
X180331400Y-158992000D01*
X188625900Y-97223300D02*
X188625900Y-96251000D01*
X188625900Y-96251000D02*
X183371000Y-90996100D01*
X183371000Y-90996100D02*
X177798200Y-90996100D01*
X177798200Y-90996100D02*
X176475700Y-89673600D01*
X177255200Y-142303800D02*
X176226700Y-141275300D01*
X184330800Y-109842600D02*
X184330800Y-114790600D01*
%TO.N,Net-(U34-Pad5)*%
X189333900Y-152323300D02*
X202107900Y-152323300D01*
%TO.N,Net-(U35-Pad5)*%
X247570400Y-167332600D02*
X247532400Y-167294600D01*
X247532400Y-167294600D02*
X195337400Y-167294600D01*
%TO.N,COL7*%
X155142400Y-167817600D02*
X155114400Y-167845600D01*
X155114400Y-167845600D02*
X152334700Y-167845600D01*
X152334700Y-167845600D02*
X151588600Y-167099500D01*
X151588600Y-167099500D02*
X151588600Y-164561100D01*
X151588600Y-164561100D02*
X153119600Y-163030100D01*
X153119600Y-163030100D02*
X157314700Y-163030100D01*
X157314700Y-163030100D02*
X162391100Y-157953700D01*
X162391100Y-157953700D02*
X186118500Y-157953700D01*
X207262600Y-127797900D02*
X206653000Y-127797900D01*
X206653000Y-127797900D02*
X201151600Y-133299300D01*
X201151600Y-133299300D02*
X201151600Y-133299400D01*
X201151600Y-133299400D02*
X199637000Y-133299400D01*
X204163800Y-94974200D02*
X197075500Y-94974200D01*
X197075500Y-94974200D02*
X193256300Y-91155000D01*
X193256300Y-91155000D02*
X192568400Y-91155000D01*
X206775600Y-114788100D02*
X205061500Y-113074000D01*
X205061500Y-113074000D02*
X205061500Y-108714600D01*
%TO.N,COL8*%
X189458600Y-157532800D02*
X189154200Y-157228400D01*
X189154200Y-157228400D02*
X179795500Y-157228400D01*
X179795500Y-157228400D02*
X179577600Y-157446300D01*
X179577600Y-157446300D02*
X161290100Y-157446300D01*
X161290100Y-157446300D02*
X156156700Y-162579700D01*
X156156700Y-162579700D02*
X152928500Y-162579700D01*
X152928500Y-162579700D02*
X151092800Y-164415400D01*
X151092800Y-164415400D02*
X151092800Y-167283200D01*
X151092800Y-167283200D02*
X152352500Y-168542900D01*
X152352500Y-168542900D02*
X157458500Y-168542900D01*
X157458500Y-168542900D02*
X157747600Y-168253800D01*
X224249100Y-128169100D02*
X224147100Y-128067200D01*
X224147100Y-128067200D02*
X224147100Y-108692500D01*
X225637800Y-128914100D02*
X224994000Y-128914100D01*
X224994000Y-128914100D02*
X224249100Y-128169100D01*
X224249100Y-128169100D02*
X219716600Y-132701600D01*
X215560900Y-91119600D02*
X216326000Y-91884700D01*
X216326000Y-91884700D02*
X216326000Y-95757300D01*
%TO.N,COL9*%
X252286700Y-151819400D02*
X252252700Y-151853400D01*
X252252700Y-151853400D02*
X247686900Y-151853400D01*
X247686900Y-151853400D02*
X246662200Y-150828700D01*
X246662200Y-150828700D02*
X246662200Y-149571100D01*
X246662200Y-149571100D02*
X245552700Y-148461600D01*
X245552700Y-148461600D02*
X239939300Y-148461600D01*
X239939300Y-148461600D02*
X238363200Y-146885500D01*
X240322400Y-96828700D02*
X236779500Y-96828700D01*
X236779500Y-96828700D02*
X229687900Y-89737100D01*
X245292800Y-114793900D02*
X245292800Y-110767500D01*
X245292800Y-110767500D02*
X243260300Y-108735000D01*
X238557000Y-132861900D02*
X244270900Y-127148000D01*
X244270900Y-127148000D02*
X244871800Y-127148000D01*
%TO.N,COL10*%
X248016400Y-151100000D02*
X252576500Y-146539900D01*
X252576500Y-146539900D02*
X253617700Y-146539900D01*
X257162600Y-133118700D02*
X262895500Y-127385800D01*
X262895500Y-127385800D02*
X264845700Y-127385800D01*
X255252600Y-95795600D02*
X249543300Y-90086300D01*
X249543300Y-90086300D02*
X249543300Y-89891600D01*
X252764200Y-113938500D02*
X258360100Y-108342600D01*
X258360100Y-108342600D02*
X258360100Y-107921200D01*
X258360100Y-107921200D02*
X258360200Y-107921200D01*
%TO.N,COL11*%
X232323600Y-162130700D02*
X232098500Y-162355800D01*
X232098500Y-162355800D02*
X190615900Y-162355800D01*
X190615900Y-162355800D02*
X190172200Y-161912100D01*
X190172200Y-161912100D02*
X187519400Y-161912100D01*
X187519400Y-161912100D02*
X185667000Y-163764500D01*
X185667000Y-163764500D02*
X185666900Y-163764500D01*
X185666900Y-163764500D02*
X185666900Y-164150700D01*
X185666900Y-164150700D02*
X184355300Y-165462300D01*
X184355300Y-165462300D02*
X181843100Y-165462300D01*
X181843100Y-165462300D02*
X180505100Y-164124300D01*
X180505100Y-164124300D02*
X168949200Y-164124300D01*
X168949200Y-164124300D02*
X168821300Y-164252200D01*
X232323600Y-152893300D02*
X232644900Y-152572000D01*
X232644900Y-152572000D02*
X284095600Y-152572000D01*
X284095600Y-152572000D02*
X284866600Y-151801000D01*
X284866600Y-151801000D02*
X285788600Y-151801000D01*
X288428100Y-149204000D02*
X288385600Y-149204000D01*
X288385600Y-149204000D02*
X285788600Y-151801000D01*
X271351000Y-89650900D02*
X272087300Y-90387200D01*
X272087300Y-90387200D02*
X277944300Y-90387200D01*
X277944300Y-90387200D02*
X280407400Y-92850300D01*
X280407400Y-92850300D02*
X280407400Y-94914500D01*
X282754200Y-114778100D02*
X277852700Y-109876600D01*
X277852700Y-109876600D02*
X277852700Y-108937600D01*
X278453600Y-127998200D02*
X278453600Y-130714100D01*
X278453600Y-130714100D02*
X276115500Y-133052200D01*
%TO.N,Net-(U57-Pad5)*%
X303842000Y-150885100D02*
X293216900Y-150885100D01*
X293216900Y-150885100D02*
X291129400Y-148797600D01*
%TO.N,Net-(U61-Pad5)*%
X310981100Y-146750900D02*
X327449800Y-146750900D01*
%TO.N,Net-(U64-Pad5)*%
X348620400Y-132261500D02*
X347668500Y-131309600D01*
X347668500Y-131309600D02*
X329076400Y-131309600D01*
%TO.N,COL14*%
X167678400Y-163798100D02*
X168385700Y-163090800D01*
X168385700Y-163090800D02*
X180829800Y-163090800D01*
X180829800Y-163090800D02*
X184024000Y-159896600D01*
X184024000Y-159896600D02*
X186895100Y-159896600D01*
X186895100Y-159896600D02*
X187203900Y-160205400D01*
X300320800Y-109112000D02*
X291384400Y-118048400D01*
X291384400Y-118048400D02*
X228654700Y-118048400D01*
X220467200Y-127822000D02*
X219409900Y-128879300D01*
X219409900Y-128879300D02*
X206597300Y-128879300D01*
X206597300Y-128879300D02*
X202079700Y-133396900D01*
X313881200Y-91631000D02*
X310810600Y-91631000D01*
X310810600Y-91631000D02*
X308312200Y-94129400D01*
%TO.N,Net-(U60-Pad5)*%
X313858900Y-113953600D02*
X327035500Y-113953600D01*
%TO.N,Net-(U63-Pad5)*%
X333610700Y-111594300D02*
X347560200Y-111594300D01*
X347560200Y-111594300D02*
X350140800Y-114174900D01*
%TO.N,COL13*%
X164911600Y-165074700D02*
X165411800Y-165574900D01*
X165411800Y-165574900D02*
X174773100Y-165574900D01*
X174773100Y-165574900D02*
X175795200Y-166597000D01*
X175795200Y-166597000D02*
X194165000Y-166597000D01*
X194165000Y-166597000D02*
X197955900Y-162806100D01*
X197955900Y-162806100D02*
X231973300Y-162806100D01*
X231973300Y-162806100D02*
X232023200Y-162856000D01*
X232023200Y-162856000D02*
X251774800Y-162856000D01*
X251774800Y-162856000D02*
X260328500Y-154302300D01*
X260328500Y-154302300D02*
X285279300Y-154302300D01*
X285279300Y-154302300D02*
X286153800Y-153427800D01*
X286153800Y-153427800D02*
X286153800Y-153427700D01*
X286153800Y-153427700D02*
X322687200Y-153427700D01*
X328067300Y-151127100D02*
X329347700Y-149846700D01*
X329347700Y-149846700D02*
X329347700Y-149611700D01*
%TO.N,COL15*%
X180204600Y-164849600D02*
X170444500Y-164849600D01*
X345802000Y-139691200D02*
X344404500Y-138293700D01*
X344404500Y-138293700D02*
X197425000Y-138293700D01*
X359790200Y-151452500D02*
X359790200Y-148480700D01*
X359790200Y-148480700D02*
X351000700Y-139691200D01*
X351000700Y-139691200D02*
X345802000Y-139691200D01*
X353433300Y-101991700D02*
X348391300Y-101991700D01*
%TO.N,ROW0*%
X151802200Y-154958900D02*
X144380800Y-154958900D01*
X144380800Y-154958900D02*
X142842600Y-153420700D01*
X142842600Y-153420700D02*
X102758300Y-153420700D01*
%TO.N,ROW1*%
X138609100Y-109878800D02*
X138226800Y-109496500D01*
X138226800Y-109496500D02*
X124597800Y-109496500D01*
X124597800Y-109496500D02*
X124168800Y-109067500D01*
X124168800Y-109067500D02*
X123567900Y-109067500D01*
X123567900Y-109067500D02*
X123188900Y-109446500D01*
X123188900Y-109446500D02*
X105215200Y-109446500D01*
X105215200Y-109446500D02*
X80615400Y-109446500D01*
X80615400Y-109446500D02*
X80348500Y-109713400D01*
X140825400Y-113662500D02*
X138609100Y-111446200D01*
X138609100Y-111446200D02*
X138609100Y-109878800D01*
X160941500Y-152781400D02*
X160032700Y-151872600D01*
X160032700Y-151872600D02*
X155661600Y-151872600D01*
X155661600Y-151872600D02*
X155446100Y-152088100D01*
X155446100Y-152088100D02*
X144469800Y-152088100D01*
X144469800Y-152088100D02*
X141135900Y-148754200D01*
X357763000Y-109213300D02*
X356842300Y-110134000D01*
X356842300Y-110134000D02*
X336317600Y-110134000D01*
%TO.N,ROW2*%
X110154200Y-165896400D02*
X111544400Y-167286600D01*
X111544400Y-167286600D02*
X148264800Y-167286600D01*
X164422200Y-128499400D02*
X164099900Y-128177100D01*
X164099900Y-128177100D02*
X162877800Y-128177100D01*
X162877800Y-128177100D02*
X162555500Y-128499400D01*
X162555500Y-128499400D02*
X107400300Y-128499400D01*
X328452200Y-128518600D02*
X357392600Y-128518600D01*
X85199800Y-128499400D02*
X107400300Y-128499400D01*
%TO.N,ROW3*%
X102117100Y-151695800D02*
X105358800Y-151695800D01*
X105358800Y-151695800D02*
X106563800Y-150490800D01*
X106563800Y-150490800D02*
X106563800Y-150317000D01*
X106563800Y-150317000D02*
X108819000Y-148061800D01*
X108819000Y-148061800D02*
X116341000Y-148061800D01*
X155946900Y-152613000D02*
X143308700Y-152613000D01*
X143308700Y-152613000D02*
X143213000Y-152517300D01*
X143213000Y-152517300D02*
X120796500Y-152517300D01*
X120796500Y-152517300D02*
X116341000Y-148061800D01*
X163979200Y-147008100D02*
X163842200Y-146871100D01*
X163842200Y-146871100D02*
X157752900Y-146871100D01*
X163979200Y-147008100D02*
X164936700Y-147965600D01*
X164936700Y-147965600D02*
X211347100Y-147965600D01*
X346521000Y-147977700D02*
X342377000Y-152121700D01*
X342377000Y-152121700D02*
X292903900Y-152121700D01*
X292903900Y-152121700D02*
X289505500Y-148723300D01*
X359031100Y-149871100D02*
X357137700Y-147977700D01*
X357137700Y-147977700D02*
X346521000Y-147977700D01*
%TO.N,ROW4*%
X124467000Y-168848900D02*
X150702800Y-168848900D01*
X150702800Y-168848900D02*
X151297400Y-169443500D01*
X151297400Y-169443500D02*
X182707500Y-169443500D01*
X182707500Y-169443500D02*
X184217000Y-167934000D01*
X184217000Y-167934000D02*
X184217000Y-168257400D01*
X184217000Y-168257400D02*
X187148200Y-171188600D01*
X187148200Y-171188600D02*
X224629100Y-171188600D01*
X224629100Y-171188600D02*
X227072500Y-168745200D01*
X227072500Y-168745200D02*
X256250400Y-168745200D01*
X256250400Y-168745200D02*
X258268500Y-166727100D01*
X258268500Y-166727100D02*
X267177900Y-166727100D01*
X313130800Y-147566400D02*
X302914100Y-147566400D01*
%TO.N,Connector_D+*%
X165626900Y-135676600D02*
X141226200Y-135676600D01*
X141226200Y-135676600D02*
X141174200Y-135624600D01*
X205790300Y-160729900D02*
X196314400Y-160729900D01*
X196314400Y-160729900D02*
X192362600Y-156778100D01*
X192362600Y-156778100D02*
X179608900Y-156778100D01*
X179608900Y-156778100D02*
X179391000Y-156996000D01*
X179391000Y-156996000D02*
X160878600Y-156996000D01*
X160878600Y-156996000D02*
X160709700Y-157164900D01*
X160709700Y-157164900D02*
X154100700Y-157164900D01*
X154100700Y-157164900D02*
X153854000Y-156918200D01*
X140451800Y-108746300D02*
X143899600Y-112194100D01*
X143899600Y-112194100D02*
X143899600Y-114843700D01*
X143899600Y-114843700D02*
X142607800Y-116135500D01*
%TO.N,Connector_D-*%
X143124600Y-113685700D02*
X143124600Y-113368500D01*
X143124600Y-113368500D02*
X138468500Y-108712400D01*
X138468500Y-108712400D02*
X137800300Y-108712400D01*
X220325400Y-152863800D02*
X214269700Y-152863800D01*
X214269700Y-152863800D02*
X209854600Y-148448700D01*
X209854600Y-148448700D02*
X174887500Y-148448700D01*
X174887500Y-148448700D02*
X171210300Y-152125900D01*
X171210300Y-152125900D02*
X161311800Y-152125900D01*
X161311800Y-152125900D02*
X160440600Y-151254700D01*
X160440600Y-151254700D02*
X153740100Y-151254700D01*
X153740100Y-151254700D02*
X150922000Y-148436600D01*
X150922000Y-148436600D02*
X142548300Y-148436600D01*
%TD*%
M02*
